M48
INCH,TZ
T1C0.032
T2C0.039
T3C0.039
T4C0.040
T5C0.042
T6C0.045
T7C0.083
T8C0.120
%
G90
G05
T1
X25000Y-33000
X26500Y-40000
X26500Y-43000
X27000Y-33000
X28000Y-44500
X28750Y-41500
X29000Y-29000
X30250Y-41500
X31000Y-29000
X31000Y-44500
X33000Y-29000
X33000Y-44500
X33750Y-41500
X35000Y-29000
X35250Y-41500
X36000Y-44500
X36500Y-33000
X37500Y-40000
X37500Y-43000
X38500Y-33000
X38500Y-44500
X38500Y-48500
X40000Y-44500
X40000Y-48500
X41000Y-30000
X41000Y-32000
X41500Y-35000
X41500Y-39000
X42500Y-40500
X42500Y-42000
X43000Y-35000
X44000Y-37000
X44000Y-38000
X45000Y-35000
X45000Y-37000
X45000Y-38000
X46000Y-37000
X46000Y-38000
X46500Y-40500
X46500Y-42000
X46500Y-49000
X48000Y-30000
X48000Y-32000
X48500Y-40000
X48500Y-42000
X48500Y-49000
X49000Y-30000
X49000Y-32000
X50000Y-35000
X50000Y-39000
X50000Y-49000
X50500Y-40500
X50500Y-42000
X51500Y-35000
X52500Y-37000
X52500Y-38000
X53500Y-35000
X53500Y-37000
X53500Y-38000
X54000Y-44500
X54000Y-46500
X54000Y-49000
X54500Y-37000
X54500Y-38000
X54500Y-40500
X54500Y-42000
X55500Y-44000
X55500Y-48000
X56000Y-30000
X56000Y-32000
X58000Y-47500
X58000Y-48500
X58500Y-34500
X59000Y-45500
X59000Y-47500
X59000Y-48500
X60000Y-47500
X60000Y-48500
X60500Y-34500
X61000Y-45500
X62000Y-31500
X62000Y-35500
X63000Y-40500
X63000Y-44500
X63000Y-46500
X63000Y-48500
X63500Y-30000
X63500Y-31500
X63500Y-35500
X64500Y-40500
X64500Y-44500
X64500Y-46500
X64500Y-48500
X65500Y-30000
X66500Y-37500
X66500Y-39000
X67000Y-43500
X67000Y-44500
X68000Y-43500
X68000Y-44500
X69000Y-43500
X69000Y-44500
X70500Y-33500
X70500Y-35500
X70500Y-37500
X70500Y-39000
T2
X43000Y-30000
X43000Y-33000
X44000Y-30000
X44000Y-33000
X45000Y-30000
X45000Y-33000
X45500Y-44000
X45500Y-47000
X46000Y-30000
X46000Y-33000
X46500Y-44000
X46500Y-47000
X47500Y-44000
X47500Y-47000
X48500Y-44000
X48500Y-47000
X49500Y-44000
X49500Y-47000
X50500Y-44000
X50500Y-47000
X51000Y-30000
X51000Y-33000
X51500Y-44000
X51500Y-47000
X52000Y-30000
X52000Y-33000
X53000Y-30000
X53000Y-33000
X54000Y-30000
X54000Y-33000
X58000Y-37000
X58000Y-38000
X58000Y-39000
X58000Y-40000
X58000Y-41000
X58000Y-42000
X58000Y-43000
X61000Y-37000
X61000Y-38000
X61000Y-39000
X61000Y-40000
X61000Y-41000
X61000Y-42000
X61000Y-43000
X65500Y-32500
X65500Y-35500
X66500Y-32500
X66500Y-35500
X67500Y-32500
X67500Y-35500
X68500Y-32500
X68500Y-35500
T3
X42000Y-26900
X43000Y-26900
X49500Y-26900
X50500Y-26900
X57000Y-26900
X58000Y-26900
X64500Y-26900
X65500Y-26900
T4
X29500Y-36000
X29500Y-38000
X30000Y-31000
X30000Y-33000
X30320Y-26310
X30860Y-25190
X31410Y-26310
X31950Y-25190
X32500Y-26310
X33050Y-25190
X33590Y-26310
X34000Y-31000
X34000Y-33000
X34140Y-25190
X34500Y-36000
X34500Y-38000
X34680Y-26310
T5
X26500Y-29000
X26500Y-30000
X26500Y-31000
X28500Y-47000
X29500Y-47000
X30500Y-47000
X33500Y-47000
X34500Y-47000
X35500Y-47000
X37500Y-29000
X37500Y-30000
X37500Y-31000
T6
X25000Y-35500
X25000Y-36500
X25000Y-37500
X39000Y-35500
X39000Y-36500
X39000Y-37500
X41000Y-40500
X41000Y-41500
X42000Y-45500
X42000Y-46500
X42000Y-47500
X56000Y-40500
X56000Y-41500
X58000Y-30000
X58000Y-31000
X59000Y-30000
X59000Y-31000
X60000Y-30000
X60000Y-31000
X64000Y-38000
X64000Y-39000
X66500Y-47000
X66500Y-48000
X67000Y-41000
X68000Y-30500
X68000Y-41000
X69000Y-30500
X70000Y-30500
T7
X41000Y-24900
X45000Y-24900
X48500Y-24900
X52500Y-24900
X56000Y-24900
X60000Y-24900
X63500Y-24900
X67500Y-24900
T8
X25000Y-23500
X25000Y-48500
X27580Y-25750
X37420Y-25750
X70000Y-23500
X70000Y-48500
T0
M30
