G04 (created by PCBNEW (2013-07-07 BZR 4022)-stable) date 12/07/2015 18:34:43*
%MOIN*%
G04 Gerber Fmt 3.4, Leading zero omitted, Abs format*
%FSLAX34Y34*%
G01*
G70*
G90*
G04 APERTURE LIST*
%ADD10C,0.00590551*%
%ADD11R,0.06X0.06*%
%ADD12C,0.06*%
%ADD13R,0.0787402X0.0787402*%
%ADD14C,0.0787402*%
%ADD15C,0.0688976*%
%ADD16R,0.0688976X0.0688976*%
%ADD17R,0.07X0.07*%
%ADD18C,0.07*%
%ADD19R,0.055X0.055*%
%ADD20C,0.055*%
%ADD21O,0.1378X0.1969*%
%ADD22C,0.063*%
%ADD23C,0.15*%
%ADD24C,0.16*%
%ADD25C,0.03*%
%ADD26C,0.02*%
%ADD27C,0.01*%
G04 APERTURE END LIST*
G54D10*
G54D11*
X51500Y-44000D03*
G54D12*
X50500Y-44000D03*
X49500Y-44000D03*
X48500Y-44000D03*
X47500Y-44000D03*
X46500Y-44000D03*
X45500Y-44000D03*
X45500Y-47000D03*
X46500Y-47000D03*
X47500Y-47000D03*
X48500Y-47000D03*
X49500Y-47000D03*
X50500Y-47000D03*
X51500Y-47000D03*
G54D11*
X58000Y-37000D03*
G54D12*
X58000Y-38000D03*
X58000Y-39000D03*
X58000Y-40000D03*
X58000Y-41000D03*
X58000Y-42000D03*
X58000Y-43000D03*
X61000Y-43000D03*
X61000Y-42000D03*
X61000Y-41000D03*
X61000Y-40000D03*
X61000Y-39000D03*
X61000Y-38000D03*
X61000Y-37000D03*
G54D11*
X65500Y-35500D03*
G54D12*
X66500Y-35500D03*
X67500Y-35500D03*
X68500Y-35500D03*
X68500Y-32500D03*
X67500Y-32500D03*
X66500Y-32500D03*
X65500Y-32500D03*
G54D11*
X54000Y-30000D03*
G54D12*
X53000Y-30000D03*
X52000Y-30000D03*
X51000Y-30000D03*
X51000Y-33000D03*
X52000Y-33000D03*
X53000Y-33000D03*
X54000Y-33000D03*
G54D11*
X46000Y-30000D03*
G54D12*
X45000Y-30000D03*
X44000Y-30000D03*
X43000Y-30000D03*
X43000Y-33000D03*
X44000Y-33000D03*
X45000Y-33000D03*
X46000Y-33000D03*
G54D13*
X37500Y-29000D03*
G54D14*
X37500Y-30000D03*
X37500Y-31000D03*
G54D13*
X26500Y-31000D03*
G54D14*
X26500Y-30000D03*
X26500Y-29000D03*
G54D13*
X30500Y-47000D03*
G54D14*
X29500Y-47000D03*
X28500Y-47000D03*
G54D13*
X35500Y-47000D03*
G54D14*
X34500Y-47000D03*
X33500Y-47000D03*
G54D15*
X45000Y-37000D03*
G54D16*
X46000Y-37000D03*
G54D15*
X44000Y-37000D03*
G54D16*
X46000Y-38000D03*
G54D15*
X45000Y-38000D03*
X44000Y-38000D03*
X53500Y-37000D03*
G54D16*
X54500Y-37000D03*
G54D15*
X52500Y-37000D03*
G54D16*
X54500Y-38000D03*
G54D15*
X53500Y-38000D03*
X52500Y-38000D03*
X68000Y-43500D03*
G54D16*
X69000Y-43500D03*
G54D15*
X67000Y-43500D03*
G54D16*
X69000Y-44500D03*
G54D15*
X68000Y-44500D03*
X67000Y-44500D03*
X59000Y-48500D03*
G54D16*
X58000Y-48500D03*
G54D15*
X60000Y-48500D03*
G54D16*
X58000Y-47500D03*
G54D15*
X59000Y-47500D03*
X60000Y-47500D03*
G54D17*
X39000Y-37500D03*
G54D18*
X39000Y-36500D03*
X39000Y-35500D03*
G54D17*
X25000Y-35500D03*
G54D18*
X25000Y-36500D03*
X25000Y-37500D03*
G54D17*
X58000Y-31000D03*
G54D18*
X58000Y-30000D03*
X59000Y-31000D03*
X59000Y-30000D03*
X60000Y-31000D03*
X60000Y-30000D03*
G54D17*
X67000Y-41000D03*
G54D18*
X68000Y-41000D03*
G54D17*
X70000Y-30500D03*
G54D18*
X69000Y-30500D03*
X68000Y-30500D03*
G54D17*
X34500Y-38000D03*
G54D18*
X34500Y-36000D03*
G54D17*
X29500Y-36000D03*
G54D18*
X29500Y-38000D03*
G54D19*
X33750Y-41500D03*
G54D20*
X35250Y-41500D03*
G54D19*
X28750Y-41500D03*
G54D20*
X30250Y-41500D03*
G54D17*
X42000Y-45500D03*
G54D18*
X42000Y-46500D03*
X42000Y-47500D03*
G54D17*
X66500Y-48000D03*
G54D18*
X66500Y-47000D03*
G54D17*
X64000Y-39000D03*
G54D18*
X64000Y-38000D03*
G54D17*
X56000Y-41500D03*
G54D18*
X56000Y-40500D03*
G54D17*
X41000Y-41500D03*
G54D18*
X41000Y-40500D03*
G54D21*
X48500Y-24900D03*
X52500Y-24900D03*
G54D22*
X50500Y-26900D03*
X49500Y-26900D03*
G54D23*
X37420Y-25750D03*
X27580Y-25750D03*
G54D11*
X34680Y-26310D03*
G54D12*
X33590Y-26310D03*
X32500Y-26310D03*
X31410Y-26310D03*
X30320Y-26310D03*
X30860Y-25190D03*
X31950Y-25190D03*
X33050Y-25190D03*
X34140Y-25190D03*
X50000Y-39000D03*
X50000Y-35000D03*
X46500Y-40500D03*
X42500Y-40500D03*
X46500Y-42000D03*
X42500Y-42000D03*
X41500Y-35000D03*
X41500Y-39000D03*
X50500Y-42000D03*
X54500Y-42000D03*
X40000Y-44500D03*
X40000Y-48500D03*
X38500Y-48500D03*
X38500Y-44500D03*
X54000Y-49000D03*
X50000Y-49000D03*
X55500Y-48000D03*
X55500Y-44000D03*
X54500Y-40500D03*
X50500Y-40500D03*
X63000Y-40500D03*
X63000Y-44500D03*
X64500Y-40500D03*
X64500Y-44500D03*
X70500Y-37500D03*
X66500Y-37500D03*
X70500Y-39000D03*
X66500Y-39000D03*
G54D20*
X53500Y-35000D03*
X51500Y-35000D03*
X29000Y-29000D03*
X31000Y-29000D03*
X35000Y-29000D03*
X33000Y-29000D03*
X70500Y-35500D03*
X70500Y-33500D03*
X65500Y-30000D03*
X63500Y-30000D03*
X27000Y-33000D03*
X25000Y-33000D03*
X36500Y-33000D03*
X38500Y-33000D03*
X64500Y-48500D03*
X64500Y-46500D03*
X63000Y-48500D03*
X63000Y-46500D03*
X61000Y-45500D03*
X59000Y-45500D03*
X60500Y-34500D03*
X58500Y-34500D03*
X41000Y-30000D03*
X41000Y-32000D03*
X46500Y-49000D03*
X48500Y-49000D03*
X48000Y-32000D03*
X48000Y-30000D03*
X54000Y-46500D03*
X54000Y-44500D03*
X49000Y-30000D03*
X49000Y-32000D03*
X56000Y-32000D03*
X56000Y-30000D03*
X48500Y-42000D03*
X48500Y-40000D03*
X45000Y-35000D03*
X43000Y-35000D03*
G54D21*
X41000Y-24900D03*
X45000Y-24900D03*
G54D22*
X43000Y-26900D03*
X42000Y-26900D03*
G54D18*
X30000Y-31000D03*
X30000Y-33000D03*
X34000Y-31000D03*
X34000Y-33000D03*
G54D24*
X70000Y-23500D03*
X70000Y-48500D03*
X25000Y-48500D03*
X25000Y-23500D03*
G54D21*
X56000Y-24900D03*
X60000Y-24900D03*
G54D22*
X58000Y-26900D03*
X57000Y-26900D03*
G54D21*
X63500Y-24900D03*
X67500Y-24900D03*
G54D22*
X65500Y-26900D03*
X64500Y-26900D03*
G54D19*
X28000Y-44500D03*
G54D20*
X31000Y-44500D03*
G54D19*
X33000Y-44500D03*
G54D20*
X36000Y-44500D03*
G54D19*
X26500Y-40000D03*
G54D20*
X26500Y-43000D03*
G54D19*
X37500Y-43000D03*
G54D20*
X37500Y-40000D03*
G54D12*
X63500Y-35500D03*
X63500Y-31500D03*
X62000Y-35500D03*
X62000Y-31500D03*
G54D25*
X28500Y-47000D02*
X28500Y-47750D01*
X32250Y-48250D02*
X33500Y-47000D01*
X29000Y-48250D02*
X32250Y-48250D01*
X28500Y-47750D02*
X29000Y-48250D01*
X28000Y-46500D02*
X28500Y-47000D01*
X28000Y-44500D02*
X28000Y-46500D01*
X36843Y-31656D02*
X37500Y-31000D01*
X30656Y-31656D02*
X36843Y-31656D01*
X30000Y-31000D02*
X30656Y-31656D01*
G54D26*
X65500Y-35500D02*
X65500Y-36500D01*
X65500Y-36500D02*
X66500Y-37500D01*
X42000Y-45500D02*
X42000Y-42500D01*
X42000Y-42500D02*
X42500Y-42000D01*
G54D25*
X36000Y-46500D02*
X35500Y-47000D01*
X36000Y-44500D02*
X36000Y-46500D01*
X35250Y-41500D02*
X36750Y-41500D01*
X36750Y-42250D02*
X36750Y-41500D01*
X37500Y-43000D02*
X36750Y-42250D01*
X38250Y-35500D02*
X39000Y-35500D01*
X36750Y-37000D02*
X38250Y-35500D01*
X36750Y-41500D02*
X36750Y-37000D01*
G54D26*
X40000Y-45500D02*
X42000Y-47500D01*
X40000Y-44500D02*
X40000Y-45500D01*
G54D25*
X69000Y-43500D02*
X69000Y-44500D01*
X59000Y-47500D02*
X60000Y-47500D01*
X60000Y-47500D02*
X60000Y-48500D01*
X60000Y-48500D02*
X59000Y-48500D01*
X59000Y-48500D02*
X59000Y-47500D01*
X46000Y-38000D02*
X46000Y-37000D01*
X54500Y-38000D02*
X54500Y-37000D01*
X34500Y-47000D02*
X34500Y-46000D01*
X34500Y-46000D02*
X33000Y-44500D01*
X29500Y-47000D02*
X29500Y-46000D01*
X29500Y-46000D02*
X31000Y-44500D01*
G54D26*
X61000Y-39000D02*
X61500Y-39000D01*
X61250Y-32250D02*
X60000Y-31000D01*
X61250Y-36000D02*
X61250Y-32250D01*
X61750Y-36500D02*
X61250Y-36000D01*
X61750Y-38750D02*
X61750Y-36500D01*
X61500Y-39000D02*
X61750Y-38750D01*
X63500Y-31500D02*
X66500Y-31500D01*
X66500Y-31500D02*
X67500Y-32500D01*
X45750Y-38750D02*
X45250Y-38750D01*
X47500Y-43750D02*
X47250Y-43500D01*
X47250Y-43500D02*
X47250Y-40250D01*
X47250Y-40250D02*
X45750Y-38750D01*
X47500Y-44000D02*
X47500Y-43750D01*
X45000Y-38500D02*
X45000Y-38000D01*
X45250Y-38750D02*
X45000Y-38500D01*
X45000Y-30000D02*
X45000Y-29900D01*
X45000Y-29900D02*
X42000Y-26900D01*
X70500Y-37500D02*
X67750Y-37500D01*
X66500Y-36250D02*
X66500Y-35500D01*
X67750Y-37500D02*
X66500Y-36250D01*
X63000Y-44500D02*
X63000Y-46500D01*
X53500Y-40000D02*
X49500Y-44000D01*
X53500Y-38000D02*
X53500Y-40000D01*
X50500Y-48500D02*
X50000Y-49000D01*
X50500Y-47000D02*
X50500Y-48500D01*
X64500Y-44500D02*
X64500Y-46500D01*
X56000Y-40500D02*
X54500Y-40500D01*
X54000Y-40500D02*
X54500Y-40500D01*
X50500Y-44000D02*
X54000Y-40500D01*
X46500Y-44000D02*
X46500Y-42000D01*
X49500Y-26900D02*
X49500Y-27000D01*
X53000Y-29500D02*
X53000Y-30000D01*
X52750Y-29250D02*
X53000Y-29500D01*
X51750Y-29250D02*
X52750Y-29250D01*
X49500Y-27000D02*
X51750Y-29250D01*
X54000Y-46500D02*
X57000Y-46500D01*
X57000Y-46500D02*
X58000Y-47500D01*
X45000Y-48500D02*
X40000Y-48500D01*
X46500Y-47000D02*
X45000Y-48500D01*
X59000Y-31000D02*
X59000Y-31500D01*
X59000Y-31500D02*
X59250Y-31750D01*
X59250Y-31750D02*
X59250Y-41250D01*
X59250Y-41250D02*
X58500Y-42000D01*
X58500Y-42000D02*
X58000Y-42000D01*
X54000Y-49000D02*
X53500Y-49000D01*
X53500Y-49000D02*
X51500Y-47000D01*
X58000Y-37000D02*
X58000Y-35500D01*
X57750Y-31250D02*
X58000Y-31000D01*
X57750Y-35250D02*
X57750Y-31250D01*
X58000Y-35500D02*
X57750Y-35250D01*
X54500Y-42000D02*
X55500Y-42000D01*
X55500Y-42000D02*
X56000Y-41500D01*
G54D10*
G36*
X71200Y-47508D02*
X71050Y-47357D01*
X71050Y-38891D01*
X71050Y-37391D01*
X71029Y-37342D01*
X71029Y-33575D01*
X71018Y-33367D01*
X70960Y-33227D01*
X70867Y-33202D01*
X70797Y-33273D01*
X70797Y-33132D01*
X70772Y-33039D01*
X70600Y-32978D01*
X70600Y-30800D01*
X70600Y-30100D01*
X70562Y-30008D01*
X70491Y-29938D01*
X70399Y-29900D01*
X70300Y-29899D01*
X69600Y-29899D01*
X69508Y-29937D01*
X69438Y-30008D01*
X69414Y-30065D01*
X69340Y-29991D01*
X69119Y-29900D01*
X68881Y-29899D01*
X68660Y-29991D01*
X68499Y-30151D01*
X68489Y-30140D01*
X68489Y-25220D01*
X68489Y-24579D01*
X68413Y-24200D01*
X68199Y-23880D01*
X67878Y-23665D01*
X67500Y-23590D01*
X67121Y-23665D01*
X66800Y-23880D01*
X66586Y-24200D01*
X66511Y-24579D01*
X66511Y-25220D01*
X66586Y-25599D01*
X66800Y-25919D01*
X67121Y-26134D01*
X67500Y-26209D01*
X67878Y-26134D01*
X68199Y-25919D01*
X68413Y-25599D01*
X68489Y-25220D01*
X68489Y-30140D01*
X68340Y-29991D01*
X68119Y-29900D01*
X67881Y-29899D01*
X67660Y-29991D01*
X67491Y-30159D01*
X67400Y-30380D01*
X67399Y-30618D01*
X67491Y-30839D01*
X67659Y-31008D01*
X67880Y-31099D01*
X68118Y-31100D01*
X68339Y-31008D01*
X68500Y-30848D01*
X68659Y-31008D01*
X68880Y-31099D01*
X69118Y-31100D01*
X69339Y-31008D01*
X69414Y-30934D01*
X69437Y-30991D01*
X69508Y-31061D01*
X69600Y-31099D01*
X69699Y-31100D01*
X70399Y-31100D01*
X70491Y-31062D01*
X70561Y-30991D01*
X70599Y-30899D01*
X70600Y-30800D01*
X70600Y-32978D01*
X70575Y-32970D01*
X70367Y-32981D01*
X70227Y-33039D01*
X70202Y-33132D01*
X70500Y-33429D01*
X70797Y-33132D01*
X70797Y-33273D01*
X70570Y-33500D01*
X70867Y-33797D01*
X70960Y-33772D01*
X71029Y-33575D01*
X71029Y-37342D01*
X71025Y-37330D01*
X71025Y-35396D01*
X70945Y-35203D01*
X70797Y-35055D01*
X70797Y-35054D01*
X70797Y-33867D01*
X70500Y-33570D01*
X70429Y-33641D01*
X70429Y-33500D01*
X70132Y-33202D01*
X70039Y-33227D01*
X69970Y-33424D01*
X69981Y-33632D01*
X70039Y-33772D01*
X70132Y-33797D01*
X70429Y-33500D01*
X70429Y-33641D01*
X70202Y-33867D01*
X70227Y-33960D01*
X70424Y-34029D01*
X70632Y-34018D01*
X70772Y-33960D01*
X70797Y-33867D01*
X70797Y-35054D01*
X70604Y-34975D01*
X70396Y-34974D01*
X70203Y-35054D01*
X70055Y-35202D01*
X69975Y-35395D01*
X69974Y-35603D01*
X70054Y-35797D01*
X70202Y-35944D01*
X70395Y-36024D01*
X70603Y-36025D01*
X70797Y-35945D01*
X70944Y-35797D01*
X71024Y-35604D01*
X71025Y-35396D01*
X71025Y-37330D01*
X70966Y-37188D01*
X70811Y-37034D01*
X70609Y-36950D01*
X70391Y-36949D01*
X70188Y-37033D01*
X70072Y-37150D01*
X69054Y-37150D01*
X69054Y-32581D01*
X69043Y-32363D01*
X68981Y-32212D01*
X68885Y-32184D01*
X68815Y-32255D01*
X68815Y-32114D01*
X68787Y-32018D01*
X68581Y-31945D01*
X68363Y-31956D01*
X68212Y-32018D01*
X68184Y-32114D01*
X68500Y-32429D01*
X68815Y-32114D01*
X68815Y-32255D01*
X68570Y-32500D01*
X68885Y-32815D01*
X68981Y-32787D01*
X69054Y-32581D01*
X69054Y-37150D01*
X67894Y-37150D01*
X66850Y-36105D01*
X66850Y-35927D01*
X66965Y-35811D01*
X66999Y-35730D01*
X67033Y-35811D01*
X67188Y-35965D01*
X67390Y-36049D01*
X67608Y-36050D01*
X67811Y-35966D01*
X67965Y-35811D01*
X67999Y-35730D01*
X68033Y-35811D01*
X68188Y-35965D01*
X68390Y-36049D01*
X68608Y-36050D01*
X68811Y-35966D01*
X68965Y-35811D01*
X69049Y-35609D01*
X69050Y-35391D01*
X68966Y-35188D01*
X68815Y-35037D01*
X68815Y-32885D01*
X68500Y-32570D01*
X68429Y-32641D01*
X68429Y-32500D01*
X68114Y-32184D01*
X68018Y-32212D01*
X67999Y-32267D01*
X67966Y-32188D01*
X67811Y-32034D01*
X67609Y-31950D01*
X67444Y-31949D01*
X66747Y-31252D01*
X66633Y-31176D01*
X66500Y-31150D01*
X66065Y-31150D01*
X66065Y-26788D01*
X65979Y-26580D01*
X65820Y-26421D01*
X65612Y-26335D01*
X65388Y-26334D01*
X65180Y-26420D01*
X65021Y-26579D01*
X65002Y-26624D01*
X64993Y-26603D01*
X64896Y-26573D01*
X64826Y-26644D01*
X64826Y-26503D01*
X64796Y-26406D01*
X64585Y-26330D01*
X64489Y-26334D01*
X64489Y-25220D01*
X64489Y-24579D01*
X64413Y-24200D01*
X64199Y-23880D01*
X63878Y-23665D01*
X63500Y-23590D01*
X63121Y-23665D01*
X62800Y-23880D01*
X62586Y-24200D01*
X62511Y-24579D01*
X62511Y-25220D01*
X62586Y-25599D01*
X62800Y-25919D01*
X63121Y-26134D01*
X63500Y-26209D01*
X63878Y-26134D01*
X64199Y-25919D01*
X64413Y-25599D01*
X64489Y-25220D01*
X64489Y-26334D01*
X64360Y-26340D01*
X64203Y-26406D01*
X64173Y-26503D01*
X64500Y-26829D01*
X64826Y-26503D01*
X64826Y-26644D01*
X64570Y-26900D01*
X64896Y-27226D01*
X64993Y-27196D01*
X65001Y-27174D01*
X65020Y-27219D01*
X65179Y-27378D01*
X65387Y-27464D01*
X65611Y-27465D01*
X65819Y-27379D01*
X65978Y-27220D01*
X66064Y-27012D01*
X66065Y-26788D01*
X66065Y-31150D01*
X66025Y-31150D01*
X66025Y-29896D01*
X65945Y-29703D01*
X65797Y-29555D01*
X65604Y-29475D01*
X65396Y-29474D01*
X65203Y-29554D01*
X65055Y-29702D01*
X64975Y-29895D01*
X64974Y-30103D01*
X65054Y-30297D01*
X65202Y-30444D01*
X65395Y-30524D01*
X65603Y-30525D01*
X65797Y-30445D01*
X65944Y-30297D01*
X66024Y-30104D01*
X66025Y-29896D01*
X66025Y-31150D01*
X64826Y-31150D01*
X64826Y-27296D01*
X64500Y-26970D01*
X64429Y-27041D01*
X64429Y-26900D01*
X64103Y-26573D01*
X64006Y-26603D01*
X63930Y-26814D01*
X63940Y-27039D01*
X64006Y-27196D01*
X64103Y-27226D01*
X64429Y-26900D01*
X64429Y-27041D01*
X64173Y-27296D01*
X64203Y-27393D01*
X64414Y-27469D01*
X64639Y-27459D01*
X64796Y-27393D01*
X64826Y-27296D01*
X64826Y-31150D01*
X64029Y-31150D01*
X64029Y-30075D01*
X64018Y-29867D01*
X63960Y-29727D01*
X63867Y-29702D01*
X63797Y-29773D01*
X63797Y-29632D01*
X63772Y-29539D01*
X63575Y-29470D01*
X63367Y-29481D01*
X63227Y-29539D01*
X63202Y-29632D01*
X63500Y-29929D01*
X63797Y-29632D01*
X63797Y-29773D01*
X63570Y-30000D01*
X63867Y-30297D01*
X63960Y-30272D01*
X64029Y-30075D01*
X64029Y-31150D01*
X63927Y-31150D01*
X63811Y-31034D01*
X63797Y-31027D01*
X63797Y-30367D01*
X63500Y-30070D01*
X63429Y-30141D01*
X63429Y-30000D01*
X63132Y-29702D01*
X63039Y-29727D01*
X62970Y-29924D01*
X62981Y-30132D01*
X63039Y-30272D01*
X63132Y-30297D01*
X63429Y-30000D01*
X63429Y-30141D01*
X63202Y-30367D01*
X63227Y-30460D01*
X63424Y-30529D01*
X63632Y-30518D01*
X63772Y-30460D01*
X63797Y-30367D01*
X63797Y-31027D01*
X63609Y-30950D01*
X63391Y-30949D01*
X63188Y-31033D01*
X63034Y-31188D01*
X62950Y-31390D01*
X62949Y-31608D01*
X63033Y-31811D01*
X63188Y-31965D01*
X63390Y-32049D01*
X63608Y-32050D01*
X63811Y-31966D01*
X63927Y-31850D01*
X66355Y-31850D01*
X66454Y-31949D01*
X66391Y-31949D01*
X66188Y-32033D01*
X66034Y-32188D01*
X66000Y-32269D01*
X65966Y-32188D01*
X65811Y-32034D01*
X65609Y-31950D01*
X65391Y-31949D01*
X65188Y-32033D01*
X65034Y-32188D01*
X64950Y-32390D01*
X64949Y-32608D01*
X65033Y-32811D01*
X65188Y-32965D01*
X65390Y-33049D01*
X65608Y-33050D01*
X65811Y-32966D01*
X65965Y-32811D01*
X65999Y-32730D01*
X66033Y-32811D01*
X66188Y-32965D01*
X66390Y-33049D01*
X66608Y-33050D01*
X66811Y-32966D01*
X66965Y-32811D01*
X66999Y-32730D01*
X67033Y-32811D01*
X67188Y-32965D01*
X67390Y-33049D01*
X67608Y-33050D01*
X67811Y-32966D01*
X67965Y-32811D01*
X67997Y-32736D01*
X68018Y-32787D01*
X68114Y-32815D01*
X68429Y-32500D01*
X68429Y-32641D01*
X68184Y-32885D01*
X68212Y-32981D01*
X68418Y-33054D01*
X68636Y-33043D01*
X68787Y-32981D01*
X68815Y-32885D01*
X68815Y-35037D01*
X68811Y-35034D01*
X68609Y-34950D01*
X68391Y-34949D01*
X68188Y-35033D01*
X68034Y-35188D01*
X68000Y-35269D01*
X67966Y-35188D01*
X67811Y-35034D01*
X67609Y-34950D01*
X67391Y-34949D01*
X67188Y-35033D01*
X67034Y-35188D01*
X67000Y-35269D01*
X66966Y-35188D01*
X66811Y-35034D01*
X66609Y-34950D01*
X66391Y-34949D01*
X66188Y-35033D01*
X66050Y-35172D01*
X66050Y-35150D01*
X66012Y-35058D01*
X65941Y-34988D01*
X65849Y-34950D01*
X65750Y-34949D01*
X65150Y-34949D01*
X65058Y-34987D01*
X64988Y-35058D01*
X64950Y-35150D01*
X64949Y-35249D01*
X64949Y-35849D01*
X64987Y-35941D01*
X65058Y-36011D01*
X65150Y-36049D01*
X65150Y-36500D01*
X65176Y-36633D01*
X65252Y-36747D01*
X65950Y-37445D01*
X65949Y-37608D01*
X66033Y-37811D01*
X66188Y-37965D01*
X66390Y-38049D01*
X66608Y-38050D01*
X66811Y-37966D01*
X66965Y-37811D01*
X67049Y-37609D01*
X67050Y-37391D01*
X66982Y-37227D01*
X67502Y-37747D01*
X67616Y-37823D01*
X67616Y-37823D01*
X67750Y-37850D01*
X70072Y-37850D01*
X70188Y-37965D01*
X70390Y-38049D01*
X70608Y-38050D01*
X70811Y-37966D01*
X70965Y-37811D01*
X71049Y-37609D01*
X71050Y-37391D01*
X71050Y-38891D01*
X70966Y-38688D01*
X70811Y-38534D01*
X70609Y-38450D01*
X70391Y-38449D01*
X70188Y-38533D01*
X70034Y-38688D01*
X69950Y-38890D01*
X69949Y-39108D01*
X70033Y-39311D01*
X70188Y-39465D01*
X70390Y-39549D01*
X70608Y-39550D01*
X70811Y-39466D01*
X70965Y-39311D01*
X71049Y-39109D01*
X71050Y-38891D01*
X71050Y-47357D01*
X70879Y-47186D01*
X70309Y-46950D01*
X69693Y-46949D01*
X69594Y-46990D01*
X69594Y-44893D01*
X69594Y-44106D01*
X69556Y-44014D01*
X69542Y-44000D01*
X69556Y-43985D01*
X69594Y-43893D01*
X69594Y-43106D01*
X69556Y-43014D01*
X69486Y-42943D01*
X69394Y-42905D01*
X69294Y-42905D01*
X69112Y-42905D01*
X69050Y-42968D01*
X69050Y-43450D01*
X69531Y-43450D01*
X69594Y-43387D01*
X69594Y-43106D01*
X69594Y-43893D01*
X69594Y-43612D01*
X69531Y-43550D01*
X69050Y-43550D01*
X69050Y-43968D01*
X69050Y-44031D01*
X69050Y-44450D01*
X69531Y-44450D01*
X69594Y-44387D01*
X69594Y-44106D01*
X69594Y-44893D01*
X69594Y-44612D01*
X69531Y-44550D01*
X69050Y-44550D01*
X69050Y-45031D01*
X69112Y-45094D01*
X69294Y-45094D01*
X69394Y-45094D01*
X69486Y-45056D01*
X69556Y-44985D01*
X69594Y-44893D01*
X69594Y-46990D01*
X69123Y-47185D01*
X68950Y-47358D01*
X68950Y-45031D01*
X68950Y-44550D01*
X68942Y-44550D01*
X68942Y-44450D01*
X68950Y-44450D01*
X68950Y-44031D01*
X68950Y-43968D01*
X68950Y-43550D01*
X68942Y-43550D01*
X68942Y-43450D01*
X68950Y-43450D01*
X68950Y-42968D01*
X68887Y-42905D01*
X68705Y-42905D01*
X68605Y-42905D01*
X68600Y-42907D01*
X68600Y-40881D01*
X68508Y-40660D01*
X68340Y-40491D01*
X68119Y-40400D01*
X67881Y-40399D01*
X67660Y-40491D01*
X67585Y-40565D01*
X67562Y-40508D01*
X67491Y-40438D01*
X67399Y-40400D01*
X67300Y-40399D01*
X67054Y-40399D01*
X67054Y-39081D01*
X67043Y-38863D01*
X66981Y-38712D01*
X66885Y-38684D01*
X66815Y-38755D01*
X66815Y-38614D01*
X66787Y-38518D01*
X66581Y-38445D01*
X66363Y-38456D01*
X66212Y-38518D01*
X66184Y-38614D01*
X66500Y-38929D01*
X66815Y-38614D01*
X66815Y-38755D01*
X66570Y-39000D01*
X66885Y-39315D01*
X66981Y-39287D01*
X67054Y-39081D01*
X67054Y-40399D01*
X66815Y-40399D01*
X66815Y-39385D01*
X66500Y-39070D01*
X66429Y-39141D01*
X66429Y-39000D01*
X66114Y-38684D01*
X66018Y-38712D01*
X65945Y-38918D01*
X65956Y-39136D01*
X66018Y-39287D01*
X66114Y-39315D01*
X66429Y-39000D01*
X66429Y-39141D01*
X66184Y-39385D01*
X66212Y-39481D01*
X66418Y-39554D01*
X66636Y-39543D01*
X66787Y-39481D01*
X66815Y-39385D01*
X66815Y-40399D01*
X66600Y-40399D01*
X66508Y-40437D01*
X66438Y-40508D01*
X66400Y-40600D01*
X66399Y-40699D01*
X66399Y-41399D01*
X66437Y-41491D01*
X66508Y-41561D01*
X66600Y-41599D01*
X66699Y-41600D01*
X67399Y-41600D01*
X67491Y-41562D01*
X67561Y-41491D01*
X67585Y-41434D01*
X67659Y-41508D01*
X67880Y-41599D01*
X68118Y-41600D01*
X68339Y-41508D01*
X68508Y-41340D01*
X68599Y-41119D01*
X68600Y-40881D01*
X68600Y-42907D01*
X68513Y-42943D01*
X68443Y-43014D01*
X68417Y-43076D01*
X68337Y-42996D01*
X68118Y-42905D01*
X67882Y-42905D01*
X67663Y-42995D01*
X67499Y-43159D01*
X67337Y-42996D01*
X67118Y-42905D01*
X66882Y-42905D01*
X66663Y-42995D01*
X66496Y-43162D01*
X66405Y-43381D01*
X66405Y-43617D01*
X66495Y-43836D01*
X66659Y-44000D01*
X66496Y-44162D01*
X66405Y-44381D01*
X66405Y-44617D01*
X66495Y-44836D01*
X66662Y-45003D01*
X66881Y-45094D01*
X67117Y-45094D01*
X67336Y-45004D01*
X67500Y-44840D01*
X67662Y-45003D01*
X67881Y-45094D01*
X68117Y-45094D01*
X68336Y-45004D01*
X68417Y-44923D01*
X68443Y-44985D01*
X68513Y-45056D01*
X68605Y-45094D01*
X68705Y-45094D01*
X68887Y-45094D01*
X68950Y-45031D01*
X68950Y-47358D01*
X68686Y-47620D01*
X68450Y-48190D01*
X68449Y-48806D01*
X68685Y-49376D01*
X69007Y-49700D01*
X67100Y-49700D01*
X67100Y-46881D01*
X67008Y-46660D01*
X66840Y-46491D01*
X66619Y-46400D01*
X66381Y-46399D01*
X66160Y-46491D01*
X65991Y-46659D01*
X65900Y-46880D01*
X65899Y-47118D01*
X65991Y-47339D01*
X66065Y-47414D01*
X66008Y-47437D01*
X65938Y-47508D01*
X65900Y-47600D01*
X65899Y-47699D01*
X65899Y-48399D01*
X65937Y-48491D01*
X66008Y-48561D01*
X66100Y-48599D01*
X66199Y-48600D01*
X66899Y-48600D01*
X66991Y-48562D01*
X67061Y-48491D01*
X67099Y-48399D01*
X67100Y-48300D01*
X67100Y-47600D01*
X67062Y-47508D01*
X66991Y-47438D01*
X66934Y-47414D01*
X67008Y-47340D01*
X67099Y-47119D01*
X67100Y-46881D01*
X67100Y-49700D01*
X65050Y-49700D01*
X65050Y-44391D01*
X65050Y-40391D01*
X64966Y-40188D01*
X64811Y-40034D01*
X64609Y-39950D01*
X64600Y-39950D01*
X64600Y-37881D01*
X64508Y-37660D01*
X64340Y-37491D01*
X64119Y-37400D01*
X64050Y-37400D01*
X64050Y-35391D01*
X63966Y-35188D01*
X63811Y-35034D01*
X63609Y-34950D01*
X63391Y-34949D01*
X63188Y-35033D01*
X63034Y-35188D01*
X62950Y-35390D01*
X62949Y-35608D01*
X63033Y-35811D01*
X63188Y-35965D01*
X63390Y-36049D01*
X63608Y-36050D01*
X63811Y-35966D01*
X63965Y-35811D01*
X64049Y-35609D01*
X64050Y-35391D01*
X64050Y-37400D01*
X63881Y-37399D01*
X63660Y-37491D01*
X63491Y-37659D01*
X63400Y-37880D01*
X63399Y-38118D01*
X63491Y-38339D01*
X63565Y-38414D01*
X63508Y-38437D01*
X63438Y-38508D01*
X63400Y-38600D01*
X63399Y-38699D01*
X63399Y-39399D01*
X63437Y-39491D01*
X63508Y-39561D01*
X63600Y-39599D01*
X63699Y-39600D01*
X64399Y-39600D01*
X64491Y-39562D01*
X64561Y-39491D01*
X64599Y-39399D01*
X64600Y-39300D01*
X64600Y-38600D01*
X64562Y-38508D01*
X64491Y-38438D01*
X64434Y-38414D01*
X64508Y-38340D01*
X64599Y-38119D01*
X64600Y-37881D01*
X64600Y-39950D01*
X64391Y-39949D01*
X64188Y-40033D01*
X64034Y-40188D01*
X63950Y-40390D01*
X63949Y-40608D01*
X64033Y-40811D01*
X64188Y-40965D01*
X64390Y-41049D01*
X64608Y-41050D01*
X64811Y-40966D01*
X64965Y-40811D01*
X65049Y-40609D01*
X65050Y-40391D01*
X65050Y-44391D01*
X64966Y-44188D01*
X64811Y-44034D01*
X64609Y-43950D01*
X64391Y-43949D01*
X64188Y-44033D01*
X64034Y-44188D01*
X63950Y-44390D01*
X63949Y-44608D01*
X64033Y-44811D01*
X64150Y-44927D01*
X64150Y-46107D01*
X64055Y-46202D01*
X63975Y-46395D01*
X63974Y-46603D01*
X64054Y-46797D01*
X64202Y-46944D01*
X64395Y-47024D01*
X64603Y-47025D01*
X64797Y-46945D01*
X64944Y-46797D01*
X65024Y-46604D01*
X65025Y-46396D01*
X64945Y-46203D01*
X64850Y-46107D01*
X64850Y-44927D01*
X64965Y-44811D01*
X65049Y-44609D01*
X65050Y-44391D01*
X65050Y-49700D01*
X65029Y-49700D01*
X65029Y-48575D01*
X65018Y-48367D01*
X64960Y-48227D01*
X64867Y-48202D01*
X64797Y-48273D01*
X64797Y-48132D01*
X64772Y-48039D01*
X64575Y-47970D01*
X64367Y-47981D01*
X64227Y-48039D01*
X64202Y-48132D01*
X64500Y-48429D01*
X64797Y-48132D01*
X64797Y-48273D01*
X64570Y-48500D01*
X64867Y-48797D01*
X64960Y-48772D01*
X65029Y-48575D01*
X65029Y-49700D01*
X64797Y-49700D01*
X64797Y-48867D01*
X64500Y-48570D01*
X64429Y-48641D01*
X64429Y-48500D01*
X64132Y-48202D01*
X64039Y-48227D01*
X63970Y-48424D01*
X63981Y-48632D01*
X64039Y-48772D01*
X64132Y-48797D01*
X64429Y-48500D01*
X64429Y-48641D01*
X64202Y-48867D01*
X64227Y-48960D01*
X64424Y-49029D01*
X64632Y-49018D01*
X64772Y-48960D01*
X64797Y-48867D01*
X64797Y-49700D01*
X63550Y-49700D01*
X63550Y-44391D01*
X63550Y-40391D01*
X63466Y-40188D01*
X63311Y-40034D01*
X63109Y-39950D01*
X62891Y-39949D01*
X62688Y-40033D01*
X62550Y-40171D01*
X62550Y-35391D01*
X62550Y-31391D01*
X62466Y-31188D01*
X62311Y-31034D01*
X62109Y-30950D01*
X61891Y-30949D01*
X61688Y-31033D01*
X61534Y-31188D01*
X61450Y-31390D01*
X61449Y-31608D01*
X61533Y-31811D01*
X61688Y-31965D01*
X61890Y-32049D01*
X62108Y-32050D01*
X62311Y-31966D01*
X62465Y-31811D01*
X62549Y-31609D01*
X62550Y-31391D01*
X62550Y-35391D01*
X62466Y-35188D01*
X62311Y-35034D01*
X62109Y-34950D01*
X61891Y-34949D01*
X61688Y-35033D01*
X61600Y-35122D01*
X61600Y-32250D01*
X61573Y-32116D01*
X61573Y-32116D01*
X61497Y-32002D01*
X60989Y-31494D01*
X60989Y-25220D01*
X60989Y-24579D01*
X60913Y-24200D01*
X60699Y-23880D01*
X60378Y-23665D01*
X60000Y-23590D01*
X59621Y-23665D01*
X59300Y-23880D01*
X59086Y-24200D01*
X59011Y-24579D01*
X59011Y-25220D01*
X59086Y-25599D01*
X59300Y-25919D01*
X59621Y-26134D01*
X60000Y-26209D01*
X60378Y-26134D01*
X60699Y-25919D01*
X60913Y-25599D01*
X60989Y-25220D01*
X60989Y-31494D01*
X60599Y-31104D01*
X60600Y-30881D01*
X60508Y-30660D01*
X60348Y-30499D01*
X60508Y-30340D01*
X60599Y-30119D01*
X60600Y-29881D01*
X60508Y-29660D01*
X60340Y-29491D01*
X60119Y-29400D01*
X59881Y-29399D01*
X59660Y-29491D01*
X59499Y-29651D01*
X59340Y-29491D01*
X59119Y-29400D01*
X58881Y-29399D01*
X58660Y-29491D01*
X58565Y-29586D01*
X58565Y-26788D01*
X58479Y-26580D01*
X58320Y-26421D01*
X58112Y-26335D01*
X57888Y-26334D01*
X57680Y-26420D01*
X57521Y-26579D01*
X57502Y-26624D01*
X57493Y-26603D01*
X57396Y-26573D01*
X57326Y-26644D01*
X57326Y-26503D01*
X57296Y-26406D01*
X57085Y-26330D01*
X56989Y-26334D01*
X56989Y-25220D01*
X56989Y-24579D01*
X56913Y-24200D01*
X56699Y-23880D01*
X56378Y-23665D01*
X56000Y-23590D01*
X55621Y-23665D01*
X55300Y-23880D01*
X55086Y-24200D01*
X55011Y-24579D01*
X55011Y-25220D01*
X55086Y-25599D01*
X55300Y-25919D01*
X55621Y-26134D01*
X56000Y-26209D01*
X56378Y-26134D01*
X56699Y-25919D01*
X56913Y-25599D01*
X56989Y-25220D01*
X56989Y-26334D01*
X56860Y-26340D01*
X56703Y-26406D01*
X56673Y-26503D01*
X57000Y-26829D01*
X57326Y-26503D01*
X57326Y-26644D01*
X57070Y-26900D01*
X57396Y-27226D01*
X57493Y-27196D01*
X57501Y-27174D01*
X57520Y-27219D01*
X57679Y-27378D01*
X57887Y-27464D01*
X58111Y-27465D01*
X58319Y-27379D01*
X58478Y-27220D01*
X58564Y-27012D01*
X58565Y-26788D01*
X58565Y-29586D01*
X58499Y-29651D01*
X58340Y-29491D01*
X58119Y-29400D01*
X57881Y-29399D01*
X57660Y-29491D01*
X57491Y-29659D01*
X57400Y-29880D01*
X57399Y-30118D01*
X57491Y-30339D01*
X57565Y-30414D01*
X57508Y-30437D01*
X57438Y-30508D01*
X57400Y-30600D01*
X57399Y-30699D01*
X57399Y-31399D01*
X57400Y-31399D01*
X57400Y-35250D01*
X57426Y-35383D01*
X57502Y-35497D01*
X57650Y-35644D01*
X57650Y-36450D01*
X57558Y-36487D01*
X57488Y-36558D01*
X57450Y-36650D01*
X57449Y-36749D01*
X57449Y-37349D01*
X57487Y-37441D01*
X57558Y-37511D01*
X57650Y-37549D01*
X57703Y-37550D01*
X57684Y-37614D01*
X58000Y-37929D01*
X58315Y-37614D01*
X58296Y-37550D01*
X58349Y-37550D01*
X58441Y-37512D01*
X58511Y-37441D01*
X58549Y-37349D01*
X58550Y-37250D01*
X58550Y-36650D01*
X58512Y-36558D01*
X58441Y-36488D01*
X58350Y-36450D01*
X58350Y-35500D01*
X58323Y-35366D01*
X58247Y-35252D01*
X58247Y-35252D01*
X58100Y-35105D01*
X58100Y-34788D01*
X58132Y-34797D01*
X58429Y-34500D01*
X58132Y-34202D01*
X58100Y-34211D01*
X58100Y-31600D01*
X58399Y-31600D01*
X58491Y-31562D01*
X58561Y-31491D01*
X58585Y-31434D01*
X58650Y-31498D01*
X58650Y-31500D01*
X58676Y-31633D01*
X58752Y-31747D01*
X58900Y-31894D01*
X58900Y-34211D01*
X58867Y-34202D01*
X58797Y-34273D01*
X58797Y-34132D01*
X58772Y-34039D01*
X58575Y-33970D01*
X58367Y-33981D01*
X58227Y-34039D01*
X58202Y-34132D01*
X58500Y-34429D01*
X58797Y-34132D01*
X58797Y-34273D01*
X58570Y-34500D01*
X58867Y-34797D01*
X58900Y-34788D01*
X58900Y-41105D01*
X58797Y-41207D01*
X58797Y-34867D01*
X58500Y-34570D01*
X58202Y-34867D01*
X58227Y-34960D01*
X58424Y-35029D01*
X58632Y-35018D01*
X58772Y-34960D01*
X58797Y-34867D01*
X58797Y-41207D01*
X58554Y-41450D01*
X58554Y-41081D01*
X58554Y-40081D01*
X58554Y-39081D01*
X58554Y-38081D01*
X58543Y-37863D01*
X58481Y-37712D01*
X58385Y-37684D01*
X58070Y-38000D01*
X58385Y-38315D01*
X58481Y-38287D01*
X58554Y-38081D01*
X58554Y-39081D01*
X58543Y-38863D01*
X58481Y-38712D01*
X58385Y-38684D01*
X58315Y-38755D01*
X58315Y-38614D01*
X58287Y-38518D01*
X58239Y-38501D01*
X58287Y-38481D01*
X58315Y-38385D01*
X58000Y-38070D01*
X57929Y-38141D01*
X57929Y-38000D01*
X57614Y-37684D01*
X57518Y-37712D01*
X57445Y-37918D01*
X57456Y-38136D01*
X57518Y-38287D01*
X57614Y-38315D01*
X57929Y-38000D01*
X57929Y-38141D01*
X57684Y-38385D01*
X57712Y-38481D01*
X57760Y-38498D01*
X57712Y-38518D01*
X57684Y-38614D01*
X58000Y-38929D01*
X58315Y-38614D01*
X58315Y-38755D01*
X58070Y-39000D01*
X58385Y-39315D01*
X58481Y-39287D01*
X58554Y-39081D01*
X58554Y-40081D01*
X58543Y-39863D01*
X58481Y-39712D01*
X58385Y-39684D01*
X58315Y-39755D01*
X58315Y-39614D01*
X58287Y-39518D01*
X58239Y-39501D01*
X58287Y-39481D01*
X58315Y-39385D01*
X58000Y-39070D01*
X57929Y-39141D01*
X57929Y-39000D01*
X57614Y-38684D01*
X57518Y-38712D01*
X57445Y-38918D01*
X57456Y-39136D01*
X57518Y-39287D01*
X57614Y-39315D01*
X57929Y-39000D01*
X57929Y-39141D01*
X57684Y-39385D01*
X57712Y-39481D01*
X57760Y-39498D01*
X57712Y-39518D01*
X57684Y-39614D01*
X58000Y-39929D01*
X58315Y-39614D01*
X58315Y-39755D01*
X58070Y-40000D01*
X58385Y-40315D01*
X58481Y-40287D01*
X58554Y-40081D01*
X58554Y-41081D01*
X58543Y-40863D01*
X58481Y-40712D01*
X58385Y-40684D01*
X58315Y-40755D01*
X58315Y-40614D01*
X58287Y-40518D01*
X58239Y-40501D01*
X58287Y-40481D01*
X58315Y-40385D01*
X58000Y-40070D01*
X57929Y-40141D01*
X57929Y-40000D01*
X57614Y-39684D01*
X57518Y-39712D01*
X57445Y-39918D01*
X57456Y-40136D01*
X57518Y-40287D01*
X57614Y-40315D01*
X57929Y-40000D01*
X57929Y-40141D01*
X57684Y-40385D01*
X57712Y-40481D01*
X57760Y-40498D01*
X57712Y-40518D01*
X57684Y-40614D01*
X58000Y-40929D01*
X58315Y-40614D01*
X58315Y-40755D01*
X58070Y-41000D01*
X58385Y-41315D01*
X58481Y-41287D01*
X58554Y-41081D01*
X58554Y-41450D01*
X58391Y-41613D01*
X58311Y-41534D01*
X58236Y-41502D01*
X58287Y-41481D01*
X58315Y-41385D01*
X58000Y-41070D01*
X57929Y-41141D01*
X57929Y-41000D01*
X57614Y-40684D01*
X57518Y-40712D01*
X57445Y-40918D01*
X57456Y-41136D01*
X57518Y-41287D01*
X57614Y-41315D01*
X57929Y-41000D01*
X57929Y-41141D01*
X57684Y-41385D01*
X57712Y-41481D01*
X57767Y-41500D01*
X57688Y-41533D01*
X57534Y-41688D01*
X57450Y-41890D01*
X57449Y-42108D01*
X57533Y-42311D01*
X57688Y-42465D01*
X57763Y-42497D01*
X57712Y-42518D01*
X57684Y-42614D01*
X58000Y-42929D01*
X58315Y-42614D01*
X58287Y-42518D01*
X58232Y-42499D01*
X58311Y-42466D01*
X58427Y-42350D01*
X58500Y-42350D01*
X58633Y-42323D01*
X58633Y-42323D01*
X58747Y-42247D01*
X59497Y-41497D01*
X59497Y-41497D01*
X59497Y-41497D01*
X59573Y-41383D01*
X59600Y-41250D01*
X59599Y-41250D01*
X59600Y-41250D01*
X59600Y-31750D01*
X59573Y-31616D01*
X59497Y-31502D01*
X59497Y-31502D01*
X59421Y-31426D01*
X59500Y-31348D01*
X59659Y-31508D01*
X59880Y-31599D01*
X60105Y-31600D01*
X60900Y-32394D01*
X60900Y-34157D01*
X60797Y-34055D01*
X60604Y-33975D01*
X60396Y-33974D01*
X60203Y-34054D01*
X60055Y-34202D01*
X59975Y-34395D01*
X59974Y-34603D01*
X60054Y-34797D01*
X60202Y-34944D01*
X60395Y-35024D01*
X60603Y-35025D01*
X60797Y-34945D01*
X60900Y-34842D01*
X60900Y-36000D01*
X60926Y-36133D01*
X61002Y-36247D01*
X61272Y-36517D01*
X61109Y-36450D01*
X60891Y-36449D01*
X60688Y-36533D01*
X60534Y-36688D01*
X60450Y-36890D01*
X60449Y-37108D01*
X60533Y-37311D01*
X60688Y-37465D01*
X60769Y-37499D01*
X60688Y-37533D01*
X60534Y-37688D01*
X60450Y-37890D01*
X60449Y-38108D01*
X60533Y-38311D01*
X60688Y-38465D01*
X60769Y-38499D01*
X60688Y-38533D01*
X60534Y-38688D01*
X60450Y-38890D01*
X60449Y-39108D01*
X60533Y-39311D01*
X60688Y-39465D01*
X60769Y-39499D01*
X60688Y-39533D01*
X60534Y-39688D01*
X60450Y-39890D01*
X60449Y-40108D01*
X60533Y-40311D01*
X60688Y-40465D01*
X60763Y-40497D01*
X60712Y-40518D01*
X60684Y-40614D01*
X61000Y-40929D01*
X61315Y-40614D01*
X61287Y-40518D01*
X61232Y-40499D01*
X61311Y-40466D01*
X61465Y-40311D01*
X61549Y-40109D01*
X61550Y-39891D01*
X61466Y-39688D01*
X61311Y-39534D01*
X61230Y-39500D01*
X61311Y-39466D01*
X61427Y-39350D01*
X61500Y-39350D01*
X61633Y-39323D01*
X61633Y-39323D01*
X61747Y-39247D01*
X61997Y-38997D01*
X61997Y-38997D01*
X61997Y-38997D01*
X62073Y-38883D01*
X62100Y-38750D01*
X62100Y-36500D01*
X62073Y-36366D01*
X62073Y-36366D01*
X61997Y-36252D01*
X61727Y-35982D01*
X61890Y-36049D01*
X62108Y-36050D01*
X62311Y-35966D01*
X62465Y-35811D01*
X62549Y-35609D01*
X62550Y-35391D01*
X62550Y-40171D01*
X62534Y-40188D01*
X62450Y-40390D01*
X62449Y-40608D01*
X62533Y-40811D01*
X62688Y-40965D01*
X62890Y-41049D01*
X63108Y-41050D01*
X63311Y-40966D01*
X63465Y-40811D01*
X63549Y-40609D01*
X63550Y-40391D01*
X63550Y-44391D01*
X63466Y-44188D01*
X63311Y-44034D01*
X63109Y-43950D01*
X62891Y-43949D01*
X62688Y-44033D01*
X62534Y-44188D01*
X62450Y-44390D01*
X62449Y-44608D01*
X62533Y-44811D01*
X62650Y-44927D01*
X62650Y-46107D01*
X62555Y-46202D01*
X62475Y-46395D01*
X62474Y-46603D01*
X62554Y-46797D01*
X62702Y-46944D01*
X62895Y-47024D01*
X63103Y-47025D01*
X63297Y-46945D01*
X63444Y-46797D01*
X63524Y-46604D01*
X63525Y-46396D01*
X63445Y-46203D01*
X63350Y-46107D01*
X63350Y-44927D01*
X63465Y-44811D01*
X63549Y-44609D01*
X63550Y-44391D01*
X63550Y-49700D01*
X63529Y-49700D01*
X63529Y-48575D01*
X63518Y-48367D01*
X63460Y-48227D01*
X63367Y-48202D01*
X63297Y-48273D01*
X63297Y-48132D01*
X63272Y-48039D01*
X63075Y-47970D01*
X62867Y-47981D01*
X62727Y-48039D01*
X62702Y-48132D01*
X63000Y-48429D01*
X63297Y-48132D01*
X63297Y-48273D01*
X63070Y-48500D01*
X63367Y-48797D01*
X63460Y-48772D01*
X63529Y-48575D01*
X63529Y-49700D01*
X63297Y-49700D01*
X63297Y-48867D01*
X63000Y-48570D01*
X62929Y-48641D01*
X62929Y-48500D01*
X62632Y-48202D01*
X62539Y-48227D01*
X62470Y-48424D01*
X62481Y-48632D01*
X62539Y-48772D01*
X62632Y-48797D01*
X62929Y-48500D01*
X62929Y-48641D01*
X62702Y-48867D01*
X62727Y-48960D01*
X62924Y-49029D01*
X63132Y-49018D01*
X63272Y-48960D01*
X63297Y-48867D01*
X63297Y-49700D01*
X61554Y-49700D01*
X61554Y-41081D01*
X61543Y-40863D01*
X61481Y-40712D01*
X61385Y-40684D01*
X61070Y-41000D01*
X61385Y-41315D01*
X61481Y-41287D01*
X61554Y-41081D01*
X61554Y-49700D01*
X61550Y-49700D01*
X61550Y-42891D01*
X61466Y-42688D01*
X61311Y-42534D01*
X61230Y-42500D01*
X61311Y-42466D01*
X61465Y-42311D01*
X61549Y-42109D01*
X61550Y-41891D01*
X61466Y-41688D01*
X61311Y-41534D01*
X61236Y-41502D01*
X61287Y-41481D01*
X61315Y-41385D01*
X61000Y-41070D01*
X60929Y-41141D01*
X60929Y-41000D01*
X60614Y-40684D01*
X60518Y-40712D01*
X60445Y-40918D01*
X60456Y-41136D01*
X60518Y-41287D01*
X60614Y-41315D01*
X60929Y-41000D01*
X60929Y-41141D01*
X60684Y-41385D01*
X60712Y-41481D01*
X60767Y-41500D01*
X60688Y-41533D01*
X60534Y-41688D01*
X60450Y-41890D01*
X60449Y-42108D01*
X60533Y-42311D01*
X60688Y-42465D01*
X60769Y-42499D01*
X60688Y-42533D01*
X60534Y-42688D01*
X60450Y-42890D01*
X60449Y-43108D01*
X60533Y-43311D01*
X60688Y-43465D01*
X60890Y-43549D01*
X61108Y-43550D01*
X61311Y-43466D01*
X61465Y-43311D01*
X61549Y-43109D01*
X61550Y-42891D01*
X61550Y-49700D01*
X61525Y-49700D01*
X61525Y-45396D01*
X61445Y-45203D01*
X61297Y-45055D01*
X61104Y-44975D01*
X60896Y-44974D01*
X60703Y-45054D01*
X60555Y-45202D01*
X60475Y-45395D01*
X60474Y-45603D01*
X60554Y-45797D01*
X60702Y-45944D01*
X60895Y-46024D01*
X61103Y-46025D01*
X61297Y-45945D01*
X61444Y-45797D01*
X61524Y-45604D01*
X61525Y-45396D01*
X61525Y-49700D01*
X60599Y-49700D01*
X60599Y-48592D01*
X60599Y-47592D01*
X60588Y-47356D01*
X60518Y-47185D01*
X60418Y-47152D01*
X60347Y-47223D01*
X60347Y-47081D01*
X60314Y-46981D01*
X60092Y-46900D01*
X59856Y-46911D01*
X59685Y-46981D01*
X59652Y-47081D01*
X60000Y-47429D01*
X60347Y-47081D01*
X60347Y-47223D01*
X60070Y-47500D01*
X60418Y-47847D01*
X60518Y-47814D01*
X60599Y-47592D01*
X60599Y-48592D01*
X60588Y-48356D01*
X60518Y-48185D01*
X60418Y-48152D01*
X60347Y-48223D01*
X60347Y-48081D01*
X60320Y-48000D01*
X60347Y-47918D01*
X60000Y-47570D01*
X59929Y-47641D01*
X59929Y-47500D01*
X59581Y-47152D01*
X59529Y-47169D01*
X59529Y-45575D01*
X59518Y-45367D01*
X59460Y-45227D01*
X59367Y-45202D01*
X59297Y-45273D01*
X59297Y-45132D01*
X59272Y-45039D01*
X59075Y-44970D01*
X58867Y-44981D01*
X58727Y-45039D01*
X58702Y-45132D01*
X59000Y-45429D01*
X59297Y-45132D01*
X59297Y-45273D01*
X59070Y-45500D01*
X59367Y-45797D01*
X59460Y-45772D01*
X59529Y-45575D01*
X59529Y-47169D01*
X59500Y-47179D01*
X59418Y-47152D01*
X59347Y-47223D01*
X59070Y-47500D01*
X59418Y-47847D01*
X59500Y-47820D01*
X59581Y-47847D01*
X59929Y-47500D01*
X59929Y-47641D01*
X59652Y-47918D01*
X59679Y-48000D01*
X59652Y-48081D01*
X60000Y-48429D01*
X60347Y-48081D01*
X60347Y-48223D01*
X60070Y-48500D01*
X60418Y-48847D01*
X60518Y-48814D01*
X60599Y-48592D01*
X60599Y-49700D01*
X60347Y-49700D01*
X60347Y-48918D01*
X60000Y-48570D01*
X59929Y-48641D01*
X59929Y-48500D01*
X59581Y-48152D01*
X59500Y-48179D01*
X59418Y-48152D01*
X59347Y-48223D01*
X59070Y-48500D01*
X59418Y-48847D01*
X59500Y-48820D01*
X59581Y-48847D01*
X59929Y-48500D01*
X59929Y-48641D01*
X59652Y-48918D01*
X59685Y-49018D01*
X59907Y-49099D01*
X60143Y-49088D01*
X60314Y-49018D01*
X60347Y-48918D01*
X60347Y-49700D01*
X59347Y-49700D01*
X59347Y-48918D01*
X59000Y-48570D01*
X58994Y-48576D01*
X58929Y-48511D01*
X58923Y-48505D01*
X58929Y-48500D01*
X58923Y-48494D01*
X58994Y-48423D01*
X59000Y-48429D01*
X59347Y-48081D01*
X59320Y-48000D01*
X59347Y-47918D01*
X59000Y-47570D01*
X58994Y-47576D01*
X58923Y-47505D01*
X58929Y-47500D01*
X58923Y-47494D01*
X58994Y-47423D01*
X59000Y-47429D01*
X59347Y-47081D01*
X59314Y-46981D01*
X59297Y-46975D01*
X59297Y-45867D01*
X59000Y-45570D01*
X58929Y-45641D01*
X58929Y-45500D01*
X58632Y-45202D01*
X58554Y-45223D01*
X58554Y-43081D01*
X58543Y-42863D01*
X58481Y-42712D01*
X58385Y-42684D01*
X58070Y-43000D01*
X58385Y-43315D01*
X58481Y-43287D01*
X58554Y-43081D01*
X58554Y-45223D01*
X58539Y-45227D01*
X58470Y-45424D01*
X58481Y-45632D01*
X58539Y-45772D01*
X58632Y-45797D01*
X58929Y-45500D01*
X58929Y-45641D01*
X58702Y-45867D01*
X58727Y-45960D01*
X58924Y-46029D01*
X59132Y-46018D01*
X59272Y-45960D01*
X59297Y-45867D01*
X59297Y-46975D01*
X59092Y-46900D01*
X58856Y-46911D01*
X58685Y-46981D01*
X58652Y-47081D01*
X58607Y-47036D01*
X58578Y-47066D01*
X58556Y-47014D01*
X58486Y-46943D01*
X58394Y-46905D01*
X58315Y-46905D01*
X58315Y-43385D01*
X58000Y-43070D01*
X57929Y-43141D01*
X57929Y-43000D01*
X57614Y-42684D01*
X57518Y-42712D01*
X57445Y-42918D01*
X57456Y-43136D01*
X57518Y-43287D01*
X57614Y-43315D01*
X57929Y-43000D01*
X57929Y-43141D01*
X57684Y-43385D01*
X57712Y-43481D01*
X57918Y-43554D01*
X58136Y-43543D01*
X58287Y-43481D01*
X58315Y-43385D01*
X58315Y-46905D01*
X58294Y-46905D01*
X57900Y-46905D01*
X57326Y-46331D01*
X57326Y-27296D01*
X57000Y-26970D01*
X56929Y-27041D01*
X56929Y-26900D01*
X56603Y-26573D01*
X56506Y-26603D01*
X56430Y-26814D01*
X56440Y-27039D01*
X56506Y-27196D01*
X56603Y-27226D01*
X56929Y-26900D01*
X56929Y-27041D01*
X56673Y-27296D01*
X56703Y-27393D01*
X56914Y-27469D01*
X57139Y-27459D01*
X57296Y-27393D01*
X57326Y-27296D01*
X57326Y-46331D01*
X57247Y-46252D01*
X57133Y-46176D01*
X57000Y-46150D01*
X56600Y-46150D01*
X56600Y-40381D01*
X56529Y-40211D01*
X56529Y-30075D01*
X56518Y-29867D01*
X56460Y-29727D01*
X56367Y-29702D01*
X56297Y-29773D01*
X56297Y-29632D01*
X56272Y-29539D01*
X56075Y-29470D01*
X55867Y-29481D01*
X55727Y-29539D01*
X55702Y-29632D01*
X56000Y-29929D01*
X56297Y-29632D01*
X56297Y-29773D01*
X56070Y-30000D01*
X56367Y-30297D01*
X56460Y-30272D01*
X56529Y-30075D01*
X56529Y-40211D01*
X56525Y-40199D01*
X56525Y-31896D01*
X56445Y-31703D01*
X56297Y-31555D01*
X56297Y-31554D01*
X56297Y-30367D01*
X56000Y-30070D01*
X55929Y-30141D01*
X55929Y-30000D01*
X55632Y-29702D01*
X55539Y-29727D01*
X55470Y-29924D01*
X55481Y-30132D01*
X55539Y-30272D01*
X55632Y-30297D01*
X55929Y-30000D01*
X55929Y-30141D01*
X55702Y-30367D01*
X55727Y-30460D01*
X55924Y-30529D01*
X56132Y-30518D01*
X56272Y-30460D01*
X56297Y-30367D01*
X56297Y-31554D01*
X56104Y-31475D01*
X55896Y-31474D01*
X55703Y-31554D01*
X55555Y-31702D01*
X55475Y-31895D01*
X55474Y-32103D01*
X55554Y-32297D01*
X55702Y-32444D01*
X55895Y-32524D01*
X56103Y-32525D01*
X56297Y-32445D01*
X56444Y-32297D01*
X56524Y-32104D01*
X56525Y-31896D01*
X56525Y-40199D01*
X56508Y-40160D01*
X56340Y-39991D01*
X56119Y-39900D01*
X55881Y-39899D01*
X55660Y-39991D01*
X55501Y-40150D01*
X55094Y-40150D01*
X55094Y-38393D01*
X55094Y-37606D01*
X55056Y-37514D01*
X55042Y-37500D01*
X55056Y-37485D01*
X55094Y-37393D01*
X55094Y-36606D01*
X55056Y-36514D01*
X54986Y-36443D01*
X54894Y-36405D01*
X54794Y-36405D01*
X54612Y-36405D01*
X54550Y-36467D01*
X54550Y-32891D01*
X54550Y-32890D01*
X54550Y-30250D01*
X54550Y-29749D01*
X54549Y-29650D01*
X54511Y-29558D01*
X54441Y-29487D01*
X54349Y-29449D01*
X54112Y-29450D01*
X54050Y-29512D01*
X54050Y-29950D01*
X54487Y-29950D01*
X54550Y-29887D01*
X54550Y-29749D01*
X54550Y-30250D01*
X54550Y-30112D01*
X54487Y-30050D01*
X54050Y-30050D01*
X54050Y-30487D01*
X54112Y-30550D01*
X54349Y-30550D01*
X54441Y-30512D01*
X54511Y-30441D01*
X54549Y-30349D01*
X54550Y-30250D01*
X54550Y-32890D01*
X54466Y-32688D01*
X54311Y-32534D01*
X54109Y-32450D01*
X53950Y-32449D01*
X53950Y-30487D01*
X53950Y-30050D01*
X53942Y-30050D01*
X53942Y-29950D01*
X53950Y-29950D01*
X53950Y-29512D01*
X53887Y-29450D01*
X53650Y-29449D01*
X53558Y-29487D01*
X53489Y-29557D01*
X53489Y-25220D01*
X53489Y-24579D01*
X53413Y-24200D01*
X53199Y-23880D01*
X52878Y-23665D01*
X52500Y-23590D01*
X52121Y-23665D01*
X51800Y-23880D01*
X51586Y-24200D01*
X51511Y-24579D01*
X51511Y-25220D01*
X51586Y-25599D01*
X51800Y-25919D01*
X52121Y-26134D01*
X52500Y-26209D01*
X52878Y-26134D01*
X53199Y-25919D01*
X53413Y-25599D01*
X53489Y-25220D01*
X53489Y-29557D01*
X53488Y-29558D01*
X53450Y-29650D01*
X53450Y-29672D01*
X53350Y-29572D01*
X53350Y-29500D01*
X53323Y-29366D01*
X53247Y-29252D01*
X53247Y-29252D01*
X52997Y-29002D01*
X52883Y-28926D01*
X52750Y-28900D01*
X51894Y-28900D01*
X50459Y-27464D01*
X50611Y-27465D01*
X50819Y-27379D01*
X50978Y-27220D01*
X51064Y-27012D01*
X51065Y-26788D01*
X50979Y-26580D01*
X50820Y-26421D01*
X50612Y-26335D01*
X50388Y-26334D01*
X50180Y-26420D01*
X50021Y-26579D01*
X50000Y-26630D01*
X49979Y-26580D01*
X49820Y-26421D01*
X49612Y-26335D01*
X49489Y-26334D01*
X49489Y-25220D01*
X49489Y-24579D01*
X49413Y-24200D01*
X49199Y-23880D01*
X48878Y-23665D01*
X48500Y-23590D01*
X48121Y-23665D01*
X47800Y-23880D01*
X47586Y-24200D01*
X47511Y-24579D01*
X47511Y-25220D01*
X47586Y-25599D01*
X47800Y-25919D01*
X48121Y-26134D01*
X48500Y-26209D01*
X48878Y-26134D01*
X49199Y-25919D01*
X49413Y-25599D01*
X49489Y-25220D01*
X49489Y-26334D01*
X49388Y-26334D01*
X49180Y-26420D01*
X49021Y-26579D01*
X48935Y-26787D01*
X48934Y-27011D01*
X49020Y-27219D01*
X49179Y-27378D01*
X49387Y-27464D01*
X49469Y-27464D01*
X51502Y-29497D01*
X51616Y-29573D01*
X51643Y-29578D01*
X51534Y-29688D01*
X51500Y-29769D01*
X51466Y-29688D01*
X51311Y-29534D01*
X51109Y-29450D01*
X50891Y-29449D01*
X50688Y-29533D01*
X50534Y-29688D01*
X50450Y-29890D01*
X50449Y-30108D01*
X50533Y-30311D01*
X50688Y-30465D01*
X50890Y-30549D01*
X51108Y-30550D01*
X51311Y-30466D01*
X51465Y-30311D01*
X51499Y-30230D01*
X51533Y-30311D01*
X51688Y-30465D01*
X51890Y-30549D01*
X52108Y-30550D01*
X52311Y-30466D01*
X52465Y-30311D01*
X52499Y-30230D01*
X52533Y-30311D01*
X52688Y-30465D01*
X52890Y-30549D01*
X53108Y-30550D01*
X53311Y-30466D01*
X53450Y-30327D01*
X53450Y-30349D01*
X53488Y-30441D01*
X53558Y-30512D01*
X53650Y-30550D01*
X53887Y-30550D01*
X53950Y-30487D01*
X53950Y-32449D01*
X53891Y-32449D01*
X53688Y-32533D01*
X53534Y-32688D01*
X53500Y-32769D01*
X53466Y-32688D01*
X53311Y-32534D01*
X53109Y-32450D01*
X52891Y-32449D01*
X52688Y-32533D01*
X52534Y-32688D01*
X52500Y-32769D01*
X52466Y-32688D01*
X52311Y-32534D01*
X52109Y-32450D01*
X51891Y-32449D01*
X51688Y-32533D01*
X51534Y-32688D01*
X51500Y-32769D01*
X51466Y-32688D01*
X51311Y-32534D01*
X51109Y-32450D01*
X50891Y-32449D01*
X50688Y-32533D01*
X50534Y-32688D01*
X50450Y-32890D01*
X50449Y-33108D01*
X50533Y-33311D01*
X50688Y-33465D01*
X50890Y-33549D01*
X51108Y-33550D01*
X51311Y-33466D01*
X51465Y-33311D01*
X51499Y-33230D01*
X51533Y-33311D01*
X51688Y-33465D01*
X51890Y-33549D01*
X52108Y-33550D01*
X52311Y-33466D01*
X52465Y-33311D01*
X52499Y-33230D01*
X52533Y-33311D01*
X52688Y-33465D01*
X52890Y-33549D01*
X53108Y-33550D01*
X53311Y-33466D01*
X53465Y-33311D01*
X53499Y-33230D01*
X53533Y-33311D01*
X53688Y-33465D01*
X53890Y-33549D01*
X54108Y-33550D01*
X54311Y-33466D01*
X54465Y-33311D01*
X54549Y-33109D01*
X54550Y-32891D01*
X54550Y-36467D01*
X54550Y-36468D01*
X54550Y-36950D01*
X55031Y-36950D01*
X55094Y-36887D01*
X55094Y-36606D01*
X55094Y-37393D01*
X55094Y-37112D01*
X55031Y-37050D01*
X54550Y-37050D01*
X54550Y-37468D01*
X54550Y-37531D01*
X54550Y-37950D01*
X55031Y-37950D01*
X55094Y-37887D01*
X55094Y-37606D01*
X55094Y-38393D01*
X55094Y-38112D01*
X55031Y-38050D01*
X54550Y-38050D01*
X54550Y-38531D01*
X54612Y-38594D01*
X54794Y-38594D01*
X54894Y-38594D01*
X54986Y-38556D01*
X55056Y-38485D01*
X55094Y-38393D01*
X55094Y-40150D01*
X54927Y-40150D01*
X54811Y-40034D01*
X54609Y-39950D01*
X54391Y-39949D01*
X54188Y-40033D01*
X54072Y-40150D01*
X54000Y-40150D01*
X53866Y-40176D01*
X53752Y-40252D01*
X50554Y-43450D01*
X50544Y-43450D01*
X53747Y-40247D01*
X53747Y-40247D01*
X53747Y-40247D01*
X53823Y-40133D01*
X53850Y-40000D01*
X53849Y-40000D01*
X53850Y-40000D01*
X53850Y-38490D01*
X53917Y-38423D01*
X53943Y-38485D01*
X54013Y-38556D01*
X54105Y-38594D01*
X54205Y-38594D01*
X54387Y-38594D01*
X54450Y-38531D01*
X54450Y-38050D01*
X54442Y-38050D01*
X54442Y-37950D01*
X54450Y-37950D01*
X54450Y-37531D01*
X54450Y-37468D01*
X54450Y-37050D01*
X54442Y-37050D01*
X54442Y-36950D01*
X54450Y-36950D01*
X54450Y-36468D01*
X54387Y-36405D01*
X54205Y-36405D01*
X54105Y-36405D01*
X54025Y-36438D01*
X54025Y-34896D01*
X53945Y-34703D01*
X53797Y-34555D01*
X53604Y-34475D01*
X53396Y-34474D01*
X53203Y-34554D01*
X53055Y-34702D01*
X52975Y-34895D01*
X52974Y-35103D01*
X53054Y-35297D01*
X53202Y-35444D01*
X53395Y-35524D01*
X53603Y-35525D01*
X53797Y-35445D01*
X53944Y-35297D01*
X54024Y-35104D01*
X54025Y-34896D01*
X54025Y-36438D01*
X54013Y-36443D01*
X53943Y-36514D01*
X53917Y-36576D01*
X53837Y-36496D01*
X53618Y-36405D01*
X53382Y-36405D01*
X53163Y-36495D01*
X52999Y-36659D01*
X52837Y-36496D01*
X52618Y-36405D01*
X52382Y-36405D01*
X52163Y-36495D01*
X52025Y-36634D01*
X52025Y-34896D01*
X51945Y-34703D01*
X51797Y-34555D01*
X51604Y-34475D01*
X51396Y-34474D01*
X51203Y-34554D01*
X51055Y-34702D01*
X50975Y-34895D01*
X50974Y-35103D01*
X51054Y-35297D01*
X51202Y-35444D01*
X51395Y-35524D01*
X51603Y-35525D01*
X51797Y-35445D01*
X51944Y-35297D01*
X52024Y-35104D01*
X52025Y-34896D01*
X52025Y-36634D01*
X51996Y-36662D01*
X51905Y-36881D01*
X51905Y-37117D01*
X51995Y-37336D01*
X52159Y-37500D01*
X51996Y-37662D01*
X51905Y-37881D01*
X51905Y-38117D01*
X51995Y-38336D01*
X52162Y-38503D01*
X52381Y-38594D01*
X52617Y-38594D01*
X52836Y-38504D01*
X53000Y-38340D01*
X53150Y-38490D01*
X53150Y-39855D01*
X51054Y-41950D01*
X51054Y-40581D01*
X51043Y-40363D01*
X50981Y-40212D01*
X50885Y-40184D01*
X50815Y-40255D01*
X50815Y-40114D01*
X50787Y-40018D01*
X50581Y-39945D01*
X50554Y-39946D01*
X50554Y-39081D01*
X50550Y-38988D01*
X50550Y-34891D01*
X50466Y-34688D01*
X50311Y-34534D01*
X50109Y-34450D01*
X49891Y-34449D01*
X49688Y-34533D01*
X49534Y-34688D01*
X49529Y-34697D01*
X49529Y-32075D01*
X49525Y-31987D01*
X49525Y-29896D01*
X49445Y-29703D01*
X49297Y-29555D01*
X49104Y-29475D01*
X48896Y-29474D01*
X48703Y-29554D01*
X48555Y-29702D01*
X48502Y-29828D01*
X48460Y-29727D01*
X48367Y-29702D01*
X48297Y-29773D01*
X48297Y-29632D01*
X48272Y-29539D01*
X48075Y-29470D01*
X47867Y-29481D01*
X47727Y-29539D01*
X47702Y-29632D01*
X48000Y-29929D01*
X48297Y-29632D01*
X48297Y-29773D01*
X48070Y-30000D01*
X48367Y-30297D01*
X48460Y-30272D01*
X48499Y-30162D01*
X48554Y-30297D01*
X48702Y-30444D01*
X48895Y-30524D01*
X49103Y-30525D01*
X49297Y-30445D01*
X49444Y-30297D01*
X49524Y-30104D01*
X49525Y-29896D01*
X49525Y-31987D01*
X49518Y-31867D01*
X49460Y-31727D01*
X49367Y-31702D01*
X49297Y-31773D01*
X49297Y-31632D01*
X49272Y-31539D01*
X49075Y-31470D01*
X48867Y-31481D01*
X48727Y-31539D01*
X48702Y-31632D01*
X49000Y-31929D01*
X49297Y-31632D01*
X49297Y-31773D01*
X49070Y-32000D01*
X49367Y-32297D01*
X49460Y-32272D01*
X49529Y-32075D01*
X49529Y-34697D01*
X49450Y-34890D01*
X49449Y-35108D01*
X49533Y-35311D01*
X49688Y-35465D01*
X49890Y-35549D01*
X50108Y-35550D01*
X50311Y-35466D01*
X50465Y-35311D01*
X50549Y-35109D01*
X50550Y-34891D01*
X50550Y-38988D01*
X50543Y-38863D01*
X50481Y-38712D01*
X50385Y-38684D01*
X50315Y-38755D01*
X50315Y-38614D01*
X50287Y-38518D01*
X50081Y-38445D01*
X49863Y-38456D01*
X49712Y-38518D01*
X49684Y-38614D01*
X50000Y-38929D01*
X50315Y-38614D01*
X50315Y-38755D01*
X50070Y-39000D01*
X50385Y-39315D01*
X50481Y-39287D01*
X50554Y-39081D01*
X50554Y-39946D01*
X50363Y-39956D01*
X50315Y-39976D01*
X50315Y-39385D01*
X50000Y-39070D01*
X49929Y-39141D01*
X49929Y-39000D01*
X49614Y-38684D01*
X49518Y-38712D01*
X49445Y-38918D01*
X49456Y-39136D01*
X49518Y-39287D01*
X49614Y-39315D01*
X49929Y-39000D01*
X49929Y-39141D01*
X49684Y-39385D01*
X49712Y-39481D01*
X49918Y-39554D01*
X50136Y-39543D01*
X50287Y-39481D01*
X50315Y-39385D01*
X50315Y-39976D01*
X50212Y-40018D01*
X50184Y-40114D01*
X50500Y-40429D01*
X50815Y-40114D01*
X50815Y-40255D01*
X50570Y-40500D01*
X50885Y-40815D01*
X50981Y-40787D01*
X51054Y-40581D01*
X51054Y-41950D01*
X51050Y-41954D01*
X51050Y-41891D01*
X50966Y-41688D01*
X50815Y-41537D01*
X50815Y-40885D01*
X50500Y-40570D01*
X50429Y-40641D01*
X50429Y-40500D01*
X50114Y-40184D01*
X50018Y-40212D01*
X49945Y-40418D01*
X49956Y-40636D01*
X50018Y-40787D01*
X50114Y-40815D01*
X50429Y-40500D01*
X50429Y-40641D01*
X50184Y-40885D01*
X50212Y-40981D01*
X50418Y-41054D01*
X50636Y-41043D01*
X50787Y-40981D01*
X50815Y-40885D01*
X50815Y-41537D01*
X50811Y-41534D01*
X50609Y-41450D01*
X50391Y-41449D01*
X50188Y-41533D01*
X50034Y-41688D01*
X49950Y-41890D01*
X49949Y-42108D01*
X50033Y-42311D01*
X50188Y-42465D01*
X50390Y-42549D01*
X50455Y-42549D01*
X49554Y-43450D01*
X49391Y-43449D01*
X49297Y-43488D01*
X49297Y-32367D01*
X49000Y-32070D01*
X48929Y-32141D01*
X48929Y-32000D01*
X48632Y-31702D01*
X48539Y-31727D01*
X48500Y-31837D01*
X48445Y-31703D01*
X48297Y-31555D01*
X48297Y-31554D01*
X48297Y-30367D01*
X48000Y-30070D01*
X47929Y-30141D01*
X47929Y-30000D01*
X47632Y-29702D01*
X47539Y-29727D01*
X47470Y-29924D01*
X47481Y-30132D01*
X47539Y-30272D01*
X47632Y-30297D01*
X47929Y-30000D01*
X47929Y-30141D01*
X47702Y-30367D01*
X47727Y-30460D01*
X47924Y-30529D01*
X48132Y-30518D01*
X48272Y-30460D01*
X48297Y-30367D01*
X48297Y-31554D01*
X48104Y-31475D01*
X47896Y-31474D01*
X47703Y-31554D01*
X47555Y-31702D01*
X47475Y-31895D01*
X47474Y-32103D01*
X47554Y-32297D01*
X47702Y-32444D01*
X47895Y-32524D01*
X48103Y-32525D01*
X48297Y-32445D01*
X48444Y-32297D01*
X48497Y-32171D01*
X48539Y-32272D01*
X48632Y-32297D01*
X48929Y-32000D01*
X48929Y-32141D01*
X48702Y-32367D01*
X48727Y-32460D01*
X48924Y-32529D01*
X49132Y-32518D01*
X49272Y-32460D01*
X49297Y-32367D01*
X49297Y-43488D01*
X49188Y-43533D01*
X49034Y-43688D01*
X49029Y-43697D01*
X49029Y-40075D01*
X49018Y-39867D01*
X48960Y-39727D01*
X48867Y-39702D01*
X48797Y-39773D01*
X48797Y-39632D01*
X48772Y-39539D01*
X48575Y-39470D01*
X48367Y-39481D01*
X48227Y-39539D01*
X48202Y-39632D01*
X48500Y-39929D01*
X48797Y-39632D01*
X48797Y-39773D01*
X48570Y-40000D01*
X48867Y-40297D01*
X48960Y-40272D01*
X49029Y-40075D01*
X49029Y-43697D01*
X49025Y-43709D01*
X49025Y-41896D01*
X48945Y-41703D01*
X48797Y-41555D01*
X48797Y-41554D01*
X48797Y-40367D01*
X48500Y-40070D01*
X48429Y-40141D01*
X48429Y-40000D01*
X48132Y-39702D01*
X48039Y-39727D01*
X47970Y-39924D01*
X47981Y-40132D01*
X48039Y-40272D01*
X48132Y-40297D01*
X48429Y-40000D01*
X48429Y-40141D01*
X48202Y-40367D01*
X48227Y-40460D01*
X48424Y-40529D01*
X48632Y-40518D01*
X48772Y-40460D01*
X48797Y-40367D01*
X48797Y-41554D01*
X48604Y-41475D01*
X48396Y-41474D01*
X48203Y-41554D01*
X48055Y-41702D01*
X47975Y-41895D01*
X47974Y-42103D01*
X48054Y-42297D01*
X48202Y-42444D01*
X48395Y-42524D01*
X48603Y-42525D01*
X48797Y-42445D01*
X48944Y-42297D01*
X49024Y-42104D01*
X49025Y-41896D01*
X49025Y-43709D01*
X49000Y-43769D01*
X48966Y-43688D01*
X48811Y-43534D01*
X48609Y-43450D01*
X48391Y-43449D01*
X48188Y-43533D01*
X48034Y-43688D01*
X48000Y-43769D01*
X47966Y-43688D01*
X47811Y-43534D01*
X47751Y-43509D01*
X47747Y-43502D01*
X47747Y-43502D01*
X47600Y-43355D01*
X47600Y-40250D01*
X47573Y-40116D01*
X47497Y-40002D01*
X47497Y-40002D01*
X46594Y-39099D01*
X46050Y-38555D01*
X46050Y-38531D01*
X46112Y-38594D01*
X46294Y-38594D01*
X46394Y-38594D01*
X46486Y-38556D01*
X46556Y-38485D01*
X46594Y-38393D01*
X46594Y-37606D01*
X46556Y-37514D01*
X46542Y-37500D01*
X46556Y-37485D01*
X46594Y-37393D01*
X46594Y-36606D01*
X46556Y-36514D01*
X46550Y-36507D01*
X46550Y-32891D01*
X46550Y-32890D01*
X46550Y-30250D01*
X46550Y-29749D01*
X46549Y-29650D01*
X46511Y-29558D01*
X46441Y-29487D01*
X46349Y-29449D01*
X46112Y-29450D01*
X46050Y-29512D01*
X46050Y-29950D01*
X46487Y-29950D01*
X46550Y-29887D01*
X46550Y-29749D01*
X46550Y-30250D01*
X46550Y-30112D01*
X46487Y-30050D01*
X46050Y-30050D01*
X46050Y-30487D01*
X46112Y-30550D01*
X46349Y-30550D01*
X46441Y-30512D01*
X46511Y-30441D01*
X46549Y-30349D01*
X46550Y-30250D01*
X46550Y-32890D01*
X46466Y-32688D01*
X46311Y-32534D01*
X46109Y-32450D01*
X45989Y-32449D01*
X45989Y-25220D01*
X45989Y-24579D01*
X45913Y-24200D01*
X45699Y-23880D01*
X45378Y-23665D01*
X45000Y-23590D01*
X44621Y-23665D01*
X44300Y-23880D01*
X44086Y-24200D01*
X44011Y-24579D01*
X44011Y-25220D01*
X44086Y-25599D01*
X44300Y-25919D01*
X44621Y-26134D01*
X45000Y-26209D01*
X45378Y-26134D01*
X45699Y-25919D01*
X45913Y-25599D01*
X45989Y-25220D01*
X45989Y-32449D01*
X45950Y-32449D01*
X45950Y-30487D01*
X45950Y-30050D01*
X45942Y-30050D01*
X45942Y-29950D01*
X45950Y-29950D01*
X45950Y-29512D01*
X45887Y-29450D01*
X45650Y-29449D01*
X45558Y-29487D01*
X45488Y-29558D01*
X45450Y-29650D01*
X45450Y-29672D01*
X45311Y-29534D01*
X45109Y-29450D01*
X45045Y-29450D01*
X43060Y-27465D01*
X43111Y-27465D01*
X43319Y-27379D01*
X43478Y-27220D01*
X43564Y-27012D01*
X43565Y-26788D01*
X43479Y-26580D01*
X43320Y-26421D01*
X43112Y-26335D01*
X42888Y-26334D01*
X42680Y-26420D01*
X42521Y-26579D01*
X42500Y-26630D01*
X42479Y-26580D01*
X42320Y-26421D01*
X42112Y-26335D01*
X41989Y-26334D01*
X41989Y-25220D01*
X41989Y-24579D01*
X41913Y-24200D01*
X41699Y-23880D01*
X41378Y-23665D01*
X41000Y-23590D01*
X40621Y-23665D01*
X40300Y-23880D01*
X40086Y-24200D01*
X40011Y-24579D01*
X40011Y-25220D01*
X40086Y-25599D01*
X40300Y-25919D01*
X40621Y-26134D01*
X41000Y-26209D01*
X41378Y-26134D01*
X41699Y-25919D01*
X41913Y-25599D01*
X41989Y-25220D01*
X41989Y-26334D01*
X41888Y-26334D01*
X41680Y-26420D01*
X41521Y-26579D01*
X41435Y-26787D01*
X41434Y-27011D01*
X41520Y-27219D01*
X41679Y-27378D01*
X41887Y-27464D01*
X42070Y-27465D01*
X44055Y-29450D01*
X43891Y-29449D01*
X43688Y-29533D01*
X43534Y-29688D01*
X43500Y-29769D01*
X43466Y-29688D01*
X43311Y-29534D01*
X43109Y-29450D01*
X42891Y-29449D01*
X42688Y-29533D01*
X42534Y-29688D01*
X42450Y-29890D01*
X42449Y-30108D01*
X42533Y-30311D01*
X42688Y-30465D01*
X42890Y-30549D01*
X43108Y-30550D01*
X43311Y-30466D01*
X43465Y-30311D01*
X43499Y-30230D01*
X43533Y-30311D01*
X43688Y-30465D01*
X43890Y-30549D01*
X44108Y-30550D01*
X44311Y-30466D01*
X44465Y-30311D01*
X44499Y-30230D01*
X44533Y-30311D01*
X44688Y-30465D01*
X44890Y-30549D01*
X45108Y-30550D01*
X45311Y-30466D01*
X45450Y-30327D01*
X45450Y-30349D01*
X45488Y-30441D01*
X45558Y-30512D01*
X45650Y-30550D01*
X45887Y-30550D01*
X45950Y-30487D01*
X45950Y-32449D01*
X45891Y-32449D01*
X45688Y-32533D01*
X45534Y-32688D01*
X45500Y-32769D01*
X45466Y-32688D01*
X45311Y-32534D01*
X45109Y-32450D01*
X44891Y-32449D01*
X44688Y-32533D01*
X44534Y-32688D01*
X44500Y-32769D01*
X44466Y-32688D01*
X44311Y-32534D01*
X44109Y-32450D01*
X43891Y-32449D01*
X43688Y-32533D01*
X43534Y-32688D01*
X43500Y-32769D01*
X43466Y-32688D01*
X43311Y-32534D01*
X43109Y-32450D01*
X42891Y-32449D01*
X42688Y-32533D01*
X42534Y-32688D01*
X42450Y-32890D01*
X42449Y-33108D01*
X42533Y-33311D01*
X42688Y-33465D01*
X42890Y-33549D01*
X43108Y-33550D01*
X43311Y-33466D01*
X43465Y-33311D01*
X43499Y-33230D01*
X43533Y-33311D01*
X43688Y-33465D01*
X43890Y-33549D01*
X44108Y-33550D01*
X44311Y-33466D01*
X44465Y-33311D01*
X44499Y-33230D01*
X44533Y-33311D01*
X44688Y-33465D01*
X44890Y-33549D01*
X45108Y-33550D01*
X45311Y-33466D01*
X45465Y-33311D01*
X45499Y-33230D01*
X45533Y-33311D01*
X45688Y-33465D01*
X45890Y-33549D01*
X46108Y-33550D01*
X46311Y-33466D01*
X46465Y-33311D01*
X46549Y-33109D01*
X46550Y-32891D01*
X46550Y-36507D01*
X46486Y-36443D01*
X46394Y-36405D01*
X46294Y-36405D01*
X46112Y-36405D01*
X46050Y-36468D01*
X46050Y-36950D01*
X46531Y-36950D01*
X46594Y-36887D01*
X46594Y-36606D01*
X46594Y-37393D01*
X46594Y-37112D01*
X46531Y-37050D01*
X46050Y-37050D01*
X46050Y-37468D01*
X46050Y-37531D01*
X46050Y-37950D01*
X46531Y-37950D01*
X46594Y-37887D01*
X46594Y-37606D01*
X46594Y-38393D01*
X46594Y-38112D01*
X46531Y-38050D01*
X46050Y-38050D01*
X46050Y-38057D01*
X45950Y-38057D01*
X45950Y-38050D01*
X45942Y-38050D01*
X45942Y-37950D01*
X45950Y-37950D01*
X45950Y-37531D01*
X45950Y-37468D01*
X45950Y-37050D01*
X45942Y-37050D01*
X45942Y-36950D01*
X45950Y-36950D01*
X45950Y-36468D01*
X45887Y-36405D01*
X45705Y-36405D01*
X45605Y-36405D01*
X45525Y-36438D01*
X45525Y-34896D01*
X45445Y-34703D01*
X45297Y-34555D01*
X45104Y-34475D01*
X44896Y-34474D01*
X44703Y-34554D01*
X44555Y-34702D01*
X44475Y-34895D01*
X44474Y-35103D01*
X44554Y-35297D01*
X44702Y-35444D01*
X44895Y-35524D01*
X45103Y-35525D01*
X45297Y-35445D01*
X45444Y-35297D01*
X45524Y-35104D01*
X45525Y-34896D01*
X45525Y-36438D01*
X45513Y-36443D01*
X45443Y-36514D01*
X45417Y-36576D01*
X45337Y-36496D01*
X45118Y-36405D01*
X44882Y-36405D01*
X44663Y-36495D01*
X44499Y-36659D01*
X44337Y-36496D01*
X44118Y-36405D01*
X43882Y-36405D01*
X43663Y-36495D01*
X43525Y-36634D01*
X43525Y-34896D01*
X43445Y-34703D01*
X43297Y-34555D01*
X43104Y-34475D01*
X42896Y-34474D01*
X42703Y-34554D01*
X42555Y-34702D01*
X42475Y-34895D01*
X42474Y-35103D01*
X42554Y-35297D01*
X42702Y-35444D01*
X42895Y-35524D01*
X43103Y-35525D01*
X43297Y-35445D01*
X43444Y-35297D01*
X43524Y-35104D01*
X43525Y-34896D01*
X43525Y-36634D01*
X43496Y-36662D01*
X43405Y-36881D01*
X43405Y-37117D01*
X43495Y-37336D01*
X43659Y-37500D01*
X43496Y-37662D01*
X43405Y-37881D01*
X43405Y-38117D01*
X43495Y-38336D01*
X43662Y-38503D01*
X43881Y-38594D01*
X44117Y-38594D01*
X44336Y-38504D01*
X44500Y-38340D01*
X44650Y-38490D01*
X44650Y-38500D01*
X44676Y-38633D01*
X44752Y-38747D01*
X45002Y-38997D01*
X45002Y-38997D01*
X45116Y-39073D01*
X45250Y-39100D01*
X45605Y-39100D01*
X46456Y-39951D01*
X46363Y-39956D01*
X46212Y-40018D01*
X46184Y-40114D01*
X46500Y-40429D01*
X46505Y-40423D01*
X46576Y-40494D01*
X46570Y-40500D01*
X46885Y-40815D01*
X46900Y-40811D01*
X46900Y-41622D01*
X46815Y-41537D01*
X46815Y-40885D01*
X46500Y-40570D01*
X46429Y-40641D01*
X46429Y-40500D01*
X46114Y-40184D01*
X46018Y-40212D01*
X45945Y-40418D01*
X45956Y-40636D01*
X46018Y-40787D01*
X46114Y-40815D01*
X46429Y-40500D01*
X46429Y-40641D01*
X46184Y-40885D01*
X46212Y-40981D01*
X46418Y-41054D01*
X46636Y-41043D01*
X46787Y-40981D01*
X46815Y-40885D01*
X46815Y-41537D01*
X46811Y-41534D01*
X46609Y-41450D01*
X46391Y-41449D01*
X46188Y-41533D01*
X46034Y-41688D01*
X45950Y-41890D01*
X45949Y-42108D01*
X46033Y-42311D01*
X46150Y-42427D01*
X46150Y-43572D01*
X46034Y-43688D01*
X46000Y-43769D01*
X45966Y-43688D01*
X45811Y-43534D01*
X45609Y-43450D01*
X45391Y-43449D01*
X45188Y-43533D01*
X45034Y-43688D01*
X44950Y-43890D01*
X44949Y-44108D01*
X45033Y-44311D01*
X45188Y-44465D01*
X45390Y-44549D01*
X45608Y-44550D01*
X45811Y-44466D01*
X45965Y-44311D01*
X45999Y-44230D01*
X46033Y-44311D01*
X46188Y-44465D01*
X46390Y-44549D01*
X46608Y-44550D01*
X46811Y-44466D01*
X46965Y-44311D01*
X46999Y-44230D01*
X47033Y-44311D01*
X47188Y-44465D01*
X47390Y-44549D01*
X47608Y-44550D01*
X47811Y-44466D01*
X47965Y-44311D01*
X47999Y-44230D01*
X48033Y-44311D01*
X48188Y-44465D01*
X48390Y-44549D01*
X48608Y-44550D01*
X48811Y-44466D01*
X48965Y-44311D01*
X48999Y-44230D01*
X49033Y-44311D01*
X49188Y-44465D01*
X49390Y-44549D01*
X49608Y-44550D01*
X49811Y-44466D01*
X49965Y-44311D01*
X49999Y-44230D01*
X50033Y-44311D01*
X50188Y-44465D01*
X50390Y-44549D01*
X50608Y-44550D01*
X50811Y-44466D01*
X50949Y-44327D01*
X50949Y-44349D01*
X50987Y-44441D01*
X51058Y-44511D01*
X51150Y-44549D01*
X51249Y-44550D01*
X51849Y-44550D01*
X51941Y-44512D01*
X52011Y-44441D01*
X52049Y-44349D01*
X52050Y-44250D01*
X52050Y-43650D01*
X52012Y-43558D01*
X51941Y-43488D01*
X51849Y-43450D01*
X51750Y-43449D01*
X51545Y-43449D01*
X54108Y-40886D01*
X54188Y-40965D01*
X54390Y-41049D01*
X54608Y-41050D01*
X54811Y-40966D01*
X54927Y-40850D01*
X55501Y-40850D01*
X55565Y-40914D01*
X55508Y-40937D01*
X55438Y-41008D01*
X55400Y-41100D01*
X55399Y-41199D01*
X55399Y-41605D01*
X55355Y-41650D01*
X54927Y-41650D01*
X54811Y-41534D01*
X54609Y-41450D01*
X54391Y-41449D01*
X54188Y-41533D01*
X54034Y-41688D01*
X53950Y-41890D01*
X53949Y-42108D01*
X54033Y-42311D01*
X54188Y-42465D01*
X54390Y-42549D01*
X54608Y-42550D01*
X54811Y-42466D01*
X54927Y-42350D01*
X55500Y-42350D01*
X55633Y-42323D01*
X55633Y-42323D01*
X55747Y-42247D01*
X55894Y-42100D01*
X56399Y-42100D01*
X56491Y-42062D01*
X56561Y-41991D01*
X56599Y-41899D01*
X56600Y-41800D01*
X56600Y-41100D01*
X56562Y-41008D01*
X56491Y-40938D01*
X56434Y-40914D01*
X56508Y-40840D01*
X56599Y-40619D01*
X56600Y-40381D01*
X56600Y-46150D01*
X56050Y-46150D01*
X56050Y-43891D01*
X55966Y-43688D01*
X55811Y-43534D01*
X55609Y-43450D01*
X55391Y-43449D01*
X55188Y-43533D01*
X55034Y-43688D01*
X54950Y-43890D01*
X54949Y-44108D01*
X55033Y-44311D01*
X55188Y-44465D01*
X55390Y-44549D01*
X55608Y-44550D01*
X55811Y-44466D01*
X55965Y-44311D01*
X56049Y-44109D01*
X56050Y-43891D01*
X56050Y-46150D01*
X54525Y-46150D01*
X54525Y-44396D01*
X54445Y-44203D01*
X54297Y-44055D01*
X54104Y-43975D01*
X53896Y-43974D01*
X53703Y-44054D01*
X53555Y-44202D01*
X53475Y-44395D01*
X53474Y-44603D01*
X53554Y-44797D01*
X53702Y-44944D01*
X53895Y-45024D01*
X54103Y-45025D01*
X54297Y-44945D01*
X54444Y-44797D01*
X54524Y-44604D01*
X54525Y-44396D01*
X54525Y-46150D01*
X54392Y-46150D01*
X54297Y-46055D01*
X54104Y-45975D01*
X53896Y-45974D01*
X53703Y-46054D01*
X53555Y-46202D01*
X53475Y-46395D01*
X53474Y-46603D01*
X53554Y-46797D01*
X53702Y-46944D01*
X53895Y-47024D01*
X54103Y-47025D01*
X54297Y-46945D01*
X54392Y-46850D01*
X56855Y-46850D01*
X57405Y-47400D01*
X57405Y-47893D01*
X57443Y-47985D01*
X57457Y-47999D01*
X57443Y-48013D01*
X57405Y-48105D01*
X57405Y-48205D01*
X57405Y-48893D01*
X57443Y-48985D01*
X57513Y-49056D01*
X57605Y-49094D01*
X57705Y-49094D01*
X58393Y-49094D01*
X58485Y-49056D01*
X58556Y-48986D01*
X58578Y-48933D01*
X58607Y-48963D01*
X58652Y-48918D01*
X58685Y-49018D01*
X58907Y-49099D01*
X59143Y-49088D01*
X59314Y-49018D01*
X59347Y-48918D01*
X59347Y-49700D01*
X56050Y-49700D01*
X56050Y-47891D01*
X55966Y-47688D01*
X55811Y-47534D01*
X55609Y-47450D01*
X55391Y-47449D01*
X55188Y-47533D01*
X55034Y-47688D01*
X54950Y-47890D01*
X54949Y-48108D01*
X55033Y-48311D01*
X55188Y-48465D01*
X55390Y-48549D01*
X55608Y-48550D01*
X55811Y-48466D01*
X55965Y-48311D01*
X56049Y-48109D01*
X56050Y-47891D01*
X56050Y-49700D01*
X54550Y-49700D01*
X54550Y-48891D01*
X54466Y-48688D01*
X54311Y-48534D01*
X54109Y-48450D01*
X53891Y-48449D01*
X53688Y-48533D01*
X53608Y-48613D01*
X52049Y-47054D01*
X52050Y-46891D01*
X51966Y-46688D01*
X51811Y-46534D01*
X51609Y-46450D01*
X51391Y-46449D01*
X51188Y-46533D01*
X51034Y-46688D01*
X51000Y-46769D01*
X50966Y-46688D01*
X50811Y-46534D01*
X50609Y-46450D01*
X50391Y-46449D01*
X50188Y-46533D01*
X50034Y-46688D01*
X50000Y-46769D01*
X49966Y-46688D01*
X49811Y-46534D01*
X49609Y-46450D01*
X49391Y-46449D01*
X49188Y-46533D01*
X49034Y-46688D01*
X49000Y-46769D01*
X48966Y-46688D01*
X48811Y-46534D01*
X48609Y-46450D01*
X48391Y-46449D01*
X48188Y-46533D01*
X48034Y-46688D01*
X48002Y-46763D01*
X47981Y-46712D01*
X47885Y-46684D01*
X47815Y-46755D01*
X47815Y-46614D01*
X47787Y-46518D01*
X47581Y-46445D01*
X47363Y-46456D01*
X47212Y-46518D01*
X47184Y-46614D01*
X47500Y-46929D01*
X47815Y-46614D01*
X47815Y-46755D01*
X47570Y-47000D01*
X47885Y-47315D01*
X47981Y-47287D01*
X48000Y-47232D01*
X48033Y-47311D01*
X48188Y-47465D01*
X48390Y-47549D01*
X48608Y-47550D01*
X48811Y-47466D01*
X48965Y-47311D01*
X48999Y-47230D01*
X49033Y-47311D01*
X49188Y-47465D01*
X49390Y-47549D01*
X49608Y-47550D01*
X49811Y-47466D01*
X49965Y-47311D01*
X49999Y-47230D01*
X50033Y-47311D01*
X50150Y-47427D01*
X50150Y-48355D01*
X50054Y-48450D01*
X49891Y-48449D01*
X49688Y-48533D01*
X49534Y-48688D01*
X49450Y-48890D01*
X49449Y-49108D01*
X49533Y-49311D01*
X49688Y-49465D01*
X49890Y-49549D01*
X50108Y-49550D01*
X50311Y-49466D01*
X50465Y-49311D01*
X50549Y-49109D01*
X50550Y-48944D01*
X50747Y-48747D01*
X50823Y-48633D01*
X50823Y-48633D01*
X50850Y-48500D01*
X50850Y-47427D01*
X50965Y-47311D01*
X50999Y-47230D01*
X51033Y-47311D01*
X51188Y-47465D01*
X51390Y-47549D01*
X51555Y-47550D01*
X53252Y-49247D01*
X53252Y-49247D01*
X53366Y-49323D01*
X53499Y-49349D01*
X53500Y-49350D01*
X53572Y-49350D01*
X53688Y-49465D01*
X53890Y-49549D01*
X54108Y-49550D01*
X54311Y-49466D01*
X54465Y-49311D01*
X54549Y-49109D01*
X54550Y-48891D01*
X54550Y-49700D01*
X49025Y-49700D01*
X49025Y-48896D01*
X48945Y-48703D01*
X48797Y-48555D01*
X48604Y-48475D01*
X48396Y-48474D01*
X48203Y-48554D01*
X48055Y-48702D01*
X47975Y-48895D01*
X47974Y-49103D01*
X48054Y-49297D01*
X48202Y-49444D01*
X48395Y-49524D01*
X48603Y-49525D01*
X48797Y-49445D01*
X48944Y-49297D01*
X49024Y-49104D01*
X49025Y-48896D01*
X49025Y-49700D01*
X47815Y-49700D01*
X47815Y-47385D01*
X47500Y-47070D01*
X47429Y-47141D01*
X47429Y-47000D01*
X47114Y-46684D01*
X47018Y-46712D01*
X46999Y-46767D01*
X46966Y-46688D01*
X46811Y-46534D01*
X46609Y-46450D01*
X46391Y-46449D01*
X46188Y-46533D01*
X46034Y-46688D01*
X46000Y-46769D01*
X45966Y-46688D01*
X45811Y-46534D01*
X45609Y-46450D01*
X45391Y-46449D01*
X45188Y-46533D01*
X45034Y-46688D01*
X44950Y-46890D01*
X44949Y-47108D01*
X45033Y-47311D01*
X45188Y-47465D01*
X45390Y-47549D01*
X45455Y-47549D01*
X44855Y-48150D01*
X43050Y-48150D01*
X43050Y-41891D01*
X43050Y-40391D01*
X42966Y-40188D01*
X42811Y-40034D01*
X42609Y-39950D01*
X42391Y-39949D01*
X42188Y-40033D01*
X42054Y-40167D01*
X42054Y-39081D01*
X42050Y-38988D01*
X42050Y-34891D01*
X41966Y-34688D01*
X41811Y-34534D01*
X41609Y-34450D01*
X41529Y-34450D01*
X41529Y-32075D01*
X41525Y-31987D01*
X41525Y-29896D01*
X41445Y-29703D01*
X41297Y-29555D01*
X41104Y-29475D01*
X40896Y-29474D01*
X40703Y-29554D01*
X40555Y-29702D01*
X40475Y-29895D01*
X40474Y-30103D01*
X40554Y-30297D01*
X40702Y-30444D01*
X40895Y-30524D01*
X41103Y-30525D01*
X41297Y-30445D01*
X41444Y-30297D01*
X41524Y-30104D01*
X41525Y-29896D01*
X41525Y-31987D01*
X41518Y-31867D01*
X41460Y-31727D01*
X41367Y-31702D01*
X41297Y-31773D01*
X41297Y-31632D01*
X41272Y-31539D01*
X41075Y-31470D01*
X40867Y-31481D01*
X40727Y-31539D01*
X40702Y-31632D01*
X41000Y-31929D01*
X41297Y-31632D01*
X41297Y-31773D01*
X41070Y-32000D01*
X41367Y-32297D01*
X41460Y-32272D01*
X41529Y-32075D01*
X41529Y-34450D01*
X41391Y-34449D01*
X41297Y-34488D01*
X41297Y-32367D01*
X41000Y-32070D01*
X40929Y-32141D01*
X40929Y-32000D01*
X40632Y-31702D01*
X40539Y-31727D01*
X40470Y-31924D01*
X40481Y-32132D01*
X40539Y-32272D01*
X40632Y-32297D01*
X40929Y-32000D01*
X40929Y-32141D01*
X40702Y-32367D01*
X40727Y-32460D01*
X40924Y-32529D01*
X41132Y-32518D01*
X41272Y-32460D01*
X41297Y-32367D01*
X41297Y-34488D01*
X41188Y-34533D01*
X41034Y-34688D01*
X40950Y-34890D01*
X40949Y-35108D01*
X41033Y-35311D01*
X41188Y-35465D01*
X41390Y-35549D01*
X41608Y-35550D01*
X41811Y-35466D01*
X41965Y-35311D01*
X42049Y-35109D01*
X42050Y-34891D01*
X42050Y-38988D01*
X42043Y-38863D01*
X41981Y-38712D01*
X41885Y-38684D01*
X41815Y-38755D01*
X41815Y-38614D01*
X41787Y-38518D01*
X41581Y-38445D01*
X41363Y-38456D01*
X41212Y-38518D01*
X41184Y-38614D01*
X41500Y-38929D01*
X41815Y-38614D01*
X41815Y-38755D01*
X41570Y-39000D01*
X41885Y-39315D01*
X41981Y-39287D01*
X42054Y-39081D01*
X42054Y-40167D01*
X42034Y-40188D01*
X41950Y-40390D01*
X41949Y-40608D01*
X42033Y-40811D01*
X42188Y-40965D01*
X42390Y-41049D01*
X42608Y-41050D01*
X42811Y-40966D01*
X42965Y-40811D01*
X43049Y-40609D01*
X43050Y-40391D01*
X43050Y-41891D01*
X42966Y-41688D01*
X42811Y-41534D01*
X42609Y-41450D01*
X42391Y-41449D01*
X42188Y-41533D01*
X42034Y-41688D01*
X41950Y-41890D01*
X41949Y-42055D01*
X41815Y-42189D01*
X41815Y-39385D01*
X41500Y-39070D01*
X41429Y-39141D01*
X41429Y-39000D01*
X41114Y-38684D01*
X41018Y-38712D01*
X40945Y-38918D01*
X40956Y-39136D01*
X41018Y-39287D01*
X41114Y-39315D01*
X41429Y-39000D01*
X41429Y-39141D01*
X41184Y-39385D01*
X41212Y-39481D01*
X41418Y-39554D01*
X41636Y-39543D01*
X41787Y-39481D01*
X41815Y-39385D01*
X41815Y-42189D01*
X41752Y-42252D01*
X41676Y-42366D01*
X41650Y-42500D01*
X41650Y-44899D01*
X41600Y-44899D01*
X41600Y-44900D01*
X41600Y-40381D01*
X41508Y-40160D01*
X41340Y-39991D01*
X41119Y-39900D01*
X40881Y-39899D01*
X40660Y-39991D01*
X40491Y-40159D01*
X40400Y-40380D01*
X40399Y-40618D01*
X40491Y-40839D01*
X40565Y-40914D01*
X40508Y-40937D01*
X40438Y-41008D01*
X40400Y-41100D01*
X40399Y-41199D01*
X40399Y-41899D01*
X40437Y-41991D01*
X40508Y-42061D01*
X40600Y-42099D01*
X40699Y-42100D01*
X41399Y-42100D01*
X41491Y-42062D01*
X41561Y-41991D01*
X41599Y-41899D01*
X41600Y-41800D01*
X41600Y-41100D01*
X41562Y-41008D01*
X41491Y-40938D01*
X41434Y-40914D01*
X41508Y-40840D01*
X41599Y-40619D01*
X41600Y-40381D01*
X41600Y-44900D01*
X41508Y-44937D01*
X41438Y-45008D01*
X41400Y-45100D01*
X41399Y-45199D01*
X41399Y-45899D01*
X41437Y-45991D01*
X41508Y-46061D01*
X41565Y-46085D01*
X41491Y-46159D01*
X41400Y-46380D01*
X41400Y-46405D01*
X40350Y-45355D01*
X40350Y-44927D01*
X40465Y-44811D01*
X40549Y-44609D01*
X40550Y-44391D01*
X40466Y-44188D01*
X40311Y-44034D01*
X40109Y-43950D01*
X39891Y-43949D01*
X39688Y-44033D01*
X39600Y-44122D01*
X39600Y-36381D01*
X39508Y-36160D01*
X39348Y-35999D01*
X39508Y-35840D01*
X39599Y-35619D01*
X39600Y-35381D01*
X39508Y-35160D01*
X39340Y-34991D01*
X39119Y-34900D01*
X39029Y-34900D01*
X39029Y-33075D01*
X39018Y-32867D01*
X38960Y-32727D01*
X38867Y-32702D01*
X38797Y-32773D01*
X38797Y-32632D01*
X38772Y-32539D01*
X38620Y-32485D01*
X38620Y-25512D01*
X38437Y-25071D01*
X38100Y-24733D01*
X37659Y-24550D01*
X37182Y-24549D01*
X36741Y-24732D01*
X36403Y-25069D01*
X36220Y-25510D01*
X36219Y-25987D01*
X36402Y-26428D01*
X36739Y-26766D01*
X37180Y-26949D01*
X37657Y-26950D01*
X38098Y-26767D01*
X38436Y-26430D01*
X38619Y-25989D01*
X38620Y-25512D01*
X38620Y-32485D01*
X38575Y-32470D01*
X38367Y-32481D01*
X38227Y-32539D01*
X38202Y-32632D01*
X38500Y-32929D01*
X38797Y-32632D01*
X38797Y-32773D01*
X38570Y-33000D01*
X38867Y-33297D01*
X38960Y-33272D01*
X39029Y-33075D01*
X39029Y-34900D01*
X38881Y-34899D01*
X38797Y-34934D01*
X38797Y-33367D01*
X38500Y-33070D01*
X38429Y-33141D01*
X38429Y-33000D01*
X38147Y-32718D01*
X38147Y-30104D01*
X38138Y-29848D01*
X38058Y-29655D01*
X37982Y-29627D01*
X38035Y-29605D01*
X38105Y-29535D01*
X38143Y-29443D01*
X38143Y-29344D01*
X38143Y-28556D01*
X38105Y-28464D01*
X38035Y-28394D01*
X37943Y-28356D01*
X37844Y-28356D01*
X37056Y-28356D01*
X36964Y-28394D01*
X36894Y-28464D01*
X36856Y-28556D01*
X36856Y-28655D01*
X36856Y-29443D01*
X36894Y-29535D01*
X36964Y-29605D01*
X37017Y-29627D01*
X36941Y-29655D01*
X36852Y-29895D01*
X36861Y-30151D01*
X36941Y-30344D01*
X37046Y-30383D01*
X37429Y-30000D01*
X37423Y-29994D01*
X37494Y-29923D01*
X37500Y-29929D01*
X37505Y-29923D01*
X37576Y-29994D01*
X37570Y-30000D01*
X37953Y-30383D01*
X38058Y-30344D01*
X38147Y-30104D01*
X38147Y-32718D01*
X38143Y-32714D01*
X38143Y-30872D01*
X38046Y-30635D01*
X37877Y-30467D01*
X37883Y-30453D01*
X37500Y-30070D01*
X37116Y-30453D01*
X37122Y-30467D01*
X36954Y-30634D01*
X36856Y-30871D01*
X36856Y-31078D01*
X36678Y-31256D01*
X35525Y-31256D01*
X35525Y-28896D01*
X35445Y-28703D01*
X35297Y-28555D01*
X35230Y-28527D01*
X35230Y-26560D01*
X35230Y-25960D01*
X35192Y-25868D01*
X35121Y-25798D01*
X35029Y-25760D01*
X34930Y-25759D01*
X34690Y-25759D01*
X34690Y-25081D01*
X34606Y-24878D01*
X34451Y-24724D01*
X34249Y-24640D01*
X34031Y-24639D01*
X33828Y-24723D01*
X33674Y-24878D01*
X33594Y-25068D01*
X33516Y-24878D01*
X33361Y-24724D01*
X33159Y-24640D01*
X32941Y-24639D01*
X32738Y-24723D01*
X32584Y-24878D01*
X32500Y-25080D01*
X32500Y-25081D01*
X32416Y-24878D01*
X32261Y-24724D01*
X32059Y-24640D01*
X31841Y-24639D01*
X31638Y-24723D01*
X31484Y-24878D01*
X31404Y-25068D01*
X31326Y-24878D01*
X31171Y-24724D01*
X30969Y-24640D01*
X30751Y-24639D01*
X30548Y-24723D01*
X30394Y-24878D01*
X30310Y-25080D01*
X30309Y-25298D01*
X30393Y-25501D01*
X30548Y-25655D01*
X30750Y-25739D01*
X30968Y-25740D01*
X31171Y-25656D01*
X31325Y-25501D01*
X31405Y-25311D01*
X31483Y-25501D01*
X31638Y-25655D01*
X31840Y-25739D01*
X32058Y-25740D01*
X32261Y-25656D01*
X32415Y-25501D01*
X32499Y-25299D01*
X32500Y-25081D01*
X32499Y-25298D01*
X32583Y-25501D01*
X32738Y-25655D01*
X32940Y-25739D01*
X33158Y-25740D01*
X33361Y-25656D01*
X33515Y-25501D01*
X33595Y-25311D01*
X33673Y-25501D01*
X33828Y-25655D01*
X34030Y-25739D01*
X34248Y-25740D01*
X34451Y-25656D01*
X34605Y-25501D01*
X34689Y-25299D01*
X34690Y-25081D01*
X34690Y-25759D01*
X34330Y-25759D01*
X34238Y-25797D01*
X34168Y-25868D01*
X34130Y-25960D01*
X34129Y-26059D01*
X34129Y-26176D01*
X34056Y-25998D01*
X33901Y-25844D01*
X33699Y-25760D01*
X33481Y-25759D01*
X33278Y-25843D01*
X33124Y-25998D01*
X33044Y-26189D01*
X33043Y-26173D01*
X32981Y-26022D01*
X32885Y-25994D01*
X32815Y-26065D01*
X32815Y-25924D01*
X32787Y-25828D01*
X32581Y-25755D01*
X32363Y-25766D01*
X32212Y-25828D01*
X32184Y-25924D01*
X32500Y-26239D01*
X32815Y-25924D01*
X32815Y-26065D01*
X32570Y-26310D01*
X32885Y-26625D01*
X32981Y-26597D01*
X33042Y-26425D01*
X33123Y-26621D01*
X33278Y-26775D01*
X33480Y-26859D01*
X33698Y-26860D01*
X33901Y-26776D01*
X34055Y-26621D01*
X34129Y-26443D01*
X34129Y-26659D01*
X34167Y-26751D01*
X34238Y-26821D01*
X34330Y-26859D01*
X34429Y-26860D01*
X35029Y-26860D01*
X35121Y-26822D01*
X35191Y-26751D01*
X35229Y-26659D01*
X35230Y-26560D01*
X35230Y-28527D01*
X35104Y-28475D01*
X34896Y-28474D01*
X34703Y-28554D01*
X34555Y-28702D01*
X34475Y-28895D01*
X34474Y-29103D01*
X34554Y-29297D01*
X34702Y-29444D01*
X34895Y-29524D01*
X35103Y-29525D01*
X35297Y-29445D01*
X35444Y-29297D01*
X35524Y-29104D01*
X35525Y-28896D01*
X35525Y-31256D01*
X34543Y-31256D01*
X34599Y-31119D01*
X34600Y-30881D01*
X34508Y-30660D01*
X34340Y-30491D01*
X34119Y-30400D01*
X33881Y-30399D01*
X33660Y-30491D01*
X33529Y-30621D01*
X33529Y-29075D01*
X33518Y-28867D01*
X33460Y-28727D01*
X33367Y-28702D01*
X33297Y-28773D01*
X33297Y-28632D01*
X33272Y-28539D01*
X33075Y-28470D01*
X32867Y-28481D01*
X32815Y-28502D01*
X32815Y-26695D01*
X32500Y-26380D01*
X32429Y-26451D01*
X32429Y-26310D01*
X32114Y-25994D01*
X32018Y-26022D01*
X31957Y-26194D01*
X31876Y-25998D01*
X31721Y-25844D01*
X31519Y-25760D01*
X31301Y-25759D01*
X31098Y-25843D01*
X30944Y-25998D01*
X30864Y-26188D01*
X30786Y-25998D01*
X30631Y-25844D01*
X30429Y-25760D01*
X30211Y-25759D01*
X30008Y-25843D01*
X29854Y-25998D01*
X29770Y-26200D01*
X29769Y-26418D01*
X29853Y-26621D01*
X30008Y-26775D01*
X30210Y-26859D01*
X30428Y-26860D01*
X30631Y-26776D01*
X30785Y-26621D01*
X30865Y-26431D01*
X30943Y-26621D01*
X31098Y-26775D01*
X31300Y-26859D01*
X31518Y-26860D01*
X31721Y-26776D01*
X31875Y-26621D01*
X31955Y-26430D01*
X31956Y-26446D01*
X32018Y-26597D01*
X32114Y-26625D01*
X32429Y-26310D01*
X32429Y-26451D01*
X32184Y-26695D01*
X32212Y-26791D01*
X32418Y-26864D01*
X32636Y-26853D01*
X32787Y-26791D01*
X32815Y-26695D01*
X32815Y-28502D01*
X32727Y-28539D01*
X32702Y-28632D01*
X33000Y-28929D01*
X33297Y-28632D01*
X33297Y-28773D01*
X33070Y-29000D01*
X33367Y-29297D01*
X33460Y-29272D01*
X33529Y-29075D01*
X33529Y-30621D01*
X33491Y-30659D01*
X33400Y-30880D01*
X33399Y-31118D01*
X33456Y-31256D01*
X33297Y-31256D01*
X33297Y-29367D01*
X33000Y-29070D01*
X32929Y-29141D01*
X32929Y-29000D01*
X32632Y-28702D01*
X32539Y-28727D01*
X32470Y-28924D01*
X32481Y-29132D01*
X32539Y-29272D01*
X32632Y-29297D01*
X32929Y-29000D01*
X32929Y-29141D01*
X32702Y-29367D01*
X32727Y-29460D01*
X32924Y-29529D01*
X33132Y-29518D01*
X33272Y-29460D01*
X33297Y-29367D01*
X33297Y-31256D01*
X31529Y-31256D01*
X31529Y-29075D01*
X31518Y-28867D01*
X31460Y-28727D01*
X31367Y-28702D01*
X31297Y-28773D01*
X31297Y-28632D01*
X31272Y-28539D01*
X31075Y-28470D01*
X30867Y-28481D01*
X30727Y-28539D01*
X30702Y-28632D01*
X31000Y-28929D01*
X31297Y-28632D01*
X31297Y-28773D01*
X31070Y-29000D01*
X31367Y-29297D01*
X31460Y-29272D01*
X31529Y-29075D01*
X31529Y-31256D01*
X31297Y-31256D01*
X31297Y-29367D01*
X31000Y-29070D01*
X30929Y-29141D01*
X30929Y-29000D01*
X30632Y-28702D01*
X30539Y-28727D01*
X30470Y-28924D01*
X30481Y-29132D01*
X30539Y-29272D01*
X30632Y-29297D01*
X30929Y-29000D01*
X30929Y-29141D01*
X30702Y-29367D01*
X30727Y-29460D01*
X30924Y-29529D01*
X31132Y-29518D01*
X31272Y-29460D01*
X31297Y-29367D01*
X31297Y-31256D01*
X30821Y-31256D01*
X30599Y-31034D01*
X30600Y-30881D01*
X30508Y-30660D01*
X30340Y-30491D01*
X30119Y-30400D01*
X29881Y-30399D01*
X29660Y-30491D01*
X29525Y-30626D01*
X29525Y-28896D01*
X29445Y-28703D01*
X29297Y-28555D01*
X29104Y-28475D01*
X28896Y-28474D01*
X28780Y-28522D01*
X28780Y-25512D01*
X28597Y-25071D01*
X28260Y-24733D01*
X27819Y-24550D01*
X27342Y-24549D01*
X26901Y-24732D01*
X26563Y-25069D01*
X26380Y-25510D01*
X26379Y-25987D01*
X26562Y-26428D01*
X26899Y-26766D01*
X27340Y-26949D01*
X27817Y-26950D01*
X28258Y-26767D01*
X28596Y-26430D01*
X28779Y-25989D01*
X28780Y-25512D01*
X28780Y-28522D01*
X28703Y-28554D01*
X28555Y-28702D01*
X28475Y-28895D01*
X28474Y-29103D01*
X28554Y-29297D01*
X28702Y-29444D01*
X28895Y-29524D01*
X29103Y-29525D01*
X29297Y-29445D01*
X29444Y-29297D01*
X29524Y-29104D01*
X29525Y-28896D01*
X29525Y-30626D01*
X29491Y-30659D01*
X29400Y-30880D01*
X29399Y-31118D01*
X29491Y-31339D01*
X29659Y-31508D01*
X29880Y-31599D01*
X30034Y-31600D01*
X30373Y-31939D01*
X30373Y-31939D01*
X30460Y-31997D01*
X30503Y-32025D01*
X30503Y-32025D01*
X30656Y-32056D01*
X36843Y-32056D01*
X36843Y-32056D01*
X36971Y-32030D01*
X36996Y-32025D01*
X36996Y-32025D01*
X37126Y-31939D01*
X37422Y-31643D01*
X37627Y-31643D01*
X37864Y-31546D01*
X38045Y-31365D01*
X38143Y-31128D01*
X38143Y-30872D01*
X38143Y-32714D01*
X38132Y-32702D01*
X38039Y-32727D01*
X37970Y-32924D01*
X37981Y-33132D01*
X38039Y-33272D01*
X38132Y-33297D01*
X38429Y-33000D01*
X38429Y-33141D01*
X38202Y-33367D01*
X38227Y-33460D01*
X38424Y-33529D01*
X38632Y-33518D01*
X38772Y-33460D01*
X38797Y-33367D01*
X38797Y-34934D01*
X38660Y-34991D01*
X38551Y-35100D01*
X38250Y-35100D01*
X38096Y-35130D01*
X38053Y-35159D01*
X37967Y-35217D01*
X37025Y-36159D01*
X37025Y-32896D01*
X36945Y-32703D01*
X36797Y-32555D01*
X36604Y-32475D01*
X36396Y-32474D01*
X36203Y-32554D01*
X36055Y-32702D01*
X35975Y-32895D01*
X35974Y-33103D01*
X36054Y-33297D01*
X36202Y-33444D01*
X36395Y-33524D01*
X36603Y-33525D01*
X36797Y-33445D01*
X36944Y-33297D01*
X37024Y-33104D01*
X37025Y-32896D01*
X37025Y-36159D01*
X36467Y-36717D01*
X36380Y-36846D01*
X36375Y-36872D01*
X36350Y-37000D01*
X36350Y-41100D01*
X35592Y-41100D01*
X35547Y-41055D01*
X35354Y-40975D01*
X35146Y-40974D01*
X35100Y-40993D01*
X35100Y-35881D01*
X35008Y-35660D01*
X34840Y-35491D01*
X34619Y-35400D01*
X34600Y-35400D01*
X34600Y-32881D01*
X34508Y-32660D01*
X34340Y-32491D01*
X34119Y-32400D01*
X33881Y-32399D01*
X33660Y-32491D01*
X33491Y-32659D01*
X33400Y-32880D01*
X33399Y-33118D01*
X33491Y-33339D01*
X33659Y-33508D01*
X33880Y-33599D01*
X34118Y-33600D01*
X34339Y-33508D01*
X34508Y-33340D01*
X34599Y-33119D01*
X34600Y-32881D01*
X34600Y-35400D01*
X34381Y-35399D01*
X34160Y-35491D01*
X33991Y-35659D01*
X33900Y-35880D01*
X33899Y-36118D01*
X33991Y-36339D01*
X34159Y-36508D01*
X34380Y-36599D01*
X34618Y-36600D01*
X34839Y-36508D01*
X35008Y-36340D01*
X35099Y-36119D01*
X35100Y-35881D01*
X35100Y-40993D01*
X35100Y-40993D01*
X35100Y-38399D01*
X35100Y-37600D01*
X35062Y-37508D01*
X34991Y-37438D01*
X34899Y-37400D01*
X34800Y-37399D01*
X34612Y-37400D01*
X34550Y-37462D01*
X34550Y-37950D01*
X35037Y-37950D01*
X35100Y-37887D01*
X35100Y-37600D01*
X35100Y-38399D01*
X35100Y-38112D01*
X35037Y-38050D01*
X34550Y-38050D01*
X34550Y-38537D01*
X34612Y-38600D01*
X34800Y-38600D01*
X34899Y-38599D01*
X34991Y-38561D01*
X35062Y-38491D01*
X35100Y-38399D01*
X35100Y-40993D01*
X34953Y-41054D01*
X34805Y-41202D01*
X34725Y-41395D01*
X34724Y-41603D01*
X34804Y-41797D01*
X34952Y-41944D01*
X35145Y-42024D01*
X35353Y-42025D01*
X35547Y-41945D01*
X35592Y-41900D01*
X36350Y-41900D01*
X36350Y-42250D01*
X36375Y-42377D01*
X36380Y-42403D01*
X36467Y-42532D01*
X36974Y-43040D01*
X36974Y-43324D01*
X37012Y-43416D01*
X37083Y-43486D01*
X37175Y-43524D01*
X37274Y-43525D01*
X37824Y-43525D01*
X37916Y-43487D01*
X37986Y-43416D01*
X38024Y-43324D01*
X38025Y-43225D01*
X38025Y-42675D01*
X37987Y-42583D01*
X37916Y-42513D01*
X37824Y-42475D01*
X37725Y-42474D01*
X37540Y-42474D01*
X37150Y-42084D01*
X37150Y-41500D01*
X37150Y-40392D01*
X37202Y-40444D01*
X37395Y-40524D01*
X37603Y-40525D01*
X37797Y-40445D01*
X37944Y-40297D01*
X38024Y-40104D01*
X38025Y-39896D01*
X37945Y-39703D01*
X37797Y-39555D01*
X37604Y-39475D01*
X37396Y-39474D01*
X37203Y-39554D01*
X37150Y-39607D01*
X37150Y-37165D01*
X38415Y-35900D01*
X38551Y-35900D01*
X38651Y-36000D01*
X38491Y-36159D01*
X38400Y-36380D01*
X38399Y-36618D01*
X38491Y-36839D01*
X38565Y-36914D01*
X38508Y-36937D01*
X38438Y-37008D01*
X38400Y-37100D01*
X38399Y-37199D01*
X38400Y-37387D01*
X38462Y-37450D01*
X38950Y-37450D01*
X38950Y-37442D01*
X39050Y-37442D01*
X39050Y-37450D01*
X39537Y-37450D01*
X39600Y-37387D01*
X39600Y-37199D01*
X39599Y-37100D01*
X39561Y-37008D01*
X39491Y-36937D01*
X39434Y-36914D01*
X39508Y-36840D01*
X39599Y-36619D01*
X39600Y-36381D01*
X39600Y-44122D01*
X39600Y-44122D01*
X39600Y-37800D01*
X39600Y-37612D01*
X39537Y-37550D01*
X39050Y-37550D01*
X39050Y-38037D01*
X39112Y-38100D01*
X39399Y-38100D01*
X39491Y-38062D01*
X39561Y-37991D01*
X39599Y-37899D01*
X39600Y-37800D01*
X39600Y-44122D01*
X39534Y-44188D01*
X39450Y-44390D01*
X39449Y-44608D01*
X39533Y-44811D01*
X39650Y-44927D01*
X39650Y-45500D01*
X39676Y-45633D01*
X39752Y-45747D01*
X41400Y-47395D01*
X41399Y-47618D01*
X41491Y-47839D01*
X41659Y-48008D01*
X41880Y-48099D01*
X42118Y-48100D01*
X42339Y-48008D01*
X42508Y-47840D01*
X42599Y-47619D01*
X42600Y-47381D01*
X42508Y-47160D01*
X42348Y-46999D01*
X42508Y-46840D01*
X42599Y-46619D01*
X42600Y-46381D01*
X42508Y-46160D01*
X42434Y-46085D01*
X42491Y-46062D01*
X42561Y-45991D01*
X42599Y-45899D01*
X42600Y-45800D01*
X42600Y-45100D01*
X42562Y-45008D01*
X42491Y-44938D01*
X42399Y-44900D01*
X42350Y-44900D01*
X42350Y-42644D01*
X42445Y-42549D01*
X42608Y-42550D01*
X42811Y-42466D01*
X42965Y-42311D01*
X43049Y-42109D01*
X43050Y-41891D01*
X43050Y-48150D01*
X40427Y-48150D01*
X40311Y-48034D01*
X40109Y-47950D01*
X39891Y-47949D01*
X39688Y-48033D01*
X39534Y-48188D01*
X39450Y-48390D01*
X39449Y-48608D01*
X39533Y-48811D01*
X39688Y-48965D01*
X39890Y-49049D01*
X40108Y-49050D01*
X40311Y-48966D01*
X40427Y-48850D01*
X45000Y-48850D01*
X45133Y-48823D01*
X45133Y-48823D01*
X45247Y-48747D01*
X46445Y-47549D01*
X46608Y-47550D01*
X46811Y-47466D01*
X46965Y-47311D01*
X46997Y-47236D01*
X47018Y-47287D01*
X47114Y-47315D01*
X47429Y-47000D01*
X47429Y-47141D01*
X47184Y-47385D01*
X47212Y-47481D01*
X47418Y-47554D01*
X47636Y-47543D01*
X47787Y-47481D01*
X47815Y-47385D01*
X47815Y-49700D01*
X47029Y-49700D01*
X47029Y-49075D01*
X47018Y-48867D01*
X46960Y-48727D01*
X46867Y-48702D01*
X46797Y-48773D01*
X46797Y-48632D01*
X46772Y-48539D01*
X46575Y-48470D01*
X46367Y-48481D01*
X46227Y-48539D01*
X46202Y-48632D01*
X46500Y-48929D01*
X46797Y-48632D01*
X46797Y-48773D01*
X46570Y-49000D01*
X46867Y-49297D01*
X46960Y-49272D01*
X47029Y-49075D01*
X47029Y-49700D01*
X46797Y-49700D01*
X46797Y-49367D01*
X46500Y-49070D01*
X46429Y-49141D01*
X46429Y-49000D01*
X46132Y-48702D01*
X46039Y-48727D01*
X45970Y-48924D01*
X45981Y-49132D01*
X46039Y-49272D01*
X46132Y-49297D01*
X46429Y-49000D01*
X46429Y-49141D01*
X46202Y-49367D01*
X46227Y-49460D01*
X46424Y-49529D01*
X46632Y-49518D01*
X46772Y-49460D01*
X46797Y-49367D01*
X46797Y-49700D01*
X39050Y-49700D01*
X39050Y-48391D01*
X39050Y-44391D01*
X38966Y-44188D01*
X38950Y-44172D01*
X38950Y-38037D01*
X38950Y-37550D01*
X38462Y-37550D01*
X38400Y-37612D01*
X38399Y-37800D01*
X38400Y-37899D01*
X38438Y-37991D01*
X38508Y-38062D01*
X38600Y-38100D01*
X38887Y-38100D01*
X38950Y-38037D01*
X38950Y-44172D01*
X38811Y-44034D01*
X38609Y-43950D01*
X38391Y-43949D01*
X38188Y-44033D01*
X38034Y-44188D01*
X37950Y-44390D01*
X37949Y-44608D01*
X38033Y-44811D01*
X38188Y-44965D01*
X38390Y-45049D01*
X38608Y-45050D01*
X38811Y-44966D01*
X38965Y-44811D01*
X39049Y-44609D01*
X39050Y-44391D01*
X39050Y-48391D01*
X38966Y-48188D01*
X38811Y-48034D01*
X38609Y-47950D01*
X38391Y-47949D01*
X38188Y-48033D01*
X38034Y-48188D01*
X37950Y-48390D01*
X37949Y-48608D01*
X38033Y-48811D01*
X38188Y-48965D01*
X38390Y-49049D01*
X38608Y-49050D01*
X38811Y-48966D01*
X38965Y-48811D01*
X39049Y-48609D01*
X39050Y-48391D01*
X39050Y-49700D01*
X36525Y-49700D01*
X36525Y-44396D01*
X36445Y-44203D01*
X36297Y-44055D01*
X36104Y-43975D01*
X35896Y-43974D01*
X35703Y-44054D01*
X35555Y-44202D01*
X35475Y-44395D01*
X35474Y-44603D01*
X35554Y-44797D01*
X35600Y-44842D01*
X35600Y-46334D01*
X35578Y-46356D01*
X35056Y-46356D01*
X34964Y-46394D01*
X34894Y-46464D01*
X34872Y-46517D01*
X34844Y-46441D01*
X34604Y-46352D01*
X34450Y-46357D01*
X34450Y-38537D01*
X34450Y-38050D01*
X34450Y-37950D01*
X34450Y-37462D01*
X34387Y-37400D01*
X34199Y-37399D01*
X34100Y-37400D01*
X34008Y-37438D01*
X33937Y-37508D01*
X33899Y-37600D01*
X33900Y-37887D01*
X33962Y-37950D01*
X34450Y-37950D01*
X34450Y-38050D01*
X33962Y-38050D01*
X33900Y-38112D01*
X33899Y-38399D01*
X33937Y-38491D01*
X34008Y-38561D01*
X34100Y-38599D01*
X34199Y-38600D01*
X34387Y-38600D01*
X34450Y-38537D01*
X34450Y-46357D01*
X34348Y-46361D01*
X34275Y-46391D01*
X34275Y-41725D01*
X34275Y-41274D01*
X34274Y-41175D01*
X34236Y-41083D01*
X34166Y-41012D01*
X34074Y-40974D01*
X33862Y-40975D01*
X33800Y-41037D01*
X33800Y-41450D01*
X34212Y-41450D01*
X34275Y-41387D01*
X34275Y-41274D01*
X34275Y-41725D01*
X34275Y-41612D01*
X34212Y-41550D01*
X33800Y-41550D01*
X33800Y-41962D01*
X33862Y-42025D01*
X34074Y-42025D01*
X34166Y-41987D01*
X34236Y-41916D01*
X34274Y-41824D01*
X34275Y-41725D01*
X34275Y-46391D01*
X34155Y-46441D01*
X34116Y-46546D01*
X34500Y-46929D01*
X34505Y-46923D01*
X34576Y-46994D01*
X34570Y-47000D01*
X34576Y-47005D01*
X34505Y-47076D01*
X34500Y-47070D01*
X34429Y-47141D01*
X34429Y-47000D01*
X34046Y-46616D01*
X34032Y-46622D01*
X33865Y-46454D01*
X33700Y-46386D01*
X33700Y-41962D01*
X33700Y-41550D01*
X33700Y-41450D01*
X33700Y-41037D01*
X33637Y-40975D01*
X33425Y-40974D01*
X33333Y-41012D01*
X33263Y-41083D01*
X33225Y-41175D01*
X33224Y-41274D01*
X33225Y-41387D01*
X33287Y-41450D01*
X33700Y-41450D01*
X33700Y-41550D01*
X33287Y-41550D01*
X33225Y-41612D01*
X33224Y-41725D01*
X33225Y-41824D01*
X33263Y-41916D01*
X33333Y-41987D01*
X33425Y-42025D01*
X33637Y-42025D01*
X33700Y-41962D01*
X33700Y-46386D01*
X33628Y-46356D01*
X33525Y-46356D01*
X33525Y-44725D01*
X33525Y-44274D01*
X33524Y-44175D01*
X33486Y-44083D01*
X33416Y-44012D01*
X33324Y-43974D01*
X33112Y-43975D01*
X33050Y-44037D01*
X33050Y-44450D01*
X33462Y-44450D01*
X33525Y-44387D01*
X33525Y-44274D01*
X33525Y-44725D01*
X33525Y-44612D01*
X33462Y-44550D01*
X33050Y-44550D01*
X33050Y-44962D01*
X33112Y-45025D01*
X33324Y-45025D01*
X33416Y-44987D01*
X33486Y-44916D01*
X33524Y-44824D01*
X33525Y-44725D01*
X33525Y-46356D01*
X33372Y-46356D01*
X33135Y-46453D01*
X32954Y-46634D01*
X32950Y-46646D01*
X32950Y-44962D01*
X32950Y-44550D01*
X32950Y-44450D01*
X32950Y-44037D01*
X32887Y-43975D01*
X32675Y-43974D01*
X32583Y-44012D01*
X32513Y-44083D01*
X32475Y-44175D01*
X32474Y-44274D01*
X32475Y-44387D01*
X32537Y-44450D01*
X32950Y-44450D01*
X32950Y-44550D01*
X32537Y-44550D01*
X32475Y-44612D01*
X32474Y-44725D01*
X32475Y-44824D01*
X32513Y-44916D01*
X32583Y-44987D01*
X32675Y-45025D01*
X32887Y-45025D01*
X32950Y-44962D01*
X32950Y-46646D01*
X32856Y-46871D01*
X32856Y-47078D01*
X32084Y-47850D01*
X31529Y-47850D01*
X31529Y-44575D01*
X31518Y-44367D01*
X31460Y-44227D01*
X31367Y-44202D01*
X31297Y-44273D01*
X31297Y-44132D01*
X31272Y-44039D01*
X31075Y-43970D01*
X30867Y-43981D01*
X30779Y-44017D01*
X30779Y-41575D01*
X30768Y-41367D01*
X30710Y-41227D01*
X30617Y-41202D01*
X30600Y-41220D01*
X30600Y-32881D01*
X30508Y-32660D01*
X30340Y-32491D01*
X30119Y-32400D01*
X29881Y-32399D01*
X29660Y-32491D01*
X29491Y-32659D01*
X29400Y-32880D01*
X29399Y-33118D01*
X29491Y-33339D01*
X29659Y-33508D01*
X29880Y-33599D01*
X30118Y-33600D01*
X30339Y-33508D01*
X30508Y-33340D01*
X30599Y-33119D01*
X30600Y-32881D01*
X30600Y-41220D01*
X30547Y-41273D01*
X30547Y-41132D01*
X30522Y-41039D01*
X30325Y-40970D01*
X30117Y-40981D01*
X30104Y-40986D01*
X30104Y-38093D01*
X30100Y-37988D01*
X30100Y-36300D01*
X30100Y-35600D01*
X30062Y-35508D01*
X29991Y-35438D01*
X29899Y-35400D01*
X29800Y-35399D01*
X29100Y-35399D01*
X29008Y-35437D01*
X28938Y-35508D01*
X28900Y-35600D01*
X28899Y-35699D01*
X28899Y-36399D01*
X28937Y-36491D01*
X29008Y-36561D01*
X29100Y-36599D01*
X29199Y-36600D01*
X29899Y-36600D01*
X29991Y-36562D01*
X30061Y-36491D01*
X30099Y-36399D01*
X30100Y-36300D01*
X30100Y-37988D01*
X30094Y-37855D01*
X30022Y-37682D01*
X29922Y-37648D01*
X29851Y-37719D01*
X29851Y-37577D01*
X29817Y-37477D01*
X29593Y-37395D01*
X29355Y-37405D01*
X29182Y-37477D01*
X29148Y-37577D01*
X29500Y-37929D01*
X29851Y-37577D01*
X29851Y-37719D01*
X29570Y-38000D01*
X29922Y-38351D01*
X30022Y-38317D01*
X30104Y-38093D01*
X30104Y-40986D01*
X29977Y-41039D01*
X29952Y-41132D01*
X30250Y-41429D01*
X30547Y-41132D01*
X30547Y-41273D01*
X30320Y-41500D01*
X30617Y-41797D01*
X30710Y-41772D01*
X30779Y-41575D01*
X30779Y-44017D01*
X30727Y-44039D01*
X30702Y-44132D01*
X31000Y-44429D01*
X31297Y-44132D01*
X31297Y-44273D01*
X31070Y-44500D01*
X31367Y-44797D01*
X31460Y-44772D01*
X31529Y-44575D01*
X31529Y-47850D01*
X31297Y-47850D01*
X31297Y-44867D01*
X31000Y-44570D01*
X30929Y-44641D01*
X30929Y-44500D01*
X30632Y-44202D01*
X30547Y-44225D01*
X30547Y-41867D01*
X30250Y-41570D01*
X30179Y-41641D01*
X30179Y-41500D01*
X29882Y-41202D01*
X29851Y-41210D01*
X29851Y-38422D01*
X29500Y-38070D01*
X29429Y-38141D01*
X29429Y-38000D01*
X29077Y-37648D01*
X28977Y-37682D01*
X28895Y-37906D01*
X28905Y-38144D01*
X28977Y-38317D01*
X29077Y-38351D01*
X29429Y-38000D01*
X29429Y-38141D01*
X29148Y-38422D01*
X29182Y-38522D01*
X29406Y-38604D01*
X29644Y-38594D01*
X29817Y-38522D01*
X29851Y-38422D01*
X29851Y-41210D01*
X29789Y-41227D01*
X29720Y-41424D01*
X29731Y-41632D01*
X29789Y-41772D01*
X29882Y-41797D01*
X30179Y-41500D01*
X30179Y-41641D01*
X29952Y-41867D01*
X29977Y-41960D01*
X30174Y-42029D01*
X30382Y-42018D01*
X30522Y-41960D01*
X30547Y-41867D01*
X30547Y-44225D01*
X30539Y-44227D01*
X30470Y-44424D01*
X30481Y-44632D01*
X30539Y-44772D01*
X30632Y-44797D01*
X30929Y-44500D01*
X30929Y-44641D01*
X30702Y-44867D01*
X30727Y-44960D01*
X30924Y-45029D01*
X31132Y-45018D01*
X31272Y-44960D01*
X31297Y-44867D01*
X31297Y-47850D01*
X31143Y-47850D01*
X31143Y-47344D01*
X31143Y-46556D01*
X31105Y-46464D01*
X31035Y-46394D01*
X30943Y-46356D01*
X30844Y-46356D01*
X30056Y-46356D01*
X29964Y-46394D01*
X29894Y-46464D01*
X29872Y-46517D01*
X29844Y-46441D01*
X29604Y-46352D01*
X29348Y-46361D01*
X29275Y-46391D01*
X29275Y-41725D01*
X29275Y-41175D01*
X29237Y-41083D01*
X29166Y-41013D01*
X29074Y-40975D01*
X28975Y-40974D01*
X28425Y-40974D01*
X28333Y-41012D01*
X28263Y-41083D01*
X28225Y-41175D01*
X28224Y-41274D01*
X28224Y-41824D01*
X28262Y-41916D01*
X28333Y-41986D01*
X28425Y-42024D01*
X28524Y-42025D01*
X29074Y-42025D01*
X29166Y-41987D01*
X29236Y-41916D01*
X29274Y-41824D01*
X29275Y-41725D01*
X29275Y-46391D01*
X29155Y-46441D01*
X29116Y-46546D01*
X29500Y-46929D01*
X29505Y-46923D01*
X29576Y-46994D01*
X29570Y-47000D01*
X29576Y-47005D01*
X29505Y-47076D01*
X29500Y-47070D01*
X29116Y-47453D01*
X29155Y-47558D01*
X29395Y-47647D01*
X29651Y-47638D01*
X29844Y-47558D01*
X29872Y-47482D01*
X29894Y-47535D01*
X29964Y-47605D01*
X30056Y-47643D01*
X30155Y-47643D01*
X30943Y-47643D01*
X31035Y-47605D01*
X31105Y-47535D01*
X31143Y-47443D01*
X31143Y-47344D01*
X31143Y-47850D01*
X29165Y-47850D01*
X28900Y-47584D01*
X28900Y-47510D01*
X29032Y-47377D01*
X29046Y-47383D01*
X29429Y-47000D01*
X29046Y-46616D01*
X29032Y-46622D01*
X28865Y-46454D01*
X28628Y-46356D01*
X28421Y-46356D01*
X28400Y-46334D01*
X28400Y-44993D01*
X28416Y-44987D01*
X28486Y-44916D01*
X28524Y-44824D01*
X28525Y-44725D01*
X28525Y-44175D01*
X28487Y-44083D01*
X28416Y-44013D01*
X28324Y-43975D01*
X28225Y-43974D01*
X27675Y-43974D01*
X27583Y-44012D01*
X27525Y-44071D01*
X27525Y-32896D01*
X27445Y-32703D01*
X27297Y-32555D01*
X27147Y-32492D01*
X27147Y-30104D01*
X27143Y-29991D01*
X27143Y-28872D01*
X27046Y-28635D01*
X26865Y-28454D01*
X26628Y-28356D01*
X26372Y-28356D01*
X26135Y-28453D01*
X25954Y-28634D01*
X25856Y-28871D01*
X25856Y-29127D01*
X25953Y-29364D01*
X26122Y-29532D01*
X26116Y-29546D01*
X26500Y-29929D01*
X26883Y-29546D01*
X26877Y-29532D01*
X27045Y-29365D01*
X27143Y-29128D01*
X27143Y-28872D01*
X27143Y-29991D01*
X27138Y-29848D01*
X27058Y-29655D01*
X26953Y-29616D01*
X26570Y-30000D01*
X26576Y-30005D01*
X26505Y-30076D01*
X26500Y-30070D01*
X26494Y-30076D01*
X26423Y-30005D01*
X26429Y-30000D01*
X26046Y-29616D01*
X25941Y-29655D01*
X25852Y-29895D01*
X25861Y-30151D01*
X25941Y-30344D01*
X26017Y-30372D01*
X25964Y-30394D01*
X25894Y-30464D01*
X25856Y-30556D01*
X25856Y-30655D01*
X25856Y-31443D01*
X25894Y-31535D01*
X25964Y-31605D01*
X26056Y-31643D01*
X26155Y-31643D01*
X26943Y-31643D01*
X27035Y-31605D01*
X27105Y-31535D01*
X27143Y-31443D01*
X27143Y-31344D01*
X27143Y-30556D01*
X27105Y-30464D01*
X27035Y-30394D01*
X26982Y-30372D01*
X27058Y-30344D01*
X27147Y-30104D01*
X27147Y-32492D01*
X27104Y-32475D01*
X26896Y-32474D01*
X26703Y-32554D01*
X26555Y-32702D01*
X26475Y-32895D01*
X26474Y-33103D01*
X26554Y-33297D01*
X26702Y-33444D01*
X26895Y-33524D01*
X27103Y-33525D01*
X27297Y-33445D01*
X27444Y-33297D01*
X27524Y-33104D01*
X27525Y-32896D01*
X27525Y-44071D01*
X27513Y-44083D01*
X27475Y-44175D01*
X27474Y-44274D01*
X27474Y-44824D01*
X27512Y-44916D01*
X27583Y-44986D01*
X27600Y-44993D01*
X27600Y-46500D01*
X27625Y-46627D01*
X27630Y-46653D01*
X27717Y-46782D01*
X27856Y-46922D01*
X27856Y-47127D01*
X27953Y-47364D01*
X28100Y-47510D01*
X28100Y-47750D01*
X28125Y-47877D01*
X28130Y-47903D01*
X28217Y-48032D01*
X28717Y-48532D01*
X28717Y-48532D01*
X28803Y-48590D01*
X28846Y-48619D01*
X28846Y-48619D01*
X29000Y-48650D01*
X32250Y-48650D01*
X32250Y-48649D01*
X32377Y-48624D01*
X32403Y-48619D01*
X32403Y-48619D01*
X32532Y-48532D01*
X33422Y-47643D01*
X33627Y-47643D01*
X33864Y-47546D01*
X34032Y-47377D01*
X34046Y-47383D01*
X34429Y-47000D01*
X34429Y-47141D01*
X34116Y-47453D01*
X34155Y-47558D01*
X34395Y-47647D01*
X34651Y-47638D01*
X34844Y-47558D01*
X34872Y-47482D01*
X34894Y-47535D01*
X34964Y-47605D01*
X35056Y-47643D01*
X35155Y-47643D01*
X35943Y-47643D01*
X36035Y-47605D01*
X36105Y-47535D01*
X36143Y-47443D01*
X36143Y-47344D01*
X36143Y-46921D01*
X36282Y-46782D01*
X36282Y-46782D01*
X36340Y-46696D01*
X36369Y-46653D01*
X36369Y-46653D01*
X36399Y-46500D01*
X36400Y-46500D01*
X36400Y-44842D01*
X36444Y-44797D01*
X36524Y-44604D01*
X36525Y-44396D01*
X36525Y-49700D01*
X27025Y-49700D01*
X27025Y-42896D01*
X27025Y-42895D01*
X27025Y-40225D01*
X27025Y-39675D01*
X26987Y-39583D01*
X26916Y-39513D01*
X26824Y-39475D01*
X26725Y-39474D01*
X26175Y-39474D01*
X26083Y-39512D01*
X26013Y-39583D01*
X25975Y-39675D01*
X25974Y-39774D01*
X25974Y-40324D01*
X26012Y-40416D01*
X26083Y-40486D01*
X26175Y-40524D01*
X26274Y-40525D01*
X26824Y-40525D01*
X26916Y-40487D01*
X26986Y-40416D01*
X27024Y-40324D01*
X27025Y-40225D01*
X27025Y-42895D01*
X26945Y-42703D01*
X26797Y-42555D01*
X26604Y-42475D01*
X26396Y-42474D01*
X26203Y-42554D01*
X26055Y-42702D01*
X25975Y-42895D01*
X25974Y-43103D01*
X26054Y-43297D01*
X26202Y-43444D01*
X26395Y-43524D01*
X26603Y-43525D01*
X26797Y-43445D01*
X26944Y-43297D01*
X27024Y-43104D01*
X27025Y-42896D01*
X27025Y-49700D01*
X25991Y-49700D01*
X26313Y-49379D01*
X26549Y-48809D01*
X26550Y-48193D01*
X26314Y-47623D01*
X25879Y-47186D01*
X25604Y-47072D01*
X25604Y-36593D01*
X25600Y-36488D01*
X25594Y-36355D01*
X25522Y-36182D01*
X25422Y-36148D01*
X25467Y-36103D01*
X25445Y-36081D01*
X25491Y-36062D01*
X25561Y-35991D01*
X25599Y-35899D01*
X25600Y-35800D01*
X25600Y-35100D01*
X25562Y-35008D01*
X25529Y-34976D01*
X25529Y-33075D01*
X25518Y-32867D01*
X25460Y-32727D01*
X25367Y-32702D01*
X25297Y-32773D01*
X25297Y-32632D01*
X25272Y-32539D01*
X25075Y-32470D01*
X24867Y-32481D01*
X24727Y-32539D01*
X24702Y-32632D01*
X25000Y-32929D01*
X25297Y-32632D01*
X25297Y-32773D01*
X25070Y-33000D01*
X25367Y-33297D01*
X25460Y-33272D01*
X25529Y-33075D01*
X25529Y-34976D01*
X25491Y-34938D01*
X25399Y-34900D01*
X25300Y-34899D01*
X25297Y-34899D01*
X25297Y-33367D01*
X25000Y-33070D01*
X24929Y-33141D01*
X24929Y-33000D01*
X24632Y-32702D01*
X24539Y-32727D01*
X24470Y-32924D01*
X24481Y-33132D01*
X24539Y-33272D01*
X24632Y-33297D01*
X24929Y-33000D01*
X24929Y-33141D01*
X24702Y-33367D01*
X24727Y-33460D01*
X24924Y-33529D01*
X25132Y-33518D01*
X25272Y-33460D01*
X25297Y-33367D01*
X25297Y-34899D01*
X24600Y-34899D01*
X24508Y-34937D01*
X24438Y-35008D01*
X24400Y-35100D01*
X24399Y-35199D01*
X24399Y-35899D01*
X24437Y-35991D01*
X24508Y-36061D01*
X24554Y-36081D01*
X24532Y-36103D01*
X24577Y-36148D01*
X24477Y-36182D01*
X24395Y-36406D01*
X24405Y-36644D01*
X24477Y-36817D01*
X24577Y-36851D01*
X24929Y-36500D01*
X24923Y-36494D01*
X24994Y-36423D01*
X25000Y-36429D01*
X25005Y-36423D01*
X25076Y-36494D01*
X25070Y-36500D01*
X25422Y-36851D01*
X25522Y-36817D01*
X25604Y-36593D01*
X25604Y-47072D01*
X25600Y-47070D01*
X25600Y-37381D01*
X25508Y-37160D01*
X25340Y-36991D01*
X25329Y-36987D01*
X25351Y-36922D01*
X25000Y-36570D01*
X24929Y-36641D01*
X24648Y-36922D01*
X24670Y-36987D01*
X24660Y-36991D01*
X24491Y-37159D01*
X24400Y-37380D01*
X24399Y-37618D01*
X24491Y-37839D01*
X24659Y-38008D01*
X24880Y-38099D01*
X25118Y-38100D01*
X25339Y-38008D01*
X25508Y-37840D01*
X25599Y-37619D01*
X25600Y-37381D01*
X25600Y-47070D01*
X25309Y-46950D01*
X24693Y-46949D01*
X24123Y-47185D01*
X23800Y-47507D01*
X23800Y-24491D01*
X24120Y-24813D01*
X24690Y-25049D01*
X25306Y-25050D01*
X25876Y-24814D01*
X26313Y-24379D01*
X26549Y-23809D01*
X26550Y-23193D01*
X26314Y-22623D01*
X25992Y-22300D01*
X69008Y-22300D01*
X68686Y-22620D01*
X68450Y-23190D01*
X68449Y-23806D01*
X68685Y-24376D01*
X69120Y-24813D01*
X69690Y-25049D01*
X70306Y-25050D01*
X70876Y-24814D01*
X71200Y-24492D01*
X71200Y-47508D01*
X71200Y-47508D01*
G37*
G54D27*
X71200Y-47508D02*
X71050Y-47357D01*
X71050Y-38891D01*
X71050Y-37391D01*
X71029Y-37342D01*
X71029Y-33575D01*
X71018Y-33367D01*
X70960Y-33227D01*
X70867Y-33202D01*
X70797Y-33273D01*
X70797Y-33132D01*
X70772Y-33039D01*
X70600Y-32978D01*
X70600Y-30800D01*
X70600Y-30100D01*
X70562Y-30008D01*
X70491Y-29938D01*
X70399Y-29900D01*
X70300Y-29899D01*
X69600Y-29899D01*
X69508Y-29937D01*
X69438Y-30008D01*
X69414Y-30065D01*
X69340Y-29991D01*
X69119Y-29900D01*
X68881Y-29899D01*
X68660Y-29991D01*
X68499Y-30151D01*
X68489Y-30140D01*
X68489Y-25220D01*
X68489Y-24579D01*
X68413Y-24200D01*
X68199Y-23880D01*
X67878Y-23665D01*
X67500Y-23590D01*
X67121Y-23665D01*
X66800Y-23880D01*
X66586Y-24200D01*
X66511Y-24579D01*
X66511Y-25220D01*
X66586Y-25599D01*
X66800Y-25919D01*
X67121Y-26134D01*
X67500Y-26209D01*
X67878Y-26134D01*
X68199Y-25919D01*
X68413Y-25599D01*
X68489Y-25220D01*
X68489Y-30140D01*
X68340Y-29991D01*
X68119Y-29900D01*
X67881Y-29899D01*
X67660Y-29991D01*
X67491Y-30159D01*
X67400Y-30380D01*
X67399Y-30618D01*
X67491Y-30839D01*
X67659Y-31008D01*
X67880Y-31099D01*
X68118Y-31100D01*
X68339Y-31008D01*
X68500Y-30848D01*
X68659Y-31008D01*
X68880Y-31099D01*
X69118Y-31100D01*
X69339Y-31008D01*
X69414Y-30934D01*
X69437Y-30991D01*
X69508Y-31061D01*
X69600Y-31099D01*
X69699Y-31100D01*
X70399Y-31100D01*
X70491Y-31062D01*
X70561Y-30991D01*
X70599Y-30899D01*
X70600Y-30800D01*
X70600Y-32978D01*
X70575Y-32970D01*
X70367Y-32981D01*
X70227Y-33039D01*
X70202Y-33132D01*
X70500Y-33429D01*
X70797Y-33132D01*
X70797Y-33273D01*
X70570Y-33500D01*
X70867Y-33797D01*
X70960Y-33772D01*
X71029Y-33575D01*
X71029Y-37342D01*
X71025Y-37330D01*
X71025Y-35396D01*
X70945Y-35203D01*
X70797Y-35055D01*
X70797Y-35054D01*
X70797Y-33867D01*
X70500Y-33570D01*
X70429Y-33641D01*
X70429Y-33500D01*
X70132Y-33202D01*
X70039Y-33227D01*
X69970Y-33424D01*
X69981Y-33632D01*
X70039Y-33772D01*
X70132Y-33797D01*
X70429Y-33500D01*
X70429Y-33641D01*
X70202Y-33867D01*
X70227Y-33960D01*
X70424Y-34029D01*
X70632Y-34018D01*
X70772Y-33960D01*
X70797Y-33867D01*
X70797Y-35054D01*
X70604Y-34975D01*
X70396Y-34974D01*
X70203Y-35054D01*
X70055Y-35202D01*
X69975Y-35395D01*
X69974Y-35603D01*
X70054Y-35797D01*
X70202Y-35944D01*
X70395Y-36024D01*
X70603Y-36025D01*
X70797Y-35945D01*
X70944Y-35797D01*
X71024Y-35604D01*
X71025Y-35396D01*
X71025Y-37330D01*
X70966Y-37188D01*
X70811Y-37034D01*
X70609Y-36950D01*
X70391Y-36949D01*
X70188Y-37033D01*
X70072Y-37150D01*
X69054Y-37150D01*
X69054Y-32581D01*
X69043Y-32363D01*
X68981Y-32212D01*
X68885Y-32184D01*
X68815Y-32255D01*
X68815Y-32114D01*
X68787Y-32018D01*
X68581Y-31945D01*
X68363Y-31956D01*
X68212Y-32018D01*
X68184Y-32114D01*
X68500Y-32429D01*
X68815Y-32114D01*
X68815Y-32255D01*
X68570Y-32500D01*
X68885Y-32815D01*
X68981Y-32787D01*
X69054Y-32581D01*
X69054Y-37150D01*
X67894Y-37150D01*
X66850Y-36105D01*
X66850Y-35927D01*
X66965Y-35811D01*
X66999Y-35730D01*
X67033Y-35811D01*
X67188Y-35965D01*
X67390Y-36049D01*
X67608Y-36050D01*
X67811Y-35966D01*
X67965Y-35811D01*
X67999Y-35730D01*
X68033Y-35811D01*
X68188Y-35965D01*
X68390Y-36049D01*
X68608Y-36050D01*
X68811Y-35966D01*
X68965Y-35811D01*
X69049Y-35609D01*
X69050Y-35391D01*
X68966Y-35188D01*
X68815Y-35037D01*
X68815Y-32885D01*
X68500Y-32570D01*
X68429Y-32641D01*
X68429Y-32500D01*
X68114Y-32184D01*
X68018Y-32212D01*
X67999Y-32267D01*
X67966Y-32188D01*
X67811Y-32034D01*
X67609Y-31950D01*
X67444Y-31949D01*
X66747Y-31252D01*
X66633Y-31176D01*
X66500Y-31150D01*
X66065Y-31150D01*
X66065Y-26788D01*
X65979Y-26580D01*
X65820Y-26421D01*
X65612Y-26335D01*
X65388Y-26334D01*
X65180Y-26420D01*
X65021Y-26579D01*
X65002Y-26624D01*
X64993Y-26603D01*
X64896Y-26573D01*
X64826Y-26644D01*
X64826Y-26503D01*
X64796Y-26406D01*
X64585Y-26330D01*
X64489Y-26334D01*
X64489Y-25220D01*
X64489Y-24579D01*
X64413Y-24200D01*
X64199Y-23880D01*
X63878Y-23665D01*
X63500Y-23590D01*
X63121Y-23665D01*
X62800Y-23880D01*
X62586Y-24200D01*
X62511Y-24579D01*
X62511Y-25220D01*
X62586Y-25599D01*
X62800Y-25919D01*
X63121Y-26134D01*
X63500Y-26209D01*
X63878Y-26134D01*
X64199Y-25919D01*
X64413Y-25599D01*
X64489Y-25220D01*
X64489Y-26334D01*
X64360Y-26340D01*
X64203Y-26406D01*
X64173Y-26503D01*
X64500Y-26829D01*
X64826Y-26503D01*
X64826Y-26644D01*
X64570Y-26900D01*
X64896Y-27226D01*
X64993Y-27196D01*
X65001Y-27174D01*
X65020Y-27219D01*
X65179Y-27378D01*
X65387Y-27464D01*
X65611Y-27465D01*
X65819Y-27379D01*
X65978Y-27220D01*
X66064Y-27012D01*
X66065Y-26788D01*
X66065Y-31150D01*
X66025Y-31150D01*
X66025Y-29896D01*
X65945Y-29703D01*
X65797Y-29555D01*
X65604Y-29475D01*
X65396Y-29474D01*
X65203Y-29554D01*
X65055Y-29702D01*
X64975Y-29895D01*
X64974Y-30103D01*
X65054Y-30297D01*
X65202Y-30444D01*
X65395Y-30524D01*
X65603Y-30525D01*
X65797Y-30445D01*
X65944Y-30297D01*
X66024Y-30104D01*
X66025Y-29896D01*
X66025Y-31150D01*
X64826Y-31150D01*
X64826Y-27296D01*
X64500Y-26970D01*
X64429Y-27041D01*
X64429Y-26900D01*
X64103Y-26573D01*
X64006Y-26603D01*
X63930Y-26814D01*
X63940Y-27039D01*
X64006Y-27196D01*
X64103Y-27226D01*
X64429Y-26900D01*
X64429Y-27041D01*
X64173Y-27296D01*
X64203Y-27393D01*
X64414Y-27469D01*
X64639Y-27459D01*
X64796Y-27393D01*
X64826Y-27296D01*
X64826Y-31150D01*
X64029Y-31150D01*
X64029Y-30075D01*
X64018Y-29867D01*
X63960Y-29727D01*
X63867Y-29702D01*
X63797Y-29773D01*
X63797Y-29632D01*
X63772Y-29539D01*
X63575Y-29470D01*
X63367Y-29481D01*
X63227Y-29539D01*
X63202Y-29632D01*
X63500Y-29929D01*
X63797Y-29632D01*
X63797Y-29773D01*
X63570Y-30000D01*
X63867Y-30297D01*
X63960Y-30272D01*
X64029Y-30075D01*
X64029Y-31150D01*
X63927Y-31150D01*
X63811Y-31034D01*
X63797Y-31027D01*
X63797Y-30367D01*
X63500Y-30070D01*
X63429Y-30141D01*
X63429Y-30000D01*
X63132Y-29702D01*
X63039Y-29727D01*
X62970Y-29924D01*
X62981Y-30132D01*
X63039Y-30272D01*
X63132Y-30297D01*
X63429Y-30000D01*
X63429Y-30141D01*
X63202Y-30367D01*
X63227Y-30460D01*
X63424Y-30529D01*
X63632Y-30518D01*
X63772Y-30460D01*
X63797Y-30367D01*
X63797Y-31027D01*
X63609Y-30950D01*
X63391Y-30949D01*
X63188Y-31033D01*
X63034Y-31188D01*
X62950Y-31390D01*
X62949Y-31608D01*
X63033Y-31811D01*
X63188Y-31965D01*
X63390Y-32049D01*
X63608Y-32050D01*
X63811Y-31966D01*
X63927Y-31850D01*
X66355Y-31850D01*
X66454Y-31949D01*
X66391Y-31949D01*
X66188Y-32033D01*
X66034Y-32188D01*
X66000Y-32269D01*
X65966Y-32188D01*
X65811Y-32034D01*
X65609Y-31950D01*
X65391Y-31949D01*
X65188Y-32033D01*
X65034Y-32188D01*
X64950Y-32390D01*
X64949Y-32608D01*
X65033Y-32811D01*
X65188Y-32965D01*
X65390Y-33049D01*
X65608Y-33050D01*
X65811Y-32966D01*
X65965Y-32811D01*
X65999Y-32730D01*
X66033Y-32811D01*
X66188Y-32965D01*
X66390Y-33049D01*
X66608Y-33050D01*
X66811Y-32966D01*
X66965Y-32811D01*
X66999Y-32730D01*
X67033Y-32811D01*
X67188Y-32965D01*
X67390Y-33049D01*
X67608Y-33050D01*
X67811Y-32966D01*
X67965Y-32811D01*
X67997Y-32736D01*
X68018Y-32787D01*
X68114Y-32815D01*
X68429Y-32500D01*
X68429Y-32641D01*
X68184Y-32885D01*
X68212Y-32981D01*
X68418Y-33054D01*
X68636Y-33043D01*
X68787Y-32981D01*
X68815Y-32885D01*
X68815Y-35037D01*
X68811Y-35034D01*
X68609Y-34950D01*
X68391Y-34949D01*
X68188Y-35033D01*
X68034Y-35188D01*
X68000Y-35269D01*
X67966Y-35188D01*
X67811Y-35034D01*
X67609Y-34950D01*
X67391Y-34949D01*
X67188Y-35033D01*
X67034Y-35188D01*
X67000Y-35269D01*
X66966Y-35188D01*
X66811Y-35034D01*
X66609Y-34950D01*
X66391Y-34949D01*
X66188Y-35033D01*
X66050Y-35172D01*
X66050Y-35150D01*
X66012Y-35058D01*
X65941Y-34988D01*
X65849Y-34950D01*
X65750Y-34949D01*
X65150Y-34949D01*
X65058Y-34987D01*
X64988Y-35058D01*
X64950Y-35150D01*
X64949Y-35249D01*
X64949Y-35849D01*
X64987Y-35941D01*
X65058Y-36011D01*
X65150Y-36049D01*
X65150Y-36500D01*
X65176Y-36633D01*
X65252Y-36747D01*
X65950Y-37445D01*
X65949Y-37608D01*
X66033Y-37811D01*
X66188Y-37965D01*
X66390Y-38049D01*
X66608Y-38050D01*
X66811Y-37966D01*
X66965Y-37811D01*
X67049Y-37609D01*
X67050Y-37391D01*
X66982Y-37227D01*
X67502Y-37747D01*
X67616Y-37823D01*
X67616Y-37823D01*
X67750Y-37850D01*
X70072Y-37850D01*
X70188Y-37965D01*
X70390Y-38049D01*
X70608Y-38050D01*
X70811Y-37966D01*
X70965Y-37811D01*
X71049Y-37609D01*
X71050Y-37391D01*
X71050Y-38891D01*
X70966Y-38688D01*
X70811Y-38534D01*
X70609Y-38450D01*
X70391Y-38449D01*
X70188Y-38533D01*
X70034Y-38688D01*
X69950Y-38890D01*
X69949Y-39108D01*
X70033Y-39311D01*
X70188Y-39465D01*
X70390Y-39549D01*
X70608Y-39550D01*
X70811Y-39466D01*
X70965Y-39311D01*
X71049Y-39109D01*
X71050Y-38891D01*
X71050Y-47357D01*
X70879Y-47186D01*
X70309Y-46950D01*
X69693Y-46949D01*
X69594Y-46990D01*
X69594Y-44893D01*
X69594Y-44106D01*
X69556Y-44014D01*
X69542Y-44000D01*
X69556Y-43985D01*
X69594Y-43893D01*
X69594Y-43106D01*
X69556Y-43014D01*
X69486Y-42943D01*
X69394Y-42905D01*
X69294Y-42905D01*
X69112Y-42905D01*
X69050Y-42968D01*
X69050Y-43450D01*
X69531Y-43450D01*
X69594Y-43387D01*
X69594Y-43106D01*
X69594Y-43893D01*
X69594Y-43612D01*
X69531Y-43550D01*
X69050Y-43550D01*
X69050Y-43968D01*
X69050Y-44031D01*
X69050Y-44450D01*
X69531Y-44450D01*
X69594Y-44387D01*
X69594Y-44106D01*
X69594Y-44893D01*
X69594Y-44612D01*
X69531Y-44550D01*
X69050Y-44550D01*
X69050Y-45031D01*
X69112Y-45094D01*
X69294Y-45094D01*
X69394Y-45094D01*
X69486Y-45056D01*
X69556Y-44985D01*
X69594Y-44893D01*
X69594Y-46990D01*
X69123Y-47185D01*
X68950Y-47358D01*
X68950Y-45031D01*
X68950Y-44550D01*
X68942Y-44550D01*
X68942Y-44450D01*
X68950Y-44450D01*
X68950Y-44031D01*
X68950Y-43968D01*
X68950Y-43550D01*
X68942Y-43550D01*
X68942Y-43450D01*
X68950Y-43450D01*
X68950Y-42968D01*
X68887Y-42905D01*
X68705Y-42905D01*
X68605Y-42905D01*
X68600Y-42907D01*
X68600Y-40881D01*
X68508Y-40660D01*
X68340Y-40491D01*
X68119Y-40400D01*
X67881Y-40399D01*
X67660Y-40491D01*
X67585Y-40565D01*
X67562Y-40508D01*
X67491Y-40438D01*
X67399Y-40400D01*
X67300Y-40399D01*
X67054Y-40399D01*
X67054Y-39081D01*
X67043Y-38863D01*
X66981Y-38712D01*
X66885Y-38684D01*
X66815Y-38755D01*
X66815Y-38614D01*
X66787Y-38518D01*
X66581Y-38445D01*
X66363Y-38456D01*
X66212Y-38518D01*
X66184Y-38614D01*
X66500Y-38929D01*
X66815Y-38614D01*
X66815Y-38755D01*
X66570Y-39000D01*
X66885Y-39315D01*
X66981Y-39287D01*
X67054Y-39081D01*
X67054Y-40399D01*
X66815Y-40399D01*
X66815Y-39385D01*
X66500Y-39070D01*
X66429Y-39141D01*
X66429Y-39000D01*
X66114Y-38684D01*
X66018Y-38712D01*
X65945Y-38918D01*
X65956Y-39136D01*
X66018Y-39287D01*
X66114Y-39315D01*
X66429Y-39000D01*
X66429Y-39141D01*
X66184Y-39385D01*
X66212Y-39481D01*
X66418Y-39554D01*
X66636Y-39543D01*
X66787Y-39481D01*
X66815Y-39385D01*
X66815Y-40399D01*
X66600Y-40399D01*
X66508Y-40437D01*
X66438Y-40508D01*
X66400Y-40600D01*
X66399Y-40699D01*
X66399Y-41399D01*
X66437Y-41491D01*
X66508Y-41561D01*
X66600Y-41599D01*
X66699Y-41600D01*
X67399Y-41600D01*
X67491Y-41562D01*
X67561Y-41491D01*
X67585Y-41434D01*
X67659Y-41508D01*
X67880Y-41599D01*
X68118Y-41600D01*
X68339Y-41508D01*
X68508Y-41340D01*
X68599Y-41119D01*
X68600Y-40881D01*
X68600Y-42907D01*
X68513Y-42943D01*
X68443Y-43014D01*
X68417Y-43076D01*
X68337Y-42996D01*
X68118Y-42905D01*
X67882Y-42905D01*
X67663Y-42995D01*
X67499Y-43159D01*
X67337Y-42996D01*
X67118Y-42905D01*
X66882Y-42905D01*
X66663Y-42995D01*
X66496Y-43162D01*
X66405Y-43381D01*
X66405Y-43617D01*
X66495Y-43836D01*
X66659Y-44000D01*
X66496Y-44162D01*
X66405Y-44381D01*
X66405Y-44617D01*
X66495Y-44836D01*
X66662Y-45003D01*
X66881Y-45094D01*
X67117Y-45094D01*
X67336Y-45004D01*
X67500Y-44840D01*
X67662Y-45003D01*
X67881Y-45094D01*
X68117Y-45094D01*
X68336Y-45004D01*
X68417Y-44923D01*
X68443Y-44985D01*
X68513Y-45056D01*
X68605Y-45094D01*
X68705Y-45094D01*
X68887Y-45094D01*
X68950Y-45031D01*
X68950Y-47358D01*
X68686Y-47620D01*
X68450Y-48190D01*
X68449Y-48806D01*
X68685Y-49376D01*
X69007Y-49700D01*
X67100Y-49700D01*
X67100Y-46881D01*
X67008Y-46660D01*
X66840Y-46491D01*
X66619Y-46400D01*
X66381Y-46399D01*
X66160Y-46491D01*
X65991Y-46659D01*
X65900Y-46880D01*
X65899Y-47118D01*
X65991Y-47339D01*
X66065Y-47414D01*
X66008Y-47437D01*
X65938Y-47508D01*
X65900Y-47600D01*
X65899Y-47699D01*
X65899Y-48399D01*
X65937Y-48491D01*
X66008Y-48561D01*
X66100Y-48599D01*
X66199Y-48600D01*
X66899Y-48600D01*
X66991Y-48562D01*
X67061Y-48491D01*
X67099Y-48399D01*
X67100Y-48300D01*
X67100Y-47600D01*
X67062Y-47508D01*
X66991Y-47438D01*
X66934Y-47414D01*
X67008Y-47340D01*
X67099Y-47119D01*
X67100Y-46881D01*
X67100Y-49700D01*
X65050Y-49700D01*
X65050Y-44391D01*
X65050Y-40391D01*
X64966Y-40188D01*
X64811Y-40034D01*
X64609Y-39950D01*
X64600Y-39950D01*
X64600Y-37881D01*
X64508Y-37660D01*
X64340Y-37491D01*
X64119Y-37400D01*
X64050Y-37400D01*
X64050Y-35391D01*
X63966Y-35188D01*
X63811Y-35034D01*
X63609Y-34950D01*
X63391Y-34949D01*
X63188Y-35033D01*
X63034Y-35188D01*
X62950Y-35390D01*
X62949Y-35608D01*
X63033Y-35811D01*
X63188Y-35965D01*
X63390Y-36049D01*
X63608Y-36050D01*
X63811Y-35966D01*
X63965Y-35811D01*
X64049Y-35609D01*
X64050Y-35391D01*
X64050Y-37400D01*
X63881Y-37399D01*
X63660Y-37491D01*
X63491Y-37659D01*
X63400Y-37880D01*
X63399Y-38118D01*
X63491Y-38339D01*
X63565Y-38414D01*
X63508Y-38437D01*
X63438Y-38508D01*
X63400Y-38600D01*
X63399Y-38699D01*
X63399Y-39399D01*
X63437Y-39491D01*
X63508Y-39561D01*
X63600Y-39599D01*
X63699Y-39600D01*
X64399Y-39600D01*
X64491Y-39562D01*
X64561Y-39491D01*
X64599Y-39399D01*
X64600Y-39300D01*
X64600Y-38600D01*
X64562Y-38508D01*
X64491Y-38438D01*
X64434Y-38414D01*
X64508Y-38340D01*
X64599Y-38119D01*
X64600Y-37881D01*
X64600Y-39950D01*
X64391Y-39949D01*
X64188Y-40033D01*
X64034Y-40188D01*
X63950Y-40390D01*
X63949Y-40608D01*
X64033Y-40811D01*
X64188Y-40965D01*
X64390Y-41049D01*
X64608Y-41050D01*
X64811Y-40966D01*
X64965Y-40811D01*
X65049Y-40609D01*
X65050Y-40391D01*
X65050Y-44391D01*
X64966Y-44188D01*
X64811Y-44034D01*
X64609Y-43950D01*
X64391Y-43949D01*
X64188Y-44033D01*
X64034Y-44188D01*
X63950Y-44390D01*
X63949Y-44608D01*
X64033Y-44811D01*
X64150Y-44927D01*
X64150Y-46107D01*
X64055Y-46202D01*
X63975Y-46395D01*
X63974Y-46603D01*
X64054Y-46797D01*
X64202Y-46944D01*
X64395Y-47024D01*
X64603Y-47025D01*
X64797Y-46945D01*
X64944Y-46797D01*
X65024Y-46604D01*
X65025Y-46396D01*
X64945Y-46203D01*
X64850Y-46107D01*
X64850Y-44927D01*
X64965Y-44811D01*
X65049Y-44609D01*
X65050Y-44391D01*
X65050Y-49700D01*
X65029Y-49700D01*
X65029Y-48575D01*
X65018Y-48367D01*
X64960Y-48227D01*
X64867Y-48202D01*
X64797Y-48273D01*
X64797Y-48132D01*
X64772Y-48039D01*
X64575Y-47970D01*
X64367Y-47981D01*
X64227Y-48039D01*
X64202Y-48132D01*
X64500Y-48429D01*
X64797Y-48132D01*
X64797Y-48273D01*
X64570Y-48500D01*
X64867Y-48797D01*
X64960Y-48772D01*
X65029Y-48575D01*
X65029Y-49700D01*
X64797Y-49700D01*
X64797Y-48867D01*
X64500Y-48570D01*
X64429Y-48641D01*
X64429Y-48500D01*
X64132Y-48202D01*
X64039Y-48227D01*
X63970Y-48424D01*
X63981Y-48632D01*
X64039Y-48772D01*
X64132Y-48797D01*
X64429Y-48500D01*
X64429Y-48641D01*
X64202Y-48867D01*
X64227Y-48960D01*
X64424Y-49029D01*
X64632Y-49018D01*
X64772Y-48960D01*
X64797Y-48867D01*
X64797Y-49700D01*
X63550Y-49700D01*
X63550Y-44391D01*
X63550Y-40391D01*
X63466Y-40188D01*
X63311Y-40034D01*
X63109Y-39950D01*
X62891Y-39949D01*
X62688Y-40033D01*
X62550Y-40171D01*
X62550Y-35391D01*
X62550Y-31391D01*
X62466Y-31188D01*
X62311Y-31034D01*
X62109Y-30950D01*
X61891Y-30949D01*
X61688Y-31033D01*
X61534Y-31188D01*
X61450Y-31390D01*
X61449Y-31608D01*
X61533Y-31811D01*
X61688Y-31965D01*
X61890Y-32049D01*
X62108Y-32050D01*
X62311Y-31966D01*
X62465Y-31811D01*
X62549Y-31609D01*
X62550Y-31391D01*
X62550Y-35391D01*
X62466Y-35188D01*
X62311Y-35034D01*
X62109Y-34950D01*
X61891Y-34949D01*
X61688Y-35033D01*
X61600Y-35122D01*
X61600Y-32250D01*
X61573Y-32116D01*
X61573Y-32116D01*
X61497Y-32002D01*
X60989Y-31494D01*
X60989Y-25220D01*
X60989Y-24579D01*
X60913Y-24200D01*
X60699Y-23880D01*
X60378Y-23665D01*
X60000Y-23590D01*
X59621Y-23665D01*
X59300Y-23880D01*
X59086Y-24200D01*
X59011Y-24579D01*
X59011Y-25220D01*
X59086Y-25599D01*
X59300Y-25919D01*
X59621Y-26134D01*
X60000Y-26209D01*
X60378Y-26134D01*
X60699Y-25919D01*
X60913Y-25599D01*
X60989Y-25220D01*
X60989Y-31494D01*
X60599Y-31104D01*
X60600Y-30881D01*
X60508Y-30660D01*
X60348Y-30499D01*
X60508Y-30340D01*
X60599Y-30119D01*
X60600Y-29881D01*
X60508Y-29660D01*
X60340Y-29491D01*
X60119Y-29400D01*
X59881Y-29399D01*
X59660Y-29491D01*
X59499Y-29651D01*
X59340Y-29491D01*
X59119Y-29400D01*
X58881Y-29399D01*
X58660Y-29491D01*
X58565Y-29586D01*
X58565Y-26788D01*
X58479Y-26580D01*
X58320Y-26421D01*
X58112Y-26335D01*
X57888Y-26334D01*
X57680Y-26420D01*
X57521Y-26579D01*
X57502Y-26624D01*
X57493Y-26603D01*
X57396Y-26573D01*
X57326Y-26644D01*
X57326Y-26503D01*
X57296Y-26406D01*
X57085Y-26330D01*
X56989Y-26334D01*
X56989Y-25220D01*
X56989Y-24579D01*
X56913Y-24200D01*
X56699Y-23880D01*
X56378Y-23665D01*
X56000Y-23590D01*
X55621Y-23665D01*
X55300Y-23880D01*
X55086Y-24200D01*
X55011Y-24579D01*
X55011Y-25220D01*
X55086Y-25599D01*
X55300Y-25919D01*
X55621Y-26134D01*
X56000Y-26209D01*
X56378Y-26134D01*
X56699Y-25919D01*
X56913Y-25599D01*
X56989Y-25220D01*
X56989Y-26334D01*
X56860Y-26340D01*
X56703Y-26406D01*
X56673Y-26503D01*
X57000Y-26829D01*
X57326Y-26503D01*
X57326Y-26644D01*
X57070Y-26900D01*
X57396Y-27226D01*
X57493Y-27196D01*
X57501Y-27174D01*
X57520Y-27219D01*
X57679Y-27378D01*
X57887Y-27464D01*
X58111Y-27465D01*
X58319Y-27379D01*
X58478Y-27220D01*
X58564Y-27012D01*
X58565Y-26788D01*
X58565Y-29586D01*
X58499Y-29651D01*
X58340Y-29491D01*
X58119Y-29400D01*
X57881Y-29399D01*
X57660Y-29491D01*
X57491Y-29659D01*
X57400Y-29880D01*
X57399Y-30118D01*
X57491Y-30339D01*
X57565Y-30414D01*
X57508Y-30437D01*
X57438Y-30508D01*
X57400Y-30600D01*
X57399Y-30699D01*
X57399Y-31399D01*
X57400Y-31399D01*
X57400Y-35250D01*
X57426Y-35383D01*
X57502Y-35497D01*
X57650Y-35644D01*
X57650Y-36450D01*
X57558Y-36487D01*
X57488Y-36558D01*
X57450Y-36650D01*
X57449Y-36749D01*
X57449Y-37349D01*
X57487Y-37441D01*
X57558Y-37511D01*
X57650Y-37549D01*
X57703Y-37550D01*
X57684Y-37614D01*
X58000Y-37929D01*
X58315Y-37614D01*
X58296Y-37550D01*
X58349Y-37550D01*
X58441Y-37512D01*
X58511Y-37441D01*
X58549Y-37349D01*
X58550Y-37250D01*
X58550Y-36650D01*
X58512Y-36558D01*
X58441Y-36488D01*
X58350Y-36450D01*
X58350Y-35500D01*
X58323Y-35366D01*
X58247Y-35252D01*
X58247Y-35252D01*
X58100Y-35105D01*
X58100Y-34788D01*
X58132Y-34797D01*
X58429Y-34500D01*
X58132Y-34202D01*
X58100Y-34211D01*
X58100Y-31600D01*
X58399Y-31600D01*
X58491Y-31562D01*
X58561Y-31491D01*
X58585Y-31434D01*
X58650Y-31498D01*
X58650Y-31500D01*
X58676Y-31633D01*
X58752Y-31747D01*
X58900Y-31894D01*
X58900Y-34211D01*
X58867Y-34202D01*
X58797Y-34273D01*
X58797Y-34132D01*
X58772Y-34039D01*
X58575Y-33970D01*
X58367Y-33981D01*
X58227Y-34039D01*
X58202Y-34132D01*
X58500Y-34429D01*
X58797Y-34132D01*
X58797Y-34273D01*
X58570Y-34500D01*
X58867Y-34797D01*
X58900Y-34788D01*
X58900Y-41105D01*
X58797Y-41207D01*
X58797Y-34867D01*
X58500Y-34570D01*
X58202Y-34867D01*
X58227Y-34960D01*
X58424Y-35029D01*
X58632Y-35018D01*
X58772Y-34960D01*
X58797Y-34867D01*
X58797Y-41207D01*
X58554Y-41450D01*
X58554Y-41081D01*
X58554Y-40081D01*
X58554Y-39081D01*
X58554Y-38081D01*
X58543Y-37863D01*
X58481Y-37712D01*
X58385Y-37684D01*
X58070Y-38000D01*
X58385Y-38315D01*
X58481Y-38287D01*
X58554Y-38081D01*
X58554Y-39081D01*
X58543Y-38863D01*
X58481Y-38712D01*
X58385Y-38684D01*
X58315Y-38755D01*
X58315Y-38614D01*
X58287Y-38518D01*
X58239Y-38501D01*
X58287Y-38481D01*
X58315Y-38385D01*
X58000Y-38070D01*
X57929Y-38141D01*
X57929Y-38000D01*
X57614Y-37684D01*
X57518Y-37712D01*
X57445Y-37918D01*
X57456Y-38136D01*
X57518Y-38287D01*
X57614Y-38315D01*
X57929Y-38000D01*
X57929Y-38141D01*
X57684Y-38385D01*
X57712Y-38481D01*
X57760Y-38498D01*
X57712Y-38518D01*
X57684Y-38614D01*
X58000Y-38929D01*
X58315Y-38614D01*
X58315Y-38755D01*
X58070Y-39000D01*
X58385Y-39315D01*
X58481Y-39287D01*
X58554Y-39081D01*
X58554Y-40081D01*
X58543Y-39863D01*
X58481Y-39712D01*
X58385Y-39684D01*
X58315Y-39755D01*
X58315Y-39614D01*
X58287Y-39518D01*
X58239Y-39501D01*
X58287Y-39481D01*
X58315Y-39385D01*
X58000Y-39070D01*
X57929Y-39141D01*
X57929Y-39000D01*
X57614Y-38684D01*
X57518Y-38712D01*
X57445Y-38918D01*
X57456Y-39136D01*
X57518Y-39287D01*
X57614Y-39315D01*
X57929Y-39000D01*
X57929Y-39141D01*
X57684Y-39385D01*
X57712Y-39481D01*
X57760Y-39498D01*
X57712Y-39518D01*
X57684Y-39614D01*
X58000Y-39929D01*
X58315Y-39614D01*
X58315Y-39755D01*
X58070Y-40000D01*
X58385Y-40315D01*
X58481Y-40287D01*
X58554Y-40081D01*
X58554Y-41081D01*
X58543Y-40863D01*
X58481Y-40712D01*
X58385Y-40684D01*
X58315Y-40755D01*
X58315Y-40614D01*
X58287Y-40518D01*
X58239Y-40501D01*
X58287Y-40481D01*
X58315Y-40385D01*
X58000Y-40070D01*
X57929Y-40141D01*
X57929Y-40000D01*
X57614Y-39684D01*
X57518Y-39712D01*
X57445Y-39918D01*
X57456Y-40136D01*
X57518Y-40287D01*
X57614Y-40315D01*
X57929Y-40000D01*
X57929Y-40141D01*
X57684Y-40385D01*
X57712Y-40481D01*
X57760Y-40498D01*
X57712Y-40518D01*
X57684Y-40614D01*
X58000Y-40929D01*
X58315Y-40614D01*
X58315Y-40755D01*
X58070Y-41000D01*
X58385Y-41315D01*
X58481Y-41287D01*
X58554Y-41081D01*
X58554Y-41450D01*
X58391Y-41613D01*
X58311Y-41534D01*
X58236Y-41502D01*
X58287Y-41481D01*
X58315Y-41385D01*
X58000Y-41070D01*
X57929Y-41141D01*
X57929Y-41000D01*
X57614Y-40684D01*
X57518Y-40712D01*
X57445Y-40918D01*
X57456Y-41136D01*
X57518Y-41287D01*
X57614Y-41315D01*
X57929Y-41000D01*
X57929Y-41141D01*
X57684Y-41385D01*
X57712Y-41481D01*
X57767Y-41500D01*
X57688Y-41533D01*
X57534Y-41688D01*
X57450Y-41890D01*
X57449Y-42108D01*
X57533Y-42311D01*
X57688Y-42465D01*
X57763Y-42497D01*
X57712Y-42518D01*
X57684Y-42614D01*
X58000Y-42929D01*
X58315Y-42614D01*
X58287Y-42518D01*
X58232Y-42499D01*
X58311Y-42466D01*
X58427Y-42350D01*
X58500Y-42350D01*
X58633Y-42323D01*
X58633Y-42323D01*
X58747Y-42247D01*
X59497Y-41497D01*
X59497Y-41497D01*
X59497Y-41497D01*
X59573Y-41383D01*
X59600Y-41250D01*
X59599Y-41250D01*
X59600Y-41250D01*
X59600Y-31750D01*
X59573Y-31616D01*
X59497Y-31502D01*
X59497Y-31502D01*
X59421Y-31426D01*
X59500Y-31348D01*
X59659Y-31508D01*
X59880Y-31599D01*
X60105Y-31600D01*
X60900Y-32394D01*
X60900Y-34157D01*
X60797Y-34055D01*
X60604Y-33975D01*
X60396Y-33974D01*
X60203Y-34054D01*
X60055Y-34202D01*
X59975Y-34395D01*
X59974Y-34603D01*
X60054Y-34797D01*
X60202Y-34944D01*
X60395Y-35024D01*
X60603Y-35025D01*
X60797Y-34945D01*
X60900Y-34842D01*
X60900Y-36000D01*
X60926Y-36133D01*
X61002Y-36247D01*
X61272Y-36517D01*
X61109Y-36450D01*
X60891Y-36449D01*
X60688Y-36533D01*
X60534Y-36688D01*
X60450Y-36890D01*
X60449Y-37108D01*
X60533Y-37311D01*
X60688Y-37465D01*
X60769Y-37499D01*
X60688Y-37533D01*
X60534Y-37688D01*
X60450Y-37890D01*
X60449Y-38108D01*
X60533Y-38311D01*
X60688Y-38465D01*
X60769Y-38499D01*
X60688Y-38533D01*
X60534Y-38688D01*
X60450Y-38890D01*
X60449Y-39108D01*
X60533Y-39311D01*
X60688Y-39465D01*
X60769Y-39499D01*
X60688Y-39533D01*
X60534Y-39688D01*
X60450Y-39890D01*
X60449Y-40108D01*
X60533Y-40311D01*
X60688Y-40465D01*
X60763Y-40497D01*
X60712Y-40518D01*
X60684Y-40614D01*
X61000Y-40929D01*
X61315Y-40614D01*
X61287Y-40518D01*
X61232Y-40499D01*
X61311Y-40466D01*
X61465Y-40311D01*
X61549Y-40109D01*
X61550Y-39891D01*
X61466Y-39688D01*
X61311Y-39534D01*
X61230Y-39500D01*
X61311Y-39466D01*
X61427Y-39350D01*
X61500Y-39350D01*
X61633Y-39323D01*
X61633Y-39323D01*
X61747Y-39247D01*
X61997Y-38997D01*
X61997Y-38997D01*
X61997Y-38997D01*
X62073Y-38883D01*
X62100Y-38750D01*
X62100Y-36500D01*
X62073Y-36366D01*
X62073Y-36366D01*
X61997Y-36252D01*
X61727Y-35982D01*
X61890Y-36049D01*
X62108Y-36050D01*
X62311Y-35966D01*
X62465Y-35811D01*
X62549Y-35609D01*
X62550Y-35391D01*
X62550Y-40171D01*
X62534Y-40188D01*
X62450Y-40390D01*
X62449Y-40608D01*
X62533Y-40811D01*
X62688Y-40965D01*
X62890Y-41049D01*
X63108Y-41050D01*
X63311Y-40966D01*
X63465Y-40811D01*
X63549Y-40609D01*
X63550Y-40391D01*
X63550Y-44391D01*
X63466Y-44188D01*
X63311Y-44034D01*
X63109Y-43950D01*
X62891Y-43949D01*
X62688Y-44033D01*
X62534Y-44188D01*
X62450Y-44390D01*
X62449Y-44608D01*
X62533Y-44811D01*
X62650Y-44927D01*
X62650Y-46107D01*
X62555Y-46202D01*
X62475Y-46395D01*
X62474Y-46603D01*
X62554Y-46797D01*
X62702Y-46944D01*
X62895Y-47024D01*
X63103Y-47025D01*
X63297Y-46945D01*
X63444Y-46797D01*
X63524Y-46604D01*
X63525Y-46396D01*
X63445Y-46203D01*
X63350Y-46107D01*
X63350Y-44927D01*
X63465Y-44811D01*
X63549Y-44609D01*
X63550Y-44391D01*
X63550Y-49700D01*
X63529Y-49700D01*
X63529Y-48575D01*
X63518Y-48367D01*
X63460Y-48227D01*
X63367Y-48202D01*
X63297Y-48273D01*
X63297Y-48132D01*
X63272Y-48039D01*
X63075Y-47970D01*
X62867Y-47981D01*
X62727Y-48039D01*
X62702Y-48132D01*
X63000Y-48429D01*
X63297Y-48132D01*
X63297Y-48273D01*
X63070Y-48500D01*
X63367Y-48797D01*
X63460Y-48772D01*
X63529Y-48575D01*
X63529Y-49700D01*
X63297Y-49700D01*
X63297Y-48867D01*
X63000Y-48570D01*
X62929Y-48641D01*
X62929Y-48500D01*
X62632Y-48202D01*
X62539Y-48227D01*
X62470Y-48424D01*
X62481Y-48632D01*
X62539Y-48772D01*
X62632Y-48797D01*
X62929Y-48500D01*
X62929Y-48641D01*
X62702Y-48867D01*
X62727Y-48960D01*
X62924Y-49029D01*
X63132Y-49018D01*
X63272Y-48960D01*
X63297Y-48867D01*
X63297Y-49700D01*
X61554Y-49700D01*
X61554Y-41081D01*
X61543Y-40863D01*
X61481Y-40712D01*
X61385Y-40684D01*
X61070Y-41000D01*
X61385Y-41315D01*
X61481Y-41287D01*
X61554Y-41081D01*
X61554Y-49700D01*
X61550Y-49700D01*
X61550Y-42891D01*
X61466Y-42688D01*
X61311Y-42534D01*
X61230Y-42500D01*
X61311Y-42466D01*
X61465Y-42311D01*
X61549Y-42109D01*
X61550Y-41891D01*
X61466Y-41688D01*
X61311Y-41534D01*
X61236Y-41502D01*
X61287Y-41481D01*
X61315Y-41385D01*
X61000Y-41070D01*
X60929Y-41141D01*
X60929Y-41000D01*
X60614Y-40684D01*
X60518Y-40712D01*
X60445Y-40918D01*
X60456Y-41136D01*
X60518Y-41287D01*
X60614Y-41315D01*
X60929Y-41000D01*
X60929Y-41141D01*
X60684Y-41385D01*
X60712Y-41481D01*
X60767Y-41500D01*
X60688Y-41533D01*
X60534Y-41688D01*
X60450Y-41890D01*
X60449Y-42108D01*
X60533Y-42311D01*
X60688Y-42465D01*
X60769Y-42499D01*
X60688Y-42533D01*
X60534Y-42688D01*
X60450Y-42890D01*
X60449Y-43108D01*
X60533Y-43311D01*
X60688Y-43465D01*
X60890Y-43549D01*
X61108Y-43550D01*
X61311Y-43466D01*
X61465Y-43311D01*
X61549Y-43109D01*
X61550Y-42891D01*
X61550Y-49700D01*
X61525Y-49700D01*
X61525Y-45396D01*
X61445Y-45203D01*
X61297Y-45055D01*
X61104Y-44975D01*
X60896Y-44974D01*
X60703Y-45054D01*
X60555Y-45202D01*
X60475Y-45395D01*
X60474Y-45603D01*
X60554Y-45797D01*
X60702Y-45944D01*
X60895Y-46024D01*
X61103Y-46025D01*
X61297Y-45945D01*
X61444Y-45797D01*
X61524Y-45604D01*
X61525Y-45396D01*
X61525Y-49700D01*
X60599Y-49700D01*
X60599Y-48592D01*
X60599Y-47592D01*
X60588Y-47356D01*
X60518Y-47185D01*
X60418Y-47152D01*
X60347Y-47223D01*
X60347Y-47081D01*
X60314Y-46981D01*
X60092Y-46900D01*
X59856Y-46911D01*
X59685Y-46981D01*
X59652Y-47081D01*
X60000Y-47429D01*
X60347Y-47081D01*
X60347Y-47223D01*
X60070Y-47500D01*
X60418Y-47847D01*
X60518Y-47814D01*
X60599Y-47592D01*
X60599Y-48592D01*
X60588Y-48356D01*
X60518Y-48185D01*
X60418Y-48152D01*
X60347Y-48223D01*
X60347Y-48081D01*
X60320Y-48000D01*
X60347Y-47918D01*
X60000Y-47570D01*
X59929Y-47641D01*
X59929Y-47500D01*
X59581Y-47152D01*
X59529Y-47169D01*
X59529Y-45575D01*
X59518Y-45367D01*
X59460Y-45227D01*
X59367Y-45202D01*
X59297Y-45273D01*
X59297Y-45132D01*
X59272Y-45039D01*
X59075Y-44970D01*
X58867Y-44981D01*
X58727Y-45039D01*
X58702Y-45132D01*
X59000Y-45429D01*
X59297Y-45132D01*
X59297Y-45273D01*
X59070Y-45500D01*
X59367Y-45797D01*
X59460Y-45772D01*
X59529Y-45575D01*
X59529Y-47169D01*
X59500Y-47179D01*
X59418Y-47152D01*
X59347Y-47223D01*
X59070Y-47500D01*
X59418Y-47847D01*
X59500Y-47820D01*
X59581Y-47847D01*
X59929Y-47500D01*
X59929Y-47641D01*
X59652Y-47918D01*
X59679Y-48000D01*
X59652Y-48081D01*
X60000Y-48429D01*
X60347Y-48081D01*
X60347Y-48223D01*
X60070Y-48500D01*
X60418Y-48847D01*
X60518Y-48814D01*
X60599Y-48592D01*
X60599Y-49700D01*
X60347Y-49700D01*
X60347Y-48918D01*
X60000Y-48570D01*
X59929Y-48641D01*
X59929Y-48500D01*
X59581Y-48152D01*
X59500Y-48179D01*
X59418Y-48152D01*
X59347Y-48223D01*
X59070Y-48500D01*
X59418Y-48847D01*
X59500Y-48820D01*
X59581Y-48847D01*
X59929Y-48500D01*
X59929Y-48641D01*
X59652Y-48918D01*
X59685Y-49018D01*
X59907Y-49099D01*
X60143Y-49088D01*
X60314Y-49018D01*
X60347Y-48918D01*
X60347Y-49700D01*
X59347Y-49700D01*
X59347Y-48918D01*
X59000Y-48570D01*
X58994Y-48576D01*
X58929Y-48511D01*
X58923Y-48505D01*
X58929Y-48500D01*
X58923Y-48494D01*
X58994Y-48423D01*
X59000Y-48429D01*
X59347Y-48081D01*
X59320Y-48000D01*
X59347Y-47918D01*
X59000Y-47570D01*
X58994Y-47576D01*
X58923Y-47505D01*
X58929Y-47500D01*
X58923Y-47494D01*
X58994Y-47423D01*
X59000Y-47429D01*
X59347Y-47081D01*
X59314Y-46981D01*
X59297Y-46975D01*
X59297Y-45867D01*
X59000Y-45570D01*
X58929Y-45641D01*
X58929Y-45500D01*
X58632Y-45202D01*
X58554Y-45223D01*
X58554Y-43081D01*
X58543Y-42863D01*
X58481Y-42712D01*
X58385Y-42684D01*
X58070Y-43000D01*
X58385Y-43315D01*
X58481Y-43287D01*
X58554Y-43081D01*
X58554Y-45223D01*
X58539Y-45227D01*
X58470Y-45424D01*
X58481Y-45632D01*
X58539Y-45772D01*
X58632Y-45797D01*
X58929Y-45500D01*
X58929Y-45641D01*
X58702Y-45867D01*
X58727Y-45960D01*
X58924Y-46029D01*
X59132Y-46018D01*
X59272Y-45960D01*
X59297Y-45867D01*
X59297Y-46975D01*
X59092Y-46900D01*
X58856Y-46911D01*
X58685Y-46981D01*
X58652Y-47081D01*
X58607Y-47036D01*
X58578Y-47066D01*
X58556Y-47014D01*
X58486Y-46943D01*
X58394Y-46905D01*
X58315Y-46905D01*
X58315Y-43385D01*
X58000Y-43070D01*
X57929Y-43141D01*
X57929Y-43000D01*
X57614Y-42684D01*
X57518Y-42712D01*
X57445Y-42918D01*
X57456Y-43136D01*
X57518Y-43287D01*
X57614Y-43315D01*
X57929Y-43000D01*
X57929Y-43141D01*
X57684Y-43385D01*
X57712Y-43481D01*
X57918Y-43554D01*
X58136Y-43543D01*
X58287Y-43481D01*
X58315Y-43385D01*
X58315Y-46905D01*
X58294Y-46905D01*
X57900Y-46905D01*
X57326Y-46331D01*
X57326Y-27296D01*
X57000Y-26970D01*
X56929Y-27041D01*
X56929Y-26900D01*
X56603Y-26573D01*
X56506Y-26603D01*
X56430Y-26814D01*
X56440Y-27039D01*
X56506Y-27196D01*
X56603Y-27226D01*
X56929Y-26900D01*
X56929Y-27041D01*
X56673Y-27296D01*
X56703Y-27393D01*
X56914Y-27469D01*
X57139Y-27459D01*
X57296Y-27393D01*
X57326Y-27296D01*
X57326Y-46331D01*
X57247Y-46252D01*
X57133Y-46176D01*
X57000Y-46150D01*
X56600Y-46150D01*
X56600Y-40381D01*
X56529Y-40211D01*
X56529Y-30075D01*
X56518Y-29867D01*
X56460Y-29727D01*
X56367Y-29702D01*
X56297Y-29773D01*
X56297Y-29632D01*
X56272Y-29539D01*
X56075Y-29470D01*
X55867Y-29481D01*
X55727Y-29539D01*
X55702Y-29632D01*
X56000Y-29929D01*
X56297Y-29632D01*
X56297Y-29773D01*
X56070Y-30000D01*
X56367Y-30297D01*
X56460Y-30272D01*
X56529Y-30075D01*
X56529Y-40211D01*
X56525Y-40199D01*
X56525Y-31896D01*
X56445Y-31703D01*
X56297Y-31555D01*
X56297Y-31554D01*
X56297Y-30367D01*
X56000Y-30070D01*
X55929Y-30141D01*
X55929Y-30000D01*
X55632Y-29702D01*
X55539Y-29727D01*
X55470Y-29924D01*
X55481Y-30132D01*
X55539Y-30272D01*
X55632Y-30297D01*
X55929Y-30000D01*
X55929Y-30141D01*
X55702Y-30367D01*
X55727Y-30460D01*
X55924Y-30529D01*
X56132Y-30518D01*
X56272Y-30460D01*
X56297Y-30367D01*
X56297Y-31554D01*
X56104Y-31475D01*
X55896Y-31474D01*
X55703Y-31554D01*
X55555Y-31702D01*
X55475Y-31895D01*
X55474Y-32103D01*
X55554Y-32297D01*
X55702Y-32444D01*
X55895Y-32524D01*
X56103Y-32525D01*
X56297Y-32445D01*
X56444Y-32297D01*
X56524Y-32104D01*
X56525Y-31896D01*
X56525Y-40199D01*
X56508Y-40160D01*
X56340Y-39991D01*
X56119Y-39900D01*
X55881Y-39899D01*
X55660Y-39991D01*
X55501Y-40150D01*
X55094Y-40150D01*
X55094Y-38393D01*
X55094Y-37606D01*
X55056Y-37514D01*
X55042Y-37500D01*
X55056Y-37485D01*
X55094Y-37393D01*
X55094Y-36606D01*
X55056Y-36514D01*
X54986Y-36443D01*
X54894Y-36405D01*
X54794Y-36405D01*
X54612Y-36405D01*
X54550Y-36467D01*
X54550Y-32891D01*
X54550Y-32890D01*
X54550Y-30250D01*
X54550Y-29749D01*
X54549Y-29650D01*
X54511Y-29558D01*
X54441Y-29487D01*
X54349Y-29449D01*
X54112Y-29450D01*
X54050Y-29512D01*
X54050Y-29950D01*
X54487Y-29950D01*
X54550Y-29887D01*
X54550Y-29749D01*
X54550Y-30250D01*
X54550Y-30112D01*
X54487Y-30050D01*
X54050Y-30050D01*
X54050Y-30487D01*
X54112Y-30550D01*
X54349Y-30550D01*
X54441Y-30512D01*
X54511Y-30441D01*
X54549Y-30349D01*
X54550Y-30250D01*
X54550Y-32890D01*
X54466Y-32688D01*
X54311Y-32534D01*
X54109Y-32450D01*
X53950Y-32449D01*
X53950Y-30487D01*
X53950Y-30050D01*
X53942Y-30050D01*
X53942Y-29950D01*
X53950Y-29950D01*
X53950Y-29512D01*
X53887Y-29450D01*
X53650Y-29449D01*
X53558Y-29487D01*
X53489Y-29557D01*
X53489Y-25220D01*
X53489Y-24579D01*
X53413Y-24200D01*
X53199Y-23880D01*
X52878Y-23665D01*
X52500Y-23590D01*
X52121Y-23665D01*
X51800Y-23880D01*
X51586Y-24200D01*
X51511Y-24579D01*
X51511Y-25220D01*
X51586Y-25599D01*
X51800Y-25919D01*
X52121Y-26134D01*
X52500Y-26209D01*
X52878Y-26134D01*
X53199Y-25919D01*
X53413Y-25599D01*
X53489Y-25220D01*
X53489Y-29557D01*
X53488Y-29558D01*
X53450Y-29650D01*
X53450Y-29672D01*
X53350Y-29572D01*
X53350Y-29500D01*
X53323Y-29366D01*
X53247Y-29252D01*
X53247Y-29252D01*
X52997Y-29002D01*
X52883Y-28926D01*
X52750Y-28900D01*
X51894Y-28900D01*
X50459Y-27464D01*
X50611Y-27465D01*
X50819Y-27379D01*
X50978Y-27220D01*
X51064Y-27012D01*
X51065Y-26788D01*
X50979Y-26580D01*
X50820Y-26421D01*
X50612Y-26335D01*
X50388Y-26334D01*
X50180Y-26420D01*
X50021Y-26579D01*
X50000Y-26630D01*
X49979Y-26580D01*
X49820Y-26421D01*
X49612Y-26335D01*
X49489Y-26334D01*
X49489Y-25220D01*
X49489Y-24579D01*
X49413Y-24200D01*
X49199Y-23880D01*
X48878Y-23665D01*
X48500Y-23590D01*
X48121Y-23665D01*
X47800Y-23880D01*
X47586Y-24200D01*
X47511Y-24579D01*
X47511Y-25220D01*
X47586Y-25599D01*
X47800Y-25919D01*
X48121Y-26134D01*
X48500Y-26209D01*
X48878Y-26134D01*
X49199Y-25919D01*
X49413Y-25599D01*
X49489Y-25220D01*
X49489Y-26334D01*
X49388Y-26334D01*
X49180Y-26420D01*
X49021Y-26579D01*
X48935Y-26787D01*
X48934Y-27011D01*
X49020Y-27219D01*
X49179Y-27378D01*
X49387Y-27464D01*
X49469Y-27464D01*
X51502Y-29497D01*
X51616Y-29573D01*
X51643Y-29578D01*
X51534Y-29688D01*
X51500Y-29769D01*
X51466Y-29688D01*
X51311Y-29534D01*
X51109Y-29450D01*
X50891Y-29449D01*
X50688Y-29533D01*
X50534Y-29688D01*
X50450Y-29890D01*
X50449Y-30108D01*
X50533Y-30311D01*
X50688Y-30465D01*
X50890Y-30549D01*
X51108Y-30550D01*
X51311Y-30466D01*
X51465Y-30311D01*
X51499Y-30230D01*
X51533Y-30311D01*
X51688Y-30465D01*
X51890Y-30549D01*
X52108Y-30550D01*
X52311Y-30466D01*
X52465Y-30311D01*
X52499Y-30230D01*
X52533Y-30311D01*
X52688Y-30465D01*
X52890Y-30549D01*
X53108Y-30550D01*
X53311Y-30466D01*
X53450Y-30327D01*
X53450Y-30349D01*
X53488Y-30441D01*
X53558Y-30512D01*
X53650Y-30550D01*
X53887Y-30550D01*
X53950Y-30487D01*
X53950Y-32449D01*
X53891Y-32449D01*
X53688Y-32533D01*
X53534Y-32688D01*
X53500Y-32769D01*
X53466Y-32688D01*
X53311Y-32534D01*
X53109Y-32450D01*
X52891Y-32449D01*
X52688Y-32533D01*
X52534Y-32688D01*
X52500Y-32769D01*
X52466Y-32688D01*
X52311Y-32534D01*
X52109Y-32450D01*
X51891Y-32449D01*
X51688Y-32533D01*
X51534Y-32688D01*
X51500Y-32769D01*
X51466Y-32688D01*
X51311Y-32534D01*
X51109Y-32450D01*
X50891Y-32449D01*
X50688Y-32533D01*
X50534Y-32688D01*
X50450Y-32890D01*
X50449Y-33108D01*
X50533Y-33311D01*
X50688Y-33465D01*
X50890Y-33549D01*
X51108Y-33550D01*
X51311Y-33466D01*
X51465Y-33311D01*
X51499Y-33230D01*
X51533Y-33311D01*
X51688Y-33465D01*
X51890Y-33549D01*
X52108Y-33550D01*
X52311Y-33466D01*
X52465Y-33311D01*
X52499Y-33230D01*
X52533Y-33311D01*
X52688Y-33465D01*
X52890Y-33549D01*
X53108Y-33550D01*
X53311Y-33466D01*
X53465Y-33311D01*
X53499Y-33230D01*
X53533Y-33311D01*
X53688Y-33465D01*
X53890Y-33549D01*
X54108Y-33550D01*
X54311Y-33466D01*
X54465Y-33311D01*
X54549Y-33109D01*
X54550Y-32891D01*
X54550Y-36467D01*
X54550Y-36468D01*
X54550Y-36950D01*
X55031Y-36950D01*
X55094Y-36887D01*
X55094Y-36606D01*
X55094Y-37393D01*
X55094Y-37112D01*
X55031Y-37050D01*
X54550Y-37050D01*
X54550Y-37468D01*
X54550Y-37531D01*
X54550Y-37950D01*
X55031Y-37950D01*
X55094Y-37887D01*
X55094Y-37606D01*
X55094Y-38393D01*
X55094Y-38112D01*
X55031Y-38050D01*
X54550Y-38050D01*
X54550Y-38531D01*
X54612Y-38594D01*
X54794Y-38594D01*
X54894Y-38594D01*
X54986Y-38556D01*
X55056Y-38485D01*
X55094Y-38393D01*
X55094Y-40150D01*
X54927Y-40150D01*
X54811Y-40034D01*
X54609Y-39950D01*
X54391Y-39949D01*
X54188Y-40033D01*
X54072Y-40150D01*
X54000Y-40150D01*
X53866Y-40176D01*
X53752Y-40252D01*
X50554Y-43450D01*
X50544Y-43450D01*
X53747Y-40247D01*
X53747Y-40247D01*
X53747Y-40247D01*
X53823Y-40133D01*
X53850Y-40000D01*
X53849Y-40000D01*
X53850Y-40000D01*
X53850Y-38490D01*
X53917Y-38423D01*
X53943Y-38485D01*
X54013Y-38556D01*
X54105Y-38594D01*
X54205Y-38594D01*
X54387Y-38594D01*
X54450Y-38531D01*
X54450Y-38050D01*
X54442Y-38050D01*
X54442Y-37950D01*
X54450Y-37950D01*
X54450Y-37531D01*
X54450Y-37468D01*
X54450Y-37050D01*
X54442Y-37050D01*
X54442Y-36950D01*
X54450Y-36950D01*
X54450Y-36468D01*
X54387Y-36405D01*
X54205Y-36405D01*
X54105Y-36405D01*
X54025Y-36438D01*
X54025Y-34896D01*
X53945Y-34703D01*
X53797Y-34555D01*
X53604Y-34475D01*
X53396Y-34474D01*
X53203Y-34554D01*
X53055Y-34702D01*
X52975Y-34895D01*
X52974Y-35103D01*
X53054Y-35297D01*
X53202Y-35444D01*
X53395Y-35524D01*
X53603Y-35525D01*
X53797Y-35445D01*
X53944Y-35297D01*
X54024Y-35104D01*
X54025Y-34896D01*
X54025Y-36438D01*
X54013Y-36443D01*
X53943Y-36514D01*
X53917Y-36576D01*
X53837Y-36496D01*
X53618Y-36405D01*
X53382Y-36405D01*
X53163Y-36495D01*
X52999Y-36659D01*
X52837Y-36496D01*
X52618Y-36405D01*
X52382Y-36405D01*
X52163Y-36495D01*
X52025Y-36634D01*
X52025Y-34896D01*
X51945Y-34703D01*
X51797Y-34555D01*
X51604Y-34475D01*
X51396Y-34474D01*
X51203Y-34554D01*
X51055Y-34702D01*
X50975Y-34895D01*
X50974Y-35103D01*
X51054Y-35297D01*
X51202Y-35444D01*
X51395Y-35524D01*
X51603Y-35525D01*
X51797Y-35445D01*
X51944Y-35297D01*
X52024Y-35104D01*
X52025Y-34896D01*
X52025Y-36634D01*
X51996Y-36662D01*
X51905Y-36881D01*
X51905Y-37117D01*
X51995Y-37336D01*
X52159Y-37500D01*
X51996Y-37662D01*
X51905Y-37881D01*
X51905Y-38117D01*
X51995Y-38336D01*
X52162Y-38503D01*
X52381Y-38594D01*
X52617Y-38594D01*
X52836Y-38504D01*
X53000Y-38340D01*
X53150Y-38490D01*
X53150Y-39855D01*
X51054Y-41950D01*
X51054Y-40581D01*
X51043Y-40363D01*
X50981Y-40212D01*
X50885Y-40184D01*
X50815Y-40255D01*
X50815Y-40114D01*
X50787Y-40018D01*
X50581Y-39945D01*
X50554Y-39946D01*
X50554Y-39081D01*
X50550Y-38988D01*
X50550Y-34891D01*
X50466Y-34688D01*
X50311Y-34534D01*
X50109Y-34450D01*
X49891Y-34449D01*
X49688Y-34533D01*
X49534Y-34688D01*
X49529Y-34697D01*
X49529Y-32075D01*
X49525Y-31987D01*
X49525Y-29896D01*
X49445Y-29703D01*
X49297Y-29555D01*
X49104Y-29475D01*
X48896Y-29474D01*
X48703Y-29554D01*
X48555Y-29702D01*
X48502Y-29828D01*
X48460Y-29727D01*
X48367Y-29702D01*
X48297Y-29773D01*
X48297Y-29632D01*
X48272Y-29539D01*
X48075Y-29470D01*
X47867Y-29481D01*
X47727Y-29539D01*
X47702Y-29632D01*
X48000Y-29929D01*
X48297Y-29632D01*
X48297Y-29773D01*
X48070Y-30000D01*
X48367Y-30297D01*
X48460Y-30272D01*
X48499Y-30162D01*
X48554Y-30297D01*
X48702Y-30444D01*
X48895Y-30524D01*
X49103Y-30525D01*
X49297Y-30445D01*
X49444Y-30297D01*
X49524Y-30104D01*
X49525Y-29896D01*
X49525Y-31987D01*
X49518Y-31867D01*
X49460Y-31727D01*
X49367Y-31702D01*
X49297Y-31773D01*
X49297Y-31632D01*
X49272Y-31539D01*
X49075Y-31470D01*
X48867Y-31481D01*
X48727Y-31539D01*
X48702Y-31632D01*
X49000Y-31929D01*
X49297Y-31632D01*
X49297Y-31773D01*
X49070Y-32000D01*
X49367Y-32297D01*
X49460Y-32272D01*
X49529Y-32075D01*
X49529Y-34697D01*
X49450Y-34890D01*
X49449Y-35108D01*
X49533Y-35311D01*
X49688Y-35465D01*
X49890Y-35549D01*
X50108Y-35550D01*
X50311Y-35466D01*
X50465Y-35311D01*
X50549Y-35109D01*
X50550Y-34891D01*
X50550Y-38988D01*
X50543Y-38863D01*
X50481Y-38712D01*
X50385Y-38684D01*
X50315Y-38755D01*
X50315Y-38614D01*
X50287Y-38518D01*
X50081Y-38445D01*
X49863Y-38456D01*
X49712Y-38518D01*
X49684Y-38614D01*
X50000Y-38929D01*
X50315Y-38614D01*
X50315Y-38755D01*
X50070Y-39000D01*
X50385Y-39315D01*
X50481Y-39287D01*
X50554Y-39081D01*
X50554Y-39946D01*
X50363Y-39956D01*
X50315Y-39976D01*
X50315Y-39385D01*
X50000Y-39070D01*
X49929Y-39141D01*
X49929Y-39000D01*
X49614Y-38684D01*
X49518Y-38712D01*
X49445Y-38918D01*
X49456Y-39136D01*
X49518Y-39287D01*
X49614Y-39315D01*
X49929Y-39000D01*
X49929Y-39141D01*
X49684Y-39385D01*
X49712Y-39481D01*
X49918Y-39554D01*
X50136Y-39543D01*
X50287Y-39481D01*
X50315Y-39385D01*
X50315Y-39976D01*
X50212Y-40018D01*
X50184Y-40114D01*
X50500Y-40429D01*
X50815Y-40114D01*
X50815Y-40255D01*
X50570Y-40500D01*
X50885Y-40815D01*
X50981Y-40787D01*
X51054Y-40581D01*
X51054Y-41950D01*
X51050Y-41954D01*
X51050Y-41891D01*
X50966Y-41688D01*
X50815Y-41537D01*
X50815Y-40885D01*
X50500Y-40570D01*
X50429Y-40641D01*
X50429Y-40500D01*
X50114Y-40184D01*
X50018Y-40212D01*
X49945Y-40418D01*
X49956Y-40636D01*
X50018Y-40787D01*
X50114Y-40815D01*
X50429Y-40500D01*
X50429Y-40641D01*
X50184Y-40885D01*
X50212Y-40981D01*
X50418Y-41054D01*
X50636Y-41043D01*
X50787Y-40981D01*
X50815Y-40885D01*
X50815Y-41537D01*
X50811Y-41534D01*
X50609Y-41450D01*
X50391Y-41449D01*
X50188Y-41533D01*
X50034Y-41688D01*
X49950Y-41890D01*
X49949Y-42108D01*
X50033Y-42311D01*
X50188Y-42465D01*
X50390Y-42549D01*
X50455Y-42549D01*
X49554Y-43450D01*
X49391Y-43449D01*
X49297Y-43488D01*
X49297Y-32367D01*
X49000Y-32070D01*
X48929Y-32141D01*
X48929Y-32000D01*
X48632Y-31702D01*
X48539Y-31727D01*
X48500Y-31837D01*
X48445Y-31703D01*
X48297Y-31555D01*
X48297Y-31554D01*
X48297Y-30367D01*
X48000Y-30070D01*
X47929Y-30141D01*
X47929Y-30000D01*
X47632Y-29702D01*
X47539Y-29727D01*
X47470Y-29924D01*
X47481Y-30132D01*
X47539Y-30272D01*
X47632Y-30297D01*
X47929Y-30000D01*
X47929Y-30141D01*
X47702Y-30367D01*
X47727Y-30460D01*
X47924Y-30529D01*
X48132Y-30518D01*
X48272Y-30460D01*
X48297Y-30367D01*
X48297Y-31554D01*
X48104Y-31475D01*
X47896Y-31474D01*
X47703Y-31554D01*
X47555Y-31702D01*
X47475Y-31895D01*
X47474Y-32103D01*
X47554Y-32297D01*
X47702Y-32444D01*
X47895Y-32524D01*
X48103Y-32525D01*
X48297Y-32445D01*
X48444Y-32297D01*
X48497Y-32171D01*
X48539Y-32272D01*
X48632Y-32297D01*
X48929Y-32000D01*
X48929Y-32141D01*
X48702Y-32367D01*
X48727Y-32460D01*
X48924Y-32529D01*
X49132Y-32518D01*
X49272Y-32460D01*
X49297Y-32367D01*
X49297Y-43488D01*
X49188Y-43533D01*
X49034Y-43688D01*
X49029Y-43697D01*
X49029Y-40075D01*
X49018Y-39867D01*
X48960Y-39727D01*
X48867Y-39702D01*
X48797Y-39773D01*
X48797Y-39632D01*
X48772Y-39539D01*
X48575Y-39470D01*
X48367Y-39481D01*
X48227Y-39539D01*
X48202Y-39632D01*
X48500Y-39929D01*
X48797Y-39632D01*
X48797Y-39773D01*
X48570Y-40000D01*
X48867Y-40297D01*
X48960Y-40272D01*
X49029Y-40075D01*
X49029Y-43697D01*
X49025Y-43709D01*
X49025Y-41896D01*
X48945Y-41703D01*
X48797Y-41555D01*
X48797Y-41554D01*
X48797Y-40367D01*
X48500Y-40070D01*
X48429Y-40141D01*
X48429Y-40000D01*
X48132Y-39702D01*
X48039Y-39727D01*
X47970Y-39924D01*
X47981Y-40132D01*
X48039Y-40272D01*
X48132Y-40297D01*
X48429Y-40000D01*
X48429Y-40141D01*
X48202Y-40367D01*
X48227Y-40460D01*
X48424Y-40529D01*
X48632Y-40518D01*
X48772Y-40460D01*
X48797Y-40367D01*
X48797Y-41554D01*
X48604Y-41475D01*
X48396Y-41474D01*
X48203Y-41554D01*
X48055Y-41702D01*
X47975Y-41895D01*
X47974Y-42103D01*
X48054Y-42297D01*
X48202Y-42444D01*
X48395Y-42524D01*
X48603Y-42525D01*
X48797Y-42445D01*
X48944Y-42297D01*
X49024Y-42104D01*
X49025Y-41896D01*
X49025Y-43709D01*
X49000Y-43769D01*
X48966Y-43688D01*
X48811Y-43534D01*
X48609Y-43450D01*
X48391Y-43449D01*
X48188Y-43533D01*
X48034Y-43688D01*
X48000Y-43769D01*
X47966Y-43688D01*
X47811Y-43534D01*
X47751Y-43509D01*
X47747Y-43502D01*
X47747Y-43502D01*
X47600Y-43355D01*
X47600Y-40250D01*
X47573Y-40116D01*
X47497Y-40002D01*
X47497Y-40002D01*
X46594Y-39099D01*
X46050Y-38555D01*
X46050Y-38531D01*
X46112Y-38594D01*
X46294Y-38594D01*
X46394Y-38594D01*
X46486Y-38556D01*
X46556Y-38485D01*
X46594Y-38393D01*
X46594Y-37606D01*
X46556Y-37514D01*
X46542Y-37500D01*
X46556Y-37485D01*
X46594Y-37393D01*
X46594Y-36606D01*
X46556Y-36514D01*
X46550Y-36507D01*
X46550Y-32891D01*
X46550Y-32890D01*
X46550Y-30250D01*
X46550Y-29749D01*
X46549Y-29650D01*
X46511Y-29558D01*
X46441Y-29487D01*
X46349Y-29449D01*
X46112Y-29450D01*
X46050Y-29512D01*
X46050Y-29950D01*
X46487Y-29950D01*
X46550Y-29887D01*
X46550Y-29749D01*
X46550Y-30250D01*
X46550Y-30112D01*
X46487Y-30050D01*
X46050Y-30050D01*
X46050Y-30487D01*
X46112Y-30550D01*
X46349Y-30550D01*
X46441Y-30512D01*
X46511Y-30441D01*
X46549Y-30349D01*
X46550Y-30250D01*
X46550Y-32890D01*
X46466Y-32688D01*
X46311Y-32534D01*
X46109Y-32450D01*
X45989Y-32449D01*
X45989Y-25220D01*
X45989Y-24579D01*
X45913Y-24200D01*
X45699Y-23880D01*
X45378Y-23665D01*
X45000Y-23590D01*
X44621Y-23665D01*
X44300Y-23880D01*
X44086Y-24200D01*
X44011Y-24579D01*
X44011Y-25220D01*
X44086Y-25599D01*
X44300Y-25919D01*
X44621Y-26134D01*
X45000Y-26209D01*
X45378Y-26134D01*
X45699Y-25919D01*
X45913Y-25599D01*
X45989Y-25220D01*
X45989Y-32449D01*
X45950Y-32449D01*
X45950Y-30487D01*
X45950Y-30050D01*
X45942Y-30050D01*
X45942Y-29950D01*
X45950Y-29950D01*
X45950Y-29512D01*
X45887Y-29450D01*
X45650Y-29449D01*
X45558Y-29487D01*
X45488Y-29558D01*
X45450Y-29650D01*
X45450Y-29672D01*
X45311Y-29534D01*
X45109Y-29450D01*
X45045Y-29450D01*
X43060Y-27465D01*
X43111Y-27465D01*
X43319Y-27379D01*
X43478Y-27220D01*
X43564Y-27012D01*
X43565Y-26788D01*
X43479Y-26580D01*
X43320Y-26421D01*
X43112Y-26335D01*
X42888Y-26334D01*
X42680Y-26420D01*
X42521Y-26579D01*
X42500Y-26630D01*
X42479Y-26580D01*
X42320Y-26421D01*
X42112Y-26335D01*
X41989Y-26334D01*
X41989Y-25220D01*
X41989Y-24579D01*
X41913Y-24200D01*
X41699Y-23880D01*
X41378Y-23665D01*
X41000Y-23590D01*
X40621Y-23665D01*
X40300Y-23880D01*
X40086Y-24200D01*
X40011Y-24579D01*
X40011Y-25220D01*
X40086Y-25599D01*
X40300Y-25919D01*
X40621Y-26134D01*
X41000Y-26209D01*
X41378Y-26134D01*
X41699Y-25919D01*
X41913Y-25599D01*
X41989Y-25220D01*
X41989Y-26334D01*
X41888Y-26334D01*
X41680Y-26420D01*
X41521Y-26579D01*
X41435Y-26787D01*
X41434Y-27011D01*
X41520Y-27219D01*
X41679Y-27378D01*
X41887Y-27464D01*
X42070Y-27465D01*
X44055Y-29450D01*
X43891Y-29449D01*
X43688Y-29533D01*
X43534Y-29688D01*
X43500Y-29769D01*
X43466Y-29688D01*
X43311Y-29534D01*
X43109Y-29450D01*
X42891Y-29449D01*
X42688Y-29533D01*
X42534Y-29688D01*
X42450Y-29890D01*
X42449Y-30108D01*
X42533Y-30311D01*
X42688Y-30465D01*
X42890Y-30549D01*
X43108Y-30550D01*
X43311Y-30466D01*
X43465Y-30311D01*
X43499Y-30230D01*
X43533Y-30311D01*
X43688Y-30465D01*
X43890Y-30549D01*
X44108Y-30550D01*
X44311Y-30466D01*
X44465Y-30311D01*
X44499Y-30230D01*
X44533Y-30311D01*
X44688Y-30465D01*
X44890Y-30549D01*
X45108Y-30550D01*
X45311Y-30466D01*
X45450Y-30327D01*
X45450Y-30349D01*
X45488Y-30441D01*
X45558Y-30512D01*
X45650Y-30550D01*
X45887Y-30550D01*
X45950Y-30487D01*
X45950Y-32449D01*
X45891Y-32449D01*
X45688Y-32533D01*
X45534Y-32688D01*
X45500Y-32769D01*
X45466Y-32688D01*
X45311Y-32534D01*
X45109Y-32450D01*
X44891Y-32449D01*
X44688Y-32533D01*
X44534Y-32688D01*
X44500Y-32769D01*
X44466Y-32688D01*
X44311Y-32534D01*
X44109Y-32450D01*
X43891Y-32449D01*
X43688Y-32533D01*
X43534Y-32688D01*
X43500Y-32769D01*
X43466Y-32688D01*
X43311Y-32534D01*
X43109Y-32450D01*
X42891Y-32449D01*
X42688Y-32533D01*
X42534Y-32688D01*
X42450Y-32890D01*
X42449Y-33108D01*
X42533Y-33311D01*
X42688Y-33465D01*
X42890Y-33549D01*
X43108Y-33550D01*
X43311Y-33466D01*
X43465Y-33311D01*
X43499Y-33230D01*
X43533Y-33311D01*
X43688Y-33465D01*
X43890Y-33549D01*
X44108Y-33550D01*
X44311Y-33466D01*
X44465Y-33311D01*
X44499Y-33230D01*
X44533Y-33311D01*
X44688Y-33465D01*
X44890Y-33549D01*
X45108Y-33550D01*
X45311Y-33466D01*
X45465Y-33311D01*
X45499Y-33230D01*
X45533Y-33311D01*
X45688Y-33465D01*
X45890Y-33549D01*
X46108Y-33550D01*
X46311Y-33466D01*
X46465Y-33311D01*
X46549Y-33109D01*
X46550Y-32891D01*
X46550Y-36507D01*
X46486Y-36443D01*
X46394Y-36405D01*
X46294Y-36405D01*
X46112Y-36405D01*
X46050Y-36468D01*
X46050Y-36950D01*
X46531Y-36950D01*
X46594Y-36887D01*
X46594Y-36606D01*
X46594Y-37393D01*
X46594Y-37112D01*
X46531Y-37050D01*
X46050Y-37050D01*
X46050Y-37468D01*
X46050Y-37531D01*
X46050Y-37950D01*
X46531Y-37950D01*
X46594Y-37887D01*
X46594Y-37606D01*
X46594Y-38393D01*
X46594Y-38112D01*
X46531Y-38050D01*
X46050Y-38050D01*
X46050Y-38057D01*
X45950Y-38057D01*
X45950Y-38050D01*
X45942Y-38050D01*
X45942Y-37950D01*
X45950Y-37950D01*
X45950Y-37531D01*
X45950Y-37468D01*
X45950Y-37050D01*
X45942Y-37050D01*
X45942Y-36950D01*
X45950Y-36950D01*
X45950Y-36468D01*
X45887Y-36405D01*
X45705Y-36405D01*
X45605Y-36405D01*
X45525Y-36438D01*
X45525Y-34896D01*
X45445Y-34703D01*
X45297Y-34555D01*
X45104Y-34475D01*
X44896Y-34474D01*
X44703Y-34554D01*
X44555Y-34702D01*
X44475Y-34895D01*
X44474Y-35103D01*
X44554Y-35297D01*
X44702Y-35444D01*
X44895Y-35524D01*
X45103Y-35525D01*
X45297Y-35445D01*
X45444Y-35297D01*
X45524Y-35104D01*
X45525Y-34896D01*
X45525Y-36438D01*
X45513Y-36443D01*
X45443Y-36514D01*
X45417Y-36576D01*
X45337Y-36496D01*
X45118Y-36405D01*
X44882Y-36405D01*
X44663Y-36495D01*
X44499Y-36659D01*
X44337Y-36496D01*
X44118Y-36405D01*
X43882Y-36405D01*
X43663Y-36495D01*
X43525Y-36634D01*
X43525Y-34896D01*
X43445Y-34703D01*
X43297Y-34555D01*
X43104Y-34475D01*
X42896Y-34474D01*
X42703Y-34554D01*
X42555Y-34702D01*
X42475Y-34895D01*
X42474Y-35103D01*
X42554Y-35297D01*
X42702Y-35444D01*
X42895Y-35524D01*
X43103Y-35525D01*
X43297Y-35445D01*
X43444Y-35297D01*
X43524Y-35104D01*
X43525Y-34896D01*
X43525Y-36634D01*
X43496Y-36662D01*
X43405Y-36881D01*
X43405Y-37117D01*
X43495Y-37336D01*
X43659Y-37500D01*
X43496Y-37662D01*
X43405Y-37881D01*
X43405Y-38117D01*
X43495Y-38336D01*
X43662Y-38503D01*
X43881Y-38594D01*
X44117Y-38594D01*
X44336Y-38504D01*
X44500Y-38340D01*
X44650Y-38490D01*
X44650Y-38500D01*
X44676Y-38633D01*
X44752Y-38747D01*
X45002Y-38997D01*
X45002Y-38997D01*
X45116Y-39073D01*
X45250Y-39100D01*
X45605Y-39100D01*
X46456Y-39951D01*
X46363Y-39956D01*
X46212Y-40018D01*
X46184Y-40114D01*
X46500Y-40429D01*
X46505Y-40423D01*
X46576Y-40494D01*
X46570Y-40500D01*
X46885Y-40815D01*
X46900Y-40811D01*
X46900Y-41622D01*
X46815Y-41537D01*
X46815Y-40885D01*
X46500Y-40570D01*
X46429Y-40641D01*
X46429Y-40500D01*
X46114Y-40184D01*
X46018Y-40212D01*
X45945Y-40418D01*
X45956Y-40636D01*
X46018Y-40787D01*
X46114Y-40815D01*
X46429Y-40500D01*
X46429Y-40641D01*
X46184Y-40885D01*
X46212Y-40981D01*
X46418Y-41054D01*
X46636Y-41043D01*
X46787Y-40981D01*
X46815Y-40885D01*
X46815Y-41537D01*
X46811Y-41534D01*
X46609Y-41450D01*
X46391Y-41449D01*
X46188Y-41533D01*
X46034Y-41688D01*
X45950Y-41890D01*
X45949Y-42108D01*
X46033Y-42311D01*
X46150Y-42427D01*
X46150Y-43572D01*
X46034Y-43688D01*
X46000Y-43769D01*
X45966Y-43688D01*
X45811Y-43534D01*
X45609Y-43450D01*
X45391Y-43449D01*
X45188Y-43533D01*
X45034Y-43688D01*
X44950Y-43890D01*
X44949Y-44108D01*
X45033Y-44311D01*
X45188Y-44465D01*
X45390Y-44549D01*
X45608Y-44550D01*
X45811Y-44466D01*
X45965Y-44311D01*
X45999Y-44230D01*
X46033Y-44311D01*
X46188Y-44465D01*
X46390Y-44549D01*
X46608Y-44550D01*
X46811Y-44466D01*
X46965Y-44311D01*
X46999Y-44230D01*
X47033Y-44311D01*
X47188Y-44465D01*
X47390Y-44549D01*
X47608Y-44550D01*
X47811Y-44466D01*
X47965Y-44311D01*
X47999Y-44230D01*
X48033Y-44311D01*
X48188Y-44465D01*
X48390Y-44549D01*
X48608Y-44550D01*
X48811Y-44466D01*
X48965Y-44311D01*
X48999Y-44230D01*
X49033Y-44311D01*
X49188Y-44465D01*
X49390Y-44549D01*
X49608Y-44550D01*
X49811Y-44466D01*
X49965Y-44311D01*
X49999Y-44230D01*
X50033Y-44311D01*
X50188Y-44465D01*
X50390Y-44549D01*
X50608Y-44550D01*
X50811Y-44466D01*
X50949Y-44327D01*
X50949Y-44349D01*
X50987Y-44441D01*
X51058Y-44511D01*
X51150Y-44549D01*
X51249Y-44550D01*
X51849Y-44550D01*
X51941Y-44512D01*
X52011Y-44441D01*
X52049Y-44349D01*
X52050Y-44250D01*
X52050Y-43650D01*
X52012Y-43558D01*
X51941Y-43488D01*
X51849Y-43450D01*
X51750Y-43449D01*
X51545Y-43449D01*
X54108Y-40886D01*
X54188Y-40965D01*
X54390Y-41049D01*
X54608Y-41050D01*
X54811Y-40966D01*
X54927Y-40850D01*
X55501Y-40850D01*
X55565Y-40914D01*
X55508Y-40937D01*
X55438Y-41008D01*
X55400Y-41100D01*
X55399Y-41199D01*
X55399Y-41605D01*
X55355Y-41650D01*
X54927Y-41650D01*
X54811Y-41534D01*
X54609Y-41450D01*
X54391Y-41449D01*
X54188Y-41533D01*
X54034Y-41688D01*
X53950Y-41890D01*
X53949Y-42108D01*
X54033Y-42311D01*
X54188Y-42465D01*
X54390Y-42549D01*
X54608Y-42550D01*
X54811Y-42466D01*
X54927Y-42350D01*
X55500Y-42350D01*
X55633Y-42323D01*
X55633Y-42323D01*
X55747Y-42247D01*
X55894Y-42100D01*
X56399Y-42100D01*
X56491Y-42062D01*
X56561Y-41991D01*
X56599Y-41899D01*
X56600Y-41800D01*
X56600Y-41100D01*
X56562Y-41008D01*
X56491Y-40938D01*
X56434Y-40914D01*
X56508Y-40840D01*
X56599Y-40619D01*
X56600Y-40381D01*
X56600Y-46150D01*
X56050Y-46150D01*
X56050Y-43891D01*
X55966Y-43688D01*
X55811Y-43534D01*
X55609Y-43450D01*
X55391Y-43449D01*
X55188Y-43533D01*
X55034Y-43688D01*
X54950Y-43890D01*
X54949Y-44108D01*
X55033Y-44311D01*
X55188Y-44465D01*
X55390Y-44549D01*
X55608Y-44550D01*
X55811Y-44466D01*
X55965Y-44311D01*
X56049Y-44109D01*
X56050Y-43891D01*
X56050Y-46150D01*
X54525Y-46150D01*
X54525Y-44396D01*
X54445Y-44203D01*
X54297Y-44055D01*
X54104Y-43975D01*
X53896Y-43974D01*
X53703Y-44054D01*
X53555Y-44202D01*
X53475Y-44395D01*
X53474Y-44603D01*
X53554Y-44797D01*
X53702Y-44944D01*
X53895Y-45024D01*
X54103Y-45025D01*
X54297Y-44945D01*
X54444Y-44797D01*
X54524Y-44604D01*
X54525Y-44396D01*
X54525Y-46150D01*
X54392Y-46150D01*
X54297Y-46055D01*
X54104Y-45975D01*
X53896Y-45974D01*
X53703Y-46054D01*
X53555Y-46202D01*
X53475Y-46395D01*
X53474Y-46603D01*
X53554Y-46797D01*
X53702Y-46944D01*
X53895Y-47024D01*
X54103Y-47025D01*
X54297Y-46945D01*
X54392Y-46850D01*
X56855Y-46850D01*
X57405Y-47400D01*
X57405Y-47893D01*
X57443Y-47985D01*
X57457Y-47999D01*
X57443Y-48013D01*
X57405Y-48105D01*
X57405Y-48205D01*
X57405Y-48893D01*
X57443Y-48985D01*
X57513Y-49056D01*
X57605Y-49094D01*
X57705Y-49094D01*
X58393Y-49094D01*
X58485Y-49056D01*
X58556Y-48986D01*
X58578Y-48933D01*
X58607Y-48963D01*
X58652Y-48918D01*
X58685Y-49018D01*
X58907Y-49099D01*
X59143Y-49088D01*
X59314Y-49018D01*
X59347Y-48918D01*
X59347Y-49700D01*
X56050Y-49700D01*
X56050Y-47891D01*
X55966Y-47688D01*
X55811Y-47534D01*
X55609Y-47450D01*
X55391Y-47449D01*
X55188Y-47533D01*
X55034Y-47688D01*
X54950Y-47890D01*
X54949Y-48108D01*
X55033Y-48311D01*
X55188Y-48465D01*
X55390Y-48549D01*
X55608Y-48550D01*
X55811Y-48466D01*
X55965Y-48311D01*
X56049Y-48109D01*
X56050Y-47891D01*
X56050Y-49700D01*
X54550Y-49700D01*
X54550Y-48891D01*
X54466Y-48688D01*
X54311Y-48534D01*
X54109Y-48450D01*
X53891Y-48449D01*
X53688Y-48533D01*
X53608Y-48613D01*
X52049Y-47054D01*
X52050Y-46891D01*
X51966Y-46688D01*
X51811Y-46534D01*
X51609Y-46450D01*
X51391Y-46449D01*
X51188Y-46533D01*
X51034Y-46688D01*
X51000Y-46769D01*
X50966Y-46688D01*
X50811Y-46534D01*
X50609Y-46450D01*
X50391Y-46449D01*
X50188Y-46533D01*
X50034Y-46688D01*
X50000Y-46769D01*
X49966Y-46688D01*
X49811Y-46534D01*
X49609Y-46450D01*
X49391Y-46449D01*
X49188Y-46533D01*
X49034Y-46688D01*
X49000Y-46769D01*
X48966Y-46688D01*
X48811Y-46534D01*
X48609Y-46450D01*
X48391Y-46449D01*
X48188Y-46533D01*
X48034Y-46688D01*
X48002Y-46763D01*
X47981Y-46712D01*
X47885Y-46684D01*
X47815Y-46755D01*
X47815Y-46614D01*
X47787Y-46518D01*
X47581Y-46445D01*
X47363Y-46456D01*
X47212Y-46518D01*
X47184Y-46614D01*
X47500Y-46929D01*
X47815Y-46614D01*
X47815Y-46755D01*
X47570Y-47000D01*
X47885Y-47315D01*
X47981Y-47287D01*
X48000Y-47232D01*
X48033Y-47311D01*
X48188Y-47465D01*
X48390Y-47549D01*
X48608Y-47550D01*
X48811Y-47466D01*
X48965Y-47311D01*
X48999Y-47230D01*
X49033Y-47311D01*
X49188Y-47465D01*
X49390Y-47549D01*
X49608Y-47550D01*
X49811Y-47466D01*
X49965Y-47311D01*
X49999Y-47230D01*
X50033Y-47311D01*
X50150Y-47427D01*
X50150Y-48355D01*
X50054Y-48450D01*
X49891Y-48449D01*
X49688Y-48533D01*
X49534Y-48688D01*
X49450Y-48890D01*
X49449Y-49108D01*
X49533Y-49311D01*
X49688Y-49465D01*
X49890Y-49549D01*
X50108Y-49550D01*
X50311Y-49466D01*
X50465Y-49311D01*
X50549Y-49109D01*
X50550Y-48944D01*
X50747Y-48747D01*
X50823Y-48633D01*
X50823Y-48633D01*
X50850Y-48500D01*
X50850Y-47427D01*
X50965Y-47311D01*
X50999Y-47230D01*
X51033Y-47311D01*
X51188Y-47465D01*
X51390Y-47549D01*
X51555Y-47550D01*
X53252Y-49247D01*
X53252Y-49247D01*
X53366Y-49323D01*
X53499Y-49349D01*
X53500Y-49350D01*
X53572Y-49350D01*
X53688Y-49465D01*
X53890Y-49549D01*
X54108Y-49550D01*
X54311Y-49466D01*
X54465Y-49311D01*
X54549Y-49109D01*
X54550Y-48891D01*
X54550Y-49700D01*
X49025Y-49700D01*
X49025Y-48896D01*
X48945Y-48703D01*
X48797Y-48555D01*
X48604Y-48475D01*
X48396Y-48474D01*
X48203Y-48554D01*
X48055Y-48702D01*
X47975Y-48895D01*
X47974Y-49103D01*
X48054Y-49297D01*
X48202Y-49444D01*
X48395Y-49524D01*
X48603Y-49525D01*
X48797Y-49445D01*
X48944Y-49297D01*
X49024Y-49104D01*
X49025Y-48896D01*
X49025Y-49700D01*
X47815Y-49700D01*
X47815Y-47385D01*
X47500Y-47070D01*
X47429Y-47141D01*
X47429Y-47000D01*
X47114Y-46684D01*
X47018Y-46712D01*
X46999Y-46767D01*
X46966Y-46688D01*
X46811Y-46534D01*
X46609Y-46450D01*
X46391Y-46449D01*
X46188Y-46533D01*
X46034Y-46688D01*
X46000Y-46769D01*
X45966Y-46688D01*
X45811Y-46534D01*
X45609Y-46450D01*
X45391Y-46449D01*
X45188Y-46533D01*
X45034Y-46688D01*
X44950Y-46890D01*
X44949Y-47108D01*
X45033Y-47311D01*
X45188Y-47465D01*
X45390Y-47549D01*
X45455Y-47549D01*
X44855Y-48150D01*
X43050Y-48150D01*
X43050Y-41891D01*
X43050Y-40391D01*
X42966Y-40188D01*
X42811Y-40034D01*
X42609Y-39950D01*
X42391Y-39949D01*
X42188Y-40033D01*
X42054Y-40167D01*
X42054Y-39081D01*
X42050Y-38988D01*
X42050Y-34891D01*
X41966Y-34688D01*
X41811Y-34534D01*
X41609Y-34450D01*
X41529Y-34450D01*
X41529Y-32075D01*
X41525Y-31987D01*
X41525Y-29896D01*
X41445Y-29703D01*
X41297Y-29555D01*
X41104Y-29475D01*
X40896Y-29474D01*
X40703Y-29554D01*
X40555Y-29702D01*
X40475Y-29895D01*
X40474Y-30103D01*
X40554Y-30297D01*
X40702Y-30444D01*
X40895Y-30524D01*
X41103Y-30525D01*
X41297Y-30445D01*
X41444Y-30297D01*
X41524Y-30104D01*
X41525Y-29896D01*
X41525Y-31987D01*
X41518Y-31867D01*
X41460Y-31727D01*
X41367Y-31702D01*
X41297Y-31773D01*
X41297Y-31632D01*
X41272Y-31539D01*
X41075Y-31470D01*
X40867Y-31481D01*
X40727Y-31539D01*
X40702Y-31632D01*
X41000Y-31929D01*
X41297Y-31632D01*
X41297Y-31773D01*
X41070Y-32000D01*
X41367Y-32297D01*
X41460Y-32272D01*
X41529Y-32075D01*
X41529Y-34450D01*
X41391Y-34449D01*
X41297Y-34488D01*
X41297Y-32367D01*
X41000Y-32070D01*
X40929Y-32141D01*
X40929Y-32000D01*
X40632Y-31702D01*
X40539Y-31727D01*
X40470Y-31924D01*
X40481Y-32132D01*
X40539Y-32272D01*
X40632Y-32297D01*
X40929Y-32000D01*
X40929Y-32141D01*
X40702Y-32367D01*
X40727Y-32460D01*
X40924Y-32529D01*
X41132Y-32518D01*
X41272Y-32460D01*
X41297Y-32367D01*
X41297Y-34488D01*
X41188Y-34533D01*
X41034Y-34688D01*
X40950Y-34890D01*
X40949Y-35108D01*
X41033Y-35311D01*
X41188Y-35465D01*
X41390Y-35549D01*
X41608Y-35550D01*
X41811Y-35466D01*
X41965Y-35311D01*
X42049Y-35109D01*
X42050Y-34891D01*
X42050Y-38988D01*
X42043Y-38863D01*
X41981Y-38712D01*
X41885Y-38684D01*
X41815Y-38755D01*
X41815Y-38614D01*
X41787Y-38518D01*
X41581Y-38445D01*
X41363Y-38456D01*
X41212Y-38518D01*
X41184Y-38614D01*
X41500Y-38929D01*
X41815Y-38614D01*
X41815Y-38755D01*
X41570Y-39000D01*
X41885Y-39315D01*
X41981Y-39287D01*
X42054Y-39081D01*
X42054Y-40167D01*
X42034Y-40188D01*
X41950Y-40390D01*
X41949Y-40608D01*
X42033Y-40811D01*
X42188Y-40965D01*
X42390Y-41049D01*
X42608Y-41050D01*
X42811Y-40966D01*
X42965Y-40811D01*
X43049Y-40609D01*
X43050Y-40391D01*
X43050Y-41891D01*
X42966Y-41688D01*
X42811Y-41534D01*
X42609Y-41450D01*
X42391Y-41449D01*
X42188Y-41533D01*
X42034Y-41688D01*
X41950Y-41890D01*
X41949Y-42055D01*
X41815Y-42189D01*
X41815Y-39385D01*
X41500Y-39070D01*
X41429Y-39141D01*
X41429Y-39000D01*
X41114Y-38684D01*
X41018Y-38712D01*
X40945Y-38918D01*
X40956Y-39136D01*
X41018Y-39287D01*
X41114Y-39315D01*
X41429Y-39000D01*
X41429Y-39141D01*
X41184Y-39385D01*
X41212Y-39481D01*
X41418Y-39554D01*
X41636Y-39543D01*
X41787Y-39481D01*
X41815Y-39385D01*
X41815Y-42189D01*
X41752Y-42252D01*
X41676Y-42366D01*
X41650Y-42500D01*
X41650Y-44899D01*
X41600Y-44899D01*
X41600Y-44900D01*
X41600Y-40381D01*
X41508Y-40160D01*
X41340Y-39991D01*
X41119Y-39900D01*
X40881Y-39899D01*
X40660Y-39991D01*
X40491Y-40159D01*
X40400Y-40380D01*
X40399Y-40618D01*
X40491Y-40839D01*
X40565Y-40914D01*
X40508Y-40937D01*
X40438Y-41008D01*
X40400Y-41100D01*
X40399Y-41199D01*
X40399Y-41899D01*
X40437Y-41991D01*
X40508Y-42061D01*
X40600Y-42099D01*
X40699Y-42100D01*
X41399Y-42100D01*
X41491Y-42062D01*
X41561Y-41991D01*
X41599Y-41899D01*
X41600Y-41800D01*
X41600Y-41100D01*
X41562Y-41008D01*
X41491Y-40938D01*
X41434Y-40914D01*
X41508Y-40840D01*
X41599Y-40619D01*
X41600Y-40381D01*
X41600Y-44900D01*
X41508Y-44937D01*
X41438Y-45008D01*
X41400Y-45100D01*
X41399Y-45199D01*
X41399Y-45899D01*
X41437Y-45991D01*
X41508Y-46061D01*
X41565Y-46085D01*
X41491Y-46159D01*
X41400Y-46380D01*
X41400Y-46405D01*
X40350Y-45355D01*
X40350Y-44927D01*
X40465Y-44811D01*
X40549Y-44609D01*
X40550Y-44391D01*
X40466Y-44188D01*
X40311Y-44034D01*
X40109Y-43950D01*
X39891Y-43949D01*
X39688Y-44033D01*
X39600Y-44122D01*
X39600Y-36381D01*
X39508Y-36160D01*
X39348Y-35999D01*
X39508Y-35840D01*
X39599Y-35619D01*
X39600Y-35381D01*
X39508Y-35160D01*
X39340Y-34991D01*
X39119Y-34900D01*
X39029Y-34900D01*
X39029Y-33075D01*
X39018Y-32867D01*
X38960Y-32727D01*
X38867Y-32702D01*
X38797Y-32773D01*
X38797Y-32632D01*
X38772Y-32539D01*
X38620Y-32485D01*
X38620Y-25512D01*
X38437Y-25071D01*
X38100Y-24733D01*
X37659Y-24550D01*
X37182Y-24549D01*
X36741Y-24732D01*
X36403Y-25069D01*
X36220Y-25510D01*
X36219Y-25987D01*
X36402Y-26428D01*
X36739Y-26766D01*
X37180Y-26949D01*
X37657Y-26950D01*
X38098Y-26767D01*
X38436Y-26430D01*
X38619Y-25989D01*
X38620Y-25512D01*
X38620Y-32485D01*
X38575Y-32470D01*
X38367Y-32481D01*
X38227Y-32539D01*
X38202Y-32632D01*
X38500Y-32929D01*
X38797Y-32632D01*
X38797Y-32773D01*
X38570Y-33000D01*
X38867Y-33297D01*
X38960Y-33272D01*
X39029Y-33075D01*
X39029Y-34900D01*
X38881Y-34899D01*
X38797Y-34934D01*
X38797Y-33367D01*
X38500Y-33070D01*
X38429Y-33141D01*
X38429Y-33000D01*
X38147Y-32718D01*
X38147Y-30104D01*
X38138Y-29848D01*
X38058Y-29655D01*
X37982Y-29627D01*
X38035Y-29605D01*
X38105Y-29535D01*
X38143Y-29443D01*
X38143Y-29344D01*
X38143Y-28556D01*
X38105Y-28464D01*
X38035Y-28394D01*
X37943Y-28356D01*
X37844Y-28356D01*
X37056Y-28356D01*
X36964Y-28394D01*
X36894Y-28464D01*
X36856Y-28556D01*
X36856Y-28655D01*
X36856Y-29443D01*
X36894Y-29535D01*
X36964Y-29605D01*
X37017Y-29627D01*
X36941Y-29655D01*
X36852Y-29895D01*
X36861Y-30151D01*
X36941Y-30344D01*
X37046Y-30383D01*
X37429Y-30000D01*
X37423Y-29994D01*
X37494Y-29923D01*
X37500Y-29929D01*
X37505Y-29923D01*
X37576Y-29994D01*
X37570Y-30000D01*
X37953Y-30383D01*
X38058Y-30344D01*
X38147Y-30104D01*
X38147Y-32718D01*
X38143Y-32714D01*
X38143Y-30872D01*
X38046Y-30635D01*
X37877Y-30467D01*
X37883Y-30453D01*
X37500Y-30070D01*
X37116Y-30453D01*
X37122Y-30467D01*
X36954Y-30634D01*
X36856Y-30871D01*
X36856Y-31078D01*
X36678Y-31256D01*
X35525Y-31256D01*
X35525Y-28896D01*
X35445Y-28703D01*
X35297Y-28555D01*
X35230Y-28527D01*
X35230Y-26560D01*
X35230Y-25960D01*
X35192Y-25868D01*
X35121Y-25798D01*
X35029Y-25760D01*
X34930Y-25759D01*
X34690Y-25759D01*
X34690Y-25081D01*
X34606Y-24878D01*
X34451Y-24724D01*
X34249Y-24640D01*
X34031Y-24639D01*
X33828Y-24723D01*
X33674Y-24878D01*
X33594Y-25068D01*
X33516Y-24878D01*
X33361Y-24724D01*
X33159Y-24640D01*
X32941Y-24639D01*
X32738Y-24723D01*
X32584Y-24878D01*
X32500Y-25080D01*
X32500Y-25081D01*
X32416Y-24878D01*
X32261Y-24724D01*
X32059Y-24640D01*
X31841Y-24639D01*
X31638Y-24723D01*
X31484Y-24878D01*
X31404Y-25068D01*
X31326Y-24878D01*
X31171Y-24724D01*
X30969Y-24640D01*
X30751Y-24639D01*
X30548Y-24723D01*
X30394Y-24878D01*
X30310Y-25080D01*
X30309Y-25298D01*
X30393Y-25501D01*
X30548Y-25655D01*
X30750Y-25739D01*
X30968Y-25740D01*
X31171Y-25656D01*
X31325Y-25501D01*
X31405Y-25311D01*
X31483Y-25501D01*
X31638Y-25655D01*
X31840Y-25739D01*
X32058Y-25740D01*
X32261Y-25656D01*
X32415Y-25501D01*
X32499Y-25299D01*
X32500Y-25081D01*
X32499Y-25298D01*
X32583Y-25501D01*
X32738Y-25655D01*
X32940Y-25739D01*
X33158Y-25740D01*
X33361Y-25656D01*
X33515Y-25501D01*
X33595Y-25311D01*
X33673Y-25501D01*
X33828Y-25655D01*
X34030Y-25739D01*
X34248Y-25740D01*
X34451Y-25656D01*
X34605Y-25501D01*
X34689Y-25299D01*
X34690Y-25081D01*
X34690Y-25759D01*
X34330Y-25759D01*
X34238Y-25797D01*
X34168Y-25868D01*
X34130Y-25960D01*
X34129Y-26059D01*
X34129Y-26176D01*
X34056Y-25998D01*
X33901Y-25844D01*
X33699Y-25760D01*
X33481Y-25759D01*
X33278Y-25843D01*
X33124Y-25998D01*
X33044Y-26189D01*
X33043Y-26173D01*
X32981Y-26022D01*
X32885Y-25994D01*
X32815Y-26065D01*
X32815Y-25924D01*
X32787Y-25828D01*
X32581Y-25755D01*
X32363Y-25766D01*
X32212Y-25828D01*
X32184Y-25924D01*
X32500Y-26239D01*
X32815Y-25924D01*
X32815Y-26065D01*
X32570Y-26310D01*
X32885Y-26625D01*
X32981Y-26597D01*
X33042Y-26425D01*
X33123Y-26621D01*
X33278Y-26775D01*
X33480Y-26859D01*
X33698Y-26860D01*
X33901Y-26776D01*
X34055Y-26621D01*
X34129Y-26443D01*
X34129Y-26659D01*
X34167Y-26751D01*
X34238Y-26821D01*
X34330Y-26859D01*
X34429Y-26860D01*
X35029Y-26860D01*
X35121Y-26822D01*
X35191Y-26751D01*
X35229Y-26659D01*
X35230Y-26560D01*
X35230Y-28527D01*
X35104Y-28475D01*
X34896Y-28474D01*
X34703Y-28554D01*
X34555Y-28702D01*
X34475Y-28895D01*
X34474Y-29103D01*
X34554Y-29297D01*
X34702Y-29444D01*
X34895Y-29524D01*
X35103Y-29525D01*
X35297Y-29445D01*
X35444Y-29297D01*
X35524Y-29104D01*
X35525Y-28896D01*
X35525Y-31256D01*
X34543Y-31256D01*
X34599Y-31119D01*
X34600Y-30881D01*
X34508Y-30660D01*
X34340Y-30491D01*
X34119Y-30400D01*
X33881Y-30399D01*
X33660Y-30491D01*
X33529Y-30621D01*
X33529Y-29075D01*
X33518Y-28867D01*
X33460Y-28727D01*
X33367Y-28702D01*
X33297Y-28773D01*
X33297Y-28632D01*
X33272Y-28539D01*
X33075Y-28470D01*
X32867Y-28481D01*
X32815Y-28502D01*
X32815Y-26695D01*
X32500Y-26380D01*
X32429Y-26451D01*
X32429Y-26310D01*
X32114Y-25994D01*
X32018Y-26022D01*
X31957Y-26194D01*
X31876Y-25998D01*
X31721Y-25844D01*
X31519Y-25760D01*
X31301Y-25759D01*
X31098Y-25843D01*
X30944Y-25998D01*
X30864Y-26188D01*
X30786Y-25998D01*
X30631Y-25844D01*
X30429Y-25760D01*
X30211Y-25759D01*
X30008Y-25843D01*
X29854Y-25998D01*
X29770Y-26200D01*
X29769Y-26418D01*
X29853Y-26621D01*
X30008Y-26775D01*
X30210Y-26859D01*
X30428Y-26860D01*
X30631Y-26776D01*
X30785Y-26621D01*
X30865Y-26431D01*
X30943Y-26621D01*
X31098Y-26775D01*
X31300Y-26859D01*
X31518Y-26860D01*
X31721Y-26776D01*
X31875Y-26621D01*
X31955Y-26430D01*
X31956Y-26446D01*
X32018Y-26597D01*
X32114Y-26625D01*
X32429Y-26310D01*
X32429Y-26451D01*
X32184Y-26695D01*
X32212Y-26791D01*
X32418Y-26864D01*
X32636Y-26853D01*
X32787Y-26791D01*
X32815Y-26695D01*
X32815Y-28502D01*
X32727Y-28539D01*
X32702Y-28632D01*
X33000Y-28929D01*
X33297Y-28632D01*
X33297Y-28773D01*
X33070Y-29000D01*
X33367Y-29297D01*
X33460Y-29272D01*
X33529Y-29075D01*
X33529Y-30621D01*
X33491Y-30659D01*
X33400Y-30880D01*
X33399Y-31118D01*
X33456Y-31256D01*
X33297Y-31256D01*
X33297Y-29367D01*
X33000Y-29070D01*
X32929Y-29141D01*
X32929Y-29000D01*
X32632Y-28702D01*
X32539Y-28727D01*
X32470Y-28924D01*
X32481Y-29132D01*
X32539Y-29272D01*
X32632Y-29297D01*
X32929Y-29000D01*
X32929Y-29141D01*
X32702Y-29367D01*
X32727Y-29460D01*
X32924Y-29529D01*
X33132Y-29518D01*
X33272Y-29460D01*
X33297Y-29367D01*
X33297Y-31256D01*
X31529Y-31256D01*
X31529Y-29075D01*
X31518Y-28867D01*
X31460Y-28727D01*
X31367Y-28702D01*
X31297Y-28773D01*
X31297Y-28632D01*
X31272Y-28539D01*
X31075Y-28470D01*
X30867Y-28481D01*
X30727Y-28539D01*
X30702Y-28632D01*
X31000Y-28929D01*
X31297Y-28632D01*
X31297Y-28773D01*
X31070Y-29000D01*
X31367Y-29297D01*
X31460Y-29272D01*
X31529Y-29075D01*
X31529Y-31256D01*
X31297Y-31256D01*
X31297Y-29367D01*
X31000Y-29070D01*
X30929Y-29141D01*
X30929Y-29000D01*
X30632Y-28702D01*
X30539Y-28727D01*
X30470Y-28924D01*
X30481Y-29132D01*
X30539Y-29272D01*
X30632Y-29297D01*
X30929Y-29000D01*
X30929Y-29141D01*
X30702Y-29367D01*
X30727Y-29460D01*
X30924Y-29529D01*
X31132Y-29518D01*
X31272Y-29460D01*
X31297Y-29367D01*
X31297Y-31256D01*
X30821Y-31256D01*
X30599Y-31034D01*
X30600Y-30881D01*
X30508Y-30660D01*
X30340Y-30491D01*
X30119Y-30400D01*
X29881Y-30399D01*
X29660Y-30491D01*
X29525Y-30626D01*
X29525Y-28896D01*
X29445Y-28703D01*
X29297Y-28555D01*
X29104Y-28475D01*
X28896Y-28474D01*
X28780Y-28522D01*
X28780Y-25512D01*
X28597Y-25071D01*
X28260Y-24733D01*
X27819Y-24550D01*
X27342Y-24549D01*
X26901Y-24732D01*
X26563Y-25069D01*
X26380Y-25510D01*
X26379Y-25987D01*
X26562Y-26428D01*
X26899Y-26766D01*
X27340Y-26949D01*
X27817Y-26950D01*
X28258Y-26767D01*
X28596Y-26430D01*
X28779Y-25989D01*
X28780Y-25512D01*
X28780Y-28522D01*
X28703Y-28554D01*
X28555Y-28702D01*
X28475Y-28895D01*
X28474Y-29103D01*
X28554Y-29297D01*
X28702Y-29444D01*
X28895Y-29524D01*
X29103Y-29525D01*
X29297Y-29445D01*
X29444Y-29297D01*
X29524Y-29104D01*
X29525Y-28896D01*
X29525Y-30626D01*
X29491Y-30659D01*
X29400Y-30880D01*
X29399Y-31118D01*
X29491Y-31339D01*
X29659Y-31508D01*
X29880Y-31599D01*
X30034Y-31600D01*
X30373Y-31939D01*
X30373Y-31939D01*
X30460Y-31997D01*
X30503Y-32025D01*
X30503Y-32025D01*
X30656Y-32056D01*
X36843Y-32056D01*
X36843Y-32056D01*
X36971Y-32030D01*
X36996Y-32025D01*
X36996Y-32025D01*
X37126Y-31939D01*
X37422Y-31643D01*
X37627Y-31643D01*
X37864Y-31546D01*
X38045Y-31365D01*
X38143Y-31128D01*
X38143Y-30872D01*
X38143Y-32714D01*
X38132Y-32702D01*
X38039Y-32727D01*
X37970Y-32924D01*
X37981Y-33132D01*
X38039Y-33272D01*
X38132Y-33297D01*
X38429Y-33000D01*
X38429Y-33141D01*
X38202Y-33367D01*
X38227Y-33460D01*
X38424Y-33529D01*
X38632Y-33518D01*
X38772Y-33460D01*
X38797Y-33367D01*
X38797Y-34934D01*
X38660Y-34991D01*
X38551Y-35100D01*
X38250Y-35100D01*
X38096Y-35130D01*
X38053Y-35159D01*
X37967Y-35217D01*
X37025Y-36159D01*
X37025Y-32896D01*
X36945Y-32703D01*
X36797Y-32555D01*
X36604Y-32475D01*
X36396Y-32474D01*
X36203Y-32554D01*
X36055Y-32702D01*
X35975Y-32895D01*
X35974Y-33103D01*
X36054Y-33297D01*
X36202Y-33444D01*
X36395Y-33524D01*
X36603Y-33525D01*
X36797Y-33445D01*
X36944Y-33297D01*
X37024Y-33104D01*
X37025Y-32896D01*
X37025Y-36159D01*
X36467Y-36717D01*
X36380Y-36846D01*
X36375Y-36872D01*
X36350Y-37000D01*
X36350Y-41100D01*
X35592Y-41100D01*
X35547Y-41055D01*
X35354Y-40975D01*
X35146Y-40974D01*
X35100Y-40993D01*
X35100Y-35881D01*
X35008Y-35660D01*
X34840Y-35491D01*
X34619Y-35400D01*
X34600Y-35400D01*
X34600Y-32881D01*
X34508Y-32660D01*
X34340Y-32491D01*
X34119Y-32400D01*
X33881Y-32399D01*
X33660Y-32491D01*
X33491Y-32659D01*
X33400Y-32880D01*
X33399Y-33118D01*
X33491Y-33339D01*
X33659Y-33508D01*
X33880Y-33599D01*
X34118Y-33600D01*
X34339Y-33508D01*
X34508Y-33340D01*
X34599Y-33119D01*
X34600Y-32881D01*
X34600Y-35400D01*
X34381Y-35399D01*
X34160Y-35491D01*
X33991Y-35659D01*
X33900Y-35880D01*
X33899Y-36118D01*
X33991Y-36339D01*
X34159Y-36508D01*
X34380Y-36599D01*
X34618Y-36600D01*
X34839Y-36508D01*
X35008Y-36340D01*
X35099Y-36119D01*
X35100Y-35881D01*
X35100Y-40993D01*
X35100Y-40993D01*
X35100Y-38399D01*
X35100Y-37600D01*
X35062Y-37508D01*
X34991Y-37438D01*
X34899Y-37400D01*
X34800Y-37399D01*
X34612Y-37400D01*
X34550Y-37462D01*
X34550Y-37950D01*
X35037Y-37950D01*
X35100Y-37887D01*
X35100Y-37600D01*
X35100Y-38399D01*
X35100Y-38112D01*
X35037Y-38050D01*
X34550Y-38050D01*
X34550Y-38537D01*
X34612Y-38600D01*
X34800Y-38600D01*
X34899Y-38599D01*
X34991Y-38561D01*
X35062Y-38491D01*
X35100Y-38399D01*
X35100Y-40993D01*
X34953Y-41054D01*
X34805Y-41202D01*
X34725Y-41395D01*
X34724Y-41603D01*
X34804Y-41797D01*
X34952Y-41944D01*
X35145Y-42024D01*
X35353Y-42025D01*
X35547Y-41945D01*
X35592Y-41900D01*
X36350Y-41900D01*
X36350Y-42250D01*
X36375Y-42377D01*
X36380Y-42403D01*
X36467Y-42532D01*
X36974Y-43040D01*
X36974Y-43324D01*
X37012Y-43416D01*
X37083Y-43486D01*
X37175Y-43524D01*
X37274Y-43525D01*
X37824Y-43525D01*
X37916Y-43487D01*
X37986Y-43416D01*
X38024Y-43324D01*
X38025Y-43225D01*
X38025Y-42675D01*
X37987Y-42583D01*
X37916Y-42513D01*
X37824Y-42475D01*
X37725Y-42474D01*
X37540Y-42474D01*
X37150Y-42084D01*
X37150Y-41500D01*
X37150Y-40392D01*
X37202Y-40444D01*
X37395Y-40524D01*
X37603Y-40525D01*
X37797Y-40445D01*
X37944Y-40297D01*
X38024Y-40104D01*
X38025Y-39896D01*
X37945Y-39703D01*
X37797Y-39555D01*
X37604Y-39475D01*
X37396Y-39474D01*
X37203Y-39554D01*
X37150Y-39607D01*
X37150Y-37165D01*
X38415Y-35900D01*
X38551Y-35900D01*
X38651Y-36000D01*
X38491Y-36159D01*
X38400Y-36380D01*
X38399Y-36618D01*
X38491Y-36839D01*
X38565Y-36914D01*
X38508Y-36937D01*
X38438Y-37008D01*
X38400Y-37100D01*
X38399Y-37199D01*
X38400Y-37387D01*
X38462Y-37450D01*
X38950Y-37450D01*
X38950Y-37442D01*
X39050Y-37442D01*
X39050Y-37450D01*
X39537Y-37450D01*
X39600Y-37387D01*
X39600Y-37199D01*
X39599Y-37100D01*
X39561Y-37008D01*
X39491Y-36937D01*
X39434Y-36914D01*
X39508Y-36840D01*
X39599Y-36619D01*
X39600Y-36381D01*
X39600Y-44122D01*
X39600Y-44122D01*
X39600Y-37800D01*
X39600Y-37612D01*
X39537Y-37550D01*
X39050Y-37550D01*
X39050Y-38037D01*
X39112Y-38100D01*
X39399Y-38100D01*
X39491Y-38062D01*
X39561Y-37991D01*
X39599Y-37899D01*
X39600Y-37800D01*
X39600Y-44122D01*
X39534Y-44188D01*
X39450Y-44390D01*
X39449Y-44608D01*
X39533Y-44811D01*
X39650Y-44927D01*
X39650Y-45500D01*
X39676Y-45633D01*
X39752Y-45747D01*
X41400Y-47395D01*
X41399Y-47618D01*
X41491Y-47839D01*
X41659Y-48008D01*
X41880Y-48099D01*
X42118Y-48100D01*
X42339Y-48008D01*
X42508Y-47840D01*
X42599Y-47619D01*
X42600Y-47381D01*
X42508Y-47160D01*
X42348Y-46999D01*
X42508Y-46840D01*
X42599Y-46619D01*
X42600Y-46381D01*
X42508Y-46160D01*
X42434Y-46085D01*
X42491Y-46062D01*
X42561Y-45991D01*
X42599Y-45899D01*
X42600Y-45800D01*
X42600Y-45100D01*
X42562Y-45008D01*
X42491Y-44938D01*
X42399Y-44900D01*
X42350Y-44900D01*
X42350Y-42644D01*
X42445Y-42549D01*
X42608Y-42550D01*
X42811Y-42466D01*
X42965Y-42311D01*
X43049Y-42109D01*
X43050Y-41891D01*
X43050Y-48150D01*
X40427Y-48150D01*
X40311Y-48034D01*
X40109Y-47950D01*
X39891Y-47949D01*
X39688Y-48033D01*
X39534Y-48188D01*
X39450Y-48390D01*
X39449Y-48608D01*
X39533Y-48811D01*
X39688Y-48965D01*
X39890Y-49049D01*
X40108Y-49050D01*
X40311Y-48966D01*
X40427Y-48850D01*
X45000Y-48850D01*
X45133Y-48823D01*
X45133Y-48823D01*
X45247Y-48747D01*
X46445Y-47549D01*
X46608Y-47550D01*
X46811Y-47466D01*
X46965Y-47311D01*
X46997Y-47236D01*
X47018Y-47287D01*
X47114Y-47315D01*
X47429Y-47000D01*
X47429Y-47141D01*
X47184Y-47385D01*
X47212Y-47481D01*
X47418Y-47554D01*
X47636Y-47543D01*
X47787Y-47481D01*
X47815Y-47385D01*
X47815Y-49700D01*
X47029Y-49700D01*
X47029Y-49075D01*
X47018Y-48867D01*
X46960Y-48727D01*
X46867Y-48702D01*
X46797Y-48773D01*
X46797Y-48632D01*
X46772Y-48539D01*
X46575Y-48470D01*
X46367Y-48481D01*
X46227Y-48539D01*
X46202Y-48632D01*
X46500Y-48929D01*
X46797Y-48632D01*
X46797Y-48773D01*
X46570Y-49000D01*
X46867Y-49297D01*
X46960Y-49272D01*
X47029Y-49075D01*
X47029Y-49700D01*
X46797Y-49700D01*
X46797Y-49367D01*
X46500Y-49070D01*
X46429Y-49141D01*
X46429Y-49000D01*
X46132Y-48702D01*
X46039Y-48727D01*
X45970Y-48924D01*
X45981Y-49132D01*
X46039Y-49272D01*
X46132Y-49297D01*
X46429Y-49000D01*
X46429Y-49141D01*
X46202Y-49367D01*
X46227Y-49460D01*
X46424Y-49529D01*
X46632Y-49518D01*
X46772Y-49460D01*
X46797Y-49367D01*
X46797Y-49700D01*
X39050Y-49700D01*
X39050Y-48391D01*
X39050Y-44391D01*
X38966Y-44188D01*
X38950Y-44172D01*
X38950Y-38037D01*
X38950Y-37550D01*
X38462Y-37550D01*
X38400Y-37612D01*
X38399Y-37800D01*
X38400Y-37899D01*
X38438Y-37991D01*
X38508Y-38062D01*
X38600Y-38100D01*
X38887Y-38100D01*
X38950Y-38037D01*
X38950Y-44172D01*
X38811Y-44034D01*
X38609Y-43950D01*
X38391Y-43949D01*
X38188Y-44033D01*
X38034Y-44188D01*
X37950Y-44390D01*
X37949Y-44608D01*
X38033Y-44811D01*
X38188Y-44965D01*
X38390Y-45049D01*
X38608Y-45050D01*
X38811Y-44966D01*
X38965Y-44811D01*
X39049Y-44609D01*
X39050Y-44391D01*
X39050Y-48391D01*
X38966Y-48188D01*
X38811Y-48034D01*
X38609Y-47950D01*
X38391Y-47949D01*
X38188Y-48033D01*
X38034Y-48188D01*
X37950Y-48390D01*
X37949Y-48608D01*
X38033Y-48811D01*
X38188Y-48965D01*
X38390Y-49049D01*
X38608Y-49050D01*
X38811Y-48966D01*
X38965Y-48811D01*
X39049Y-48609D01*
X39050Y-48391D01*
X39050Y-49700D01*
X36525Y-49700D01*
X36525Y-44396D01*
X36445Y-44203D01*
X36297Y-44055D01*
X36104Y-43975D01*
X35896Y-43974D01*
X35703Y-44054D01*
X35555Y-44202D01*
X35475Y-44395D01*
X35474Y-44603D01*
X35554Y-44797D01*
X35600Y-44842D01*
X35600Y-46334D01*
X35578Y-46356D01*
X35056Y-46356D01*
X34964Y-46394D01*
X34894Y-46464D01*
X34872Y-46517D01*
X34844Y-46441D01*
X34604Y-46352D01*
X34450Y-46357D01*
X34450Y-38537D01*
X34450Y-38050D01*
X34450Y-37950D01*
X34450Y-37462D01*
X34387Y-37400D01*
X34199Y-37399D01*
X34100Y-37400D01*
X34008Y-37438D01*
X33937Y-37508D01*
X33899Y-37600D01*
X33900Y-37887D01*
X33962Y-37950D01*
X34450Y-37950D01*
X34450Y-38050D01*
X33962Y-38050D01*
X33900Y-38112D01*
X33899Y-38399D01*
X33937Y-38491D01*
X34008Y-38561D01*
X34100Y-38599D01*
X34199Y-38600D01*
X34387Y-38600D01*
X34450Y-38537D01*
X34450Y-46357D01*
X34348Y-46361D01*
X34275Y-46391D01*
X34275Y-41725D01*
X34275Y-41274D01*
X34274Y-41175D01*
X34236Y-41083D01*
X34166Y-41012D01*
X34074Y-40974D01*
X33862Y-40975D01*
X33800Y-41037D01*
X33800Y-41450D01*
X34212Y-41450D01*
X34275Y-41387D01*
X34275Y-41274D01*
X34275Y-41725D01*
X34275Y-41612D01*
X34212Y-41550D01*
X33800Y-41550D01*
X33800Y-41962D01*
X33862Y-42025D01*
X34074Y-42025D01*
X34166Y-41987D01*
X34236Y-41916D01*
X34274Y-41824D01*
X34275Y-41725D01*
X34275Y-46391D01*
X34155Y-46441D01*
X34116Y-46546D01*
X34500Y-46929D01*
X34505Y-46923D01*
X34576Y-46994D01*
X34570Y-47000D01*
X34576Y-47005D01*
X34505Y-47076D01*
X34500Y-47070D01*
X34429Y-47141D01*
X34429Y-47000D01*
X34046Y-46616D01*
X34032Y-46622D01*
X33865Y-46454D01*
X33700Y-46386D01*
X33700Y-41962D01*
X33700Y-41550D01*
X33700Y-41450D01*
X33700Y-41037D01*
X33637Y-40975D01*
X33425Y-40974D01*
X33333Y-41012D01*
X33263Y-41083D01*
X33225Y-41175D01*
X33224Y-41274D01*
X33225Y-41387D01*
X33287Y-41450D01*
X33700Y-41450D01*
X33700Y-41550D01*
X33287Y-41550D01*
X33225Y-41612D01*
X33224Y-41725D01*
X33225Y-41824D01*
X33263Y-41916D01*
X33333Y-41987D01*
X33425Y-42025D01*
X33637Y-42025D01*
X33700Y-41962D01*
X33700Y-46386D01*
X33628Y-46356D01*
X33525Y-46356D01*
X33525Y-44725D01*
X33525Y-44274D01*
X33524Y-44175D01*
X33486Y-44083D01*
X33416Y-44012D01*
X33324Y-43974D01*
X33112Y-43975D01*
X33050Y-44037D01*
X33050Y-44450D01*
X33462Y-44450D01*
X33525Y-44387D01*
X33525Y-44274D01*
X33525Y-44725D01*
X33525Y-44612D01*
X33462Y-44550D01*
X33050Y-44550D01*
X33050Y-44962D01*
X33112Y-45025D01*
X33324Y-45025D01*
X33416Y-44987D01*
X33486Y-44916D01*
X33524Y-44824D01*
X33525Y-44725D01*
X33525Y-46356D01*
X33372Y-46356D01*
X33135Y-46453D01*
X32954Y-46634D01*
X32950Y-46646D01*
X32950Y-44962D01*
X32950Y-44550D01*
X32950Y-44450D01*
X32950Y-44037D01*
X32887Y-43975D01*
X32675Y-43974D01*
X32583Y-44012D01*
X32513Y-44083D01*
X32475Y-44175D01*
X32474Y-44274D01*
X32475Y-44387D01*
X32537Y-44450D01*
X32950Y-44450D01*
X32950Y-44550D01*
X32537Y-44550D01*
X32475Y-44612D01*
X32474Y-44725D01*
X32475Y-44824D01*
X32513Y-44916D01*
X32583Y-44987D01*
X32675Y-45025D01*
X32887Y-45025D01*
X32950Y-44962D01*
X32950Y-46646D01*
X32856Y-46871D01*
X32856Y-47078D01*
X32084Y-47850D01*
X31529Y-47850D01*
X31529Y-44575D01*
X31518Y-44367D01*
X31460Y-44227D01*
X31367Y-44202D01*
X31297Y-44273D01*
X31297Y-44132D01*
X31272Y-44039D01*
X31075Y-43970D01*
X30867Y-43981D01*
X30779Y-44017D01*
X30779Y-41575D01*
X30768Y-41367D01*
X30710Y-41227D01*
X30617Y-41202D01*
X30600Y-41220D01*
X30600Y-32881D01*
X30508Y-32660D01*
X30340Y-32491D01*
X30119Y-32400D01*
X29881Y-32399D01*
X29660Y-32491D01*
X29491Y-32659D01*
X29400Y-32880D01*
X29399Y-33118D01*
X29491Y-33339D01*
X29659Y-33508D01*
X29880Y-33599D01*
X30118Y-33600D01*
X30339Y-33508D01*
X30508Y-33340D01*
X30599Y-33119D01*
X30600Y-32881D01*
X30600Y-41220D01*
X30547Y-41273D01*
X30547Y-41132D01*
X30522Y-41039D01*
X30325Y-40970D01*
X30117Y-40981D01*
X30104Y-40986D01*
X30104Y-38093D01*
X30100Y-37988D01*
X30100Y-36300D01*
X30100Y-35600D01*
X30062Y-35508D01*
X29991Y-35438D01*
X29899Y-35400D01*
X29800Y-35399D01*
X29100Y-35399D01*
X29008Y-35437D01*
X28938Y-35508D01*
X28900Y-35600D01*
X28899Y-35699D01*
X28899Y-36399D01*
X28937Y-36491D01*
X29008Y-36561D01*
X29100Y-36599D01*
X29199Y-36600D01*
X29899Y-36600D01*
X29991Y-36562D01*
X30061Y-36491D01*
X30099Y-36399D01*
X30100Y-36300D01*
X30100Y-37988D01*
X30094Y-37855D01*
X30022Y-37682D01*
X29922Y-37648D01*
X29851Y-37719D01*
X29851Y-37577D01*
X29817Y-37477D01*
X29593Y-37395D01*
X29355Y-37405D01*
X29182Y-37477D01*
X29148Y-37577D01*
X29500Y-37929D01*
X29851Y-37577D01*
X29851Y-37719D01*
X29570Y-38000D01*
X29922Y-38351D01*
X30022Y-38317D01*
X30104Y-38093D01*
X30104Y-40986D01*
X29977Y-41039D01*
X29952Y-41132D01*
X30250Y-41429D01*
X30547Y-41132D01*
X30547Y-41273D01*
X30320Y-41500D01*
X30617Y-41797D01*
X30710Y-41772D01*
X30779Y-41575D01*
X30779Y-44017D01*
X30727Y-44039D01*
X30702Y-44132D01*
X31000Y-44429D01*
X31297Y-44132D01*
X31297Y-44273D01*
X31070Y-44500D01*
X31367Y-44797D01*
X31460Y-44772D01*
X31529Y-44575D01*
X31529Y-47850D01*
X31297Y-47850D01*
X31297Y-44867D01*
X31000Y-44570D01*
X30929Y-44641D01*
X30929Y-44500D01*
X30632Y-44202D01*
X30547Y-44225D01*
X30547Y-41867D01*
X30250Y-41570D01*
X30179Y-41641D01*
X30179Y-41500D01*
X29882Y-41202D01*
X29851Y-41210D01*
X29851Y-38422D01*
X29500Y-38070D01*
X29429Y-38141D01*
X29429Y-38000D01*
X29077Y-37648D01*
X28977Y-37682D01*
X28895Y-37906D01*
X28905Y-38144D01*
X28977Y-38317D01*
X29077Y-38351D01*
X29429Y-38000D01*
X29429Y-38141D01*
X29148Y-38422D01*
X29182Y-38522D01*
X29406Y-38604D01*
X29644Y-38594D01*
X29817Y-38522D01*
X29851Y-38422D01*
X29851Y-41210D01*
X29789Y-41227D01*
X29720Y-41424D01*
X29731Y-41632D01*
X29789Y-41772D01*
X29882Y-41797D01*
X30179Y-41500D01*
X30179Y-41641D01*
X29952Y-41867D01*
X29977Y-41960D01*
X30174Y-42029D01*
X30382Y-42018D01*
X30522Y-41960D01*
X30547Y-41867D01*
X30547Y-44225D01*
X30539Y-44227D01*
X30470Y-44424D01*
X30481Y-44632D01*
X30539Y-44772D01*
X30632Y-44797D01*
X30929Y-44500D01*
X30929Y-44641D01*
X30702Y-44867D01*
X30727Y-44960D01*
X30924Y-45029D01*
X31132Y-45018D01*
X31272Y-44960D01*
X31297Y-44867D01*
X31297Y-47850D01*
X31143Y-47850D01*
X31143Y-47344D01*
X31143Y-46556D01*
X31105Y-46464D01*
X31035Y-46394D01*
X30943Y-46356D01*
X30844Y-46356D01*
X30056Y-46356D01*
X29964Y-46394D01*
X29894Y-46464D01*
X29872Y-46517D01*
X29844Y-46441D01*
X29604Y-46352D01*
X29348Y-46361D01*
X29275Y-46391D01*
X29275Y-41725D01*
X29275Y-41175D01*
X29237Y-41083D01*
X29166Y-41013D01*
X29074Y-40975D01*
X28975Y-40974D01*
X28425Y-40974D01*
X28333Y-41012D01*
X28263Y-41083D01*
X28225Y-41175D01*
X28224Y-41274D01*
X28224Y-41824D01*
X28262Y-41916D01*
X28333Y-41986D01*
X28425Y-42024D01*
X28524Y-42025D01*
X29074Y-42025D01*
X29166Y-41987D01*
X29236Y-41916D01*
X29274Y-41824D01*
X29275Y-41725D01*
X29275Y-46391D01*
X29155Y-46441D01*
X29116Y-46546D01*
X29500Y-46929D01*
X29505Y-46923D01*
X29576Y-46994D01*
X29570Y-47000D01*
X29576Y-47005D01*
X29505Y-47076D01*
X29500Y-47070D01*
X29116Y-47453D01*
X29155Y-47558D01*
X29395Y-47647D01*
X29651Y-47638D01*
X29844Y-47558D01*
X29872Y-47482D01*
X29894Y-47535D01*
X29964Y-47605D01*
X30056Y-47643D01*
X30155Y-47643D01*
X30943Y-47643D01*
X31035Y-47605D01*
X31105Y-47535D01*
X31143Y-47443D01*
X31143Y-47344D01*
X31143Y-47850D01*
X29165Y-47850D01*
X28900Y-47584D01*
X28900Y-47510D01*
X29032Y-47377D01*
X29046Y-47383D01*
X29429Y-47000D01*
X29046Y-46616D01*
X29032Y-46622D01*
X28865Y-46454D01*
X28628Y-46356D01*
X28421Y-46356D01*
X28400Y-46334D01*
X28400Y-44993D01*
X28416Y-44987D01*
X28486Y-44916D01*
X28524Y-44824D01*
X28525Y-44725D01*
X28525Y-44175D01*
X28487Y-44083D01*
X28416Y-44013D01*
X28324Y-43975D01*
X28225Y-43974D01*
X27675Y-43974D01*
X27583Y-44012D01*
X27525Y-44071D01*
X27525Y-32896D01*
X27445Y-32703D01*
X27297Y-32555D01*
X27147Y-32492D01*
X27147Y-30104D01*
X27143Y-29991D01*
X27143Y-28872D01*
X27046Y-28635D01*
X26865Y-28454D01*
X26628Y-28356D01*
X26372Y-28356D01*
X26135Y-28453D01*
X25954Y-28634D01*
X25856Y-28871D01*
X25856Y-29127D01*
X25953Y-29364D01*
X26122Y-29532D01*
X26116Y-29546D01*
X26500Y-29929D01*
X26883Y-29546D01*
X26877Y-29532D01*
X27045Y-29365D01*
X27143Y-29128D01*
X27143Y-28872D01*
X27143Y-29991D01*
X27138Y-29848D01*
X27058Y-29655D01*
X26953Y-29616D01*
X26570Y-30000D01*
X26576Y-30005D01*
X26505Y-30076D01*
X26500Y-30070D01*
X26494Y-30076D01*
X26423Y-30005D01*
X26429Y-30000D01*
X26046Y-29616D01*
X25941Y-29655D01*
X25852Y-29895D01*
X25861Y-30151D01*
X25941Y-30344D01*
X26017Y-30372D01*
X25964Y-30394D01*
X25894Y-30464D01*
X25856Y-30556D01*
X25856Y-30655D01*
X25856Y-31443D01*
X25894Y-31535D01*
X25964Y-31605D01*
X26056Y-31643D01*
X26155Y-31643D01*
X26943Y-31643D01*
X27035Y-31605D01*
X27105Y-31535D01*
X27143Y-31443D01*
X27143Y-31344D01*
X27143Y-30556D01*
X27105Y-30464D01*
X27035Y-30394D01*
X26982Y-30372D01*
X27058Y-30344D01*
X27147Y-30104D01*
X27147Y-32492D01*
X27104Y-32475D01*
X26896Y-32474D01*
X26703Y-32554D01*
X26555Y-32702D01*
X26475Y-32895D01*
X26474Y-33103D01*
X26554Y-33297D01*
X26702Y-33444D01*
X26895Y-33524D01*
X27103Y-33525D01*
X27297Y-33445D01*
X27444Y-33297D01*
X27524Y-33104D01*
X27525Y-32896D01*
X27525Y-44071D01*
X27513Y-44083D01*
X27475Y-44175D01*
X27474Y-44274D01*
X27474Y-44824D01*
X27512Y-44916D01*
X27583Y-44986D01*
X27600Y-44993D01*
X27600Y-46500D01*
X27625Y-46627D01*
X27630Y-46653D01*
X27717Y-46782D01*
X27856Y-46922D01*
X27856Y-47127D01*
X27953Y-47364D01*
X28100Y-47510D01*
X28100Y-47750D01*
X28125Y-47877D01*
X28130Y-47903D01*
X28217Y-48032D01*
X28717Y-48532D01*
X28717Y-48532D01*
X28803Y-48590D01*
X28846Y-48619D01*
X28846Y-48619D01*
X29000Y-48650D01*
X32250Y-48650D01*
X32250Y-48649D01*
X32377Y-48624D01*
X32403Y-48619D01*
X32403Y-48619D01*
X32532Y-48532D01*
X33422Y-47643D01*
X33627Y-47643D01*
X33864Y-47546D01*
X34032Y-47377D01*
X34046Y-47383D01*
X34429Y-47000D01*
X34429Y-47141D01*
X34116Y-47453D01*
X34155Y-47558D01*
X34395Y-47647D01*
X34651Y-47638D01*
X34844Y-47558D01*
X34872Y-47482D01*
X34894Y-47535D01*
X34964Y-47605D01*
X35056Y-47643D01*
X35155Y-47643D01*
X35943Y-47643D01*
X36035Y-47605D01*
X36105Y-47535D01*
X36143Y-47443D01*
X36143Y-47344D01*
X36143Y-46921D01*
X36282Y-46782D01*
X36282Y-46782D01*
X36340Y-46696D01*
X36369Y-46653D01*
X36369Y-46653D01*
X36399Y-46500D01*
X36400Y-46500D01*
X36400Y-44842D01*
X36444Y-44797D01*
X36524Y-44604D01*
X36525Y-44396D01*
X36525Y-49700D01*
X27025Y-49700D01*
X27025Y-42896D01*
X27025Y-42895D01*
X27025Y-40225D01*
X27025Y-39675D01*
X26987Y-39583D01*
X26916Y-39513D01*
X26824Y-39475D01*
X26725Y-39474D01*
X26175Y-39474D01*
X26083Y-39512D01*
X26013Y-39583D01*
X25975Y-39675D01*
X25974Y-39774D01*
X25974Y-40324D01*
X26012Y-40416D01*
X26083Y-40486D01*
X26175Y-40524D01*
X26274Y-40525D01*
X26824Y-40525D01*
X26916Y-40487D01*
X26986Y-40416D01*
X27024Y-40324D01*
X27025Y-40225D01*
X27025Y-42895D01*
X26945Y-42703D01*
X26797Y-42555D01*
X26604Y-42475D01*
X26396Y-42474D01*
X26203Y-42554D01*
X26055Y-42702D01*
X25975Y-42895D01*
X25974Y-43103D01*
X26054Y-43297D01*
X26202Y-43444D01*
X26395Y-43524D01*
X26603Y-43525D01*
X26797Y-43445D01*
X26944Y-43297D01*
X27024Y-43104D01*
X27025Y-42896D01*
X27025Y-49700D01*
X25991Y-49700D01*
X26313Y-49379D01*
X26549Y-48809D01*
X26550Y-48193D01*
X26314Y-47623D01*
X25879Y-47186D01*
X25604Y-47072D01*
X25604Y-36593D01*
X25600Y-36488D01*
X25594Y-36355D01*
X25522Y-36182D01*
X25422Y-36148D01*
X25467Y-36103D01*
X25445Y-36081D01*
X25491Y-36062D01*
X25561Y-35991D01*
X25599Y-35899D01*
X25600Y-35800D01*
X25600Y-35100D01*
X25562Y-35008D01*
X25529Y-34976D01*
X25529Y-33075D01*
X25518Y-32867D01*
X25460Y-32727D01*
X25367Y-32702D01*
X25297Y-32773D01*
X25297Y-32632D01*
X25272Y-32539D01*
X25075Y-32470D01*
X24867Y-32481D01*
X24727Y-32539D01*
X24702Y-32632D01*
X25000Y-32929D01*
X25297Y-32632D01*
X25297Y-32773D01*
X25070Y-33000D01*
X25367Y-33297D01*
X25460Y-33272D01*
X25529Y-33075D01*
X25529Y-34976D01*
X25491Y-34938D01*
X25399Y-34900D01*
X25300Y-34899D01*
X25297Y-34899D01*
X25297Y-33367D01*
X25000Y-33070D01*
X24929Y-33141D01*
X24929Y-33000D01*
X24632Y-32702D01*
X24539Y-32727D01*
X24470Y-32924D01*
X24481Y-33132D01*
X24539Y-33272D01*
X24632Y-33297D01*
X24929Y-33000D01*
X24929Y-33141D01*
X24702Y-33367D01*
X24727Y-33460D01*
X24924Y-33529D01*
X25132Y-33518D01*
X25272Y-33460D01*
X25297Y-33367D01*
X25297Y-34899D01*
X24600Y-34899D01*
X24508Y-34937D01*
X24438Y-35008D01*
X24400Y-35100D01*
X24399Y-35199D01*
X24399Y-35899D01*
X24437Y-35991D01*
X24508Y-36061D01*
X24554Y-36081D01*
X24532Y-36103D01*
X24577Y-36148D01*
X24477Y-36182D01*
X24395Y-36406D01*
X24405Y-36644D01*
X24477Y-36817D01*
X24577Y-36851D01*
X24929Y-36500D01*
X24923Y-36494D01*
X24994Y-36423D01*
X25000Y-36429D01*
X25005Y-36423D01*
X25076Y-36494D01*
X25070Y-36500D01*
X25422Y-36851D01*
X25522Y-36817D01*
X25604Y-36593D01*
X25604Y-47072D01*
X25600Y-47070D01*
X25600Y-37381D01*
X25508Y-37160D01*
X25340Y-36991D01*
X25329Y-36987D01*
X25351Y-36922D01*
X25000Y-36570D01*
X24929Y-36641D01*
X24648Y-36922D01*
X24670Y-36987D01*
X24660Y-36991D01*
X24491Y-37159D01*
X24400Y-37380D01*
X24399Y-37618D01*
X24491Y-37839D01*
X24659Y-38008D01*
X24880Y-38099D01*
X25118Y-38100D01*
X25339Y-38008D01*
X25508Y-37840D01*
X25599Y-37619D01*
X25600Y-37381D01*
X25600Y-47070D01*
X25309Y-46950D01*
X24693Y-46949D01*
X24123Y-47185D01*
X23800Y-47507D01*
X23800Y-24491D01*
X24120Y-24813D01*
X24690Y-25049D01*
X25306Y-25050D01*
X25876Y-24814D01*
X26313Y-24379D01*
X26549Y-23809D01*
X26550Y-23193D01*
X26314Y-22623D01*
X25992Y-22300D01*
X69008Y-22300D01*
X68686Y-22620D01*
X68450Y-23190D01*
X68449Y-23806D01*
X68685Y-24376D01*
X69120Y-24813D01*
X69690Y-25049D01*
X70306Y-25050D01*
X70876Y-24814D01*
X71200Y-24492D01*
X71200Y-47508D01*
M02*
