G04 (created by PCBNEW (2013-07-07 BZR 4022)-stable) date 12/07/2015 18:34:44*
%MOIN*%
G04 Gerber Fmt 3.4, Leading zero omitted, Abs format*
%FSLAX34Y34*%
G01*
G70*
G90*
G04 APERTURE LIST*
%ADD10C,0.00590551*%
%ADD11C,0.011811*%
%ADD12R,0.068X0.068*%
%ADD13C,0.068*%
%ADD14R,0.0867402X0.0867402*%
%ADD15C,0.0867402*%
%ADD16C,0.0768976*%
%ADD17R,0.0768976X0.0768976*%
%ADD18R,0.078X0.078*%
%ADD19C,0.078*%
%ADD20R,0.063X0.063*%
%ADD21C,0.063*%
%ADD22O,0.1458X0.2049*%
%ADD23C,0.071*%
%ADD24C,0.158*%
%ADD25C,0.168*%
G04 APERTURE END LIST*
G54D10*
G54D11*
X28211Y-48739D02*
X28211Y-48148D01*
X28352Y-48148D01*
X28436Y-48176D01*
X28492Y-48232D01*
X28520Y-48289D01*
X28548Y-48401D01*
X28548Y-48485D01*
X28520Y-48598D01*
X28492Y-48654D01*
X28436Y-48710D01*
X28352Y-48739D01*
X28211Y-48739D01*
X29026Y-48710D02*
X28970Y-48739D01*
X28858Y-48739D01*
X28802Y-48710D01*
X28773Y-48654D01*
X28773Y-48429D01*
X28802Y-48373D01*
X28858Y-48345D01*
X28970Y-48345D01*
X29026Y-48373D01*
X29055Y-48429D01*
X29055Y-48485D01*
X28773Y-48542D01*
X29308Y-48739D02*
X29308Y-48345D01*
X29308Y-48401D02*
X29336Y-48373D01*
X29392Y-48345D01*
X29476Y-48345D01*
X29533Y-48373D01*
X29561Y-48429D01*
X29561Y-48739D01*
X29561Y-48429D02*
X29589Y-48373D01*
X29645Y-48345D01*
X29730Y-48345D01*
X29786Y-48373D01*
X29814Y-48429D01*
X29814Y-48739D01*
X30179Y-48739D02*
X30123Y-48710D01*
X30095Y-48682D01*
X30067Y-48626D01*
X30067Y-48457D01*
X30095Y-48401D01*
X30123Y-48373D01*
X30179Y-48345D01*
X30264Y-48345D01*
X30320Y-48373D01*
X30348Y-48401D01*
X30376Y-48457D01*
X30376Y-48626D01*
X30348Y-48682D01*
X30320Y-48710D01*
X30264Y-48739D01*
X30179Y-48739D01*
X30883Y-48739D02*
X30883Y-48148D01*
X30883Y-48710D02*
X30826Y-48739D01*
X30714Y-48739D01*
X30658Y-48710D01*
X30629Y-48682D01*
X30601Y-48626D01*
X30601Y-48457D01*
X30629Y-48401D01*
X30658Y-48373D01*
X30714Y-48345D01*
X30826Y-48345D01*
X30883Y-48373D01*
X31417Y-48345D02*
X31417Y-48739D01*
X31164Y-48345D02*
X31164Y-48654D01*
X31192Y-48710D01*
X31248Y-48739D01*
X31332Y-48739D01*
X31389Y-48710D01*
X31417Y-48682D01*
X31782Y-48739D02*
X31726Y-48710D01*
X31698Y-48654D01*
X31698Y-48148D01*
X32260Y-48739D02*
X32260Y-48429D01*
X32232Y-48373D01*
X32176Y-48345D01*
X32064Y-48345D01*
X32007Y-48373D01*
X32260Y-48710D02*
X32204Y-48739D01*
X32064Y-48739D01*
X32007Y-48710D01*
X31979Y-48654D01*
X31979Y-48598D01*
X32007Y-48542D01*
X32064Y-48514D01*
X32204Y-48514D01*
X32260Y-48485D01*
X32457Y-48345D02*
X32682Y-48345D01*
X32542Y-48148D02*
X32542Y-48654D01*
X32570Y-48710D01*
X32626Y-48739D01*
X32682Y-48739D01*
X32964Y-48739D02*
X32907Y-48710D01*
X32879Y-48682D01*
X32851Y-48626D01*
X32851Y-48457D01*
X32879Y-48401D01*
X32907Y-48373D01*
X32964Y-48345D01*
X33048Y-48345D01*
X33104Y-48373D01*
X33132Y-48401D01*
X33160Y-48457D01*
X33160Y-48626D01*
X33132Y-48682D01*
X33104Y-48710D01*
X33048Y-48739D01*
X32964Y-48739D01*
X33413Y-48739D02*
X33413Y-48345D01*
X33413Y-48457D02*
X33442Y-48401D01*
X33470Y-48373D01*
X33526Y-48345D01*
X33582Y-48345D01*
X34566Y-48739D02*
X34370Y-48457D01*
X34229Y-48739D02*
X34229Y-48148D01*
X34454Y-48148D01*
X34510Y-48176D01*
X34538Y-48204D01*
X34566Y-48260D01*
X34566Y-48345D01*
X34538Y-48401D01*
X34510Y-48429D01*
X34454Y-48457D01*
X34229Y-48457D01*
X35044Y-48710D02*
X34988Y-48739D01*
X34876Y-48739D01*
X34820Y-48710D01*
X34791Y-48654D01*
X34791Y-48429D01*
X34820Y-48373D01*
X34876Y-48345D01*
X34988Y-48345D01*
X35044Y-48373D01*
X35073Y-48429D01*
X35073Y-48485D01*
X34791Y-48542D01*
X35269Y-48345D02*
X35410Y-48739D01*
X35551Y-48345D01*
X35776Y-48682D02*
X35804Y-48710D01*
X35776Y-48739D01*
X35748Y-48710D01*
X35776Y-48682D01*
X35776Y-48739D01*
X36816Y-48739D02*
X36479Y-48739D01*
X36647Y-48739D02*
X36647Y-48148D01*
X36591Y-48232D01*
X36535Y-48289D01*
X36479Y-48317D01*
X29744Y-49149D02*
X29772Y-49121D01*
X29828Y-49093D01*
X29969Y-49093D01*
X30025Y-49121D01*
X30053Y-49149D01*
X30081Y-49205D01*
X30081Y-49262D01*
X30053Y-49346D01*
X29715Y-49683D01*
X30081Y-49683D01*
X30447Y-49093D02*
X30503Y-49093D01*
X30559Y-49121D01*
X30587Y-49149D01*
X30615Y-49205D01*
X30643Y-49318D01*
X30643Y-49458D01*
X30615Y-49571D01*
X30587Y-49627D01*
X30559Y-49655D01*
X30503Y-49683D01*
X30447Y-49683D01*
X30390Y-49655D01*
X30362Y-49627D01*
X30334Y-49571D01*
X30306Y-49458D01*
X30306Y-49318D01*
X30334Y-49205D01*
X30362Y-49149D01*
X30390Y-49121D01*
X30447Y-49093D01*
X31206Y-49683D02*
X30868Y-49683D01*
X31037Y-49683D02*
X31037Y-49093D01*
X30981Y-49177D01*
X30925Y-49233D01*
X30868Y-49262D01*
X31740Y-49093D02*
X31459Y-49093D01*
X31431Y-49374D01*
X31459Y-49346D01*
X31515Y-49318D01*
X31656Y-49318D01*
X31712Y-49346D01*
X31740Y-49374D01*
X31768Y-49430D01*
X31768Y-49571D01*
X31740Y-49627D01*
X31712Y-49655D01*
X31656Y-49683D01*
X31515Y-49683D01*
X31459Y-49655D01*
X31431Y-49627D01*
X32443Y-49065D02*
X31937Y-49824D01*
X32753Y-49093D02*
X32809Y-49093D01*
X32865Y-49121D01*
X32893Y-49149D01*
X32921Y-49205D01*
X32949Y-49318D01*
X32949Y-49458D01*
X32921Y-49571D01*
X32893Y-49627D01*
X32865Y-49655D01*
X32809Y-49683D01*
X32753Y-49683D01*
X32696Y-49655D01*
X32668Y-49627D01*
X32640Y-49571D01*
X32612Y-49458D01*
X32612Y-49318D01*
X32640Y-49205D01*
X32668Y-49149D01*
X32696Y-49121D01*
X32753Y-49093D01*
X33146Y-49093D02*
X33540Y-49093D01*
X33287Y-49683D01*
X34187Y-49065D02*
X33681Y-49824D01*
X34693Y-49683D02*
X34356Y-49683D01*
X34524Y-49683D02*
X34524Y-49093D01*
X34468Y-49177D01*
X34412Y-49233D01*
X34356Y-49262D01*
X35059Y-49093D02*
X35115Y-49093D01*
X35171Y-49121D01*
X35199Y-49149D01*
X35227Y-49205D01*
X35255Y-49318D01*
X35255Y-49458D01*
X35227Y-49571D01*
X35199Y-49627D01*
X35171Y-49655D01*
X35115Y-49683D01*
X35059Y-49683D01*
X35002Y-49655D01*
X34974Y-49627D01*
X34946Y-49571D01*
X34918Y-49458D01*
X34918Y-49318D01*
X34946Y-49205D01*
X34974Y-49149D01*
X35002Y-49121D01*
X35059Y-49093D01*
X23760Y-38641D02*
X24351Y-38641D01*
X24351Y-38781D01*
X24323Y-38866D01*
X24267Y-38922D01*
X24210Y-38950D01*
X24098Y-38978D01*
X24014Y-38978D01*
X23901Y-38950D01*
X23845Y-38922D01*
X23789Y-38866D01*
X23760Y-38781D01*
X23760Y-38641D01*
X24154Y-39484D02*
X23760Y-39484D01*
X24154Y-39231D02*
X23845Y-39231D01*
X23789Y-39259D01*
X23760Y-39316D01*
X23760Y-39400D01*
X23789Y-39456D01*
X23817Y-39484D01*
X24154Y-39766D02*
X23760Y-39766D01*
X24098Y-39766D02*
X24126Y-39794D01*
X24154Y-39850D01*
X24154Y-39934D01*
X24126Y-39991D01*
X24070Y-40019D01*
X23760Y-40019D01*
X24154Y-40300D02*
X23760Y-40300D01*
X24098Y-40300D02*
X24126Y-40328D01*
X24154Y-40384D01*
X24154Y-40469D01*
X24126Y-40525D01*
X24070Y-40553D01*
X23760Y-40553D01*
X23760Y-40834D02*
X24154Y-40834D01*
X24351Y-40834D02*
X24323Y-40806D01*
X24295Y-40834D01*
X24323Y-40862D01*
X24351Y-40834D01*
X24295Y-40834D01*
X24154Y-41115D02*
X23760Y-41115D01*
X24098Y-41115D02*
X24126Y-41143D01*
X24154Y-41200D01*
X24154Y-41284D01*
X24126Y-41340D01*
X24070Y-41368D01*
X23760Y-41368D01*
X24154Y-41903D02*
X23676Y-41903D01*
X23620Y-41875D01*
X23592Y-41847D01*
X23564Y-41790D01*
X23564Y-41706D01*
X23592Y-41650D01*
X23789Y-41903D02*
X23760Y-41847D01*
X23760Y-41734D01*
X23789Y-41678D01*
X23817Y-41650D01*
X23873Y-41622D01*
X24042Y-41622D01*
X24098Y-41650D01*
X24126Y-41678D01*
X24154Y-41734D01*
X24154Y-41847D01*
X24126Y-41903D01*
X24379Y-42606D02*
X23620Y-42100D01*
X23760Y-42803D02*
X24351Y-42803D01*
X23760Y-43140D02*
X24098Y-42887D01*
X24351Y-43140D02*
X24014Y-42803D01*
X23760Y-43393D02*
X24154Y-43393D01*
X24351Y-43393D02*
X24323Y-43365D01*
X24295Y-43393D01*
X24323Y-43421D01*
X24351Y-43393D01*
X24295Y-43393D01*
X23760Y-43759D02*
X23789Y-43703D01*
X23845Y-43674D01*
X24351Y-43674D01*
X23760Y-44068D02*
X23789Y-44012D01*
X23845Y-43984D01*
X24351Y-43984D01*
X23760Y-44293D02*
X24154Y-44293D01*
X24351Y-44293D02*
X24323Y-44265D01*
X24295Y-44293D01*
X24323Y-44321D01*
X24351Y-44293D01*
X24295Y-44293D01*
X23760Y-44827D02*
X24070Y-44827D01*
X24126Y-44799D01*
X24154Y-44743D01*
X24154Y-44631D01*
X24126Y-44574D01*
X23789Y-44827D02*
X23760Y-44771D01*
X23760Y-44631D01*
X23789Y-44574D01*
X23845Y-44546D01*
X23901Y-44546D01*
X23957Y-44574D01*
X23985Y-44631D01*
X23985Y-44771D01*
X24014Y-44827D01*
X24154Y-45109D02*
X23760Y-45109D01*
X24098Y-45109D02*
X24126Y-45137D01*
X24154Y-45193D01*
X24154Y-45277D01*
X24126Y-45334D01*
X24070Y-45362D01*
X23760Y-45362D01*
X23760Y-46374D02*
X23760Y-46093D01*
X24351Y-46093D01*
X23760Y-46824D02*
X24070Y-46824D01*
X24126Y-46796D01*
X24154Y-46740D01*
X24154Y-46627D01*
X24126Y-46571D01*
X23789Y-46824D02*
X23760Y-46768D01*
X23760Y-46627D01*
X23789Y-46571D01*
X23845Y-46543D01*
X23901Y-46543D01*
X23957Y-46571D01*
X23985Y-46627D01*
X23985Y-46768D01*
X24014Y-46824D01*
X23760Y-47105D02*
X24351Y-47105D01*
X24126Y-47105D02*
X24154Y-47161D01*
X24154Y-47274D01*
X24126Y-47330D01*
X24098Y-47358D01*
X24042Y-47386D01*
X23873Y-47386D01*
X23817Y-47358D01*
X23789Y-47330D01*
X23760Y-47274D01*
X23760Y-47161D01*
X23789Y-47105D01*
%LPC*%
G54D12*
X51500Y-44000D03*
G54D13*
X50500Y-44000D03*
X49500Y-44000D03*
X48500Y-44000D03*
X47500Y-44000D03*
X46500Y-44000D03*
X45500Y-44000D03*
X45500Y-47000D03*
X46500Y-47000D03*
X47500Y-47000D03*
X48500Y-47000D03*
X49500Y-47000D03*
X50500Y-47000D03*
X51500Y-47000D03*
G54D12*
X58000Y-37000D03*
G54D13*
X58000Y-38000D03*
X58000Y-39000D03*
X58000Y-40000D03*
X58000Y-41000D03*
X58000Y-42000D03*
X58000Y-43000D03*
X61000Y-43000D03*
X61000Y-42000D03*
X61000Y-41000D03*
X61000Y-40000D03*
X61000Y-39000D03*
X61000Y-38000D03*
X61000Y-37000D03*
G54D12*
X65500Y-35500D03*
G54D13*
X66500Y-35500D03*
X67500Y-35500D03*
X68500Y-35500D03*
X68500Y-32500D03*
X67500Y-32500D03*
X66500Y-32500D03*
X65500Y-32500D03*
G54D12*
X54000Y-30000D03*
G54D13*
X53000Y-30000D03*
X52000Y-30000D03*
X51000Y-30000D03*
X51000Y-33000D03*
X52000Y-33000D03*
X53000Y-33000D03*
X54000Y-33000D03*
G54D12*
X46000Y-30000D03*
G54D13*
X45000Y-30000D03*
X44000Y-30000D03*
X43000Y-30000D03*
X43000Y-33000D03*
X44000Y-33000D03*
X45000Y-33000D03*
X46000Y-33000D03*
G54D14*
X37500Y-29000D03*
G54D15*
X37500Y-30000D03*
X37500Y-31000D03*
G54D14*
X26500Y-31000D03*
G54D15*
X26500Y-30000D03*
X26500Y-29000D03*
G54D14*
X30500Y-47000D03*
G54D15*
X29500Y-47000D03*
X28500Y-47000D03*
G54D14*
X35500Y-47000D03*
G54D15*
X34500Y-47000D03*
X33500Y-47000D03*
G54D16*
X45000Y-37000D03*
G54D17*
X46000Y-37000D03*
G54D16*
X44000Y-37000D03*
G54D17*
X46000Y-38000D03*
G54D16*
X45000Y-38000D03*
X44000Y-38000D03*
X53500Y-37000D03*
G54D17*
X54500Y-37000D03*
G54D16*
X52500Y-37000D03*
G54D17*
X54500Y-38000D03*
G54D16*
X53500Y-38000D03*
X52500Y-38000D03*
X68000Y-43500D03*
G54D17*
X69000Y-43500D03*
G54D16*
X67000Y-43500D03*
G54D17*
X69000Y-44500D03*
G54D16*
X68000Y-44500D03*
X67000Y-44500D03*
X59000Y-48500D03*
G54D17*
X58000Y-48500D03*
G54D16*
X60000Y-48500D03*
G54D17*
X58000Y-47500D03*
G54D16*
X59000Y-47500D03*
X60000Y-47500D03*
G54D18*
X39000Y-37500D03*
G54D19*
X39000Y-36500D03*
X39000Y-35500D03*
G54D18*
X25000Y-35500D03*
G54D19*
X25000Y-36500D03*
X25000Y-37500D03*
G54D18*
X58000Y-31000D03*
G54D19*
X58000Y-30000D03*
X59000Y-31000D03*
X59000Y-30000D03*
X60000Y-31000D03*
X60000Y-30000D03*
G54D18*
X67000Y-41000D03*
G54D19*
X68000Y-41000D03*
G54D18*
X70000Y-30500D03*
G54D19*
X69000Y-30500D03*
X68000Y-30500D03*
G54D18*
X34500Y-38000D03*
G54D19*
X34500Y-36000D03*
G54D18*
X29500Y-36000D03*
G54D19*
X29500Y-38000D03*
G54D20*
X33750Y-41500D03*
G54D21*
X35250Y-41500D03*
G54D20*
X28750Y-41500D03*
G54D21*
X30250Y-41500D03*
G54D18*
X42000Y-45500D03*
G54D19*
X42000Y-46500D03*
X42000Y-47500D03*
G54D18*
X66500Y-48000D03*
G54D19*
X66500Y-47000D03*
G54D18*
X64000Y-39000D03*
G54D19*
X64000Y-38000D03*
G54D18*
X56000Y-41500D03*
G54D19*
X56000Y-40500D03*
G54D18*
X41000Y-41500D03*
G54D19*
X41000Y-40500D03*
G54D22*
X48500Y-24900D03*
X52500Y-24900D03*
G54D23*
X50500Y-26900D03*
X49500Y-26900D03*
G54D24*
X37420Y-25750D03*
X27580Y-25750D03*
G54D12*
X34680Y-26310D03*
G54D13*
X33590Y-26310D03*
X32500Y-26310D03*
X31410Y-26310D03*
X30320Y-26310D03*
X30860Y-25190D03*
X31950Y-25190D03*
X33050Y-25190D03*
X34140Y-25190D03*
X50000Y-39000D03*
X50000Y-35000D03*
X46500Y-40500D03*
X42500Y-40500D03*
X46500Y-42000D03*
X42500Y-42000D03*
X41500Y-35000D03*
X41500Y-39000D03*
X50500Y-42000D03*
X54500Y-42000D03*
X40000Y-44500D03*
X40000Y-48500D03*
X38500Y-48500D03*
X38500Y-44500D03*
X54000Y-49000D03*
X50000Y-49000D03*
X55500Y-48000D03*
X55500Y-44000D03*
X54500Y-40500D03*
X50500Y-40500D03*
X63000Y-40500D03*
X63000Y-44500D03*
X64500Y-40500D03*
X64500Y-44500D03*
X70500Y-37500D03*
X66500Y-37500D03*
X70500Y-39000D03*
X66500Y-39000D03*
G54D21*
X53500Y-35000D03*
X51500Y-35000D03*
X29000Y-29000D03*
X31000Y-29000D03*
X35000Y-29000D03*
X33000Y-29000D03*
X70500Y-35500D03*
X70500Y-33500D03*
X65500Y-30000D03*
X63500Y-30000D03*
X27000Y-33000D03*
X25000Y-33000D03*
X36500Y-33000D03*
X38500Y-33000D03*
X64500Y-48500D03*
X64500Y-46500D03*
X63000Y-48500D03*
X63000Y-46500D03*
X61000Y-45500D03*
X59000Y-45500D03*
X60500Y-34500D03*
X58500Y-34500D03*
X41000Y-30000D03*
X41000Y-32000D03*
X46500Y-49000D03*
X48500Y-49000D03*
X48000Y-32000D03*
X48000Y-30000D03*
X54000Y-46500D03*
X54000Y-44500D03*
X49000Y-30000D03*
X49000Y-32000D03*
X56000Y-32000D03*
X56000Y-30000D03*
X48500Y-42000D03*
X48500Y-40000D03*
X45000Y-35000D03*
X43000Y-35000D03*
G54D22*
X41000Y-24900D03*
X45000Y-24900D03*
G54D23*
X43000Y-26900D03*
X42000Y-26900D03*
G54D19*
X30000Y-31000D03*
X30000Y-33000D03*
X34000Y-31000D03*
X34000Y-33000D03*
G54D25*
X70000Y-23500D03*
X70000Y-48500D03*
X25000Y-48500D03*
X25000Y-23500D03*
G54D22*
X56000Y-24900D03*
X60000Y-24900D03*
G54D23*
X58000Y-26900D03*
X57000Y-26900D03*
G54D22*
X63500Y-24900D03*
X67500Y-24900D03*
G54D23*
X65500Y-26900D03*
X64500Y-26900D03*
G54D20*
X28000Y-44500D03*
G54D21*
X31000Y-44500D03*
G54D20*
X33000Y-44500D03*
G54D21*
X36000Y-44500D03*
G54D20*
X26500Y-40000D03*
G54D21*
X26500Y-43000D03*
G54D20*
X37500Y-43000D03*
G54D21*
X37500Y-40000D03*
G54D13*
X63500Y-35500D03*
X63500Y-31500D03*
X62000Y-35500D03*
X62000Y-31500D03*
M02*
