G04 (created by PCBNEW (2013-07-07 BZR 4022)-stable) date 12/07/2015 18:34:44*
%MOIN*%
G04 Gerber Fmt 3.4, Leading zero omitted, Abs format*
%FSLAX34Y34*%
G01*
G70*
G90*
G04 APERTURE LIST*
%ADD10C,0.00590551*%
%ADD11R,0.06X0.06*%
%ADD12C,0.06*%
%ADD13R,0.0787402X0.0787402*%
%ADD14C,0.0787402*%
%ADD15C,0.0688976*%
%ADD16R,0.0688976X0.0688976*%
%ADD17R,0.07X0.07*%
%ADD18C,0.07*%
%ADD19R,0.055X0.055*%
%ADD20C,0.055*%
%ADD21O,0.1378X0.1969*%
%ADD22C,0.063*%
%ADD23C,0.15*%
%ADD24C,0.16*%
%ADD25C,0.03*%
%ADD26C,0.02*%
G04 APERTURE END LIST*
G54D10*
G54D11*
X51500Y-44000D03*
G54D12*
X50500Y-44000D03*
X49500Y-44000D03*
X48500Y-44000D03*
X47500Y-44000D03*
X46500Y-44000D03*
X45500Y-44000D03*
X45500Y-47000D03*
X46500Y-47000D03*
X47500Y-47000D03*
X48500Y-47000D03*
X49500Y-47000D03*
X50500Y-47000D03*
X51500Y-47000D03*
G54D11*
X58000Y-37000D03*
G54D12*
X58000Y-38000D03*
X58000Y-39000D03*
X58000Y-40000D03*
X58000Y-41000D03*
X58000Y-42000D03*
X58000Y-43000D03*
X61000Y-43000D03*
X61000Y-42000D03*
X61000Y-41000D03*
X61000Y-40000D03*
X61000Y-39000D03*
X61000Y-38000D03*
X61000Y-37000D03*
G54D11*
X65500Y-35500D03*
G54D12*
X66500Y-35500D03*
X67500Y-35500D03*
X68500Y-35500D03*
X68500Y-32500D03*
X67500Y-32500D03*
X66500Y-32500D03*
X65500Y-32500D03*
G54D11*
X54000Y-30000D03*
G54D12*
X53000Y-30000D03*
X52000Y-30000D03*
X51000Y-30000D03*
X51000Y-33000D03*
X52000Y-33000D03*
X53000Y-33000D03*
X54000Y-33000D03*
G54D11*
X46000Y-30000D03*
G54D12*
X45000Y-30000D03*
X44000Y-30000D03*
X43000Y-30000D03*
X43000Y-33000D03*
X44000Y-33000D03*
X45000Y-33000D03*
X46000Y-33000D03*
G54D13*
X37500Y-29000D03*
G54D14*
X37500Y-30000D03*
X37500Y-31000D03*
G54D13*
X26500Y-31000D03*
G54D14*
X26500Y-30000D03*
X26500Y-29000D03*
G54D13*
X30500Y-47000D03*
G54D14*
X29500Y-47000D03*
X28500Y-47000D03*
G54D13*
X35500Y-47000D03*
G54D14*
X34500Y-47000D03*
X33500Y-47000D03*
G54D15*
X45000Y-37000D03*
G54D16*
X46000Y-37000D03*
G54D15*
X44000Y-37000D03*
G54D16*
X46000Y-38000D03*
G54D15*
X45000Y-38000D03*
X44000Y-38000D03*
X53500Y-37000D03*
G54D16*
X54500Y-37000D03*
G54D15*
X52500Y-37000D03*
G54D16*
X54500Y-38000D03*
G54D15*
X53500Y-38000D03*
X52500Y-38000D03*
X68000Y-43500D03*
G54D16*
X69000Y-43500D03*
G54D15*
X67000Y-43500D03*
G54D16*
X69000Y-44500D03*
G54D15*
X68000Y-44500D03*
X67000Y-44500D03*
X59000Y-48500D03*
G54D16*
X58000Y-48500D03*
G54D15*
X60000Y-48500D03*
G54D16*
X58000Y-47500D03*
G54D15*
X59000Y-47500D03*
X60000Y-47500D03*
G54D17*
X39000Y-37500D03*
G54D18*
X39000Y-36500D03*
X39000Y-35500D03*
G54D17*
X25000Y-35500D03*
G54D18*
X25000Y-36500D03*
X25000Y-37500D03*
G54D17*
X58000Y-31000D03*
G54D18*
X58000Y-30000D03*
X59000Y-31000D03*
X59000Y-30000D03*
X60000Y-31000D03*
X60000Y-30000D03*
G54D17*
X67000Y-41000D03*
G54D18*
X68000Y-41000D03*
G54D17*
X70000Y-30500D03*
G54D18*
X69000Y-30500D03*
X68000Y-30500D03*
G54D17*
X34500Y-38000D03*
G54D18*
X34500Y-36000D03*
G54D17*
X29500Y-36000D03*
G54D18*
X29500Y-38000D03*
G54D19*
X33750Y-41500D03*
G54D20*
X35250Y-41500D03*
G54D19*
X28750Y-41500D03*
G54D20*
X30250Y-41500D03*
G54D17*
X42000Y-45500D03*
G54D18*
X42000Y-46500D03*
X42000Y-47500D03*
G54D17*
X66500Y-48000D03*
G54D18*
X66500Y-47000D03*
G54D17*
X64000Y-39000D03*
G54D18*
X64000Y-38000D03*
G54D17*
X56000Y-41500D03*
G54D18*
X56000Y-40500D03*
G54D17*
X41000Y-41500D03*
G54D18*
X41000Y-40500D03*
G54D21*
X48500Y-24900D03*
X52500Y-24900D03*
G54D22*
X50500Y-26900D03*
X49500Y-26900D03*
G54D23*
X37420Y-25750D03*
X27580Y-25750D03*
G54D11*
X34680Y-26310D03*
G54D12*
X33590Y-26310D03*
X32500Y-26310D03*
X31410Y-26310D03*
X30320Y-26310D03*
X30860Y-25190D03*
X31950Y-25190D03*
X33050Y-25190D03*
X34140Y-25190D03*
X50000Y-39000D03*
X50000Y-35000D03*
X46500Y-40500D03*
X42500Y-40500D03*
X46500Y-42000D03*
X42500Y-42000D03*
X41500Y-35000D03*
X41500Y-39000D03*
X50500Y-42000D03*
X54500Y-42000D03*
X40000Y-44500D03*
X40000Y-48500D03*
X38500Y-48500D03*
X38500Y-44500D03*
X54000Y-49000D03*
X50000Y-49000D03*
X55500Y-48000D03*
X55500Y-44000D03*
X54500Y-40500D03*
X50500Y-40500D03*
X63000Y-40500D03*
X63000Y-44500D03*
X64500Y-40500D03*
X64500Y-44500D03*
X70500Y-37500D03*
X66500Y-37500D03*
X70500Y-39000D03*
X66500Y-39000D03*
G54D20*
X53500Y-35000D03*
X51500Y-35000D03*
X29000Y-29000D03*
X31000Y-29000D03*
X35000Y-29000D03*
X33000Y-29000D03*
X70500Y-35500D03*
X70500Y-33500D03*
X65500Y-30000D03*
X63500Y-30000D03*
X27000Y-33000D03*
X25000Y-33000D03*
X36500Y-33000D03*
X38500Y-33000D03*
X64500Y-48500D03*
X64500Y-46500D03*
X63000Y-48500D03*
X63000Y-46500D03*
X61000Y-45500D03*
X59000Y-45500D03*
X60500Y-34500D03*
X58500Y-34500D03*
X41000Y-30000D03*
X41000Y-32000D03*
X46500Y-49000D03*
X48500Y-49000D03*
X48000Y-32000D03*
X48000Y-30000D03*
X54000Y-46500D03*
X54000Y-44500D03*
X49000Y-30000D03*
X49000Y-32000D03*
X56000Y-32000D03*
X56000Y-30000D03*
X48500Y-42000D03*
X48500Y-40000D03*
X45000Y-35000D03*
X43000Y-35000D03*
G54D21*
X41000Y-24900D03*
X45000Y-24900D03*
G54D22*
X43000Y-26900D03*
X42000Y-26900D03*
G54D18*
X30000Y-31000D03*
X30000Y-33000D03*
X34000Y-31000D03*
X34000Y-33000D03*
G54D24*
X70000Y-23500D03*
X70000Y-48500D03*
X25000Y-48500D03*
X25000Y-23500D03*
G54D21*
X56000Y-24900D03*
X60000Y-24900D03*
G54D22*
X58000Y-26900D03*
X57000Y-26900D03*
G54D21*
X63500Y-24900D03*
X67500Y-24900D03*
G54D22*
X65500Y-26900D03*
X64500Y-26900D03*
G54D19*
X28000Y-44500D03*
G54D20*
X31000Y-44500D03*
G54D19*
X33000Y-44500D03*
G54D20*
X36000Y-44500D03*
G54D19*
X26500Y-40000D03*
G54D20*
X26500Y-43000D03*
G54D19*
X37500Y-43000D03*
G54D20*
X37500Y-40000D03*
G54D12*
X63500Y-35500D03*
X63500Y-31500D03*
X62000Y-35500D03*
X62000Y-31500D03*
G54D25*
X52500Y-41250D02*
X58250Y-35500D01*
X60500Y-34500D02*
X59500Y-35500D01*
X58250Y-35500D02*
X59500Y-35500D01*
X49250Y-41250D02*
X52500Y-41250D01*
X49250Y-41250D02*
X48500Y-42000D01*
X65500Y-32500D02*
X65500Y-30000D01*
X60500Y-34500D02*
X60500Y-31750D01*
X64750Y-30750D02*
X65500Y-30000D01*
G54D26*
X61500Y-30750D02*
X64750Y-30750D01*
G54D25*
X60500Y-31750D02*
X61500Y-30750D01*
X60500Y-34500D02*
X60500Y-36500D01*
X60500Y-36500D02*
X61000Y-37000D01*
X43000Y-42750D02*
X47750Y-42750D01*
X43000Y-42750D02*
X39750Y-46000D01*
X39750Y-46000D02*
X34000Y-46000D01*
X34000Y-46000D02*
X33500Y-46500D01*
X33500Y-46500D02*
X33500Y-47000D01*
X47750Y-42750D02*
X48500Y-42000D01*
X26500Y-43000D02*
X28000Y-44500D01*
X28000Y-41500D02*
X26500Y-43000D01*
X28750Y-41500D02*
X28000Y-41500D01*
X25000Y-41500D02*
X26500Y-43000D01*
X25000Y-37500D02*
X25000Y-41500D01*
X47500Y-31500D02*
X48000Y-32000D01*
X43000Y-31500D02*
X47500Y-31500D01*
X40750Y-33750D02*
X43000Y-31500D01*
X40750Y-39000D02*
X40750Y-33750D01*
X39750Y-40000D02*
X40750Y-39000D01*
X39750Y-42000D02*
X39750Y-40000D01*
X36500Y-45250D02*
X39750Y-42000D01*
X29750Y-45250D02*
X36500Y-45250D01*
X28500Y-46500D02*
X29750Y-45250D01*
X28500Y-47000D02*
X28500Y-46500D01*
X55250Y-31250D02*
X56000Y-32000D01*
X48000Y-32000D02*
X48750Y-31250D01*
X48750Y-31250D02*
X55250Y-31250D01*
X48500Y-42000D02*
X48500Y-44000D01*
X54000Y-32000D02*
X53000Y-33000D01*
X56000Y-32000D02*
X54000Y-32000D01*
X46000Y-32000D02*
X45000Y-33000D01*
X48000Y-32000D02*
X46000Y-32000D01*
X29000Y-30000D02*
X30000Y-31000D01*
X29000Y-29000D02*
X29000Y-30000D01*
X29000Y-29000D02*
X28315Y-28315D01*
X27630Y-29000D02*
X28315Y-28315D01*
X26500Y-29000D02*
X27630Y-29000D01*
X28315Y-28315D02*
X30320Y-26310D01*
G54D26*
X64000Y-39000D02*
X65000Y-39000D01*
X65000Y-39000D02*
X66500Y-37500D01*
X70000Y-30500D02*
X70000Y-33250D01*
X65500Y-35250D02*
X65500Y-35500D01*
X66000Y-34750D02*
X65500Y-35250D01*
X68500Y-34750D02*
X66000Y-34750D01*
X70000Y-33250D02*
X68500Y-34750D01*
X62000Y-35500D02*
X62000Y-35750D01*
X64750Y-36250D02*
X65500Y-35500D01*
X62500Y-36250D02*
X64750Y-36250D01*
X62000Y-35750D02*
X62500Y-36250D01*
X41000Y-41500D02*
X41000Y-42000D01*
X41000Y-42000D02*
X38500Y-44500D01*
X42500Y-42000D02*
X41500Y-42000D01*
X41500Y-42000D02*
X41000Y-41500D01*
X42000Y-45500D02*
X44000Y-45500D01*
X44000Y-45500D02*
X45500Y-44000D01*
G54D25*
X54250Y-48000D02*
X49500Y-48000D01*
X61000Y-45500D02*
X60000Y-44500D01*
X57750Y-44500D02*
X60000Y-44500D01*
X49500Y-48000D02*
X48500Y-49000D01*
X54250Y-48000D02*
X57750Y-44500D01*
X69000Y-40250D02*
X69000Y-37000D01*
X70500Y-35500D02*
X69000Y-37000D01*
X70750Y-44250D02*
X70750Y-42000D01*
X70750Y-42000D02*
X69000Y-40250D01*
X69500Y-45500D02*
X61000Y-45500D01*
X69500Y-45500D02*
X70750Y-44250D01*
X68500Y-35500D02*
X70500Y-35500D01*
X61000Y-45500D02*
X61000Y-43000D01*
X36000Y-44500D02*
X37500Y-43000D01*
X40000Y-31000D02*
X41000Y-30000D01*
X40000Y-38750D02*
X40000Y-31000D01*
X35000Y-43750D02*
X40000Y-38750D01*
X30250Y-43750D02*
X35000Y-43750D01*
X27500Y-46500D02*
X30250Y-43750D01*
X27500Y-47250D02*
X27500Y-46500D01*
X28250Y-48000D02*
X27500Y-47250D01*
X29750Y-48000D02*
X28250Y-48000D01*
X30500Y-47250D02*
X29750Y-48000D01*
X30500Y-47000D02*
X30500Y-47250D01*
X31500Y-48000D02*
X30500Y-47000D01*
X34750Y-48000D02*
X31500Y-48000D01*
X35500Y-47250D02*
X34750Y-48000D01*
X35500Y-47000D02*
X35500Y-47250D01*
X41750Y-30750D02*
X41000Y-30000D01*
X48250Y-30750D02*
X41750Y-30750D01*
X49000Y-30000D02*
X48250Y-30750D01*
X40250Y-47000D02*
X35500Y-47000D01*
X48500Y-49000D02*
X48000Y-49000D01*
X48000Y-49000D02*
X47250Y-48250D01*
X47250Y-48250D02*
X41500Y-48250D01*
X41500Y-48250D02*
X40250Y-47000D01*
X48500Y-47000D02*
X48500Y-49000D01*
X49000Y-30000D02*
X51000Y-30000D01*
X41000Y-30000D02*
X43000Y-30000D01*
X35000Y-29000D02*
X36185Y-27815D01*
X37370Y-29000D02*
X36185Y-27815D01*
X37500Y-29000D02*
X37370Y-29000D01*
X36185Y-27815D02*
X34680Y-26310D01*
X35000Y-30000D02*
X34000Y-31000D01*
X35000Y-29000D02*
X35000Y-30000D01*
X27850Y-31656D02*
X27193Y-31000D01*
X33343Y-31656D02*
X27850Y-31656D01*
X34000Y-31000D02*
X33343Y-31656D01*
X26500Y-31000D02*
X27193Y-31000D01*
G54D26*
X63500Y-35500D02*
X66500Y-32500D01*
X66500Y-32500D02*
X66500Y-32000D01*
X66500Y-32000D02*
X68000Y-30500D01*
X45000Y-47500D02*
X42000Y-47500D01*
X45500Y-47000D02*
X45000Y-47500D01*
X61000Y-40000D02*
X61000Y-39000D01*
X61000Y-40000D02*
X62500Y-40000D01*
X62500Y-40000D02*
X63000Y-40500D01*
X61000Y-40000D02*
X61000Y-40000D01*
X52000Y-33000D02*
X52000Y-33500D01*
X52000Y-33500D02*
X53500Y-35000D01*
X52000Y-33000D02*
X51000Y-33000D01*
X63500Y-31500D02*
X62000Y-31500D01*
G54D25*
X26500Y-40000D02*
X26500Y-35500D01*
X27000Y-33500D02*
X29500Y-36000D01*
X27000Y-33000D02*
X27000Y-33500D01*
X30000Y-33000D02*
X27000Y-33000D01*
X26750Y-35500D02*
X26500Y-35500D01*
X27250Y-36000D02*
X26750Y-35500D01*
X29500Y-36000D02*
X27250Y-36000D01*
X26500Y-35500D02*
X25000Y-35500D01*
G54D26*
X44000Y-30000D02*
X44000Y-27900D01*
X44000Y-27900D02*
X43000Y-26900D01*
X45000Y-37000D02*
X45000Y-38000D01*
G54D25*
X37500Y-40000D02*
X37500Y-36500D01*
X36500Y-34000D02*
X34500Y-36000D01*
X36500Y-33000D02*
X36500Y-34000D01*
X34000Y-33000D02*
X36500Y-33000D01*
X39000Y-36500D02*
X37500Y-36500D01*
X34500Y-36500D02*
X34375Y-36375D01*
X37500Y-36500D02*
X34500Y-36500D01*
X34375Y-36375D02*
X34250Y-36250D01*
X34500Y-36250D02*
X34500Y-36000D01*
X34375Y-36375D02*
X34500Y-36250D01*
G54D26*
X52500Y-37000D02*
X52500Y-38000D01*
X51500Y-35000D02*
X51500Y-36000D01*
X51500Y-36000D02*
X52500Y-37000D01*
X51500Y-35000D02*
X50000Y-35000D01*
X43000Y-35000D02*
X43000Y-36000D01*
X43000Y-36000D02*
X44000Y-37000D01*
X44000Y-37000D02*
X44000Y-38000D01*
X43000Y-35000D02*
X41500Y-35000D01*
X69000Y-30500D02*
X69000Y-30400D01*
X69000Y-30400D02*
X65500Y-26900D01*
X67500Y-35500D02*
X67500Y-40000D01*
X68000Y-40500D02*
X68000Y-41000D01*
X67500Y-40000D02*
X68000Y-40500D01*
X68000Y-41000D02*
X68000Y-43500D01*
X68000Y-43500D02*
X68000Y-44500D01*
X66500Y-35500D02*
X66500Y-36000D01*
X66500Y-36000D02*
X64500Y-38000D01*
X64500Y-38000D02*
X64000Y-38000D01*
X70500Y-37500D02*
X70500Y-39000D01*
X66500Y-48000D02*
X65500Y-48000D01*
X64000Y-47500D02*
X63000Y-46500D01*
X65000Y-47500D02*
X64000Y-47500D01*
X65500Y-48000D02*
X65000Y-47500D01*
X63000Y-44500D02*
X63000Y-42000D01*
X63000Y-42000D02*
X64500Y-40500D01*
X53500Y-37000D02*
X53500Y-38000D01*
X55075Y-48425D02*
X55500Y-48000D01*
X50575Y-48425D02*
X55075Y-48425D01*
X50000Y-49000D02*
X50575Y-48425D01*
X64500Y-44500D02*
X67000Y-44500D01*
X67000Y-41000D02*
X67000Y-43500D01*
X64500Y-46500D02*
X66000Y-46500D01*
X66000Y-46500D02*
X66500Y-47000D01*
X67000Y-43500D02*
X67000Y-44500D01*
X50500Y-44000D02*
X50500Y-42000D01*
X58000Y-30000D02*
X59000Y-30000D01*
X59000Y-30000D02*
X60000Y-30000D01*
X58000Y-30000D02*
X58000Y-26900D01*
X41000Y-40500D02*
X42500Y-40500D01*
X46500Y-42000D02*
X44000Y-42000D01*
X44000Y-42000D02*
X42500Y-40500D01*
X44000Y-33000D02*
X44000Y-34000D01*
X44000Y-34000D02*
X45000Y-35000D01*
X44000Y-33000D02*
X43000Y-33000D01*
X52000Y-30000D02*
X52000Y-28400D01*
X52000Y-28400D02*
X50500Y-26900D01*
X49500Y-47000D02*
X49500Y-46750D01*
X53750Y-46250D02*
X54000Y-46500D01*
X50000Y-46250D02*
X53750Y-46250D01*
X49500Y-46750D02*
X50000Y-46250D01*
X58000Y-48500D02*
X58000Y-47500D01*
X38500Y-48500D02*
X40000Y-48500D01*
X57000Y-42750D02*
X57000Y-44500D01*
X57000Y-42750D02*
X57750Y-42000D01*
X58000Y-42000D02*
X57750Y-42000D01*
X52000Y-47500D02*
X54000Y-47500D01*
X54000Y-47500D02*
X57000Y-44500D01*
X52000Y-47500D02*
X51500Y-47000D01*
X44500Y-46500D02*
X45500Y-45500D01*
X42000Y-46500D02*
X44500Y-46500D01*
X53000Y-44500D02*
X52000Y-45500D01*
X52000Y-45500D02*
X45500Y-45500D01*
X53000Y-44500D02*
X54000Y-44500D01*
X55000Y-44500D02*
X55500Y-44000D01*
X54000Y-44500D02*
X55000Y-44500D01*
X58000Y-37000D02*
X57750Y-37000D01*
X56500Y-41500D02*
X56000Y-41500D01*
X57250Y-40750D02*
X56500Y-41500D01*
X57250Y-37500D02*
X57250Y-40750D01*
X57750Y-37000D02*
X57250Y-37500D01*
X51500Y-44000D02*
X52500Y-44000D01*
X52500Y-44000D02*
X54500Y-42000D01*
M02*
