G04 (created by PCBNEW (2013-07-07 BZR 4022)-stable) date 12/07/2015 18:34:44*
%MOIN*%
G04 Gerber Fmt 3.4, Leading zero omitted, Abs format*
%FSLAX34Y34*%
G01*
G70*
G90*
G04 APERTURE LIST*
%ADD10C,0.00590551*%
%ADD11R,0.068X0.068*%
%ADD12C,0.068*%
%ADD13R,0.0867402X0.0867402*%
%ADD14C,0.0867402*%
%ADD15C,0.0768976*%
%ADD16R,0.0768976X0.0768976*%
%ADD17R,0.078X0.078*%
%ADD18C,0.078*%
%ADD19R,0.063X0.063*%
%ADD20C,0.063*%
%ADD21O,0.1458X0.2049*%
%ADD22C,0.071*%
%ADD23C,0.158*%
%ADD24C,0.168*%
G04 APERTURE END LIST*
G54D10*
G54D11*
X51500Y-44000D03*
G54D12*
X50500Y-44000D03*
X49500Y-44000D03*
X48500Y-44000D03*
X47500Y-44000D03*
X46500Y-44000D03*
X45500Y-44000D03*
X45500Y-47000D03*
X46500Y-47000D03*
X47500Y-47000D03*
X48500Y-47000D03*
X49500Y-47000D03*
X50500Y-47000D03*
X51500Y-47000D03*
G54D11*
X58000Y-37000D03*
G54D12*
X58000Y-38000D03*
X58000Y-39000D03*
X58000Y-40000D03*
X58000Y-41000D03*
X58000Y-42000D03*
X58000Y-43000D03*
X61000Y-43000D03*
X61000Y-42000D03*
X61000Y-41000D03*
X61000Y-40000D03*
X61000Y-39000D03*
X61000Y-38000D03*
X61000Y-37000D03*
G54D11*
X65500Y-35500D03*
G54D12*
X66500Y-35500D03*
X67500Y-35500D03*
X68500Y-35500D03*
X68500Y-32500D03*
X67500Y-32500D03*
X66500Y-32500D03*
X65500Y-32500D03*
G54D11*
X54000Y-30000D03*
G54D12*
X53000Y-30000D03*
X52000Y-30000D03*
X51000Y-30000D03*
X51000Y-33000D03*
X52000Y-33000D03*
X53000Y-33000D03*
X54000Y-33000D03*
G54D11*
X46000Y-30000D03*
G54D12*
X45000Y-30000D03*
X44000Y-30000D03*
X43000Y-30000D03*
X43000Y-33000D03*
X44000Y-33000D03*
X45000Y-33000D03*
X46000Y-33000D03*
G54D13*
X37500Y-29000D03*
G54D14*
X37500Y-30000D03*
X37500Y-31000D03*
G54D13*
X26500Y-31000D03*
G54D14*
X26500Y-30000D03*
X26500Y-29000D03*
G54D13*
X30500Y-47000D03*
G54D14*
X29500Y-47000D03*
X28500Y-47000D03*
G54D13*
X35500Y-47000D03*
G54D14*
X34500Y-47000D03*
X33500Y-47000D03*
G54D15*
X45000Y-37000D03*
G54D16*
X46000Y-37000D03*
G54D15*
X44000Y-37000D03*
G54D16*
X46000Y-38000D03*
G54D15*
X45000Y-38000D03*
X44000Y-38000D03*
X53500Y-37000D03*
G54D16*
X54500Y-37000D03*
G54D15*
X52500Y-37000D03*
G54D16*
X54500Y-38000D03*
G54D15*
X53500Y-38000D03*
X52500Y-38000D03*
X68000Y-43500D03*
G54D16*
X69000Y-43500D03*
G54D15*
X67000Y-43500D03*
G54D16*
X69000Y-44500D03*
G54D15*
X68000Y-44500D03*
X67000Y-44500D03*
X59000Y-48500D03*
G54D16*
X58000Y-48500D03*
G54D15*
X60000Y-48500D03*
G54D16*
X58000Y-47500D03*
G54D15*
X59000Y-47500D03*
X60000Y-47500D03*
G54D17*
X39000Y-37500D03*
G54D18*
X39000Y-36500D03*
X39000Y-35500D03*
G54D17*
X25000Y-35500D03*
G54D18*
X25000Y-36500D03*
X25000Y-37500D03*
G54D17*
X58000Y-31000D03*
G54D18*
X58000Y-30000D03*
X59000Y-31000D03*
X59000Y-30000D03*
X60000Y-31000D03*
X60000Y-30000D03*
G54D17*
X67000Y-41000D03*
G54D18*
X68000Y-41000D03*
G54D17*
X70000Y-30500D03*
G54D18*
X69000Y-30500D03*
X68000Y-30500D03*
G54D17*
X34500Y-38000D03*
G54D18*
X34500Y-36000D03*
G54D17*
X29500Y-36000D03*
G54D18*
X29500Y-38000D03*
G54D19*
X33750Y-41500D03*
G54D20*
X35250Y-41500D03*
G54D19*
X28750Y-41500D03*
G54D20*
X30250Y-41500D03*
G54D17*
X42000Y-45500D03*
G54D18*
X42000Y-46500D03*
X42000Y-47500D03*
G54D17*
X66500Y-48000D03*
G54D18*
X66500Y-47000D03*
G54D17*
X64000Y-39000D03*
G54D18*
X64000Y-38000D03*
G54D17*
X56000Y-41500D03*
G54D18*
X56000Y-40500D03*
G54D17*
X41000Y-41500D03*
G54D18*
X41000Y-40500D03*
G54D21*
X48500Y-24900D03*
X52500Y-24900D03*
G54D22*
X50500Y-26900D03*
X49500Y-26900D03*
G54D23*
X37420Y-25750D03*
X27580Y-25750D03*
G54D11*
X34680Y-26310D03*
G54D12*
X33590Y-26310D03*
X32500Y-26310D03*
X31410Y-26310D03*
X30320Y-26310D03*
X30860Y-25190D03*
X31950Y-25190D03*
X33050Y-25190D03*
X34140Y-25190D03*
X50000Y-39000D03*
X50000Y-35000D03*
X46500Y-40500D03*
X42500Y-40500D03*
X46500Y-42000D03*
X42500Y-42000D03*
X41500Y-35000D03*
X41500Y-39000D03*
X50500Y-42000D03*
X54500Y-42000D03*
X40000Y-44500D03*
X40000Y-48500D03*
X38500Y-48500D03*
X38500Y-44500D03*
X54000Y-49000D03*
X50000Y-49000D03*
X55500Y-48000D03*
X55500Y-44000D03*
X54500Y-40500D03*
X50500Y-40500D03*
X63000Y-40500D03*
X63000Y-44500D03*
X64500Y-40500D03*
X64500Y-44500D03*
X70500Y-37500D03*
X66500Y-37500D03*
X70500Y-39000D03*
X66500Y-39000D03*
G54D20*
X53500Y-35000D03*
X51500Y-35000D03*
X29000Y-29000D03*
X31000Y-29000D03*
X35000Y-29000D03*
X33000Y-29000D03*
X70500Y-35500D03*
X70500Y-33500D03*
X65500Y-30000D03*
X63500Y-30000D03*
X27000Y-33000D03*
X25000Y-33000D03*
X36500Y-33000D03*
X38500Y-33000D03*
X64500Y-48500D03*
X64500Y-46500D03*
X63000Y-48500D03*
X63000Y-46500D03*
X61000Y-45500D03*
X59000Y-45500D03*
X60500Y-34500D03*
X58500Y-34500D03*
X41000Y-30000D03*
X41000Y-32000D03*
X46500Y-49000D03*
X48500Y-49000D03*
X48000Y-32000D03*
X48000Y-30000D03*
X54000Y-46500D03*
X54000Y-44500D03*
X49000Y-30000D03*
X49000Y-32000D03*
X56000Y-32000D03*
X56000Y-30000D03*
X48500Y-42000D03*
X48500Y-40000D03*
X45000Y-35000D03*
X43000Y-35000D03*
G54D21*
X41000Y-24900D03*
X45000Y-24900D03*
G54D22*
X43000Y-26900D03*
X42000Y-26900D03*
G54D18*
X30000Y-31000D03*
X30000Y-33000D03*
X34000Y-31000D03*
X34000Y-33000D03*
G54D24*
X70000Y-23500D03*
X70000Y-48500D03*
X25000Y-48500D03*
X25000Y-23500D03*
G54D21*
X56000Y-24900D03*
X60000Y-24900D03*
G54D22*
X58000Y-26900D03*
X57000Y-26900D03*
G54D21*
X63500Y-24900D03*
X67500Y-24900D03*
G54D22*
X65500Y-26900D03*
X64500Y-26900D03*
G54D19*
X28000Y-44500D03*
G54D20*
X31000Y-44500D03*
G54D19*
X33000Y-44500D03*
G54D20*
X36000Y-44500D03*
G54D19*
X26500Y-40000D03*
G54D20*
X26500Y-43000D03*
G54D19*
X37500Y-43000D03*
G54D20*
X37500Y-40000D03*
G54D12*
X63500Y-35500D03*
X63500Y-31500D03*
X62000Y-35500D03*
X62000Y-31500D03*
M02*
