G04 (created by PCBNEW (2013-07-07 BZR 4022)-stable) date 12/07/2015 18:34:44*
%MOIN*%
G04 Gerber Fmt 3.4, Leading zero omitted, Abs format*
%FSLAX34Y34*%
G01*
G70*
G90*
G04 APERTURE LIST*
%ADD10C,0.00590551*%
%ADD11C,0.011811*%
%ADD12C,0.015*%
%ADD13C,0.01*%
%ADD14C,0.012*%
%ADD15C,0.008*%
%ADD16C,0.006*%
%ADD17R,0.068X0.068*%
%ADD18C,0.068*%
%ADD19R,0.0867402X0.0867402*%
%ADD20C,0.0867402*%
%ADD21C,0.0768976*%
%ADD22R,0.0768976X0.0768976*%
%ADD23R,0.078X0.078*%
%ADD24C,0.078*%
%ADD25R,0.063X0.063*%
%ADD26C,0.063*%
%ADD27O,0.1458X0.2049*%
%ADD28C,0.071*%
%ADD29C,0.158*%
%ADD30C,0.168*%
G04 APERTURE END LIST*
G54D10*
G54D11*
X24760Y-41517D02*
X25042Y-41320D01*
X24760Y-41179D02*
X25351Y-41179D01*
X25351Y-41404D01*
X25323Y-41461D01*
X25295Y-41489D01*
X25239Y-41517D01*
X25154Y-41517D01*
X25098Y-41489D01*
X25070Y-41461D01*
X25042Y-41404D01*
X25042Y-41179D01*
X24760Y-41854D02*
X24789Y-41798D01*
X24817Y-41770D01*
X24873Y-41742D01*
X25042Y-41742D01*
X25098Y-41770D01*
X25126Y-41798D01*
X25154Y-41854D01*
X25154Y-41939D01*
X25126Y-41995D01*
X25098Y-42023D01*
X25042Y-42051D01*
X24873Y-42051D01*
X24817Y-42023D01*
X24789Y-41995D01*
X24760Y-41939D01*
X24760Y-41854D01*
X25154Y-42557D02*
X24676Y-42557D01*
X24620Y-42529D01*
X24592Y-42501D01*
X24564Y-42445D01*
X24564Y-42361D01*
X24592Y-42304D01*
X24789Y-42557D02*
X24760Y-42501D01*
X24760Y-42389D01*
X24789Y-42332D01*
X24817Y-42304D01*
X24873Y-42276D01*
X25042Y-42276D01*
X25098Y-42304D01*
X25126Y-42332D01*
X25154Y-42389D01*
X25154Y-42501D01*
X25126Y-42557D01*
X24789Y-43064D02*
X24760Y-43007D01*
X24760Y-42895D01*
X24789Y-42839D01*
X24845Y-42811D01*
X25070Y-42811D01*
X25126Y-42839D01*
X25154Y-42895D01*
X25154Y-43007D01*
X25126Y-43064D01*
X25070Y-43092D01*
X25014Y-43092D01*
X24957Y-42811D01*
X24760Y-43345D02*
X25154Y-43345D01*
X25042Y-43345D02*
X25098Y-43373D01*
X25126Y-43401D01*
X25154Y-43457D01*
X25154Y-43514D01*
X24760Y-44160D02*
X25351Y-44160D01*
X25351Y-44301D01*
X25323Y-44385D01*
X25267Y-44442D01*
X25210Y-44470D01*
X25098Y-44498D01*
X25014Y-44498D01*
X24901Y-44470D01*
X24845Y-44442D01*
X24789Y-44385D01*
X24760Y-44301D01*
X24760Y-44160D01*
X24760Y-44751D02*
X25154Y-44751D01*
X25351Y-44751D02*
X25323Y-44723D01*
X25295Y-44751D01*
X25323Y-44779D01*
X25351Y-44751D01*
X25295Y-44751D01*
X25154Y-45032D02*
X24760Y-45032D01*
X25098Y-45032D02*
X25126Y-45060D01*
X25154Y-45116D01*
X25154Y-45201D01*
X25126Y-45257D01*
X25070Y-45285D01*
X24760Y-45285D01*
X25154Y-45820D02*
X24676Y-45820D01*
X24620Y-45791D01*
X24592Y-45763D01*
X24564Y-45707D01*
X24564Y-45623D01*
X24592Y-45566D01*
X24789Y-45820D02*
X24760Y-45763D01*
X24760Y-45651D01*
X24789Y-45595D01*
X24817Y-45566D01*
X24873Y-45538D01*
X25042Y-45538D01*
X25098Y-45566D01*
X25126Y-45595D01*
X25154Y-45651D01*
X25154Y-45763D01*
X25126Y-45820D01*
X24350Y-40744D02*
X24378Y-40772D01*
X24406Y-40828D01*
X24406Y-40969D01*
X24378Y-41025D01*
X24350Y-41053D01*
X24294Y-41081D01*
X24237Y-41081D01*
X24153Y-41053D01*
X23816Y-40715D01*
X23816Y-41081D01*
X24406Y-41447D02*
X24406Y-41503D01*
X24378Y-41559D01*
X24350Y-41587D01*
X24294Y-41615D01*
X24181Y-41643D01*
X24041Y-41643D01*
X23928Y-41615D01*
X23872Y-41587D01*
X23844Y-41559D01*
X23816Y-41503D01*
X23816Y-41447D01*
X23844Y-41390D01*
X23872Y-41362D01*
X23928Y-41334D01*
X24041Y-41306D01*
X24181Y-41306D01*
X24294Y-41334D01*
X24350Y-41362D01*
X24378Y-41390D01*
X24406Y-41447D01*
X23816Y-42206D02*
X23816Y-41868D01*
X23816Y-42037D02*
X24406Y-42037D01*
X24322Y-41981D01*
X24266Y-41925D01*
X24237Y-41868D01*
X24406Y-42740D02*
X24406Y-42459D01*
X24125Y-42431D01*
X24153Y-42459D01*
X24181Y-42515D01*
X24181Y-42656D01*
X24153Y-42712D01*
X24125Y-42740D01*
X24069Y-42768D01*
X23928Y-42768D01*
X23872Y-42740D01*
X23844Y-42712D01*
X23816Y-42656D01*
X23816Y-42515D01*
X23844Y-42459D01*
X23872Y-42431D01*
X24434Y-43443D02*
X23675Y-42937D01*
X24406Y-43753D02*
X24406Y-43809D01*
X24378Y-43865D01*
X24350Y-43893D01*
X24294Y-43921D01*
X24181Y-43949D01*
X24041Y-43949D01*
X23928Y-43921D01*
X23872Y-43893D01*
X23844Y-43865D01*
X23816Y-43809D01*
X23816Y-43753D01*
X23844Y-43696D01*
X23872Y-43668D01*
X23928Y-43640D01*
X24041Y-43612D01*
X24181Y-43612D01*
X24294Y-43640D01*
X24350Y-43668D01*
X24378Y-43696D01*
X24406Y-43753D01*
X24406Y-44146D02*
X24406Y-44540D01*
X23816Y-44287D01*
X24434Y-45187D02*
X23675Y-44681D01*
X24406Y-45496D02*
X24406Y-45552D01*
X24378Y-45609D01*
X24350Y-45637D01*
X24294Y-45665D01*
X24181Y-45693D01*
X24041Y-45693D01*
X23928Y-45665D01*
X23872Y-45637D01*
X23844Y-45609D01*
X23816Y-45552D01*
X23816Y-45496D01*
X23844Y-45440D01*
X23872Y-45412D01*
X23928Y-45384D01*
X24041Y-45356D01*
X24181Y-45356D01*
X24294Y-45384D01*
X24350Y-45412D01*
X24378Y-45440D01*
X24406Y-45496D01*
X24406Y-45890D02*
X24406Y-46255D01*
X24181Y-46059D01*
X24181Y-46143D01*
X24153Y-46199D01*
X24125Y-46227D01*
X24069Y-46255D01*
X23928Y-46255D01*
X23872Y-46227D01*
X23844Y-46199D01*
X23816Y-46143D01*
X23816Y-45974D01*
X23844Y-45918D01*
X23872Y-45890D01*
G54D12*
X52500Y-46500D02*
X44500Y-46500D01*
X44500Y-44500D02*
X52500Y-44500D01*
X52500Y-44500D02*
X52500Y-46500D01*
X52500Y-46000D02*
X52000Y-46000D01*
X52000Y-46000D02*
X52000Y-45000D01*
X52000Y-45000D02*
X52500Y-45000D01*
X44500Y-46500D02*
X44500Y-44500D01*
X60500Y-36000D02*
X60500Y-44000D01*
X58500Y-44000D02*
X58500Y-36000D01*
X58500Y-36000D02*
X60500Y-36000D01*
X60000Y-36000D02*
X60000Y-36500D01*
X60000Y-36500D02*
X59000Y-36500D01*
X59000Y-36500D02*
X59000Y-36000D01*
X60500Y-44000D02*
X58500Y-44000D01*
G54D13*
X65000Y-33500D02*
X65500Y-33500D01*
X65500Y-33500D02*
X65500Y-34500D01*
X65500Y-34500D02*
X65000Y-34500D01*
X65000Y-33000D02*
X69000Y-33000D01*
X69000Y-33000D02*
X69000Y-35000D01*
X69000Y-35000D02*
X65000Y-35000D01*
X65000Y-35000D02*
X65000Y-33000D01*
X54500Y-32000D02*
X54000Y-32000D01*
X54000Y-32000D02*
X54000Y-31000D01*
X54000Y-31000D02*
X54500Y-31000D01*
X54500Y-32500D02*
X50500Y-32500D01*
X50500Y-32500D02*
X50500Y-30500D01*
X50500Y-30500D02*
X54500Y-30500D01*
X54500Y-30500D02*
X54500Y-32500D01*
X46500Y-32000D02*
X46000Y-32000D01*
X46000Y-32000D02*
X46000Y-31000D01*
X46000Y-31000D02*
X46500Y-31000D01*
X46500Y-32500D02*
X42500Y-32500D01*
X42500Y-32500D02*
X42500Y-30500D01*
X42500Y-30500D02*
X46500Y-30500D01*
X46500Y-30500D02*
X46500Y-32500D01*
G54D14*
X36366Y-28500D02*
X38649Y-28500D01*
X36366Y-31500D02*
X38649Y-31500D01*
X36759Y-28500D02*
X36759Y-31500D01*
X38649Y-28500D02*
X38649Y-31500D01*
X36366Y-28500D02*
X36366Y-31500D01*
X27633Y-31500D02*
X25350Y-31500D01*
X27633Y-28500D02*
X25350Y-28500D01*
X27240Y-31500D02*
X27240Y-28500D01*
X25350Y-31500D02*
X25350Y-28500D01*
X27633Y-31500D02*
X27633Y-28500D01*
X31000Y-45866D02*
X31000Y-48149D01*
X28000Y-45866D02*
X28000Y-48149D01*
X31000Y-46259D02*
X28000Y-46259D01*
X31000Y-48149D02*
X28000Y-48149D01*
X31000Y-45866D02*
X28000Y-45866D01*
X36000Y-45866D02*
X36000Y-48149D01*
X33000Y-45866D02*
X33000Y-48149D01*
X36000Y-46259D02*
X33000Y-46259D01*
X36000Y-48149D02*
X33000Y-48149D01*
X36000Y-45866D02*
X33000Y-45866D01*
G54D12*
X46000Y-37500D02*
X46500Y-38000D01*
X46750Y-37750D02*
G75*
G03X46750Y-37750I-500J0D01*
G74*
G01*
X43000Y-38250D02*
X43000Y-38500D01*
X43000Y-38500D02*
X47000Y-38500D01*
X47000Y-36250D02*
X43000Y-36250D01*
X43000Y-36250D02*
X43000Y-38250D01*
X47000Y-38500D02*
X47000Y-36250D01*
X54500Y-37500D02*
X55000Y-38000D01*
X55250Y-37750D02*
G75*
G03X55250Y-37750I-500J0D01*
G74*
G01*
X51500Y-38250D02*
X51500Y-38500D01*
X51500Y-38500D02*
X55500Y-38500D01*
X55500Y-36250D02*
X51500Y-36250D01*
X51500Y-36250D02*
X51500Y-38250D01*
X55500Y-38500D02*
X55500Y-36250D01*
X69000Y-44000D02*
X69500Y-44500D01*
X69750Y-44250D02*
G75*
G03X69750Y-44250I-500J0D01*
G74*
G01*
X66000Y-44750D02*
X66000Y-45000D01*
X66000Y-45000D02*
X70000Y-45000D01*
X70000Y-42750D02*
X66000Y-42750D01*
X66000Y-42750D02*
X66000Y-44750D01*
X70000Y-45000D02*
X70000Y-42750D01*
X58000Y-48000D02*
X57500Y-47500D01*
X58250Y-47750D02*
G75*
G03X58250Y-47750I-500J0D01*
G74*
G01*
X61000Y-47250D02*
X61000Y-47000D01*
X61000Y-47000D02*
X57000Y-47000D01*
X57000Y-49250D02*
X61000Y-49250D01*
X61000Y-49250D02*
X61000Y-47250D01*
X57000Y-47000D02*
X57000Y-49250D01*
X38325Y-38530D02*
X38325Y-34470D01*
X39575Y-38530D02*
X37825Y-38530D01*
X37825Y-38530D02*
X37825Y-34470D01*
X37825Y-34470D02*
X39575Y-34470D01*
X39575Y-34470D02*
X39575Y-38530D01*
X25675Y-34470D02*
X25675Y-38530D01*
X24425Y-34470D02*
X26175Y-34470D01*
X26175Y-34470D02*
X26175Y-38530D01*
X26175Y-38530D02*
X24425Y-38530D01*
X24425Y-38530D02*
X24425Y-34470D01*
G54D15*
X60500Y-31500D02*
X57500Y-31500D01*
X57500Y-29500D02*
X60500Y-29500D01*
X60500Y-29500D02*
X60500Y-31500D01*
X57500Y-31500D02*
X57500Y-29500D01*
G54D16*
X66500Y-41500D02*
X66500Y-40500D01*
X66500Y-40500D02*
X68500Y-40500D01*
X68500Y-40500D02*
X68500Y-41500D01*
X68500Y-41500D02*
X66500Y-41500D01*
X70500Y-30000D02*
X70500Y-31000D01*
X70500Y-31000D02*
X67500Y-31000D01*
X67500Y-31000D02*
X67500Y-30000D01*
X67500Y-30000D02*
X70500Y-30000D01*
X69500Y-31000D02*
X69500Y-30000D01*
G54D10*
X34300Y-39300D02*
X34700Y-39300D01*
X34500Y-39100D02*
X34500Y-39500D01*
G54D14*
X36500Y-37000D02*
G75*
G03X36500Y-37000I-2000J0D01*
G74*
G01*
G54D10*
X29700Y-34700D02*
X29300Y-34700D01*
X29500Y-34900D02*
X29500Y-34500D01*
G54D14*
X31500Y-37000D02*
G75*
G03X31500Y-37000I-2000J0D01*
G74*
G01*
G54D10*
X32200Y-41500D02*
X32600Y-41500D01*
X32400Y-41300D02*
X32400Y-41700D01*
G54D13*
X36250Y-41500D02*
G75*
G03X36250Y-41500I-1750J0D01*
G74*
G01*
G54D10*
X27400Y-41300D02*
X27400Y-41700D01*
X27600Y-41500D02*
X27200Y-41500D01*
G54D14*
X31250Y-41500D02*
G75*
G03X31250Y-41500I-1750J0D01*
G74*
G01*
G54D16*
X41500Y-45000D02*
X42500Y-45000D01*
X42500Y-45000D02*
X42500Y-48000D01*
X42500Y-48000D02*
X41500Y-48000D01*
X41500Y-48000D02*
X41500Y-45000D01*
X67000Y-48500D02*
X66000Y-48500D01*
X66000Y-48500D02*
X66000Y-46500D01*
X66000Y-46500D02*
X67000Y-46500D01*
X67000Y-46500D02*
X67000Y-48500D01*
X64500Y-39500D02*
X63500Y-39500D01*
X63500Y-39500D02*
X63500Y-37500D01*
X63500Y-37500D02*
X64500Y-37500D01*
X64500Y-37500D02*
X64500Y-39500D01*
X56500Y-42000D02*
X55500Y-42000D01*
X55500Y-42000D02*
X55500Y-40000D01*
X55500Y-40000D02*
X56500Y-40000D01*
X56500Y-40000D02*
X56500Y-42000D01*
X41500Y-42000D02*
X40500Y-42000D01*
X40500Y-42000D02*
X40500Y-40000D01*
X40500Y-40000D02*
X41500Y-40000D01*
X41500Y-40000D02*
X41500Y-42000D01*
G54D12*
X47606Y-27774D02*
X53393Y-27774D01*
X53393Y-27774D02*
X53393Y-22025D01*
X53393Y-22025D02*
X47604Y-22025D01*
X47606Y-22025D02*
X47606Y-27774D01*
G54D14*
X26435Y-26850D02*
X38565Y-26850D01*
X38565Y-26850D02*
X38565Y-22010D01*
X38565Y-22010D02*
X26435Y-22010D01*
X26435Y-22010D02*
X26435Y-26850D01*
X28950Y-22010D02*
X28950Y-23750D01*
X28950Y-23750D02*
X36150Y-23750D01*
X36150Y-23750D02*
X36150Y-22010D01*
X50000Y-39000D02*
X50000Y-38600D01*
X50000Y-38600D02*
X49600Y-38600D01*
X49600Y-38600D02*
X49600Y-35400D01*
X49600Y-35400D02*
X50400Y-35400D01*
X50400Y-35400D02*
X50400Y-38600D01*
X50400Y-38600D02*
X50000Y-38600D01*
X49800Y-38600D02*
X49600Y-38400D01*
X50000Y-35000D02*
X50000Y-35400D01*
X46500Y-40500D02*
X46100Y-40500D01*
X46100Y-40500D02*
X46100Y-40900D01*
X46100Y-40900D02*
X42900Y-40900D01*
X42900Y-40900D02*
X42900Y-40100D01*
X42900Y-40100D02*
X46100Y-40100D01*
X46100Y-40100D02*
X46100Y-40500D01*
X46100Y-40700D02*
X45900Y-40900D01*
X42500Y-40500D02*
X42900Y-40500D01*
X46500Y-42000D02*
X46100Y-42000D01*
X46100Y-42000D02*
X46100Y-42400D01*
X46100Y-42400D02*
X42900Y-42400D01*
X42900Y-42400D02*
X42900Y-41600D01*
X42900Y-41600D02*
X46100Y-41600D01*
X46100Y-41600D02*
X46100Y-42000D01*
X46100Y-42200D02*
X45900Y-42400D01*
X42500Y-42000D02*
X42900Y-42000D01*
X41500Y-35000D02*
X41500Y-35400D01*
X41500Y-35400D02*
X41900Y-35400D01*
X41900Y-35400D02*
X41900Y-38600D01*
X41900Y-38600D02*
X41100Y-38600D01*
X41100Y-38600D02*
X41100Y-35400D01*
X41100Y-35400D02*
X41500Y-35400D01*
X41700Y-35400D02*
X41900Y-35600D01*
X41500Y-39000D02*
X41500Y-38600D01*
X50500Y-42000D02*
X50900Y-42000D01*
X50900Y-42000D02*
X50900Y-41600D01*
X50900Y-41600D02*
X54100Y-41600D01*
X54100Y-41600D02*
X54100Y-42400D01*
X54100Y-42400D02*
X50900Y-42400D01*
X50900Y-42400D02*
X50900Y-42000D01*
X50900Y-41800D02*
X51100Y-41600D01*
X54500Y-42000D02*
X54100Y-42000D01*
X40000Y-44500D02*
X40000Y-44900D01*
X40000Y-44900D02*
X40400Y-44900D01*
X40400Y-44900D02*
X40400Y-48100D01*
X40400Y-48100D02*
X39600Y-48100D01*
X39600Y-48100D02*
X39600Y-44900D01*
X39600Y-44900D02*
X40000Y-44900D01*
X40200Y-44900D02*
X40400Y-45100D01*
X40000Y-48500D02*
X40000Y-48100D01*
X38500Y-48500D02*
X38500Y-48100D01*
X38500Y-48100D02*
X38100Y-48100D01*
X38100Y-48100D02*
X38100Y-44900D01*
X38100Y-44900D02*
X38900Y-44900D01*
X38900Y-44900D02*
X38900Y-48100D01*
X38900Y-48100D02*
X38500Y-48100D01*
X38300Y-48100D02*
X38100Y-47900D01*
X38500Y-44500D02*
X38500Y-44900D01*
X54000Y-49000D02*
X53600Y-49000D01*
X53600Y-49000D02*
X53600Y-49400D01*
X53600Y-49400D02*
X50400Y-49400D01*
X50400Y-49400D02*
X50400Y-48600D01*
X50400Y-48600D02*
X53600Y-48600D01*
X53600Y-48600D02*
X53600Y-49000D01*
X53600Y-49200D02*
X53400Y-49400D01*
X50000Y-49000D02*
X50400Y-49000D01*
X55500Y-48000D02*
X55500Y-47600D01*
X55500Y-47600D02*
X55100Y-47600D01*
X55100Y-47600D02*
X55100Y-44400D01*
X55100Y-44400D02*
X55900Y-44400D01*
X55900Y-44400D02*
X55900Y-47600D01*
X55900Y-47600D02*
X55500Y-47600D01*
X55300Y-47600D02*
X55100Y-47400D01*
X55500Y-44000D02*
X55500Y-44400D01*
X54500Y-40500D02*
X54100Y-40500D01*
X54100Y-40500D02*
X54100Y-40900D01*
X54100Y-40900D02*
X50900Y-40900D01*
X50900Y-40900D02*
X50900Y-40100D01*
X50900Y-40100D02*
X54100Y-40100D01*
X54100Y-40100D02*
X54100Y-40500D01*
X54100Y-40700D02*
X53900Y-40900D01*
X50500Y-40500D02*
X50900Y-40500D01*
X63000Y-40500D02*
X63000Y-40900D01*
X63000Y-40900D02*
X63400Y-40900D01*
X63400Y-40900D02*
X63400Y-44100D01*
X63400Y-44100D02*
X62600Y-44100D01*
X62600Y-44100D02*
X62600Y-40900D01*
X62600Y-40900D02*
X63000Y-40900D01*
X63200Y-40900D02*
X63400Y-41100D01*
X63000Y-44500D02*
X63000Y-44100D01*
X64500Y-40500D02*
X64500Y-40900D01*
X64500Y-40900D02*
X64900Y-40900D01*
X64900Y-40900D02*
X64900Y-44100D01*
X64900Y-44100D02*
X64100Y-44100D01*
X64100Y-44100D02*
X64100Y-40900D01*
X64100Y-40900D02*
X64500Y-40900D01*
X64700Y-40900D02*
X64900Y-41100D01*
X64500Y-44500D02*
X64500Y-44100D01*
X70500Y-37500D02*
X70100Y-37500D01*
X70100Y-37500D02*
X70100Y-37900D01*
X70100Y-37900D02*
X66900Y-37900D01*
X66900Y-37900D02*
X66900Y-37100D01*
X66900Y-37100D02*
X70100Y-37100D01*
X70100Y-37100D02*
X70100Y-37500D01*
X70100Y-37700D02*
X69900Y-37900D01*
X66500Y-37500D02*
X66900Y-37500D01*
X70500Y-39000D02*
X70100Y-39000D01*
X70100Y-39000D02*
X70100Y-39400D01*
X70100Y-39400D02*
X66900Y-39400D01*
X66900Y-39400D02*
X66900Y-38600D01*
X66900Y-38600D02*
X70100Y-38600D01*
X70100Y-38600D02*
X70100Y-39000D01*
X70100Y-39200D02*
X69900Y-39400D01*
X66500Y-39000D02*
X66900Y-39000D01*
X53900Y-35400D02*
X51100Y-35400D01*
X51100Y-35400D02*
X51100Y-34600D01*
X51100Y-34600D02*
X53900Y-34600D01*
X53900Y-34600D02*
X53900Y-35400D01*
X53900Y-35200D02*
X53700Y-35400D01*
X28600Y-28600D02*
X31400Y-28600D01*
X31400Y-28600D02*
X31400Y-29400D01*
X31400Y-29400D02*
X28600Y-29400D01*
X28600Y-29400D02*
X28600Y-28600D01*
X28600Y-28800D02*
X28800Y-28600D01*
X35400Y-29400D02*
X32600Y-29400D01*
X32600Y-29400D02*
X32600Y-28600D01*
X32600Y-28600D02*
X35400Y-28600D01*
X35400Y-28600D02*
X35400Y-29400D01*
X35400Y-29200D02*
X35200Y-29400D01*
X70100Y-35900D02*
X70100Y-33100D01*
X70100Y-33100D02*
X70900Y-33100D01*
X70900Y-33100D02*
X70900Y-35900D01*
X70900Y-35900D02*
X70100Y-35900D01*
X70300Y-35900D02*
X70100Y-35700D01*
X65900Y-30400D02*
X63100Y-30400D01*
X63100Y-30400D02*
X63100Y-29600D01*
X63100Y-29600D02*
X65900Y-29600D01*
X65900Y-29600D02*
X65900Y-30400D01*
X65900Y-30200D02*
X65700Y-30400D01*
X27400Y-33400D02*
X24600Y-33400D01*
X24600Y-33400D02*
X24600Y-32600D01*
X24600Y-32600D02*
X27400Y-32600D01*
X27400Y-32600D02*
X27400Y-33400D01*
X27400Y-33200D02*
X27200Y-33400D01*
X36100Y-32600D02*
X38900Y-32600D01*
X38900Y-32600D02*
X38900Y-33400D01*
X38900Y-33400D02*
X36100Y-33400D01*
X36100Y-33400D02*
X36100Y-32600D01*
X36100Y-32800D02*
X36300Y-32600D01*
X64100Y-48900D02*
X64100Y-46100D01*
X64100Y-46100D02*
X64900Y-46100D01*
X64900Y-46100D02*
X64900Y-48900D01*
X64900Y-48900D02*
X64100Y-48900D01*
X64300Y-48900D02*
X64100Y-48700D01*
X62600Y-48900D02*
X62600Y-46100D01*
X62600Y-46100D02*
X63400Y-46100D01*
X63400Y-46100D02*
X63400Y-48900D01*
X63400Y-48900D02*
X62600Y-48900D01*
X62800Y-48900D02*
X62600Y-48700D01*
X61400Y-45900D02*
X58600Y-45900D01*
X58600Y-45900D02*
X58600Y-45100D01*
X58600Y-45100D02*
X61400Y-45100D01*
X61400Y-45100D02*
X61400Y-45900D01*
X61400Y-45700D02*
X61200Y-45900D01*
X60900Y-34900D02*
X58100Y-34900D01*
X58100Y-34900D02*
X58100Y-34100D01*
X58100Y-34100D02*
X60900Y-34100D01*
X60900Y-34100D02*
X60900Y-34900D01*
X60900Y-34700D02*
X60700Y-34900D01*
X41400Y-29600D02*
X41400Y-32400D01*
X41400Y-32400D02*
X40600Y-32400D01*
X40600Y-32400D02*
X40600Y-29600D01*
X40600Y-29600D02*
X41400Y-29600D01*
X41200Y-29600D02*
X41400Y-29800D01*
X46100Y-48600D02*
X48900Y-48600D01*
X48900Y-48600D02*
X48900Y-49400D01*
X48900Y-49400D02*
X46100Y-49400D01*
X46100Y-49400D02*
X46100Y-48600D01*
X46100Y-48800D02*
X46300Y-48600D01*
X47600Y-32400D02*
X47600Y-29600D01*
X47600Y-29600D02*
X48400Y-29600D01*
X48400Y-29600D02*
X48400Y-32400D01*
X48400Y-32400D02*
X47600Y-32400D01*
X47800Y-32400D02*
X47600Y-32200D01*
X53600Y-46900D02*
X53600Y-44100D01*
X53600Y-44100D02*
X54400Y-44100D01*
X54400Y-44100D02*
X54400Y-46900D01*
X54400Y-46900D02*
X53600Y-46900D01*
X53800Y-46900D02*
X53600Y-46700D01*
X49400Y-29600D02*
X49400Y-32400D01*
X49400Y-32400D02*
X48600Y-32400D01*
X48600Y-32400D02*
X48600Y-29600D01*
X48600Y-29600D02*
X49400Y-29600D01*
X49200Y-29600D02*
X49400Y-29800D01*
X55600Y-32400D02*
X55600Y-29600D01*
X55600Y-29600D02*
X56400Y-29600D01*
X56400Y-29600D02*
X56400Y-32400D01*
X56400Y-32400D02*
X55600Y-32400D01*
X55800Y-32400D02*
X55600Y-32200D01*
X48100Y-42400D02*
X48100Y-39600D01*
X48100Y-39600D02*
X48900Y-39600D01*
X48900Y-39600D02*
X48900Y-42400D01*
X48900Y-42400D02*
X48100Y-42400D01*
X48300Y-42400D02*
X48100Y-42200D01*
X45400Y-35400D02*
X42600Y-35400D01*
X42600Y-35400D02*
X42600Y-34600D01*
X42600Y-34600D02*
X45400Y-34600D01*
X45400Y-34600D02*
X45400Y-35400D01*
X45400Y-35200D02*
X45200Y-35400D01*
G54D12*
X40106Y-27774D02*
X45893Y-27774D01*
X45893Y-27774D02*
X45893Y-22025D01*
X45893Y-22025D02*
X40104Y-22025D01*
X40106Y-22025D02*
X40106Y-27774D01*
G54D14*
X31750Y-32000D02*
G75*
G03X31750Y-32000I-1750J0D01*
G74*
G01*
X35750Y-32000D02*
G75*
G03X35750Y-32000I-1750J0D01*
G74*
G01*
G54D12*
X70900Y-23500D02*
G75*
G03X70900Y-23500I-900J0D01*
G74*
G01*
X70900Y-48500D02*
G75*
G03X70900Y-48500I-900J0D01*
G74*
G01*
X25900Y-48500D02*
G75*
G03X25900Y-48500I-900J0D01*
G74*
G01*
X25900Y-23500D02*
G75*
G03X25900Y-23500I-900J0D01*
G74*
G01*
X55106Y-27774D02*
X60893Y-27774D01*
X60893Y-27774D02*
X60893Y-22025D01*
X60893Y-22025D02*
X55104Y-22025D01*
X55106Y-22025D02*
X55106Y-27774D01*
X62606Y-27774D02*
X68393Y-27774D01*
X68393Y-27774D02*
X68393Y-22025D01*
X68393Y-22025D02*
X62604Y-22025D01*
X62606Y-22025D02*
X62606Y-27774D01*
G54D14*
X28000Y-44500D02*
X28300Y-44500D01*
X28300Y-44500D02*
X28300Y-44900D01*
X28300Y-44900D02*
X30700Y-44900D01*
X30700Y-44900D02*
X30700Y-44500D01*
X30700Y-44500D02*
X31000Y-44500D01*
X30700Y-44500D02*
X30700Y-44100D01*
X30700Y-44100D02*
X28300Y-44100D01*
X28300Y-44100D02*
X28300Y-44500D01*
X28500Y-44900D02*
X28500Y-44100D01*
X28600Y-44100D02*
X28600Y-44900D01*
X33000Y-44500D02*
X33300Y-44500D01*
X33300Y-44500D02*
X33300Y-44900D01*
X33300Y-44900D02*
X35700Y-44900D01*
X35700Y-44900D02*
X35700Y-44500D01*
X35700Y-44500D02*
X36000Y-44500D01*
X35700Y-44500D02*
X35700Y-44100D01*
X35700Y-44100D02*
X33300Y-44100D01*
X33300Y-44100D02*
X33300Y-44500D01*
X33500Y-44900D02*
X33500Y-44100D01*
X33600Y-44100D02*
X33600Y-44900D01*
X26500Y-40000D02*
X26500Y-40300D01*
X26500Y-40300D02*
X26100Y-40300D01*
X26100Y-40300D02*
X26100Y-42700D01*
X26100Y-42700D02*
X26500Y-42700D01*
X26500Y-42700D02*
X26500Y-43000D01*
X26500Y-42700D02*
X26900Y-42700D01*
X26900Y-42700D02*
X26900Y-40300D01*
X26900Y-40300D02*
X26500Y-40300D01*
X26100Y-40500D02*
X26900Y-40500D01*
X26900Y-40600D02*
X26100Y-40600D01*
X37500Y-43000D02*
X37500Y-42700D01*
X37500Y-42700D02*
X37900Y-42700D01*
X37900Y-42700D02*
X37900Y-40300D01*
X37900Y-40300D02*
X37500Y-40300D01*
X37500Y-40300D02*
X37500Y-40000D01*
X37500Y-40300D02*
X37100Y-40300D01*
X37100Y-40300D02*
X37100Y-42700D01*
X37100Y-42700D02*
X37500Y-42700D01*
X37900Y-42500D02*
X37100Y-42500D01*
X37100Y-42400D02*
X37900Y-42400D01*
X63500Y-35500D02*
X63500Y-35100D01*
X63500Y-35100D02*
X63100Y-35100D01*
X63100Y-35100D02*
X63100Y-31900D01*
X63100Y-31900D02*
X63900Y-31900D01*
X63900Y-31900D02*
X63900Y-35100D01*
X63900Y-35100D02*
X63500Y-35100D01*
X63300Y-35100D02*
X63100Y-34900D01*
X63500Y-31500D02*
X63500Y-31900D01*
X62000Y-35500D02*
X62000Y-35100D01*
X62000Y-35100D02*
X61600Y-35100D01*
X61600Y-35100D02*
X61600Y-31900D01*
X61600Y-31900D02*
X62400Y-31900D01*
X62400Y-31900D02*
X62400Y-35100D01*
X62400Y-35100D02*
X62000Y-35100D01*
X61800Y-35100D02*
X61600Y-34900D01*
X62000Y-31500D02*
X62000Y-31900D01*
G54D15*
X52761Y-45804D02*
X53085Y-45804D01*
X53123Y-45785D01*
X53142Y-45766D01*
X53161Y-45728D01*
X53161Y-45652D01*
X53142Y-45614D01*
X53123Y-45595D01*
X53085Y-45576D01*
X52761Y-45576D01*
X52761Y-45423D02*
X52761Y-45176D01*
X52914Y-45309D01*
X52914Y-45252D01*
X52933Y-45214D01*
X52952Y-45195D01*
X52990Y-45176D01*
X53085Y-45176D01*
X53123Y-45195D01*
X53142Y-45214D01*
X53161Y-45252D01*
X53161Y-45366D01*
X53142Y-45404D01*
X53123Y-45423D01*
X47328Y-45261D02*
X47404Y-45261D01*
X47442Y-45280D01*
X47480Y-45319D01*
X47500Y-45395D01*
X47500Y-45528D01*
X47480Y-45604D01*
X47442Y-45642D01*
X47404Y-45661D01*
X47328Y-45661D01*
X47290Y-45642D01*
X47252Y-45604D01*
X47233Y-45528D01*
X47233Y-45395D01*
X47252Y-45319D01*
X47290Y-45280D01*
X47328Y-45261D01*
X47671Y-45661D02*
X47671Y-45261D01*
X47823Y-45261D01*
X47861Y-45280D01*
X47880Y-45300D01*
X47900Y-45338D01*
X47900Y-45395D01*
X47880Y-45433D01*
X47861Y-45452D01*
X47823Y-45471D01*
X47671Y-45471D01*
X48052Y-45547D02*
X48242Y-45547D01*
X48014Y-45661D02*
X48147Y-45261D01*
X48280Y-45661D01*
X48585Y-45395D02*
X48585Y-45661D01*
X48490Y-45242D02*
X48395Y-45528D01*
X48642Y-45528D01*
X48776Y-45300D02*
X48795Y-45280D01*
X48833Y-45261D01*
X48928Y-45261D01*
X48966Y-45280D01*
X48985Y-45300D01*
X49004Y-45338D01*
X49004Y-45376D01*
X48985Y-45433D01*
X48757Y-45661D01*
X49004Y-45661D01*
X49157Y-45300D02*
X49176Y-45280D01*
X49214Y-45261D01*
X49309Y-45261D01*
X49347Y-45280D01*
X49366Y-45300D01*
X49385Y-45338D01*
X49385Y-45376D01*
X49366Y-45433D01*
X49138Y-45661D01*
X49385Y-45661D01*
X49519Y-45261D02*
X49785Y-45261D01*
X49614Y-45661D01*
X59195Y-35261D02*
X59195Y-35585D01*
X59214Y-35623D01*
X59233Y-35642D01*
X59271Y-35661D01*
X59347Y-35661D01*
X59385Y-35642D01*
X59404Y-35623D01*
X59423Y-35585D01*
X59423Y-35261D01*
X59785Y-35395D02*
X59785Y-35661D01*
X59690Y-35242D02*
X59595Y-35528D01*
X59842Y-35528D01*
X59547Y-40866D02*
X59547Y-40676D01*
X59661Y-40904D02*
X59261Y-40771D01*
X59661Y-40638D01*
X59661Y-40504D02*
X59261Y-40504D01*
X59261Y-40409D01*
X59280Y-40352D01*
X59319Y-40314D01*
X59357Y-40295D01*
X59433Y-40276D01*
X59490Y-40276D01*
X59566Y-40295D01*
X59604Y-40314D01*
X59642Y-40352D01*
X59661Y-40409D01*
X59661Y-40504D01*
X59261Y-40142D02*
X59261Y-39876D01*
X59661Y-40047D01*
X59261Y-39761D02*
X59261Y-39514D01*
X59414Y-39647D01*
X59414Y-39590D01*
X59433Y-39552D01*
X59452Y-39533D01*
X59490Y-39514D01*
X59585Y-39514D01*
X59623Y-39533D01*
X59642Y-39552D01*
X59661Y-39590D01*
X59661Y-39704D01*
X59642Y-39742D01*
X59623Y-39761D01*
X59395Y-39171D02*
X59661Y-39171D01*
X59242Y-39266D02*
X59528Y-39361D01*
X59528Y-39114D01*
X64261Y-34304D02*
X64585Y-34304D01*
X64623Y-34285D01*
X64642Y-34266D01*
X64661Y-34228D01*
X64661Y-34152D01*
X64642Y-34114D01*
X64623Y-34095D01*
X64585Y-34076D01*
X64261Y-34076D01*
X64261Y-33695D02*
X64261Y-33885D01*
X64452Y-33904D01*
X64433Y-33885D01*
X64414Y-33847D01*
X64414Y-33752D01*
X64433Y-33714D01*
X64452Y-33695D01*
X64490Y-33676D01*
X64585Y-33676D01*
X64623Y-33695D01*
X64642Y-33714D01*
X64661Y-33752D01*
X64661Y-33847D01*
X64642Y-33885D01*
X64623Y-33904D01*
X65828Y-33761D02*
X65904Y-33761D01*
X65942Y-33780D01*
X65980Y-33819D01*
X66000Y-33895D01*
X66000Y-34028D01*
X65980Y-34104D01*
X65942Y-34142D01*
X65904Y-34161D01*
X65828Y-34161D01*
X65790Y-34142D01*
X65752Y-34104D01*
X65733Y-34028D01*
X65733Y-33895D01*
X65752Y-33819D01*
X65790Y-33780D01*
X65828Y-33761D01*
X66171Y-34161D02*
X66171Y-33761D01*
X66323Y-33761D01*
X66361Y-33780D01*
X66380Y-33800D01*
X66400Y-33838D01*
X66400Y-33895D01*
X66380Y-33933D01*
X66361Y-33952D01*
X66323Y-33971D01*
X66171Y-33971D01*
X66552Y-34047D02*
X66742Y-34047D01*
X66514Y-34161D02*
X66647Y-33761D01*
X66780Y-34161D01*
X66895Y-33800D02*
X66914Y-33780D01*
X66952Y-33761D01*
X67047Y-33761D01*
X67085Y-33780D01*
X67104Y-33800D01*
X67123Y-33838D01*
X67123Y-33876D01*
X67104Y-33933D01*
X66876Y-34161D01*
X67123Y-34161D01*
X67276Y-33800D02*
X67295Y-33780D01*
X67333Y-33761D01*
X67428Y-33761D01*
X67466Y-33780D01*
X67485Y-33800D01*
X67504Y-33838D01*
X67504Y-33876D01*
X67485Y-33933D01*
X67257Y-34161D01*
X67504Y-34161D01*
X67657Y-33800D02*
X67676Y-33780D01*
X67714Y-33761D01*
X67809Y-33761D01*
X67847Y-33780D01*
X67866Y-33800D01*
X67885Y-33838D01*
X67885Y-33876D01*
X67866Y-33933D01*
X67638Y-34161D01*
X67885Y-34161D01*
X68019Y-33761D02*
X68285Y-33761D01*
X68114Y-34161D01*
X54761Y-31804D02*
X55085Y-31804D01*
X55123Y-31785D01*
X55142Y-31766D01*
X55161Y-31728D01*
X55161Y-31652D01*
X55142Y-31614D01*
X55123Y-31595D01*
X55085Y-31576D01*
X54761Y-31576D01*
X55161Y-31176D02*
X55161Y-31404D01*
X55161Y-31290D02*
X54761Y-31290D01*
X54819Y-31328D01*
X54857Y-31366D01*
X54876Y-31404D01*
X51595Y-31547D02*
X51785Y-31547D01*
X51557Y-31661D02*
X51690Y-31261D01*
X51823Y-31661D01*
X51957Y-31661D02*
X51957Y-31261D01*
X52090Y-31547D01*
X52223Y-31261D01*
X52223Y-31661D01*
X52414Y-31661D02*
X52414Y-31261D01*
X52566Y-31261D01*
X52604Y-31280D01*
X52623Y-31300D01*
X52642Y-31338D01*
X52642Y-31395D01*
X52623Y-31433D01*
X52604Y-31452D01*
X52566Y-31471D01*
X52414Y-31471D01*
X52890Y-31261D02*
X52928Y-31261D01*
X52966Y-31280D01*
X52985Y-31300D01*
X53004Y-31338D01*
X53023Y-31414D01*
X53023Y-31509D01*
X53004Y-31585D01*
X52985Y-31623D01*
X52966Y-31642D01*
X52928Y-31661D01*
X52890Y-31661D01*
X52852Y-31642D01*
X52833Y-31623D01*
X52814Y-31585D01*
X52795Y-31509D01*
X52795Y-31414D01*
X52814Y-31338D01*
X52833Y-31300D01*
X52852Y-31280D01*
X52890Y-31261D01*
X53157Y-31261D02*
X53404Y-31261D01*
X53271Y-31414D01*
X53328Y-31414D01*
X53366Y-31433D01*
X53385Y-31452D01*
X53404Y-31490D01*
X53404Y-31585D01*
X53385Y-31623D01*
X53366Y-31642D01*
X53328Y-31661D01*
X53214Y-31661D01*
X53176Y-31642D01*
X53157Y-31623D01*
X46761Y-31804D02*
X47085Y-31804D01*
X47123Y-31785D01*
X47142Y-31766D01*
X47161Y-31728D01*
X47161Y-31652D01*
X47142Y-31614D01*
X47123Y-31595D01*
X47085Y-31576D01*
X46761Y-31576D01*
X46800Y-31404D02*
X46780Y-31385D01*
X46761Y-31347D01*
X46761Y-31252D01*
X46780Y-31214D01*
X46800Y-31195D01*
X46838Y-31176D01*
X46876Y-31176D01*
X46933Y-31195D01*
X47161Y-31423D01*
X47161Y-31176D01*
X43595Y-31547D02*
X43785Y-31547D01*
X43557Y-31661D02*
X43690Y-31261D01*
X43823Y-31661D01*
X43957Y-31661D02*
X43957Y-31261D01*
X44090Y-31547D01*
X44223Y-31261D01*
X44223Y-31661D01*
X44414Y-31661D02*
X44414Y-31261D01*
X44566Y-31261D01*
X44604Y-31280D01*
X44623Y-31300D01*
X44642Y-31338D01*
X44642Y-31395D01*
X44623Y-31433D01*
X44604Y-31452D01*
X44566Y-31471D01*
X44414Y-31471D01*
X44890Y-31261D02*
X44928Y-31261D01*
X44966Y-31280D01*
X44985Y-31300D01*
X45004Y-31338D01*
X45023Y-31414D01*
X45023Y-31509D01*
X45004Y-31585D01*
X44985Y-31623D01*
X44966Y-31642D01*
X44928Y-31661D01*
X44890Y-31661D01*
X44852Y-31642D01*
X44833Y-31623D01*
X44814Y-31585D01*
X44795Y-31509D01*
X44795Y-31414D01*
X44814Y-31338D01*
X44833Y-31300D01*
X44852Y-31280D01*
X44890Y-31261D01*
X45157Y-31261D02*
X45404Y-31261D01*
X45271Y-31414D01*
X45328Y-31414D01*
X45366Y-31433D01*
X45385Y-31452D01*
X45404Y-31490D01*
X45404Y-31585D01*
X45385Y-31623D01*
X45366Y-31642D01*
X45328Y-31661D01*
X45214Y-31661D01*
X45176Y-31642D01*
X45157Y-31623D01*
X37204Y-32161D02*
X37204Y-31761D01*
X37433Y-32161D02*
X37261Y-31933D01*
X37433Y-31761D02*
X37204Y-31990D01*
X37814Y-32161D02*
X37585Y-32161D01*
X37700Y-32161D02*
X37700Y-31761D01*
X37661Y-31819D01*
X37623Y-31857D01*
X37585Y-31876D01*
X36242Y-28161D02*
X36242Y-27761D01*
X36395Y-27761D01*
X36433Y-27780D01*
X36452Y-27800D01*
X36471Y-27838D01*
X36471Y-27895D01*
X36452Y-27933D01*
X36433Y-27952D01*
X36395Y-27971D01*
X36242Y-27971D01*
X36604Y-27761D02*
X36700Y-28161D01*
X36776Y-27876D01*
X36852Y-28161D01*
X36947Y-27761D01*
X37328Y-28161D02*
X37195Y-27971D01*
X37100Y-28161D02*
X37100Y-27761D01*
X37252Y-27761D01*
X37290Y-27780D01*
X37309Y-27800D01*
X37328Y-27838D01*
X37328Y-27895D01*
X37309Y-27933D01*
X37290Y-27952D01*
X37252Y-27971D01*
X37100Y-27971D01*
X37404Y-28200D02*
X37709Y-28200D01*
X37880Y-27761D02*
X37957Y-27761D01*
X37995Y-27780D01*
X38033Y-27819D01*
X38052Y-27895D01*
X38052Y-28028D01*
X38033Y-28104D01*
X37995Y-28142D01*
X37957Y-28161D01*
X37880Y-28161D01*
X37842Y-28142D01*
X37804Y-28104D01*
X37785Y-28028D01*
X37785Y-27895D01*
X37804Y-27819D01*
X37842Y-27780D01*
X37880Y-27761D01*
X38223Y-27761D02*
X38223Y-28085D01*
X38242Y-28123D01*
X38261Y-28142D01*
X38300Y-28161D01*
X38376Y-28161D01*
X38414Y-28142D01*
X38433Y-28123D01*
X38452Y-28085D01*
X38452Y-27761D01*
X38585Y-27761D02*
X38814Y-27761D01*
X38700Y-28161D02*
X38700Y-27761D01*
G54D16*
X38795Y-31009D02*
X39100Y-31009D01*
X38947Y-31161D02*
X38947Y-30857D01*
X39500Y-31161D02*
X39271Y-31161D01*
X39385Y-31161D02*
X39385Y-30761D01*
X39347Y-30819D01*
X39309Y-30857D01*
X39271Y-30876D01*
X39728Y-30933D02*
X39690Y-30914D01*
X39671Y-30895D01*
X39652Y-30857D01*
X39652Y-30838D01*
X39671Y-30800D01*
X39690Y-30780D01*
X39728Y-30761D01*
X39804Y-30761D01*
X39842Y-30780D01*
X39861Y-30800D01*
X39880Y-30838D01*
X39880Y-30857D01*
X39861Y-30895D01*
X39842Y-30914D01*
X39804Y-30933D01*
X39728Y-30933D01*
X39690Y-30952D01*
X39671Y-30971D01*
X39652Y-31009D01*
X39652Y-31085D01*
X39671Y-31123D01*
X39690Y-31142D01*
X39728Y-31161D01*
X39804Y-31161D01*
X39842Y-31142D01*
X39861Y-31123D01*
X39880Y-31085D01*
X39880Y-31009D01*
X39861Y-30971D01*
X39842Y-30952D01*
X39804Y-30933D01*
X39995Y-30761D02*
X40128Y-31161D01*
X40261Y-30761D01*
X39195Y-29780D02*
X39157Y-29761D01*
X39100Y-29761D01*
X39042Y-29780D01*
X39004Y-29819D01*
X38985Y-29857D01*
X38966Y-29933D01*
X38966Y-29990D01*
X38985Y-30066D01*
X39004Y-30104D01*
X39042Y-30142D01*
X39100Y-30161D01*
X39138Y-30161D01*
X39195Y-30142D01*
X39214Y-30123D01*
X39214Y-29990D01*
X39138Y-29990D01*
X39385Y-30161D02*
X39385Y-29761D01*
X39614Y-30161D01*
X39614Y-29761D01*
X39804Y-30161D02*
X39804Y-29761D01*
X39900Y-29761D01*
X39957Y-29780D01*
X39995Y-29819D01*
X40014Y-29857D01*
X40033Y-29933D01*
X40033Y-29990D01*
X40014Y-30066D01*
X39995Y-30104D01*
X39957Y-30142D01*
X39900Y-30161D01*
X39804Y-30161D01*
X38795Y-29009D02*
X39100Y-29009D01*
X39500Y-29161D02*
X39271Y-29161D01*
X39385Y-29161D02*
X39385Y-28761D01*
X39347Y-28819D01*
X39309Y-28857D01*
X39271Y-28876D01*
X39728Y-28933D02*
X39690Y-28914D01*
X39671Y-28895D01*
X39652Y-28857D01*
X39652Y-28838D01*
X39671Y-28800D01*
X39690Y-28780D01*
X39728Y-28761D01*
X39804Y-28761D01*
X39842Y-28780D01*
X39861Y-28800D01*
X39880Y-28838D01*
X39880Y-28857D01*
X39861Y-28895D01*
X39842Y-28914D01*
X39804Y-28933D01*
X39728Y-28933D01*
X39690Y-28952D01*
X39671Y-28971D01*
X39652Y-29009D01*
X39652Y-29085D01*
X39671Y-29123D01*
X39690Y-29142D01*
X39728Y-29161D01*
X39804Y-29161D01*
X39842Y-29142D01*
X39861Y-29123D01*
X39880Y-29085D01*
X39880Y-29009D01*
X39861Y-28971D01*
X39842Y-28952D01*
X39804Y-28933D01*
X39995Y-28761D02*
X40128Y-29161D01*
X40261Y-28761D01*
G54D15*
X26204Y-32161D02*
X26204Y-31761D01*
X26433Y-32161D02*
X26261Y-31933D01*
X26433Y-31761D02*
X26204Y-31990D01*
X26585Y-31800D02*
X26604Y-31780D01*
X26642Y-31761D01*
X26738Y-31761D01*
X26776Y-31780D01*
X26795Y-31800D01*
X26814Y-31838D01*
X26814Y-31876D01*
X26795Y-31933D01*
X26566Y-32161D01*
X26814Y-32161D01*
X25509Y-28161D02*
X25509Y-27761D01*
X25661Y-27761D01*
X25700Y-27780D01*
X25719Y-27800D01*
X25738Y-27838D01*
X25738Y-27895D01*
X25719Y-27933D01*
X25700Y-27952D01*
X25661Y-27971D01*
X25509Y-27971D01*
X25871Y-27761D02*
X25966Y-28161D01*
X26042Y-27876D01*
X26119Y-28161D01*
X26214Y-27761D01*
X26595Y-28161D02*
X26461Y-27971D01*
X26366Y-28161D02*
X26366Y-27761D01*
X26519Y-27761D01*
X26557Y-27780D01*
X26576Y-27800D01*
X26595Y-27838D01*
X26595Y-27895D01*
X26576Y-27933D01*
X26557Y-27952D01*
X26519Y-27971D01*
X26366Y-27971D01*
X26671Y-28200D02*
X26976Y-28200D01*
X27071Y-28161D02*
X27071Y-27761D01*
X27261Y-28161D02*
X27261Y-27761D01*
X27490Y-28161D01*
X27490Y-27761D01*
G54D16*
X23795Y-29009D02*
X24100Y-29009D01*
X23947Y-29161D02*
X23947Y-28857D01*
X24500Y-29161D02*
X24271Y-29161D01*
X24385Y-29161D02*
X24385Y-28761D01*
X24347Y-28819D01*
X24309Y-28857D01*
X24271Y-28876D01*
X24728Y-28933D02*
X24690Y-28914D01*
X24671Y-28895D01*
X24652Y-28857D01*
X24652Y-28838D01*
X24671Y-28800D01*
X24690Y-28780D01*
X24728Y-28761D01*
X24804Y-28761D01*
X24842Y-28780D01*
X24861Y-28800D01*
X24880Y-28838D01*
X24880Y-28857D01*
X24861Y-28895D01*
X24842Y-28914D01*
X24804Y-28933D01*
X24728Y-28933D01*
X24690Y-28952D01*
X24671Y-28971D01*
X24652Y-29009D01*
X24652Y-29085D01*
X24671Y-29123D01*
X24690Y-29142D01*
X24728Y-29161D01*
X24804Y-29161D01*
X24842Y-29142D01*
X24861Y-29123D01*
X24880Y-29085D01*
X24880Y-29009D01*
X24861Y-28971D01*
X24842Y-28952D01*
X24804Y-28933D01*
X24995Y-28761D02*
X25128Y-29161D01*
X25261Y-28761D01*
X24195Y-29780D02*
X24157Y-29761D01*
X24100Y-29761D01*
X24042Y-29780D01*
X24004Y-29819D01*
X23985Y-29857D01*
X23966Y-29933D01*
X23966Y-29990D01*
X23985Y-30066D01*
X24004Y-30104D01*
X24042Y-30142D01*
X24100Y-30161D01*
X24138Y-30161D01*
X24195Y-30142D01*
X24214Y-30123D01*
X24214Y-29990D01*
X24138Y-29990D01*
X24385Y-30161D02*
X24385Y-29761D01*
X24614Y-30161D01*
X24614Y-29761D01*
X24804Y-30161D02*
X24804Y-29761D01*
X24900Y-29761D01*
X24957Y-29780D01*
X24995Y-29819D01*
X25014Y-29857D01*
X25033Y-29933D01*
X25033Y-29990D01*
X25014Y-30066D01*
X24995Y-30104D01*
X24957Y-30142D01*
X24900Y-30161D01*
X24804Y-30161D01*
X23795Y-31009D02*
X24100Y-31009D01*
X24500Y-31161D02*
X24271Y-31161D01*
X24385Y-31161D02*
X24385Y-30761D01*
X24347Y-30819D01*
X24309Y-30857D01*
X24271Y-30876D01*
X24728Y-30933D02*
X24690Y-30914D01*
X24671Y-30895D01*
X24652Y-30857D01*
X24652Y-30838D01*
X24671Y-30800D01*
X24690Y-30780D01*
X24728Y-30761D01*
X24804Y-30761D01*
X24842Y-30780D01*
X24861Y-30800D01*
X24880Y-30838D01*
X24880Y-30857D01*
X24861Y-30895D01*
X24842Y-30914D01*
X24804Y-30933D01*
X24728Y-30933D01*
X24690Y-30952D01*
X24671Y-30971D01*
X24652Y-31009D01*
X24652Y-31085D01*
X24671Y-31123D01*
X24690Y-31142D01*
X24728Y-31161D01*
X24804Y-31161D01*
X24842Y-31142D01*
X24861Y-31123D01*
X24880Y-31085D01*
X24880Y-31009D01*
X24861Y-30971D01*
X24842Y-30952D01*
X24804Y-30933D01*
X24995Y-30761D02*
X25128Y-31161D01*
X25261Y-30761D01*
G54D15*
X27911Y-47295D02*
X27511Y-47295D01*
X27911Y-47066D02*
X27683Y-47238D01*
X27511Y-47066D02*
X27740Y-47295D01*
X27645Y-46723D02*
X27911Y-46723D01*
X27492Y-46819D02*
X27778Y-46914D01*
X27778Y-46666D01*
X28785Y-45661D02*
X28652Y-45471D01*
X28557Y-45661D02*
X28557Y-45261D01*
X28709Y-45261D01*
X28747Y-45280D01*
X28766Y-45300D01*
X28785Y-45338D01*
X28785Y-45395D01*
X28766Y-45433D01*
X28747Y-45452D01*
X28709Y-45471D01*
X28557Y-45471D01*
X28957Y-45452D02*
X29090Y-45452D01*
X29147Y-45661D02*
X28957Y-45661D01*
X28957Y-45261D01*
X29147Y-45261D01*
X29528Y-45280D02*
X29490Y-45261D01*
X29433Y-45261D01*
X29376Y-45280D01*
X29338Y-45319D01*
X29319Y-45357D01*
X29300Y-45433D01*
X29300Y-45490D01*
X29319Y-45566D01*
X29338Y-45604D01*
X29376Y-45642D01*
X29433Y-45661D01*
X29471Y-45661D01*
X29528Y-45642D01*
X29547Y-45623D01*
X29547Y-45490D01*
X29471Y-45490D01*
X29623Y-45700D02*
X29928Y-45700D01*
X30023Y-45661D02*
X30023Y-45261D01*
X30214Y-45661D02*
X30214Y-45261D01*
X30442Y-45661D01*
X30442Y-45261D01*
G54D16*
X28509Y-49704D02*
X28509Y-49400D01*
X28661Y-49552D02*
X28357Y-49552D01*
X28661Y-49000D02*
X28661Y-49228D01*
X28661Y-49114D02*
X28261Y-49114D01*
X28319Y-49152D01*
X28357Y-49190D01*
X28376Y-49228D01*
X28261Y-48638D02*
X28261Y-48828D01*
X28452Y-48847D01*
X28433Y-48828D01*
X28414Y-48790D01*
X28414Y-48695D01*
X28433Y-48657D01*
X28452Y-48638D01*
X28490Y-48619D01*
X28585Y-48619D01*
X28623Y-48638D01*
X28642Y-48657D01*
X28661Y-48695D01*
X28661Y-48790D01*
X28642Y-48828D01*
X28623Y-48847D01*
X28261Y-48504D02*
X28661Y-48371D01*
X28261Y-48238D01*
X29280Y-49304D02*
X29261Y-49342D01*
X29261Y-49400D01*
X29280Y-49457D01*
X29319Y-49495D01*
X29357Y-49514D01*
X29433Y-49533D01*
X29490Y-49533D01*
X29566Y-49514D01*
X29604Y-49495D01*
X29642Y-49457D01*
X29661Y-49400D01*
X29661Y-49361D01*
X29642Y-49304D01*
X29623Y-49285D01*
X29490Y-49285D01*
X29490Y-49361D01*
X29661Y-49114D02*
X29261Y-49114D01*
X29661Y-48885D01*
X29261Y-48885D01*
X29661Y-48695D02*
X29261Y-48695D01*
X29261Y-48599D01*
X29280Y-48542D01*
X29319Y-48504D01*
X29357Y-48485D01*
X29433Y-48466D01*
X29490Y-48466D01*
X29566Y-48485D01*
X29604Y-48504D01*
X29642Y-48542D01*
X29661Y-48599D01*
X29661Y-48695D01*
X30509Y-49704D02*
X30509Y-49400D01*
X30661Y-49000D02*
X30661Y-49228D01*
X30661Y-49114D02*
X30261Y-49114D01*
X30319Y-49152D01*
X30357Y-49190D01*
X30376Y-49228D01*
X30261Y-48638D02*
X30261Y-48828D01*
X30452Y-48847D01*
X30433Y-48828D01*
X30414Y-48790D01*
X30414Y-48695D01*
X30433Y-48657D01*
X30452Y-48638D01*
X30490Y-48619D01*
X30585Y-48619D01*
X30623Y-48638D01*
X30642Y-48657D01*
X30661Y-48695D01*
X30661Y-48790D01*
X30642Y-48828D01*
X30623Y-48847D01*
X30261Y-48504D02*
X30661Y-48371D01*
X30261Y-48238D01*
G54D15*
X32911Y-47295D02*
X32511Y-47295D01*
X32911Y-47066D02*
X32683Y-47238D01*
X32511Y-47066D02*
X32740Y-47295D01*
X32511Y-46933D02*
X32511Y-46685D01*
X32664Y-46819D01*
X32664Y-46761D01*
X32683Y-46723D01*
X32702Y-46704D01*
X32740Y-46685D01*
X32835Y-46685D01*
X32873Y-46704D01*
X32892Y-46723D01*
X32911Y-46761D01*
X32911Y-46876D01*
X32892Y-46914D01*
X32873Y-46933D01*
X33519Y-45661D02*
X33385Y-45471D01*
X33290Y-45661D02*
X33290Y-45261D01*
X33442Y-45261D01*
X33480Y-45280D01*
X33500Y-45300D01*
X33519Y-45338D01*
X33519Y-45395D01*
X33500Y-45433D01*
X33480Y-45452D01*
X33442Y-45471D01*
X33290Y-45471D01*
X33690Y-45452D02*
X33823Y-45452D01*
X33880Y-45661D02*
X33690Y-45661D01*
X33690Y-45261D01*
X33880Y-45261D01*
X34261Y-45280D02*
X34223Y-45261D01*
X34166Y-45261D01*
X34109Y-45280D01*
X34071Y-45319D01*
X34052Y-45357D01*
X34033Y-45433D01*
X34033Y-45490D01*
X34052Y-45566D01*
X34071Y-45604D01*
X34109Y-45642D01*
X34166Y-45661D01*
X34204Y-45661D01*
X34261Y-45642D01*
X34280Y-45623D01*
X34280Y-45490D01*
X34204Y-45490D01*
X34357Y-45700D02*
X34661Y-45700D01*
X34833Y-45261D02*
X34909Y-45261D01*
X34947Y-45280D01*
X34985Y-45319D01*
X35004Y-45395D01*
X35004Y-45528D01*
X34985Y-45604D01*
X34947Y-45642D01*
X34909Y-45661D01*
X34833Y-45661D01*
X34795Y-45642D01*
X34757Y-45604D01*
X34738Y-45528D01*
X34738Y-45395D01*
X34757Y-45319D01*
X34795Y-45280D01*
X34833Y-45261D01*
X35176Y-45261D02*
X35176Y-45585D01*
X35195Y-45623D01*
X35214Y-45642D01*
X35252Y-45661D01*
X35328Y-45661D01*
X35366Y-45642D01*
X35385Y-45623D01*
X35404Y-45585D01*
X35404Y-45261D01*
X35538Y-45261D02*
X35766Y-45261D01*
X35652Y-45661D02*
X35652Y-45261D01*
G54D16*
X33509Y-49704D02*
X33509Y-49400D01*
X33661Y-49552D02*
X33357Y-49552D01*
X33661Y-49000D02*
X33661Y-49228D01*
X33661Y-49114D02*
X33261Y-49114D01*
X33319Y-49152D01*
X33357Y-49190D01*
X33376Y-49228D01*
X33261Y-48638D02*
X33261Y-48828D01*
X33452Y-48847D01*
X33433Y-48828D01*
X33414Y-48790D01*
X33414Y-48695D01*
X33433Y-48657D01*
X33452Y-48638D01*
X33490Y-48619D01*
X33585Y-48619D01*
X33623Y-48638D01*
X33642Y-48657D01*
X33661Y-48695D01*
X33661Y-48790D01*
X33642Y-48828D01*
X33623Y-48847D01*
X33261Y-48504D02*
X33661Y-48371D01*
X33261Y-48238D01*
X34280Y-49304D02*
X34261Y-49342D01*
X34261Y-49400D01*
X34280Y-49457D01*
X34319Y-49495D01*
X34357Y-49514D01*
X34433Y-49533D01*
X34490Y-49533D01*
X34566Y-49514D01*
X34604Y-49495D01*
X34642Y-49457D01*
X34661Y-49400D01*
X34661Y-49361D01*
X34642Y-49304D01*
X34623Y-49285D01*
X34490Y-49285D01*
X34490Y-49361D01*
X34661Y-49114D02*
X34261Y-49114D01*
X34661Y-48885D01*
X34261Y-48885D01*
X34661Y-48695D02*
X34261Y-48695D01*
X34261Y-48599D01*
X34280Y-48542D01*
X34319Y-48504D01*
X34357Y-48485D01*
X34433Y-48466D01*
X34490Y-48466D01*
X34566Y-48485D01*
X34604Y-48504D01*
X34642Y-48542D01*
X34661Y-48599D01*
X34661Y-48695D01*
X35509Y-49704D02*
X35509Y-49400D01*
X35661Y-49000D02*
X35661Y-49228D01*
X35661Y-49114D02*
X35261Y-49114D01*
X35319Y-49152D01*
X35357Y-49190D01*
X35376Y-49228D01*
X35261Y-48638D02*
X35261Y-48828D01*
X35452Y-48847D01*
X35433Y-48828D01*
X35414Y-48790D01*
X35414Y-48695D01*
X35433Y-48657D01*
X35452Y-48638D01*
X35490Y-48619D01*
X35585Y-48619D01*
X35623Y-48638D01*
X35642Y-48657D01*
X35661Y-48695D01*
X35661Y-48790D01*
X35642Y-48828D01*
X35623Y-48847D01*
X35261Y-48504D02*
X35661Y-48371D01*
X35261Y-48238D01*
G54D15*
X46261Y-39161D02*
X46128Y-38971D01*
X46033Y-39161D02*
X46033Y-38761D01*
X46185Y-38761D01*
X46223Y-38780D01*
X46242Y-38800D01*
X46261Y-38838D01*
X46261Y-38895D01*
X46242Y-38933D01*
X46223Y-38952D01*
X46185Y-38971D01*
X46033Y-38971D01*
X46376Y-38761D02*
X46509Y-39161D01*
X46642Y-38761D01*
X46738Y-38761D02*
X46985Y-38761D01*
X46852Y-38914D01*
X46909Y-38914D01*
X46947Y-38933D01*
X46966Y-38952D01*
X46985Y-38990D01*
X46985Y-39085D01*
X46966Y-39123D01*
X46947Y-39142D01*
X46909Y-39161D01*
X46795Y-39161D01*
X46757Y-39142D01*
X46738Y-39123D01*
X43152Y-39161D02*
X43019Y-38971D01*
X42923Y-39161D02*
X42923Y-38761D01*
X43076Y-38761D01*
X43114Y-38780D01*
X43133Y-38800D01*
X43152Y-38838D01*
X43152Y-38895D01*
X43133Y-38933D01*
X43114Y-38952D01*
X43076Y-38971D01*
X42923Y-38971D01*
X43323Y-38952D02*
X43457Y-38952D01*
X43514Y-39161D02*
X43323Y-39161D01*
X43323Y-38761D01*
X43514Y-38761D01*
X43819Y-38952D02*
X43685Y-38952D01*
X43685Y-39161D02*
X43685Y-38761D01*
X43876Y-38761D01*
X43933Y-39200D02*
X44238Y-39200D01*
X44333Y-39161D02*
X44333Y-38761D01*
X44428Y-38761D01*
X44485Y-38780D01*
X44523Y-38819D01*
X44542Y-38857D01*
X44561Y-38933D01*
X44561Y-38990D01*
X44542Y-39066D01*
X44523Y-39104D01*
X44485Y-39142D01*
X44428Y-39161D01*
X44333Y-39161D01*
X44733Y-39161D02*
X44733Y-38761D01*
X44866Y-38761D02*
X45000Y-39161D01*
X45133Y-38761D01*
X54761Y-39161D02*
X54628Y-38971D01*
X54533Y-39161D02*
X54533Y-38761D01*
X54685Y-38761D01*
X54723Y-38780D01*
X54742Y-38800D01*
X54761Y-38838D01*
X54761Y-38895D01*
X54742Y-38933D01*
X54723Y-38952D01*
X54685Y-38971D01*
X54533Y-38971D01*
X54876Y-38761D02*
X55009Y-39161D01*
X55142Y-38761D01*
X55257Y-38800D02*
X55276Y-38780D01*
X55314Y-38761D01*
X55409Y-38761D01*
X55447Y-38780D01*
X55466Y-38800D01*
X55485Y-38838D01*
X55485Y-38876D01*
X55466Y-38933D01*
X55238Y-39161D01*
X55485Y-39161D01*
X51471Y-39142D02*
X51528Y-39161D01*
X51623Y-39161D01*
X51661Y-39142D01*
X51680Y-39123D01*
X51700Y-39085D01*
X51700Y-39047D01*
X51680Y-39009D01*
X51661Y-38990D01*
X51623Y-38971D01*
X51547Y-38952D01*
X51509Y-38933D01*
X51490Y-38914D01*
X51471Y-38876D01*
X51471Y-38838D01*
X51490Y-38800D01*
X51509Y-38780D01*
X51547Y-38761D01*
X51642Y-38761D01*
X51700Y-38780D01*
X51871Y-39161D02*
X51871Y-38761D01*
X52271Y-38780D02*
X52233Y-38761D01*
X52176Y-38761D01*
X52119Y-38780D01*
X52080Y-38819D01*
X52061Y-38857D01*
X52042Y-38933D01*
X52042Y-38990D01*
X52061Y-39066D01*
X52080Y-39104D01*
X52119Y-39142D01*
X52176Y-39161D01*
X52214Y-39161D01*
X52271Y-39142D01*
X52290Y-39123D01*
X52290Y-38990D01*
X52214Y-38990D01*
X52366Y-39200D02*
X52671Y-39200D01*
X52766Y-39161D02*
X52766Y-38761D01*
X52861Y-38761D01*
X52919Y-38780D01*
X52957Y-38819D01*
X52976Y-38857D01*
X52995Y-38933D01*
X52995Y-38990D01*
X52976Y-39066D01*
X52957Y-39104D01*
X52919Y-39142D01*
X52861Y-39161D01*
X52766Y-39161D01*
X53166Y-39161D02*
X53166Y-38761D01*
X53300Y-38761D02*
X53433Y-39161D01*
X53566Y-38761D01*
X70661Y-44138D02*
X70471Y-44271D01*
X70661Y-44366D02*
X70261Y-44366D01*
X70261Y-44214D01*
X70280Y-44176D01*
X70300Y-44157D01*
X70338Y-44138D01*
X70395Y-44138D01*
X70433Y-44157D01*
X70452Y-44176D01*
X70471Y-44214D01*
X70471Y-44366D01*
X70261Y-44023D02*
X70661Y-43890D01*
X70261Y-43757D01*
X70395Y-43452D02*
X70661Y-43452D01*
X70242Y-43547D02*
X70528Y-43642D01*
X70528Y-43395D01*
X66723Y-45661D02*
X66723Y-45261D01*
X66857Y-45547D01*
X66990Y-45261D01*
X66990Y-45661D01*
X67180Y-45261D02*
X67180Y-45585D01*
X67200Y-45623D01*
X67219Y-45642D01*
X67257Y-45661D01*
X67333Y-45661D01*
X67371Y-45642D01*
X67390Y-45623D01*
X67409Y-45585D01*
X67409Y-45261D01*
X67790Y-45661D02*
X67600Y-45661D01*
X67600Y-45261D01*
X67866Y-45261D02*
X68095Y-45261D01*
X67980Y-45661D02*
X67980Y-45261D01*
X68133Y-45700D02*
X68438Y-45700D01*
X68533Y-45661D02*
X68533Y-45261D01*
X68628Y-45261D01*
X68685Y-45280D01*
X68723Y-45319D01*
X68742Y-45357D01*
X68761Y-45433D01*
X68761Y-45490D01*
X68742Y-45566D01*
X68723Y-45604D01*
X68685Y-45642D01*
X68628Y-45661D01*
X68533Y-45661D01*
X68933Y-45661D02*
X68933Y-45261D01*
X69066Y-45261D02*
X69200Y-45661D01*
X69333Y-45261D01*
X56661Y-49238D02*
X56471Y-49371D01*
X56661Y-49466D02*
X56261Y-49466D01*
X56261Y-49314D01*
X56280Y-49276D01*
X56300Y-49257D01*
X56338Y-49238D01*
X56395Y-49238D01*
X56433Y-49257D01*
X56452Y-49276D01*
X56471Y-49314D01*
X56471Y-49466D01*
X56261Y-49123D02*
X56661Y-48990D01*
X56261Y-48857D01*
X56661Y-48514D02*
X56661Y-48742D01*
X56661Y-48628D02*
X56261Y-48628D01*
X56319Y-48666D01*
X56357Y-48704D01*
X56376Y-48742D01*
X61661Y-48857D02*
X61261Y-48857D01*
X61261Y-48704D01*
X61280Y-48666D01*
X61300Y-48647D01*
X61338Y-48628D01*
X61395Y-48628D01*
X61433Y-48647D01*
X61452Y-48666D01*
X61471Y-48704D01*
X61471Y-48857D01*
X61661Y-48457D02*
X61261Y-48457D01*
X61452Y-48457D02*
X61452Y-48228D01*
X61661Y-48228D02*
X61261Y-48228D01*
X61547Y-48057D02*
X61547Y-47866D01*
X61661Y-48095D02*
X61261Y-47961D01*
X61661Y-47828D01*
X61642Y-47714D02*
X61661Y-47657D01*
X61661Y-47561D01*
X61642Y-47523D01*
X61623Y-47504D01*
X61585Y-47485D01*
X61547Y-47485D01*
X61509Y-47504D01*
X61490Y-47523D01*
X61471Y-47561D01*
X61452Y-47638D01*
X61433Y-47676D01*
X61414Y-47695D01*
X61376Y-47714D01*
X61338Y-47714D01*
X61300Y-47695D01*
X61280Y-47676D01*
X61261Y-47638D01*
X61261Y-47542D01*
X61280Y-47485D01*
X61452Y-47314D02*
X61452Y-47180D01*
X61661Y-47123D02*
X61661Y-47314D01*
X61261Y-47314D01*
X61261Y-47123D01*
X38552Y-34161D02*
X38419Y-33971D01*
X38323Y-34161D02*
X38323Y-33761D01*
X38476Y-33761D01*
X38514Y-33780D01*
X38533Y-33800D01*
X38552Y-33838D01*
X38552Y-33895D01*
X38533Y-33933D01*
X38514Y-33952D01*
X38476Y-33971D01*
X38323Y-33971D01*
X38723Y-33952D02*
X38857Y-33952D01*
X38914Y-34161D02*
X38723Y-34161D01*
X38723Y-33761D01*
X38914Y-33761D01*
X39295Y-33780D02*
X39257Y-33761D01*
X39200Y-33761D01*
X39142Y-33780D01*
X39104Y-33819D01*
X39085Y-33857D01*
X39066Y-33933D01*
X39066Y-33990D01*
X39085Y-34066D01*
X39104Y-34104D01*
X39142Y-34142D01*
X39200Y-34161D01*
X39238Y-34161D01*
X39295Y-34142D01*
X39314Y-34123D01*
X39314Y-33990D01*
X39238Y-33990D01*
X39466Y-33800D02*
X39485Y-33780D01*
X39523Y-33761D01*
X39619Y-33761D01*
X39657Y-33780D01*
X39676Y-33800D01*
X39695Y-33838D01*
X39695Y-33876D01*
X39676Y-33933D01*
X39447Y-34161D01*
X39695Y-34161D01*
X40161Y-37719D02*
X40161Y-37909D01*
X39761Y-37909D01*
X40161Y-37585D02*
X39761Y-37585D01*
X40047Y-37452D01*
X39761Y-37319D01*
X40161Y-37319D01*
X39761Y-37166D02*
X39761Y-36900D01*
X40161Y-37071D01*
X40161Y-36728D02*
X40161Y-36652D01*
X40142Y-36614D01*
X40123Y-36595D01*
X40066Y-36557D01*
X39990Y-36538D01*
X39838Y-36538D01*
X39800Y-36557D01*
X39780Y-36576D01*
X39761Y-36614D01*
X39761Y-36690D01*
X39780Y-36728D01*
X39800Y-36747D01*
X39838Y-36766D01*
X39933Y-36766D01*
X39971Y-36747D01*
X39990Y-36728D01*
X40009Y-36690D01*
X40009Y-36614D01*
X39990Y-36576D01*
X39971Y-36557D01*
X39933Y-36538D01*
X40161Y-36157D02*
X40161Y-36385D01*
X40161Y-36271D02*
X39761Y-36271D01*
X39819Y-36309D01*
X39857Y-36347D01*
X39876Y-36385D01*
X39761Y-35795D02*
X39761Y-35985D01*
X39952Y-36004D01*
X39933Y-35985D01*
X39914Y-35947D01*
X39914Y-35852D01*
X39933Y-35814D01*
X39952Y-35795D01*
X39990Y-35776D01*
X40085Y-35776D01*
X40123Y-35795D01*
X40142Y-35814D01*
X40161Y-35852D01*
X40161Y-35947D01*
X40142Y-35985D01*
X40123Y-36004D01*
X40123Y-35376D02*
X40142Y-35395D01*
X40161Y-35452D01*
X40161Y-35490D01*
X40142Y-35547D01*
X40104Y-35585D01*
X40066Y-35604D01*
X39990Y-35623D01*
X39933Y-35623D01*
X39857Y-35604D01*
X39819Y-35585D01*
X39780Y-35547D01*
X39761Y-35490D01*
X39761Y-35452D01*
X39780Y-35395D01*
X39800Y-35376D01*
X39761Y-35261D02*
X39761Y-35033D01*
X40161Y-35147D02*
X39761Y-35147D01*
X24552Y-34161D02*
X24419Y-33971D01*
X24323Y-34161D02*
X24323Y-33761D01*
X24476Y-33761D01*
X24514Y-33780D01*
X24533Y-33800D01*
X24552Y-33838D01*
X24552Y-33895D01*
X24533Y-33933D01*
X24514Y-33952D01*
X24476Y-33971D01*
X24323Y-33971D01*
X24723Y-33952D02*
X24857Y-33952D01*
X24914Y-34161D02*
X24723Y-34161D01*
X24723Y-33761D01*
X24914Y-33761D01*
X25295Y-33780D02*
X25257Y-33761D01*
X25200Y-33761D01*
X25142Y-33780D01*
X25104Y-33819D01*
X25085Y-33857D01*
X25066Y-33933D01*
X25066Y-33990D01*
X25085Y-34066D01*
X25104Y-34104D01*
X25142Y-34142D01*
X25200Y-34161D01*
X25238Y-34161D01*
X25295Y-34142D01*
X25314Y-34123D01*
X25314Y-33990D01*
X25238Y-33990D01*
X25695Y-34161D02*
X25466Y-34161D01*
X25580Y-34161D02*
X25580Y-33761D01*
X25542Y-33819D01*
X25504Y-33857D01*
X25466Y-33876D01*
X24161Y-37890D02*
X24161Y-38080D01*
X23761Y-38080D01*
X24161Y-37757D02*
X23761Y-37757D01*
X24047Y-37623D01*
X23761Y-37490D01*
X24161Y-37490D01*
X23761Y-37338D02*
X23761Y-37071D01*
X24161Y-37242D01*
X23933Y-36861D02*
X23914Y-36899D01*
X23895Y-36919D01*
X23857Y-36938D01*
X23838Y-36938D01*
X23800Y-36919D01*
X23780Y-36899D01*
X23761Y-36861D01*
X23761Y-36785D01*
X23780Y-36747D01*
X23800Y-36728D01*
X23838Y-36709D01*
X23857Y-36709D01*
X23895Y-36728D01*
X23914Y-36747D01*
X23933Y-36785D01*
X23933Y-36861D01*
X23952Y-36899D01*
X23971Y-36919D01*
X24009Y-36938D01*
X24085Y-36938D01*
X24123Y-36919D01*
X24142Y-36899D01*
X24161Y-36861D01*
X24161Y-36785D01*
X24142Y-36747D01*
X24123Y-36728D01*
X24085Y-36709D01*
X24009Y-36709D01*
X23971Y-36728D01*
X23952Y-36747D01*
X23933Y-36785D01*
X24161Y-36328D02*
X24161Y-36557D01*
X24161Y-36442D02*
X23761Y-36442D01*
X23819Y-36480D01*
X23857Y-36519D01*
X23876Y-36557D01*
X23761Y-35966D02*
X23761Y-36157D01*
X23952Y-36176D01*
X23933Y-36157D01*
X23914Y-36119D01*
X23914Y-36023D01*
X23933Y-35985D01*
X23952Y-35966D01*
X23990Y-35947D01*
X24085Y-35947D01*
X24123Y-35966D01*
X24142Y-35985D01*
X24161Y-36023D01*
X24161Y-36119D01*
X24142Y-36157D01*
X24123Y-36176D01*
X24047Y-35795D02*
X24047Y-35604D01*
X24161Y-35833D02*
X23761Y-35699D01*
X24161Y-35566D01*
X24123Y-35204D02*
X24142Y-35223D01*
X24161Y-35280D01*
X24161Y-35319D01*
X24142Y-35376D01*
X24104Y-35414D01*
X24066Y-35433D01*
X23990Y-35452D01*
X23933Y-35452D01*
X23857Y-35433D01*
X23819Y-35414D01*
X23780Y-35376D01*
X23761Y-35319D01*
X23761Y-35280D01*
X23780Y-35223D01*
X23800Y-35204D01*
X23761Y-35090D02*
X23761Y-34861D01*
X24161Y-34976D02*
X23761Y-34976D01*
X57011Y-31061D02*
X57297Y-31061D01*
X57354Y-31080D01*
X57392Y-31119D01*
X57411Y-31176D01*
X57411Y-31214D01*
X57411Y-30871D02*
X57011Y-30871D01*
X57297Y-30738D01*
X57011Y-30604D01*
X57411Y-30604D01*
X57411Y-30414D02*
X57011Y-30414D01*
X57011Y-30261D01*
X57030Y-30223D01*
X57050Y-30204D01*
X57088Y-30185D01*
X57145Y-30185D01*
X57183Y-30204D01*
X57202Y-30223D01*
X57221Y-30261D01*
X57221Y-30414D01*
X57011Y-29842D02*
X57011Y-29919D01*
X57030Y-29957D01*
X57050Y-29976D01*
X57107Y-30014D01*
X57183Y-30033D01*
X57335Y-30033D01*
X57373Y-30014D01*
X57392Y-29995D01*
X57411Y-29957D01*
X57411Y-29880D01*
X57392Y-29842D01*
X57373Y-29823D01*
X57335Y-29804D01*
X57240Y-29804D01*
X57202Y-29823D01*
X57183Y-29842D01*
X57164Y-29880D01*
X57164Y-29957D01*
X57183Y-29995D01*
X57202Y-30014D01*
X57240Y-30033D01*
X57761Y-29411D02*
X57761Y-29011D01*
X57895Y-29297D01*
X58028Y-29011D01*
X58028Y-29411D01*
X58295Y-29011D02*
X58371Y-29011D01*
X58409Y-29030D01*
X58447Y-29069D01*
X58466Y-29145D01*
X58466Y-29278D01*
X58447Y-29354D01*
X58409Y-29392D01*
X58371Y-29411D01*
X58295Y-29411D01*
X58257Y-29392D01*
X58219Y-29354D01*
X58200Y-29278D01*
X58200Y-29145D01*
X58219Y-29069D01*
X58257Y-29030D01*
X58295Y-29011D01*
X58638Y-29411D02*
X58638Y-29011D01*
X58866Y-29411D01*
X58866Y-29011D01*
X58961Y-29450D02*
X59266Y-29450D01*
X59342Y-29392D02*
X59400Y-29411D01*
X59495Y-29411D01*
X59533Y-29392D01*
X59552Y-29373D01*
X59571Y-29335D01*
X59571Y-29297D01*
X59552Y-29259D01*
X59533Y-29240D01*
X59495Y-29221D01*
X59419Y-29202D01*
X59380Y-29183D01*
X59361Y-29164D01*
X59342Y-29126D01*
X59342Y-29088D01*
X59361Y-29050D01*
X59380Y-29030D01*
X59419Y-29011D01*
X59514Y-29011D01*
X59571Y-29030D01*
X59742Y-29202D02*
X59876Y-29202D01*
X59933Y-29411D02*
X59742Y-29411D01*
X59742Y-29011D01*
X59933Y-29011D01*
X60295Y-29411D02*
X60104Y-29411D01*
X60104Y-29011D01*
X60161Y-32957D02*
X59761Y-32957D01*
X60047Y-32823D01*
X59761Y-32690D01*
X60161Y-32690D01*
X59761Y-32499D02*
X60085Y-32499D01*
X60123Y-32480D01*
X60142Y-32461D01*
X60161Y-32423D01*
X60161Y-32347D01*
X60142Y-32309D01*
X60123Y-32290D01*
X60085Y-32271D01*
X59761Y-32271D01*
X60161Y-31890D02*
X60161Y-32080D01*
X59761Y-32080D01*
X59761Y-31814D02*
X59761Y-31585D01*
X60161Y-31699D02*
X59761Y-31699D01*
X59161Y-32478D02*
X58971Y-32611D01*
X59161Y-32707D02*
X58761Y-32707D01*
X58761Y-32554D01*
X58780Y-32516D01*
X58800Y-32497D01*
X58838Y-32478D01*
X58895Y-32478D01*
X58933Y-32497D01*
X58952Y-32516D01*
X58971Y-32554D01*
X58971Y-32707D01*
X58952Y-32307D02*
X58952Y-32173D01*
X59161Y-32116D02*
X59161Y-32307D01*
X58761Y-32307D01*
X58761Y-32116D01*
X58952Y-31811D02*
X58952Y-31945D01*
X59161Y-31945D02*
X58761Y-31945D01*
X58761Y-31754D01*
X58142Y-32659D02*
X58161Y-32602D01*
X58161Y-32507D01*
X58142Y-32469D01*
X58123Y-32450D01*
X58085Y-32430D01*
X58047Y-32430D01*
X58009Y-32450D01*
X57990Y-32469D01*
X57971Y-32507D01*
X57952Y-32583D01*
X57933Y-32621D01*
X57914Y-32640D01*
X57876Y-32659D01*
X57838Y-32659D01*
X57800Y-32640D01*
X57780Y-32621D01*
X57761Y-32583D01*
X57761Y-32488D01*
X57780Y-32430D01*
X58161Y-32259D02*
X57761Y-32259D01*
X57780Y-31859D02*
X57761Y-31897D01*
X57761Y-31954D01*
X57780Y-32011D01*
X57819Y-32049D01*
X57857Y-32069D01*
X57933Y-32088D01*
X57990Y-32088D01*
X58066Y-32069D01*
X58104Y-32049D01*
X58142Y-32011D01*
X58161Y-31954D01*
X58161Y-31916D01*
X58142Y-31859D01*
X58123Y-31840D01*
X57990Y-31840D01*
X57990Y-31916D01*
X66938Y-40011D02*
X66938Y-40297D01*
X66919Y-40354D01*
X66880Y-40392D01*
X66823Y-40411D01*
X66785Y-40411D01*
X67128Y-40411D02*
X67128Y-40011D01*
X67261Y-40297D01*
X67395Y-40011D01*
X67395Y-40411D01*
X67585Y-40411D02*
X67585Y-40011D01*
X67738Y-40011D01*
X67776Y-40030D01*
X67795Y-40050D01*
X67814Y-40088D01*
X67814Y-40145D01*
X67795Y-40183D01*
X67776Y-40202D01*
X67738Y-40221D01*
X67585Y-40221D01*
X68042Y-40183D02*
X68004Y-40164D01*
X67985Y-40145D01*
X67966Y-40107D01*
X67966Y-40088D01*
X67985Y-40050D01*
X68004Y-40030D01*
X68042Y-40011D01*
X68119Y-40011D01*
X68157Y-40030D01*
X68176Y-40050D01*
X68195Y-40088D01*
X68195Y-40107D01*
X68176Y-40145D01*
X68157Y-40164D01*
X68119Y-40183D01*
X68042Y-40183D01*
X68004Y-40202D01*
X67985Y-40221D01*
X67966Y-40259D01*
X67966Y-40335D01*
X67985Y-40373D01*
X68004Y-40392D01*
X68042Y-40411D01*
X68119Y-40411D01*
X68157Y-40392D01*
X68176Y-40373D01*
X68195Y-40335D01*
X68195Y-40259D01*
X68176Y-40221D01*
X68157Y-40202D01*
X68119Y-40183D01*
X68438Y-31261D02*
X68438Y-31547D01*
X68419Y-31604D01*
X68380Y-31642D01*
X68323Y-31661D01*
X68285Y-31661D01*
X68628Y-31661D02*
X68628Y-31261D01*
X68761Y-31547D01*
X68895Y-31261D01*
X68895Y-31661D01*
X69085Y-31661D02*
X69085Y-31261D01*
X69238Y-31261D01*
X69276Y-31280D01*
X69295Y-31300D01*
X69314Y-31338D01*
X69314Y-31395D01*
X69295Y-31433D01*
X69276Y-31452D01*
X69238Y-31471D01*
X69085Y-31471D01*
X69447Y-31261D02*
X69714Y-31261D01*
X69542Y-31661D01*
X70009Y-29723D02*
X70009Y-29419D01*
X70161Y-29571D02*
X69857Y-29571D01*
X69761Y-29152D02*
X69761Y-29076D01*
X69780Y-29038D01*
X69819Y-29000D01*
X69895Y-28980D01*
X70028Y-28980D01*
X70104Y-29000D01*
X70142Y-29038D01*
X70161Y-29076D01*
X70161Y-29152D01*
X70142Y-29190D01*
X70104Y-29228D01*
X70028Y-29247D01*
X69895Y-29247D01*
X69819Y-29228D01*
X69780Y-29190D01*
X69761Y-29152D01*
X69761Y-28809D02*
X70085Y-28809D01*
X70123Y-28790D01*
X70142Y-28771D01*
X70161Y-28733D01*
X70161Y-28657D01*
X70142Y-28619D01*
X70123Y-28600D01*
X70085Y-28580D01*
X69761Y-28580D01*
X69761Y-28447D02*
X69761Y-28219D01*
X70161Y-28333D02*
X69761Y-28333D01*
X68009Y-29723D02*
X68009Y-29419D01*
X67761Y-29152D02*
X67761Y-29076D01*
X67780Y-29038D01*
X67819Y-29000D01*
X67895Y-28980D01*
X68028Y-28980D01*
X68104Y-29000D01*
X68142Y-29038D01*
X68161Y-29076D01*
X68161Y-29152D01*
X68142Y-29190D01*
X68104Y-29228D01*
X68028Y-29247D01*
X67895Y-29247D01*
X67819Y-29228D01*
X67780Y-29190D01*
X67761Y-29152D01*
X67761Y-28809D02*
X68085Y-28809D01*
X68123Y-28790D01*
X68142Y-28771D01*
X68161Y-28733D01*
X68161Y-28657D01*
X68142Y-28619D01*
X68123Y-28600D01*
X68085Y-28580D01*
X67761Y-28580D01*
X67761Y-28447D02*
X67761Y-28219D01*
X68161Y-28333D02*
X67761Y-28333D01*
X68761Y-29585D02*
X68761Y-29509D01*
X68780Y-29471D01*
X68819Y-29433D01*
X68895Y-29414D01*
X69028Y-29414D01*
X69104Y-29433D01*
X69142Y-29471D01*
X69161Y-29509D01*
X69161Y-29585D01*
X69142Y-29623D01*
X69104Y-29661D01*
X69028Y-29680D01*
X68895Y-29680D01*
X68819Y-29661D01*
X68780Y-29623D01*
X68761Y-29585D01*
X68761Y-29242D02*
X69085Y-29242D01*
X69123Y-29223D01*
X69142Y-29204D01*
X69161Y-29166D01*
X69161Y-29090D01*
X69142Y-29052D01*
X69123Y-29033D01*
X69085Y-29014D01*
X68761Y-29014D01*
X68761Y-28880D02*
X68761Y-28652D01*
X69161Y-28766D02*
X68761Y-28766D01*
X69200Y-28614D02*
X69200Y-28309D01*
X69142Y-28233D02*
X69161Y-28176D01*
X69161Y-28080D01*
X69142Y-28042D01*
X69123Y-28023D01*
X69085Y-28004D01*
X69047Y-28004D01*
X69009Y-28023D01*
X68990Y-28042D01*
X68971Y-28080D01*
X68952Y-28157D01*
X68933Y-28195D01*
X68914Y-28214D01*
X68876Y-28233D01*
X68838Y-28233D01*
X68800Y-28214D01*
X68780Y-28195D01*
X68761Y-28157D01*
X68761Y-28061D01*
X68780Y-28004D01*
X68952Y-27833D02*
X68952Y-27700D01*
X69161Y-27642D02*
X69161Y-27833D01*
X68761Y-27833D01*
X68761Y-27642D01*
X69161Y-27280D02*
X69161Y-27471D01*
X68761Y-27471D01*
X32683Y-35373D02*
X32664Y-35392D01*
X32607Y-35411D01*
X32569Y-35411D01*
X32511Y-35392D01*
X32473Y-35354D01*
X32454Y-35316D01*
X32435Y-35240D01*
X32435Y-35183D01*
X32454Y-35107D01*
X32473Y-35069D01*
X32511Y-35030D01*
X32569Y-35011D01*
X32607Y-35011D01*
X32664Y-35030D01*
X32683Y-35050D01*
X33026Y-35011D02*
X32950Y-35011D01*
X32911Y-35030D01*
X32892Y-35050D01*
X32854Y-35107D01*
X32835Y-35183D01*
X32835Y-35335D01*
X32854Y-35373D01*
X32873Y-35392D01*
X32911Y-35411D01*
X32988Y-35411D01*
X33026Y-35392D01*
X33045Y-35373D01*
X33064Y-35335D01*
X33064Y-35240D01*
X33045Y-35202D01*
X33026Y-35183D01*
X32988Y-35164D01*
X32911Y-35164D01*
X32873Y-35183D01*
X32854Y-35202D01*
X32835Y-35240D01*
X33842Y-36895D02*
X33842Y-37161D01*
X33747Y-36742D02*
X33652Y-37028D01*
X33900Y-37028D01*
X34014Y-36761D02*
X34280Y-36761D01*
X34109Y-37161D01*
X34509Y-36761D02*
X34547Y-36761D01*
X34585Y-36780D01*
X34604Y-36800D01*
X34623Y-36838D01*
X34642Y-36914D01*
X34642Y-37009D01*
X34623Y-37085D01*
X34604Y-37123D01*
X34585Y-37142D01*
X34547Y-37161D01*
X34509Y-37161D01*
X34471Y-37142D01*
X34452Y-37123D01*
X34433Y-37085D01*
X34414Y-37009D01*
X34414Y-36914D01*
X34433Y-36838D01*
X34452Y-36800D01*
X34471Y-36780D01*
X34509Y-36761D01*
X34985Y-36895D02*
X34985Y-37161D01*
X34814Y-36895D02*
X34814Y-37104D01*
X34833Y-37142D01*
X34871Y-37161D01*
X34928Y-37161D01*
X34966Y-37142D01*
X34985Y-37123D01*
X35309Y-36952D02*
X35176Y-36952D01*
X35176Y-37161D02*
X35176Y-36761D01*
X35366Y-36761D01*
X27683Y-35373D02*
X27664Y-35392D01*
X27607Y-35411D01*
X27569Y-35411D01*
X27511Y-35392D01*
X27473Y-35354D01*
X27454Y-35316D01*
X27435Y-35240D01*
X27435Y-35183D01*
X27454Y-35107D01*
X27473Y-35069D01*
X27511Y-35030D01*
X27569Y-35011D01*
X27607Y-35011D01*
X27664Y-35030D01*
X27683Y-35050D01*
X28045Y-35011D02*
X27854Y-35011D01*
X27835Y-35202D01*
X27854Y-35183D01*
X27892Y-35164D01*
X27988Y-35164D01*
X28026Y-35183D01*
X28045Y-35202D01*
X28064Y-35240D01*
X28064Y-35335D01*
X28045Y-35373D01*
X28026Y-35392D01*
X27988Y-35411D01*
X27892Y-35411D01*
X27854Y-35392D01*
X27835Y-35373D01*
X28842Y-36895D02*
X28842Y-37161D01*
X28747Y-36742D02*
X28652Y-37028D01*
X28900Y-37028D01*
X29014Y-36761D02*
X29280Y-36761D01*
X29109Y-37161D01*
X29509Y-36761D02*
X29547Y-36761D01*
X29585Y-36780D01*
X29604Y-36800D01*
X29623Y-36838D01*
X29642Y-36914D01*
X29642Y-37009D01*
X29623Y-37085D01*
X29604Y-37123D01*
X29585Y-37142D01*
X29547Y-37161D01*
X29509Y-37161D01*
X29471Y-37142D01*
X29452Y-37123D01*
X29433Y-37085D01*
X29414Y-37009D01*
X29414Y-36914D01*
X29433Y-36838D01*
X29452Y-36800D01*
X29471Y-36780D01*
X29509Y-36761D01*
X29985Y-36895D02*
X29985Y-37161D01*
X29814Y-36895D02*
X29814Y-37104D01*
X29833Y-37142D01*
X29871Y-37161D01*
X29928Y-37161D01*
X29966Y-37142D01*
X29985Y-37123D01*
X30309Y-36952D02*
X30176Y-36952D01*
X30176Y-37161D02*
X30176Y-36761D01*
X30366Y-36761D01*
X36183Y-40123D02*
X36164Y-40142D01*
X36107Y-40161D01*
X36069Y-40161D01*
X36011Y-40142D01*
X35973Y-40104D01*
X35954Y-40066D01*
X35935Y-39990D01*
X35935Y-39933D01*
X35954Y-39857D01*
X35973Y-39819D01*
X36011Y-39780D01*
X36069Y-39761D01*
X36107Y-39761D01*
X36164Y-39780D01*
X36183Y-39800D01*
X36411Y-39933D02*
X36373Y-39914D01*
X36354Y-39895D01*
X36335Y-39857D01*
X36335Y-39838D01*
X36354Y-39800D01*
X36373Y-39780D01*
X36411Y-39761D01*
X36488Y-39761D01*
X36526Y-39780D01*
X36545Y-39800D01*
X36564Y-39838D01*
X36564Y-39857D01*
X36545Y-39895D01*
X36526Y-39914D01*
X36488Y-39933D01*
X36411Y-39933D01*
X36373Y-39952D01*
X36354Y-39971D01*
X36335Y-40009D01*
X36335Y-40085D01*
X36354Y-40123D01*
X36373Y-40142D01*
X36411Y-40161D01*
X36488Y-40161D01*
X36526Y-40142D01*
X36545Y-40123D01*
X36564Y-40085D01*
X36564Y-40009D01*
X36545Y-39971D01*
X36526Y-39952D01*
X36488Y-39933D01*
X34661Y-41928D02*
X34661Y-42157D01*
X34661Y-42042D02*
X34261Y-42042D01*
X34319Y-42080D01*
X34357Y-42119D01*
X34376Y-42157D01*
X34261Y-41680D02*
X34261Y-41642D01*
X34280Y-41604D01*
X34300Y-41585D01*
X34338Y-41566D01*
X34414Y-41547D01*
X34509Y-41547D01*
X34585Y-41566D01*
X34623Y-41585D01*
X34642Y-41604D01*
X34661Y-41642D01*
X34661Y-41680D01*
X34642Y-41719D01*
X34623Y-41738D01*
X34585Y-41757D01*
X34509Y-41776D01*
X34414Y-41776D01*
X34338Y-41757D01*
X34300Y-41738D01*
X34280Y-41719D01*
X34261Y-41680D01*
X34395Y-41204D02*
X34661Y-41204D01*
X34395Y-41376D02*
X34604Y-41376D01*
X34642Y-41357D01*
X34661Y-41319D01*
X34661Y-41261D01*
X34642Y-41223D01*
X34623Y-41204D01*
X34452Y-40880D02*
X34452Y-41014D01*
X34661Y-41014D02*
X34261Y-41014D01*
X34261Y-40823D01*
G54D14*
X32921Y-41464D02*
X33378Y-41464D01*
X33150Y-41692D02*
X33150Y-41235D01*
G54D15*
X31183Y-40123D02*
X31164Y-40142D01*
X31107Y-40161D01*
X31069Y-40161D01*
X31011Y-40142D01*
X30973Y-40104D01*
X30954Y-40066D01*
X30935Y-39990D01*
X30935Y-39933D01*
X30954Y-39857D01*
X30973Y-39819D01*
X31011Y-39780D01*
X31069Y-39761D01*
X31107Y-39761D01*
X31164Y-39780D01*
X31183Y-39800D01*
X31316Y-39761D02*
X31583Y-39761D01*
X31411Y-40161D01*
X29661Y-41928D02*
X29661Y-42157D01*
X29661Y-42042D02*
X29261Y-42042D01*
X29319Y-42080D01*
X29357Y-42119D01*
X29376Y-42157D01*
X29261Y-41680D02*
X29261Y-41642D01*
X29280Y-41604D01*
X29300Y-41585D01*
X29338Y-41566D01*
X29414Y-41547D01*
X29509Y-41547D01*
X29585Y-41566D01*
X29623Y-41585D01*
X29642Y-41604D01*
X29661Y-41642D01*
X29661Y-41680D01*
X29642Y-41719D01*
X29623Y-41738D01*
X29585Y-41757D01*
X29509Y-41776D01*
X29414Y-41776D01*
X29338Y-41757D01*
X29300Y-41738D01*
X29280Y-41719D01*
X29261Y-41680D01*
X29395Y-41204D02*
X29661Y-41204D01*
X29395Y-41376D02*
X29604Y-41376D01*
X29642Y-41357D01*
X29661Y-41319D01*
X29661Y-41261D01*
X29642Y-41223D01*
X29623Y-41204D01*
X29452Y-40880D02*
X29452Y-41014D01*
X29661Y-41014D02*
X29261Y-41014D01*
X29261Y-40823D01*
G54D14*
X27921Y-41464D02*
X28378Y-41464D01*
X28150Y-41692D02*
X28150Y-41235D01*
G54D15*
X41438Y-48261D02*
X41438Y-48547D01*
X41419Y-48604D01*
X41380Y-48642D01*
X41323Y-48661D01*
X41285Y-48661D01*
X41628Y-48661D02*
X41628Y-48261D01*
X41761Y-48547D01*
X41895Y-48261D01*
X41895Y-48661D01*
X42085Y-48661D02*
X42085Y-48261D01*
X42238Y-48261D01*
X42276Y-48280D01*
X42295Y-48300D01*
X42314Y-48338D01*
X42314Y-48395D01*
X42295Y-48433D01*
X42276Y-48452D01*
X42238Y-48471D01*
X42085Y-48471D01*
X42447Y-48261D02*
X42695Y-48261D01*
X42561Y-48414D01*
X42619Y-48414D01*
X42657Y-48433D01*
X42676Y-48452D01*
X42695Y-48490D01*
X42695Y-48585D01*
X42676Y-48623D01*
X42657Y-48642D01*
X42619Y-48661D01*
X42504Y-48661D01*
X42466Y-48642D01*
X42447Y-48623D01*
X42792Y-46642D02*
X42850Y-46661D01*
X42945Y-46661D01*
X42983Y-46642D01*
X43002Y-46623D01*
X43021Y-46585D01*
X43021Y-46547D01*
X43002Y-46509D01*
X42983Y-46490D01*
X42945Y-46471D01*
X42869Y-46452D01*
X42830Y-46433D01*
X42811Y-46414D01*
X42792Y-46376D01*
X42792Y-46338D01*
X42811Y-46300D01*
X42830Y-46280D01*
X42869Y-46261D01*
X42964Y-46261D01*
X43021Y-46280D01*
X43192Y-46452D02*
X43326Y-46452D01*
X43383Y-46661D02*
X43192Y-46661D01*
X43192Y-46261D01*
X43383Y-46261D01*
X43745Y-46661D02*
X43554Y-46661D01*
X43554Y-46261D01*
X42795Y-45509D02*
X43100Y-45509D01*
X42947Y-45661D02*
X42947Y-45357D01*
X43519Y-45661D02*
X43385Y-45471D01*
X43290Y-45661D02*
X43290Y-45261D01*
X43442Y-45261D01*
X43480Y-45280D01*
X43500Y-45300D01*
X43519Y-45338D01*
X43519Y-45395D01*
X43500Y-45433D01*
X43480Y-45452D01*
X43442Y-45471D01*
X43290Y-45471D01*
X43690Y-45452D02*
X43823Y-45452D01*
X43880Y-45661D02*
X43690Y-45661D01*
X43690Y-45261D01*
X43880Y-45261D01*
X44185Y-45452D02*
X44052Y-45452D01*
X44052Y-45661D02*
X44052Y-45261D01*
X44242Y-45261D01*
X42795Y-47509D02*
X43100Y-47509D01*
X43519Y-47661D02*
X43385Y-47471D01*
X43290Y-47661D02*
X43290Y-47261D01*
X43442Y-47261D01*
X43480Y-47280D01*
X43500Y-47300D01*
X43519Y-47338D01*
X43519Y-47395D01*
X43500Y-47433D01*
X43480Y-47452D01*
X43442Y-47471D01*
X43290Y-47471D01*
X43690Y-47452D02*
X43823Y-47452D01*
X43880Y-47661D02*
X43690Y-47661D01*
X43690Y-47261D01*
X43880Y-47261D01*
X44185Y-47452D02*
X44052Y-47452D01*
X44052Y-47661D02*
X44052Y-47261D01*
X44242Y-47261D01*
X67261Y-48061D02*
X67547Y-48061D01*
X67604Y-48080D01*
X67642Y-48119D01*
X67661Y-48176D01*
X67661Y-48214D01*
X67661Y-47871D02*
X67261Y-47871D01*
X67547Y-47738D01*
X67261Y-47604D01*
X67661Y-47604D01*
X67661Y-47414D02*
X67261Y-47414D01*
X67261Y-47261D01*
X67280Y-47223D01*
X67300Y-47204D01*
X67338Y-47185D01*
X67395Y-47185D01*
X67433Y-47204D01*
X67452Y-47223D01*
X67471Y-47261D01*
X67471Y-47414D01*
X67395Y-46842D02*
X67661Y-46842D01*
X67242Y-46938D02*
X67528Y-47033D01*
X67528Y-46785D01*
X62761Y-39061D02*
X63047Y-39061D01*
X63104Y-39080D01*
X63142Y-39119D01*
X63161Y-39176D01*
X63161Y-39214D01*
X63161Y-38871D02*
X62761Y-38871D01*
X63047Y-38738D01*
X62761Y-38604D01*
X63161Y-38604D01*
X63161Y-38414D02*
X62761Y-38414D01*
X62761Y-38261D01*
X62780Y-38223D01*
X62800Y-38204D01*
X62838Y-38185D01*
X62895Y-38185D01*
X62933Y-38204D01*
X62952Y-38223D01*
X62971Y-38261D01*
X62971Y-38414D01*
X62761Y-37823D02*
X62761Y-38014D01*
X62952Y-38033D01*
X62933Y-38014D01*
X62914Y-37976D01*
X62914Y-37880D01*
X62933Y-37842D01*
X62952Y-37823D01*
X62990Y-37804D01*
X63085Y-37804D01*
X63123Y-37823D01*
X63142Y-37842D01*
X63161Y-37880D01*
X63161Y-37976D01*
X63142Y-38014D01*
X63123Y-38033D01*
X56761Y-41561D02*
X57047Y-41561D01*
X57104Y-41580D01*
X57142Y-41619D01*
X57161Y-41676D01*
X57161Y-41714D01*
X57161Y-41371D02*
X56761Y-41371D01*
X57047Y-41238D01*
X56761Y-41104D01*
X57161Y-41104D01*
X57161Y-40914D02*
X56761Y-40914D01*
X56761Y-40761D01*
X56780Y-40723D01*
X56800Y-40704D01*
X56838Y-40685D01*
X56895Y-40685D01*
X56933Y-40704D01*
X56952Y-40723D01*
X56971Y-40761D01*
X56971Y-40914D01*
X57161Y-40304D02*
X57161Y-40533D01*
X57161Y-40419D02*
X56761Y-40419D01*
X56819Y-40457D01*
X56857Y-40495D01*
X56876Y-40533D01*
X39761Y-41561D02*
X40047Y-41561D01*
X40104Y-41580D01*
X40142Y-41619D01*
X40161Y-41676D01*
X40161Y-41714D01*
X40161Y-41371D02*
X39761Y-41371D01*
X40047Y-41238D01*
X39761Y-41104D01*
X40161Y-41104D01*
X40161Y-40914D02*
X39761Y-40914D01*
X39761Y-40761D01*
X39780Y-40723D01*
X39800Y-40704D01*
X39838Y-40685D01*
X39895Y-40685D01*
X39933Y-40704D01*
X39952Y-40723D01*
X39971Y-40761D01*
X39971Y-40914D01*
X39800Y-40533D02*
X39780Y-40514D01*
X39761Y-40476D01*
X39761Y-40380D01*
X39780Y-40342D01*
X39800Y-40323D01*
X39838Y-40304D01*
X39876Y-40304D01*
X39933Y-40323D01*
X40161Y-40552D01*
X40161Y-40304D01*
G54D14*
X47557Y-28742D02*
X47557Y-28142D01*
X47785Y-28142D01*
X47842Y-28171D01*
X47871Y-28200D01*
X47900Y-28257D01*
X47900Y-28342D01*
X47871Y-28400D01*
X47842Y-28428D01*
X47785Y-28457D01*
X47557Y-28457D01*
X48471Y-28742D02*
X48128Y-28742D01*
X48300Y-28742D02*
X48300Y-28142D01*
X48242Y-28228D01*
X48185Y-28285D01*
X48128Y-28314D01*
X54214Y-26299D02*
X54242Y-26214D01*
X54242Y-26071D01*
X54214Y-26014D01*
X54185Y-25985D01*
X54128Y-25957D01*
X54071Y-25957D01*
X54014Y-25985D01*
X53985Y-26014D01*
X53957Y-26071D01*
X53928Y-26185D01*
X53900Y-26242D01*
X53871Y-26271D01*
X53814Y-26299D01*
X53757Y-26299D01*
X53700Y-26271D01*
X53671Y-26242D01*
X53642Y-26185D01*
X53642Y-26042D01*
X53671Y-25957D01*
X54242Y-25699D02*
X53642Y-25699D01*
X53671Y-25099D02*
X53642Y-25157D01*
X53642Y-25242D01*
X53671Y-25328D01*
X53728Y-25385D01*
X53785Y-25414D01*
X53900Y-25442D01*
X53985Y-25442D01*
X54100Y-25414D01*
X54157Y-25385D01*
X54214Y-25328D01*
X54242Y-25242D01*
X54242Y-25185D01*
X54214Y-25099D01*
X54185Y-25071D01*
X53985Y-25071D01*
X53985Y-25185D01*
X54300Y-24957D02*
X54300Y-24499D01*
X54242Y-24357D02*
X53642Y-24357D01*
X54242Y-24071D02*
X53642Y-24071D01*
X54242Y-23728D01*
X53642Y-23728D01*
X25550Y-26142D02*
X25550Y-26571D01*
X25521Y-26657D01*
X25464Y-26714D01*
X25378Y-26742D01*
X25321Y-26742D01*
X26150Y-26742D02*
X25807Y-26742D01*
X25978Y-26742D02*
X25978Y-26142D01*
X25921Y-26228D01*
X25864Y-26285D01*
X25807Y-26314D01*
X39492Y-25985D02*
X38892Y-25985D01*
X38892Y-25757D01*
X38921Y-25700D01*
X38950Y-25671D01*
X39007Y-25642D01*
X39092Y-25642D01*
X39150Y-25671D01*
X39178Y-25700D01*
X39207Y-25757D01*
X39207Y-25985D01*
X38892Y-25442D02*
X39492Y-25300D01*
X39064Y-25185D01*
X39492Y-25071D01*
X38892Y-24928D01*
X39492Y-24357D02*
X39207Y-24557D01*
X39492Y-24700D02*
X38892Y-24700D01*
X38892Y-24471D01*
X38921Y-24414D01*
X38950Y-24385D01*
X39007Y-24357D01*
X39092Y-24357D01*
X39150Y-24385D01*
X39178Y-24414D01*
X39207Y-24471D01*
X39207Y-24700D01*
X39550Y-24242D02*
X39550Y-23785D01*
X39492Y-23642D02*
X38892Y-23642D01*
X39492Y-23357D02*
X38892Y-23357D01*
X39492Y-23014D01*
X38892Y-23014D01*
G54D15*
X49933Y-34411D02*
X49800Y-34221D01*
X49704Y-34411D02*
X49704Y-34011D01*
X49857Y-34011D01*
X49895Y-34030D01*
X49914Y-34050D01*
X49933Y-34088D01*
X49933Y-34145D01*
X49914Y-34183D01*
X49895Y-34202D01*
X49857Y-34221D01*
X49704Y-34221D01*
X50314Y-34411D02*
X50085Y-34411D01*
X50200Y-34411D02*
X50200Y-34011D01*
X50161Y-34069D01*
X50123Y-34107D01*
X50085Y-34126D01*
X47433Y-40661D02*
X47300Y-40471D01*
X47204Y-40661D02*
X47204Y-40261D01*
X47357Y-40261D01*
X47395Y-40280D01*
X47414Y-40300D01*
X47433Y-40338D01*
X47433Y-40395D01*
X47414Y-40433D01*
X47395Y-40452D01*
X47357Y-40471D01*
X47204Y-40471D01*
X47661Y-40433D02*
X47623Y-40414D01*
X47604Y-40395D01*
X47585Y-40357D01*
X47585Y-40338D01*
X47604Y-40300D01*
X47623Y-40280D01*
X47661Y-40261D01*
X47738Y-40261D01*
X47776Y-40280D01*
X47795Y-40300D01*
X47814Y-40338D01*
X47814Y-40357D01*
X47795Y-40395D01*
X47776Y-40414D01*
X47738Y-40433D01*
X47661Y-40433D01*
X47623Y-40452D01*
X47604Y-40471D01*
X47585Y-40509D01*
X47585Y-40585D01*
X47604Y-40623D01*
X47623Y-40642D01*
X47661Y-40661D01*
X47738Y-40661D01*
X47776Y-40642D01*
X47795Y-40623D01*
X47814Y-40585D01*
X47814Y-40509D01*
X47795Y-40471D01*
X47776Y-40452D01*
X47738Y-40433D01*
X47433Y-42161D02*
X47300Y-41971D01*
X47204Y-42161D02*
X47204Y-41761D01*
X47357Y-41761D01*
X47395Y-41780D01*
X47414Y-41800D01*
X47433Y-41838D01*
X47433Y-41895D01*
X47414Y-41933D01*
X47395Y-41952D01*
X47357Y-41971D01*
X47204Y-41971D01*
X47776Y-41761D02*
X47700Y-41761D01*
X47661Y-41780D01*
X47642Y-41800D01*
X47604Y-41857D01*
X47585Y-41933D01*
X47585Y-42085D01*
X47604Y-42123D01*
X47623Y-42142D01*
X47661Y-42161D01*
X47738Y-42161D01*
X47776Y-42142D01*
X47795Y-42123D01*
X47814Y-42085D01*
X47814Y-41990D01*
X47795Y-41952D01*
X47776Y-41933D01*
X47738Y-41914D01*
X47661Y-41914D01*
X47623Y-41933D01*
X47604Y-41952D01*
X47585Y-41990D01*
X41242Y-34411D02*
X41109Y-34221D01*
X41014Y-34411D02*
X41014Y-34011D01*
X41166Y-34011D01*
X41204Y-34030D01*
X41223Y-34050D01*
X41242Y-34088D01*
X41242Y-34145D01*
X41223Y-34183D01*
X41204Y-34202D01*
X41166Y-34221D01*
X41014Y-34221D01*
X41623Y-34411D02*
X41395Y-34411D01*
X41509Y-34411D02*
X41509Y-34011D01*
X41471Y-34069D01*
X41433Y-34107D01*
X41395Y-34126D01*
X41871Y-34011D02*
X41909Y-34011D01*
X41947Y-34030D01*
X41966Y-34050D01*
X41985Y-34088D01*
X42004Y-34164D01*
X42004Y-34259D01*
X41985Y-34335D01*
X41966Y-34373D01*
X41947Y-34392D01*
X41909Y-34411D01*
X41871Y-34411D01*
X41833Y-34392D01*
X41814Y-34373D01*
X41795Y-34335D01*
X41776Y-34259D01*
X41776Y-34164D01*
X41795Y-34088D01*
X41814Y-34050D01*
X41833Y-34030D01*
X41871Y-34011D01*
X49433Y-42161D02*
X49300Y-41971D01*
X49204Y-42161D02*
X49204Y-41761D01*
X49357Y-41761D01*
X49395Y-41780D01*
X49414Y-41800D01*
X49433Y-41838D01*
X49433Y-41895D01*
X49414Y-41933D01*
X49395Y-41952D01*
X49357Y-41971D01*
X49204Y-41971D01*
X49776Y-41895D02*
X49776Y-42161D01*
X49680Y-41742D02*
X49585Y-42028D01*
X49833Y-42028D01*
X39933Y-49411D02*
X39800Y-49221D01*
X39704Y-49411D02*
X39704Y-49011D01*
X39857Y-49011D01*
X39895Y-49030D01*
X39914Y-49050D01*
X39933Y-49088D01*
X39933Y-49145D01*
X39914Y-49183D01*
X39895Y-49202D01*
X39857Y-49221D01*
X39704Y-49221D01*
X40066Y-49011D02*
X40333Y-49011D01*
X40161Y-49411D01*
X38433Y-49411D02*
X38300Y-49221D01*
X38204Y-49411D02*
X38204Y-49011D01*
X38357Y-49011D01*
X38395Y-49030D01*
X38414Y-49050D01*
X38433Y-49088D01*
X38433Y-49145D01*
X38414Y-49183D01*
X38395Y-49202D01*
X38357Y-49221D01*
X38204Y-49221D01*
X38623Y-49411D02*
X38700Y-49411D01*
X38738Y-49392D01*
X38757Y-49373D01*
X38795Y-49316D01*
X38814Y-49240D01*
X38814Y-49088D01*
X38795Y-49050D01*
X38776Y-49030D01*
X38738Y-49011D01*
X38661Y-49011D01*
X38623Y-49030D01*
X38604Y-49050D01*
X38585Y-49088D01*
X38585Y-49183D01*
X38604Y-49221D01*
X38623Y-49240D01*
X38661Y-49259D01*
X38738Y-49259D01*
X38776Y-49240D01*
X38795Y-49221D01*
X38814Y-49183D01*
X54933Y-49161D02*
X54800Y-48971D01*
X54704Y-49161D02*
X54704Y-48761D01*
X54857Y-48761D01*
X54895Y-48780D01*
X54914Y-48800D01*
X54933Y-48838D01*
X54933Y-48895D01*
X54914Y-48933D01*
X54895Y-48952D01*
X54857Y-48971D01*
X54704Y-48971D01*
X55295Y-48761D02*
X55104Y-48761D01*
X55085Y-48952D01*
X55104Y-48933D01*
X55142Y-48914D01*
X55238Y-48914D01*
X55276Y-48933D01*
X55295Y-48952D01*
X55314Y-48990D01*
X55314Y-49085D01*
X55295Y-49123D01*
X55276Y-49142D01*
X55238Y-49161D01*
X55142Y-49161D01*
X55104Y-49142D01*
X55085Y-49123D01*
X55433Y-43411D02*
X55300Y-43221D01*
X55204Y-43411D02*
X55204Y-43011D01*
X55357Y-43011D01*
X55395Y-43030D01*
X55414Y-43050D01*
X55433Y-43088D01*
X55433Y-43145D01*
X55414Y-43183D01*
X55395Y-43202D01*
X55357Y-43221D01*
X55204Y-43221D01*
X55566Y-43011D02*
X55814Y-43011D01*
X55680Y-43164D01*
X55738Y-43164D01*
X55776Y-43183D01*
X55795Y-43202D01*
X55814Y-43240D01*
X55814Y-43335D01*
X55795Y-43373D01*
X55776Y-43392D01*
X55738Y-43411D01*
X55623Y-43411D01*
X55585Y-43392D01*
X55566Y-43373D01*
X49433Y-40661D02*
X49300Y-40471D01*
X49204Y-40661D02*
X49204Y-40261D01*
X49357Y-40261D01*
X49395Y-40280D01*
X49414Y-40300D01*
X49433Y-40338D01*
X49433Y-40395D01*
X49414Y-40433D01*
X49395Y-40452D01*
X49357Y-40471D01*
X49204Y-40471D01*
X49585Y-40300D02*
X49604Y-40280D01*
X49642Y-40261D01*
X49738Y-40261D01*
X49776Y-40280D01*
X49795Y-40300D01*
X49814Y-40338D01*
X49814Y-40376D01*
X49795Y-40433D01*
X49566Y-40661D01*
X49814Y-40661D01*
X62742Y-45411D02*
X62609Y-45221D01*
X62514Y-45411D02*
X62514Y-45011D01*
X62666Y-45011D01*
X62704Y-45030D01*
X62723Y-45050D01*
X62742Y-45088D01*
X62742Y-45145D01*
X62723Y-45183D01*
X62704Y-45202D01*
X62666Y-45221D01*
X62514Y-45221D01*
X63123Y-45411D02*
X62895Y-45411D01*
X63009Y-45411D02*
X63009Y-45011D01*
X62971Y-45069D01*
X62933Y-45107D01*
X62895Y-45126D01*
X63257Y-45011D02*
X63504Y-45011D01*
X63371Y-45164D01*
X63428Y-45164D01*
X63466Y-45183D01*
X63485Y-45202D01*
X63504Y-45240D01*
X63504Y-45335D01*
X63485Y-45373D01*
X63466Y-45392D01*
X63428Y-45411D01*
X63314Y-45411D01*
X63276Y-45392D01*
X63257Y-45373D01*
X64242Y-45411D02*
X64109Y-45221D01*
X64014Y-45411D02*
X64014Y-45011D01*
X64166Y-45011D01*
X64204Y-45030D01*
X64223Y-45050D01*
X64242Y-45088D01*
X64242Y-45145D01*
X64223Y-45183D01*
X64204Y-45202D01*
X64166Y-45221D01*
X64014Y-45221D01*
X64623Y-45411D02*
X64395Y-45411D01*
X64509Y-45411D02*
X64509Y-45011D01*
X64471Y-45069D01*
X64433Y-45107D01*
X64395Y-45126D01*
X64966Y-45145D02*
X64966Y-45411D01*
X64871Y-44992D02*
X64776Y-45278D01*
X65023Y-45278D01*
X65242Y-37661D02*
X65109Y-37471D01*
X65014Y-37661D02*
X65014Y-37261D01*
X65166Y-37261D01*
X65204Y-37280D01*
X65223Y-37300D01*
X65242Y-37338D01*
X65242Y-37395D01*
X65223Y-37433D01*
X65204Y-37452D01*
X65166Y-37471D01*
X65014Y-37471D01*
X65623Y-37661D02*
X65395Y-37661D01*
X65509Y-37661D02*
X65509Y-37261D01*
X65471Y-37319D01*
X65433Y-37357D01*
X65395Y-37376D01*
X66004Y-37661D02*
X65776Y-37661D01*
X65890Y-37661D02*
X65890Y-37261D01*
X65852Y-37319D01*
X65814Y-37357D01*
X65776Y-37376D01*
X65242Y-39161D02*
X65109Y-38971D01*
X65014Y-39161D02*
X65014Y-38761D01*
X65166Y-38761D01*
X65204Y-38780D01*
X65223Y-38800D01*
X65242Y-38838D01*
X65242Y-38895D01*
X65223Y-38933D01*
X65204Y-38952D01*
X65166Y-38971D01*
X65014Y-38971D01*
X65623Y-39161D02*
X65395Y-39161D01*
X65509Y-39161D02*
X65509Y-38761D01*
X65471Y-38819D01*
X65433Y-38857D01*
X65395Y-38876D01*
X65776Y-38800D02*
X65795Y-38780D01*
X65833Y-38761D01*
X65928Y-38761D01*
X65966Y-38780D01*
X65985Y-38800D01*
X66004Y-38838D01*
X66004Y-38876D01*
X65985Y-38933D01*
X65757Y-39161D01*
X66004Y-39161D01*
X54373Y-35257D02*
X54392Y-35276D01*
X54411Y-35333D01*
X54411Y-35371D01*
X54392Y-35428D01*
X54354Y-35466D01*
X54316Y-35485D01*
X54240Y-35504D01*
X54183Y-35504D01*
X54107Y-35485D01*
X54069Y-35466D01*
X54030Y-35428D01*
X54011Y-35371D01*
X54011Y-35333D01*
X54030Y-35276D01*
X54050Y-35257D01*
X54411Y-34876D02*
X54411Y-35104D01*
X54411Y-34990D02*
X54011Y-34990D01*
X54069Y-35028D01*
X54107Y-35066D01*
X54126Y-35104D01*
X54011Y-34628D02*
X54011Y-34590D01*
X54030Y-34552D01*
X54050Y-34533D01*
X54088Y-34514D01*
X54164Y-34495D01*
X54259Y-34495D01*
X54335Y-34514D01*
X54373Y-34533D01*
X54392Y-34552D01*
X54411Y-34590D01*
X54411Y-34628D01*
X54392Y-34666D01*
X54373Y-34685D01*
X54335Y-34704D01*
X54259Y-34723D01*
X54164Y-34723D01*
X54088Y-34704D01*
X54050Y-34685D01*
X54030Y-34666D01*
X54011Y-34628D01*
X29933Y-28373D02*
X29914Y-28392D01*
X29857Y-28411D01*
X29819Y-28411D01*
X29761Y-28392D01*
X29723Y-28354D01*
X29704Y-28316D01*
X29685Y-28240D01*
X29685Y-28183D01*
X29704Y-28107D01*
X29723Y-28069D01*
X29761Y-28030D01*
X29819Y-28011D01*
X29857Y-28011D01*
X29914Y-28030D01*
X29933Y-28050D01*
X30314Y-28411D02*
X30085Y-28411D01*
X30200Y-28411D02*
X30200Y-28011D01*
X30161Y-28069D01*
X30123Y-28107D01*
X30085Y-28126D01*
X33933Y-28373D02*
X33914Y-28392D01*
X33857Y-28411D01*
X33819Y-28411D01*
X33761Y-28392D01*
X33723Y-28354D01*
X33704Y-28316D01*
X33685Y-28240D01*
X33685Y-28183D01*
X33704Y-28107D01*
X33723Y-28069D01*
X33761Y-28030D01*
X33819Y-28011D01*
X33857Y-28011D01*
X33914Y-28030D01*
X33933Y-28050D01*
X34085Y-28050D02*
X34104Y-28030D01*
X34142Y-28011D01*
X34238Y-28011D01*
X34276Y-28030D01*
X34295Y-28050D01*
X34314Y-28088D01*
X34314Y-28126D01*
X34295Y-28183D01*
X34066Y-28411D01*
X34314Y-28411D01*
X70138Y-32702D02*
X70195Y-32721D01*
X70214Y-32740D01*
X70233Y-32778D01*
X70233Y-32835D01*
X70214Y-32873D01*
X70195Y-32892D01*
X70157Y-32911D01*
X70004Y-32911D01*
X70004Y-32511D01*
X70138Y-32511D01*
X70176Y-32530D01*
X70195Y-32550D01*
X70214Y-32588D01*
X70214Y-32626D01*
X70195Y-32664D01*
X70176Y-32683D01*
X70138Y-32702D01*
X70004Y-32702D01*
X70633Y-32873D02*
X70614Y-32892D01*
X70557Y-32911D01*
X70519Y-32911D01*
X70461Y-32892D01*
X70423Y-32854D01*
X70404Y-32816D01*
X70385Y-32740D01*
X70385Y-32683D01*
X70404Y-32607D01*
X70423Y-32569D01*
X70461Y-32530D01*
X70519Y-32511D01*
X70557Y-32511D01*
X70614Y-32530D01*
X70633Y-32550D01*
X70823Y-32911D02*
X70900Y-32911D01*
X70938Y-32892D01*
X70957Y-32873D01*
X70995Y-32816D01*
X71014Y-32740D01*
X71014Y-32588D01*
X70995Y-32550D01*
X70976Y-32530D01*
X70938Y-32511D01*
X70861Y-32511D01*
X70823Y-32530D01*
X70804Y-32550D01*
X70785Y-32588D01*
X70785Y-32683D01*
X70804Y-32721D01*
X70823Y-32740D01*
X70861Y-32759D01*
X70938Y-32759D01*
X70976Y-32740D01*
X70995Y-32721D01*
X71014Y-32683D01*
X66138Y-29952D02*
X66195Y-29971D01*
X66214Y-29990D01*
X66233Y-30028D01*
X66233Y-30085D01*
X66214Y-30123D01*
X66195Y-30142D01*
X66157Y-30161D01*
X66004Y-30161D01*
X66004Y-29761D01*
X66138Y-29761D01*
X66176Y-29780D01*
X66195Y-29800D01*
X66214Y-29838D01*
X66214Y-29876D01*
X66195Y-29914D01*
X66176Y-29933D01*
X66138Y-29952D01*
X66004Y-29952D01*
X66633Y-30123D02*
X66614Y-30142D01*
X66557Y-30161D01*
X66519Y-30161D01*
X66461Y-30142D01*
X66423Y-30104D01*
X66404Y-30066D01*
X66385Y-29990D01*
X66385Y-29933D01*
X66404Y-29857D01*
X66423Y-29819D01*
X66461Y-29780D01*
X66519Y-29761D01*
X66557Y-29761D01*
X66614Y-29780D01*
X66633Y-29800D01*
X66861Y-29933D02*
X66823Y-29914D01*
X66804Y-29895D01*
X66785Y-29857D01*
X66785Y-29838D01*
X66804Y-29800D01*
X66823Y-29780D01*
X66861Y-29761D01*
X66938Y-29761D01*
X66976Y-29780D01*
X66995Y-29800D01*
X67014Y-29838D01*
X67014Y-29857D01*
X66995Y-29895D01*
X66976Y-29914D01*
X66938Y-29933D01*
X66861Y-29933D01*
X66823Y-29952D01*
X66804Y-29971D01*
X66785Y-30009D01*
X66785Y-30085D01*
X66804Y-30123D01*
X66823Y-30142D01*
X66861Y-30161D01*
X66938Y-30161D01*
X66976Y-30142D01*
X66995Y-30123D01*
X67014Y-30085D01*
X67014Y-30009D01*
X66995Y-29971D01*
X66976Y-29952D01*
X66938Y-29933D01*
X24373Y-33066D02*
X24392Y-33085D01*
X24411Y-33142D01*
X24411Y-33180D01*
X24392Y-33238D01*
X24354Y-33276D01*
X24316Y-33295D01*
X24240Y-33314D01*
X24183Y-33314D01*
X24107Y-33295D01*
X24069Y-33276D01*
X24030Y-33238D01*
X24011Y-33180D01*
X24011Y-33142D01*
X24030Y-33085D01*
X24050Y-33066D01*
X24011Y-32933D02*
X24011Y-32685D01*
X24164Y-32819D01*
X24164Y-32761D01*
X24183Y-32723D01*
X24202Y-32704D01*
X24240Y-32685D01*
X24335Y-32685D01*
X24373Y-32704D01*
X24392Y-32723D01*
X24411Y-32761D01*
X24411Y-32876D01*
X24392Y-32914D01*
X24373Y-32933D01*
X39373Y-33066D02*
X39392Y-33085D01*
X39411Y-33142D01*
X39411Y-33180D01*
X39392Y-33238D01*
X39354Y-33276D01*
X39316Y-33295D01*
X39240Y-33314D01*
X39183Y-33314D01*
X39107Y-33295D01*
X39069Y-33276D01*
X39030Y-33238D01*
X39011Y-33180D01*
X39011Y-33142D01*
X39030Y-33085D01*
X39050Y-33066D01*
X39145Y-32723D02*
X39411Y-32723D01*
X38992Y-32819D02*
X39278Y-32914D01*
X39278Y-32666D01*
X64242Y-49373D02*
X64223Y-49392D01*
X64166Y-49411D01*
X64128Y-49411D01*
X64071Y-49392D01*
X64033Y-49354D01*
X64014Y-49316D01*
X63995Y-49240D01*
X63995Y-49183D01*
X64014Y-49107D01*
X64033Y-49069D01*
X64071Y-49030D01*
X64128Y-49011D01*
X64166Y-49011D01*
X64223Y-49030D01*
X64242Y-49050D01*
X64623Y-49411D02*
X64395Y-49411D01*
X64509Y-49411D02*
X64509Y-49011D01*
X64471Y-49069D01*
X64433Y-49107D01*
X64395Y-49126D01*
X64757Y-49011D02*
X65004Y-49011D01*
X64871Y-49164D01*
X64928Y-49164D01*
X64966Y-49183D01*
X64985Y-49202D01*
X65004Y-49240D01*
X65004Y-49335D01*
X64985Y-49373D01*
X64966Y-49392D01*
X64928Y-49411D01*
X64814Y-49411D01*
X64776Y-49392D01*
X64757Y-49373D01*
X62742Y-49373D02*
X62723Y-49392D01*
X62666Y-49411D01*
X62628Y-49411D01*
X62571Y-49392D01*
X62533Y-49354D01*
X62514Y-49316D01*
X62495Y-49240D01*
X62495Y-49183D01*
X62514Y-49107D01*
X62533Y-49069D01*
X62571Y-49030D01*
X62628Y-49011D01*
X62666Y-49011D01*
X62723Y-49030D01*
X62742Y-49050D01*
X63123Y-49411D02*
X62895Y-49411D01*
X63009Y-49411D02*
X63009Y-49011D01*
X62971Y-49069D01*
X62933Y-49107D01*
X62895Y-49126D01*
X63276Y-49050D02*
X63295Y-49030D01*
X63333Y-49011D01*
X63428Y-49011D01*
X63466Y-49030D01*
X63485Y-49050D01*
X63504Y-49088D01*
X63504Y-49126D01*
X63485Y-49183D01*
X63257Y-49411D01*
X63504Y-49411D01*
X57197Y-45452D02*
X57254Y-45471D01*
X57273Y-45490D01*
X57292Y-45528D01*
X57292Y-45585D01*
X57273Y-45623D01*
X57254Y-45642D01*
X57216Y-45661D01*
X57064Y-45661D01*
X57064Y-45261D01*
X57197Y-45261D01*
X57235Y-45280D01*
X57254Y-45300D01*
X57273Y-45338D01*
X57273Y-45376D01*
X57254Y-45414D01*
X57235Y-45433D01*
X57197Y-45452D01*
X57064Y-45452D01*
X57692Y-45623D02*
X57673Y-45642D01*
X57616Y-45661D01*
X57578Y-45661D01*
X57521Y-45642D01*
X57483Y-45604D01*
X57464Y-45566D01*
X57445Y-45490D01*
X57445Y-45433D01*
X57464Y-45357D01*
X57483Y-45319D01*
X57521Y-45280D01*
X57578Y-45261D01*
X57616Y-45261D01*
X57673Y-45280D01*
X57692Y-45300D01*
X58073Y-45661D02*
X57845Y-45661D01*
X57959Y-45661D02*
X57959Y-45261D01*
X57921Y-45319D01*
X57883Y-45357D01*
X57845Y-45376D01*
X58321Y-45261D02*
X58359Y-45261D01*
X58397Y-45280D01*
X58416Y-45300D01*
X58435Y-45338D01*
X58454Y-45414D01*
X58454Y-45509D01*
X58435Y-45585D01*
X58416Y-45623D01*
X58397Y-45642D01*
X58359Y-45661D01*
X58321Y-45661D01*
X58283Y-45642D01*
X58264Y-45623D01*
X58245Y-45585D01*
X58226Y-45509D01*
X58226Y-45414D01*
X58245Y-45338D01*
X58264Y-45300D01*
X58283Y-45280D01*
X58321Y-45261D01*
X57702Y-34861D02*
X57721Y-34804D01*
X57740Y-34785D01*
X57778Y-34766D01*
X57835Y-34766D01*
X57873Y-34785D01*
X57892Y-34804D01*
X57911Y-34842D01*
X57911Y-34995D01*
X57511Y-34995D01*
X57511Y-34861D01*
X57530Y-34823D01*
X57550Y-34804D01*
X57588Y-34785D01*
X57626Y-34785D01*
X57664Y-34804D01*
X57683Y-34823D01*
X57702Y-34861D01*
X57702Y-34995D01*
X57873Y-34366D02*
X57892Y-34385D01*
X57911Y-34442D01*
X57911Y-34480D01*
X57892Y-34538D01*
X57854Y-34576D01*
X57816Y-34595D01*
X57740Y-34614D01*
X57683Y-34614D01*
X57607Y-34595D01*
X57569Y-34576D01*
X57530Y-34538D01*
X57511Y-34480D01*
X57511Y-34442D01*
X57530Y-34385D01*
X57550Y-34366D01*
X57511Y-34233D02*
X57511Y-33966D01*
X57911Y-34138D01*
X40638Y-29202D02*
X40695Y-29221D01*
X40714Y-29240D01*
X40733Y-29278D01*
X40733Y-29335D01*
X40714Y-29373D01*
X40695Y-29392D01*
X40657Y-29411D01*
X40504Y-29411D01*
X40504Y-29011D01*
X40638Y-29011D01*
X40676Y-29030D01*
X40695Y-29050D01*
X40714Y-29088D01*
X40714Y-29126D01*
X40695Y-29164D01*
X40676Y-29183D01*
X40638Y-29202D01*
X40504Y-29202D01*
X41133Y-29373D02*
X41114Y-29392D01*
X41057Y-29411D01*
X41019Y-29411D01*
X40961Y-29392D01*
X40923Y-29354D01*
X40904Y-29316D01*
X40885Y-29240D01*
X40885Y-29183D01*
X40904Y-29107D01*
X40923Y-29069D01*
X40961Y-29030D01*
X41019Y-29011D01*
X41057Y-29011D01*
X41114Y-29030D01*
X41133Y-29050D01*
X41476Y-29011D02*
X41400Y-29011D01*
X41361Y-29030D01*
X41342Y-29050D01*
X41304Y-29107D01*
X41285Y-29183D01*
X41285Y-29335D01*
X41304Y-29373D01*
X41323Y-29392D01*
X41361Y-29411D01*
X41438Y-29411D01*
X41476Y-29392D01*
X41495Y-29373D01*
X41514Y-29335D01*
X41514Y-29240D01*
X41495Y-29202D01*
X41476Y-29183D01*
X41438Y-29164D01*
X41361Y-29164D01*
X41323Y-29183D01*
X41304Y-29202D01*
X41285Y-29240D01*
X44888Y-48952D02*
X44945Y-48971D01*
X44964Y-48990D01*
X44983Y-49028D01*
X44983Y-49085D01*
X44964Y-49123D01*
X44945Y-49142D01*
X44907Y-49161D01*
X44754Y-49161D01*
X44754Y-48761D01*
X44888Y-48761D01*
X44926Y-48780D01*
X44945Y-48800D01*
X44964Y-48838D01*
X44964Y-48876D01*
X44945Y-48914D01*
X44926Y-48933D01*
X44888Y-48952D01*
X44754Y-48952D01*
X45383Y-49123D02*
X45364Y-49142D01*
X45307Y-49161D01*
X45269Y-49161D01*
X45211Y-49142D01*
X45173Y-49104D01*
X45154Y-49066D01*
X45135Y-48990D01*
X45135Y-48933D01*
X45154Y-48857D01*
X45173Y-48819D01*
X45211Y-48780D01*
X45269Y-48761D01*
X45307Y-48761D01*
X45364Y-48780D01*
X45383Y-48800D01*
X45726Y-48895D02*
X45726Y-49161D01*
X45630Y-48742D02*
X45535Y-49028D01*
X45783Y-49028D01*
X47638Y-32702D02*
X47695Y-32721D01*
X47714Y-32740D01*
X47733Y-32778D01*
X47733Y-32835D01*
X47714Y-32873D01*
X47695Y-32892D01*
X47657Y-32911D01*
X47504Y-32911D01*
X47504Y-32511D01*
X47638Y-32511D01*
X47676Y-32530D01*
X47695Y-32550D01*
X47714Y-32588D01*
X47714Y-32626D01*
X47695Y-32664D01*
X47676Y-32683D01*
X47638Y-32702D01*
X47504Y-32702D01*
X48133Y-32873D02*
X48114Y-32892D01*
X48057Y-32911D01*
X48019Y-32911D01*
X47961Y-32892D01*
X47923Y-32854D01*
X47904Y-32816D01*
X47885Y-32740D01*
X47885Y-32683D01*
X47904Y-32607D01*
X47923Y-32569D01*
X47961Y-32530D01*
X48019Y-32511D01*
X48057Y-32511D01*
X48114Y-32530D01*
X48133Y-32550D01*
X48495Y-32511D02*
X48304Y-32511D01*
X48285Y-32702D01*
X48304Y-32683D01*
X48342Y-32664D01*
X48438Y-32664D01*
X48476Y-32683D01*
X48495Y-32702D01*
X48514Y-32740D01*
X48514Y-32835D01*
X48495Y-32873D01*
X48476Y-32892D01*
X48438Y-32911D01*
X48342Y-32911D01*
X48304Y-32892D01*
X48285Y-32873D01*
X53933Y-43873D02*
X53914Y-43892D01*
X53857Y-43911D01*
X53819Y-43911D01*
X53761Y-43892D01*
X53723Y-43854D01*
X53704Y-43816D01*
X53685Y-43740D01*
X53685Y-43683D01*
X53704Y-43607D01*
X53723Y-43569D01*
X53761Y-43530D01*
X53819Y-43511D01*
X53857Y-43511D01*
X53914Y-43530D01*
X53933Y-43550D01*
X54123Y-43911D02*
X54200Y-43911D01*
X54238Y-43892D01*
X54257Y-43873D01*
X54295Y-43816D01*
X54314Y-43740D01*
X54314Y-43588D01*
X54295Y-43550D01*
X54276Y-43530D01*
X54238Y-43511D01*
X54161Y-43511D01*
X54123Y-43530D01*
X54104Y-43550D01*
X54085Y-43588D01*
X54085Y-43683D01*
X54104Y-43721D01*
X54123Y-43740D01*
X54161Y-43759D01*
X54238Y-43759D01*
X54276Y-43740D01*
X54295Y-43721D01*
X54314Y-43683D01*
X48638Y-29202D02*
X48695Y-29221D01*
X48714Y-29240D01*
X48733Y-29278D01*
X48733Y-29335D01*
X48714Y-29373D01*
X48695Y-29392D01*
X48657Y-29411D01*
X48504Y-29411D01*
X48504Y-29011D01*
X48638Y-29011D01*
X48676Y-29030D01*
X48695Y-29050D01*
X48714Y-29088D01*
X48714Y-29126D01*
X48695Y-29164D01*
X48676Y-29183D01*
X48638Y-29202D01*
X48504Y-29202D01*
X49133Y-29373D02*
X49114Y-29392D01*
X49057Y-29411D01*
X49019Y-29411D01*
X48961Y-29392D01*
X48923Y-29354D01*
X48904Y-29316D01*
X48885Y-29240D01*
X48885Y-29183D01*
X48904Y-29107D01*
X48923Y-29069D01*
X48961Y-29030D01*
X49019Y-29011D01*
X49057Y-29011D01*
X49114Y-29030D01*
X49133Y-29050D01*
X49285Y-29050D02*
X49304Y-29030D01*
X49342Y-29011D01*
X49438Y-29011D01*
X49476Y-29030D01*
X49495Y-29050D01*
X49514Y-29088D01*
X49514Y-29126D01*
X49495Y-29183D01*
X49266Y-29411D01*
X49514Y-29411D01*
X55952Y-33361D02*
X55971Y-33304D01*
X55990Y-33285D01*
X56028Y-33266D01*
X56085Y-33266D01*
X56123Y-33285D01*
X56142Y-33304D01*
X56161Y-33342D01*
X56161Y-33495D01*
X55761Y-33495D01*
X55761Y-33361D01*
X55780Y-33323D01*
X55800Y-33304D01*
X55838Y-33285D01*
X55876Y-33285D01*
X55914Y-33304D01*
X55933Y-33323D01*
X55952Y-33361D01*
X55952Y-33495D01*
X56123Y-32866D02*
X56142Y-32885D01*
X56161Y-32942D01*
X56161Y-32980D01*
X56142Y-33038D01*
X56104Y-33076D01*
X56066Y-33095D01*
X55990Y-33114D01*
X55933Y-33114D01*
X55857Y-33095D01*
X55819Y-33076D01*
X55780Y-33038D01*
X55761Y-32980D01*
X55761Y-32942D01*
X55780Y-32885D01*
X55800Y-32866D01*
X56161Y-32485D02*
X56161Y-32714D01*
X56161Y-32599D02*
X55761Y-32599D01*
X55819Y-32638D01*
X55857Y-32676D01*
X55876Y-32714D01*
X48138Y-39202D02*
X48195Y-39221D01*
X48214Y-39240D01*
X48233Y-39278D01*
X48233Y-39335D01*
X48214Y-39373D01*
X48195Y-39392D01*
X48157Y-39411D01*
X48004Y-39411D01*
X48004Y-39011D01*
X48138Y-39011D01*
X48176Y-39030D01*
X48195Y-39050D01*
X48214Y-39088D01*
X48214Y-39126D01*
X48195Y-39164D01*
X48176Y-39183D01*
X48138Y-39202D01*
X48004Y-39202D01*
X48633Y-39373D02*
X48614Y-39392D01*
X48557Y-39411D01*
X48519Y-39411D01*
X48461Y-39392D01*
X48423Y-39354D01*
X48404Y-39316D01*
X48385Y-39240D01*
X48385Y-39183D01*
X48404Y-39107D01*
X48423Y-39069D01*
X48461Y-39030D01*
X48519Y-39011D01*
X48557Y-39011D01*
X48614Y-39030D01*
X48633Y-39050D01*
X48766Y-39011D02*
X49014Y-39011D01*
X48880Y-39164D01*
X48938Y-39164D01*
X48976Y-39183D01*
X48995Y-39202D01*
X49014Y-39240D01*
X49014Y-39335D01*
X48995Y-39373D01*
X48976Y-39392D01*
X48938Y-39411D01*
X48823Y-39411D01*
X48785Y-39392D01*
X48766Y-39373D01*
X45873Y-35257D02*
X45892Y-35276D01*
X45911Y-35333D01*
X45911Y-35371D01*
X45892Y-35428D01*
X45854Y-35466D01*
X45816Y-35485D01*
X45740Y-35504D01*
X45683Y-35504D01*
X45607Y-35485D01*
X45569Y-35466D01*
X45530Y-35428D01*
X45511Y-35371D01*
X45511Y-35333D01*
X45530Y-35276D01*
X45550Y-35257D01*
X45911Y-34876D02*
X45911Y-35104D01*
X45911Y-34990D02*
X45511Y-34990D01*
X45569Y-35028D01*
X45607Y-35066D01*
X45626Y-35104D01*
X45911Y-34495D02*
X45911Y-34723D01*
X45911Y-34609D02*
X45511Y-34609D01*
X45569Y-34647D01*
X45607Y-34685D01*
X45626Y-34723D01*
G54D14*
X45057Y-28742D02*
X45057Y-28142D01*
X45285Y-28142D01*
X45342Y-28171D01*
X45371Y-28200D01*
X45400Y-28257D01*
X45400Y-28342D01*
X45371Y-28400D01*
X45342Y-28428D01*
X45285Y-28457D01*
X45057Y-28457D01*
X45628Y-28200D02*
X45657Y-28171D01*
X45714Y-28142D01*
X45857Y-28142D01*
X45914Y-28171D01*
X45942Y-28200D01*
X45971Y-28257D01*
X45971Y-28314D01*
X45942Y-28400D01*
X45600Y-28742D01*
X45971Y-28742D01*
X46742Y-26028D02*
X46457Y-26228D01*
X46742Y-26371D02*
X46142Y-26371D01*
X46142Y-26142D01*
X46171Y-26085D01*
X46200Y-26057D01*
X46257Y-26028D01*
X46342Y-26028D01*
X46400Y-26057D01*
X46428Y-26085D01*
X46457Y-26142D01*
X46457Y-26371D01*
X46428Y-25771D02*
X46428Y-25571D01*
X46742Y-25485D02*
X46742Y-25771D01*
X46142Y-25771D01*
X46142Y-25485D01*
X46428Y-25028D02*
X46428Y-25228D01*
X46742Y-25228D02*
X46142Y-25228D01*
X46142Y-24942D01*
X46800Y-24857D02*
X46800Y-24399D01*
X46742Y-24257D02*
X46142Y-24257D01*
X46742Y-23971D02*
X46142Y-23971D01*
X46742Y-23628D01*
X46142Y-23628D01*
G54D15*
X28183Y-33661D02*
X27992Y-33661D01*
X27992Y-33261D01*
X28526Y-33661D02*
X28297Y-33661D01*
X28411Y-33661D02*
X28411Y-33261D01*
X28373Y-33319D01*
X28335Y-33357D01*
X28297Y-33376D01*
X29342Y-32161D02*
X29114Y-32161D01*
X29228Y-32161D02*
X29228Y-31761D01*
X29190Y-31819D01*
X29152Y-31857D01*
X29114Y-31876D01*
X29590Y-31761D02*
X29628Y-31761D01*
X29666Y-31780D01*
X29685Y-31800D01*
X29704Y-31838D01*
X29723Y-31914D01*
X29723Y-32009D01*
X29704Y-32085D01*
X29685Y-32123D01*
X29666Y-32142D01*
X29628Y-32161D01*
X29590Y-32161D01*
X29552Y-32142D01*
X29533Y-32123D01*
X29514Y-32085D01*
X29495Y-32009D01*
X29495Y-31914D01*
X29514Y-31838D01*
X29533Y-31800D01*
X29552Y-31780D01*
X29590Y-31761D01*
X29971Y-31761D02*
X30009Y-31761D01*
X30047Y-31780D01*
X30066Y-31800D01*
X30085Y-31838D01*
X30104Y-31914D01*
X30104Y-32009D01*
X30085Y-32085D01*
X30066Y-32123D01*
X30047Y-32142D01*
X30009Y-32161D01*
X29971Y-32161D01*
X29933Y-32142D01*
X29914Y-32123D01*
X29895Y-32085D01*
X29876Y-32009D01*
X29876Y-31914D01*
X29895Y-31838D01*
X29914Y-31800D01*
X29933Y-31780D01*
X29971Y-31761D01*
X30447Y-31895D02*
X30447Y-32161D01*
X30276Y-31895D02*
X30276Y-32104D01*
X30295Y-32142D01*
X30333Y-32161D01*
X30390Y-32161D01*
X30428Y-32142D01*
X30447Y-32123D01*
X30638Y-32161D02*
X30638Y-31761D01*
X30638Y-31952D02*
X30866Y-31952D01*
X30866Y-32161D02*
X30866Y-31761D01*
X32183Y-33661D02*
X31992Y-33661D01*
X31992Y-33261D01*
X32297Y-33300D02*
X32316Y-33280D01*
X32354Y-33261D01*
X32450Y-33261D01*
X32488Y-33280D01*
X32507Y-33300D01*
X32526Y-33338D01*
X32526Y-33376D01*
X32507Y-33433D01*
X32278Y-33661D01*
X32526Y-33661D01*
X33342Y-32161D02*
X33114Y-32161D01*
X33228Y-32161D02*
X33228Y-31761D01*
X33190Y-31819D01*
X33152Y-31857D01*
X33114Y-31876D01*
X33590Y-31761D02*
X33628Y-31761D01*
X33666Y-31780D01*
X33685Y-31800D01*
X33704Y-31838D01*
X33723Y-31914D01*
X33723Y-32009D01*
X33704Y-32085D01*
X33685Y-32123D01*
X33666Y-32142D01*
X33628Y-32161D01*
X33590Y-32161D01*
X33552Y-32142D01*
X33533Y-32123D01*
X33514Y-32085D01*
X33495Y-32009D01*
X33495Y-31914D01*
X33514Y-31838D01*
X33533Y-31800D01*
X33552Y-31780D01*
X33590Y-31761D01*
X33971Y-31761D02*
X34009Y-31761D01*
X34047Y-31780D01*
X34066Y-31800D01*
X34085Y-31838D01*
X34104Y-31914D01*
X34104Y-32009D01*
X34085Y-32085D01*
X34066Y-32123D01*
X34047Y-32142D01*
X34009Y-32161D01*
X33971Y-32161D01*
X33933Y-32142D01*
X33914Y-32123D01*
X33895Y-32085D01*
X33876Y-32009D01*
X33876Y-31914D01*
X33895Y-31838D01*
X33914Y-31800D01*
X33933Y-31780D01*
X33971Y-31761D01*
X34447Y-31895D02*
X34447Y-32161D01*
X34276Y-31895D02*
X34276Y-32104D01*
X34295Y-32142D01*
X34333Y-32161D01*
X34390Y-32161D01*
X34428Y-32142D01*
X34447Y-32123D01*
X34638Y-32161D02*
X34638Y-31761D01*
X34638Y-31952D02*
X34866Y-31952D01*
X34866Y-32161D02*
X34866Y-31761D01*
G54D14*
X55057Y-28742D02*
X55057Y-28142D01*
X55285Y-28142D01*
X55342Y-28171D01*
X55371Y-28200D01*
X55400Y-28257D01*
X55400Y-28342D01*
X55371Y-28400D01*
X55342Y-28428D01*
X55285Y-28457D01*
X55057Y-28457D01*
X55600Y-28142D02*
X55971Y-28142D01*
X55771Y-28371D01*
X55857Y-28371D01*
X55914Y-28400D01*
X55942Y-28428D01*
X55971Y-28485D01*
X55971Y-28628D01*
X55942Y-28685D01*
X55914Y-28714D01*
X55857Y-28742D01*
X55685Y-28742D01*
X55628Y-28714D01*
X55600Y-28685D01*
X61742Y-25828D02*
X61142Y-25828D01*
X61571Y-25628D01*
X61142Y-25428D01*
X61742Y-25428D01*
X61142Y-25028D02*
X61142Y-24914D01*
X61171Y-24857D01*
X61228Y-24800D01*
X61342Y-24771D01*
X61542Y-24771D01*
X61657Y-24800D01*
X61714Y-24857D01*
X61742Y-24914D01*
X61742Y-25028D01*
X61714Y-25085D01*
X61657Y-25142D01*
X61542Y-25171D01*
X61342Y-25171D01*
X61228Y-25142D01*
X61171Y-25085D01*
X61142Y-25028D01*
X61742Y-24514D02*
X61142Y-24514D01*
X61742Y-24171D01*
X61142Y-24171D01*
X62557Y-28742D02*
X62557Y-28142D01*
X62785Y-28142D01*
X62842Y-28171D01*
X62871Y-28200D01*
X62900Y-28257D01*
X62900Y-28342D01*
X62871Y-28400D01*
X62842Y-28428D01*
X62785Y-28457D01*
X62557Y-28457D01*
X63414Y-28342D02*
X63414Y-28742D01*
X63271Y-28114D02*
X63128Y-28542D01*
X63500Y-28542D01*
X68642Y-26099D02*
X68642Y-25985D01*
X68671Y-25928D01*
X68728Y-25871D01*
X68842Y-25842D01*
X69042Y-25842D01*
X69157Y-25871D01*
X69214Y-25928D01*
X69242Y-25985D01*
X69242Y-26099D01*
X69214Y-26157D01*
X69157Y-26214D01*
X69042Y-26242D01*
X68842Y-26242D01*
X68728Y-26214D01*
X68671Y-26157D01*
X68642Y-26099D01*
X68642Y-25585D02*
X69128Y-25585D01*
X69185Y-25557D01*
X69214Y-25528D01*
X69242Y-25471D01*
X69242Y-25357D01*
X69214Y-25300D01*
X69185Y-25271D01*
X69128Y-25242D01*
X68642Y-25242D01*
X68642Y-25042D02*
X68642Y-24700D01*
X69242Y-24871D02*
X68642Y-24871D01*
G54D15*
X26954Y-44661D02*
X26954Y-44261D01*
X27050Y-44261D01*
X27107Y-44280D01*
X27145Y-44319D01*
X27164Y-44357D01*
X27183Y-44433D01*
X27183Y-44490D01*
X27164Y-44566D01*
X27145Y-44604D01*
X27107Y-44642D01*
X27050Y-44661D01*
X26954Y-44661D01*
X27316Y-44261D02*
X27564Y-44261D01*
X27430Y-44414D01*
X27488Y-44414D01*
X27526Y-44433D01*
X27545Y-44452D01*
X27564Y-44490D01*
X27564Y-44585D01*
X27545Y-44623D01*
X27526Y-44642D01*
X27488Y-44661D01*
X27373Y-44661D01*
X27335Y-44642D01*
X27316Y-44623D01*
X36454Y-44661D02*
X36454Y-44261D01*
X36550Y-44261D01*
X36607Y-44280D01*
X36645Y-44319D01*
X36664Y-44357D01*
X36683Y-44433D01*
X36683Y-44490D01*
X36664Y-44566D01*
X36645Y-44604D01*
X36607Y-44642D01*
X36550Y-44661D01*
X36454Y-44661D01*
X37026Y-44395D02*
X37026Y-44661D01*
X36930Y-44242D02*
X36835Y-44528D01*
X37083Y-44528D01*
X25911Y-41795D02*
X25511Y-41795D01*
X25511Y-41699D01*
X25530Y-41642D01*
X25569Y-41604D01*
X25607Y-41585D01*
X25683Y-41566D01*
X25740Y-41566D01*
X25816Y-41585D01*
X25854Y-41604D01*
X25892Y-41642D01*
X25911Y-41699D01*
X25911Y-41795D01*
X25911Y-41185D02*
X25911Y-41414D01*
X25911Y-41299D02*
X25511Y-41299D01*
X25569Y-41338D01*
X25607Y-41376D01*
X25626Y-41414D01*
X38411Y-41795D02*
X38011Y-41795D01*
X38011Y-41699D01*
X38030Y-41642D01*
X38069Y-41604D01*
X38107Y-41585D01*
X38183Y-41566D01*
X38240Y-41566D01*
X38316Y-41585D01*
X38354Y-41604D01*
X38392Y-41642D01*
X38411Y-41699D01*
X38411Y-41795D01*
X38050Y-41414D02*
X38030Y-41395D01*
X38011Y-41357D01*
X38011Y-41261D01*
X38030Y-41223D01*
X38050Y-41204D01*
X38088Y-41185D01*
X38126Y-41185D01*
X38183Y-41204D01*
X38411Y-41433D01*
X38411Y-41185D01*
X63242Y-36411D02*
X63109Y-36221D01*
X63014Y-36411D02*
X63014Y-36011D01*
X63166Y-36011D01*
X63204Y-36030D01*
X63223Y-36050D01*
X63242Y-36088D01*
X63242Y-36145D01*
X63223Y-36183D01*
X63204Y-36202D01*
X63166Y-36221D01*
X63014Y-36221D01*
X63623Y-36411D02*
X63395Y-36411D01*
X63509Y-36411D02*
X63509Y-36011D01*
X63471Y-36069D01*
X63433Y-36107D01*
X63395Y-36126D01*
X63985Y-36011D02*
X63795Y-36011D01*
X63776Y-36202D01*
X63795Y-36183D01*
X63833Y-36164D01*
X63928Y-36164D01*
X63966Y-36183D01*
X63985Y-36202D01*
X64004Y-36240D01*
X64004Y-36335D01*
X63985Y-36373D01*
X63966Y-36392D01*
X63928Y-36411D01*
X63833Y-36411D01*
X63795Y-36392D01*
X63776Y-36373D01*
X61742Y-36411D02*
X61609Y-36221D01*
X61514Y-36411D02*
X61514Y-36011D01*
X61666Y-36011D01*
X61704Y-36030D01*
X61723Y-36050D01*
X61742Y-36088D01*
X61742Y-36145D01*
X61723Y-36183D01*
X61704Y-36202D01*
X61666Y-36221D01*
X61514Y-36221D01*
X62123Y-36411D02*
X61895Y-36411D01*
X62009Y-36411D02*
X62009Y-36011D01*
X61971Y-36069D01*
X61933Y-36107D01*
X61895Y-36126D01*
X62466Y-36011D02*
X62390Y-36011D01*
X62352Y-36030D01*
X62333Y-36050D01*
X62295Y-36107D01*
X62276Y-36183D01*
X62276Y-36335D01*
X62295Y-36373D01*
X62314Y-36392D01*
X62352Y-36411D01*
X62428Y-36411D01*
X62466Y-36392D01*
X62485Y-36373D01*
X62504Y-36335D01*
X62504Y-36240D01*
X62485Y-36202D01*
X62466Y-36183D01*
X62428Y-36164D01*
X62352Y-36164D01*
X62314Y-36183D01*
X62295Y-36202D01*
X62276Y-36240D01*
%LPC*%
G54D17*
X51500Y-44000D03*
G54D18*
X50500Y-44000D03*
X49500Y-44000D03*
X48500Y-44000D03*
X47500Y-44000D03*
X46500Y-44000D03*
X45500Y-44000D03*
X45500Y-47000D03*
X46500Y-47000D03*
X47500Y-47000D03*
X48500Y-47000D03*
X49500Y-47000D03*
X50500Y-47000D03*
X51500Y-47000D03*
G54D17*
X58000Y-37000D03*
G54D18*
X58000Y-38000D03*
X58000Y-39000D03*
X58000Y-40000D03*
X58000Y-41000D03*
X58000Y-42000D03*
X58000Y-43000D03*
X61000Y-43000D03*
X61000Y-42000D03*
X61000Y-41000D03*
X61000Y-40000D03*
X61000Y-39000D03*
X61000Y-38000D03*
X61000Y-37000D03*
G54D17*
X65500Y-35500D03*
G54D18*
X66500Y-35500D03*
X67500Y-35500D03*
X68500Y-35500D03*
X68500Y-32500D03*
X67500Y-32500D03*
X66500Y-32500D03*
X65500Y-32500D03*
G54D17*
X54000Y-30000D03*
G54D18*
X53000Y-30000D03*
X52000Y-30000D03*
X51000Y-30000D03*
X51000Y-33000D03*
X52000Y-33000D03*
X53000Y-33000D03*
X54000Y-33000D03*
G54D17*
X46000Y-30000D03*
G54D18*
X45000Y-30000D03*
X44000Y-30000D03*
X43000Y-30000D03*
X43000Y-33000D03*
X44000Y-33000D03*
X45000Y-33000D03*
X46000Y-33000D03*
G54D19*
X37500Y-29000D03*
G54D20*
X37500Y-30000D03*
X37500Y-31000D03*
G54D19*
X26500Y-31000D03*
G54D20*
X26500Y-30000D03*
X26500Y-29000D03*
G54D19*
X30500Y-47000D03*
G54D20*
X29500Y-47000D03*
X28500Y-47000D03*
G54D19*
X35500Y-47000D03*
G54D20*
X34500Y-47000D03*
X33500Y-47000D03*
G54D21*
X45000Y-37000D03*
G54D22*
X46000Y-37000D03*
G54D21*
X44000Y-37000D03*
G54D22*
X46000Y-38000D03*
G54D21*
X45000Y-38000D03*
X44000Y-38000D03*
X53500Y-37000D03*
G54D22*
X54500Y-37000D03*
G54D21*
X52500Y-37000D03*
G54D22*
X54500Y-38000D03*
G54D21*
X53500Y-38000D03*
X52500Y-38000D03*
X68000Y-43500D03*
G54D22*
X69000Y-43500D03*
G54D21*
X67000Y-43500D03*
G54D22*
X69000Y-44500D03*
G54D21*
X68000Y-44500D03*
X67000Y-44500D03*
X59000Y-48500D03*
G54D22*
X58000Y-48500D03*
G54D21*
X60000Y-48500D03*
G54D22*
X58000Y-47500D03*
G54D21*
X59000Y-47500D03*
X60000Y-47500D03*
G54D23*
X39000Y-37500D03*
G54D24*
X39000Y-36500D03*
X39000Y-35500D03*
G54D23*
X25000Y-35500D03*
G54D24*
X25000Y-36500D03*
X25000Y-37500D03*
G54D23*
X58000Y-31000D03*
G54D24*
X58000Y-30000D03*
X59000Y-31000D03*
X59000Y-30000D03*
X60000Y-31000D03*
X60000Y-30000D03*
G54D23*
X67000Y-41000D03*
G54D24*
X68000Y-41000D03*
G54D23*
X70000Y-30500D03*
G54D24*
X69000Y-30500D03*
X68000Y-30500D03*
G54D23*
X34500Y-38000D03*
G54D24*
X34500Y-36000D03*
G54D23*
X29500Y-36000D03*
G54D24*
X29500Y-38000D03*
G54D25*
X33750Y-41500D03*
G54D26*
X35250Y-41500D03*
G54D25*
X28750Y-41500D03*
G54D26*
X30250Y-41500D03*
G54D23*
X42000Y-45500D03*
G54D24*
X42000Y-46500D03*
X42000Y-47500D03*
G54D23*
X66500Y-48000D03*
G54D24*
X66500Y-47000D03*
G54D23*
X64000Y-39000D03*
G54D24*
X64000Y-38000D03*
G54D23*
X56000Y-41500D03*
G54D24*
X56000Y-40500D03*
G54D23*
X41000Y-41500D03*
G54D24*
X41000Y-40500D03*
G54D27*
X48500Y-24900D03*
X52500Y-24900D03*
G54D28*
X50500Y-26900D03*
X49500Y-26900D03*
G54D29*
X37420Y-25750D03*
X27580Y-25750D03*
G54D17*
X34680Y-26310D03*
G54D18*
X33590Y-26310D03*
X32500Y-26310D03*
X31410Y-26310D03*
X30320Y-26310D03*
X30860Y-25190D03*
X31950Y-25190D03*
X33050Y-25190D03*
X34140Y-25190D03*
X50000Y-39000D03*
X50000Y-35000D03*
X46500Y-40500D03*
X42500Y-40500D03*
X46500Y-42000D03*
X42500Y-42000D03*
X41500Y-35000D03*
X41500Y-39000D03*
X50500Y-42000D03*
X54500Y-42000D03*
X40000Y-44500D03*
X40000Y-48500D03*
X38500Y-48500D03*
X38500Y-44500D03*
X54000Y-49000D03*
X50000Y-49000D03*
X55500Y-48000D03*
X55500Y-44000D03*
X54500Y-40500D03*
X50500Y-40500D03*
X63000Y-40500D03*
X63000Y-44500D03*
X64500Y-40500D03*
X64500Y-44500D03*
X70500Y-37500D03*
X66500Y-37500D03*
X70500Y-39000D03*
X66500Y-39000D03*
G54D26*
X53500Y-35000D03*
X51500Y-35000D03*
X29000Y-29000D03*
X31000Y-29000D03*
X35000Y-29000D03*
X33000Y-29000D03*
X70500Y-35500D03*
X70500Y-33500D03*
X65500Y-30000D03*
X63500Y-30000D03*
X27000Y-33000D03*
X25000Y-33000D03*
X36500Y-33000D03*
X38500Y-33000D03*
X64500Y-48500D03*
X64500Y-46500D03*
X63000Y-48500D03*
X63000Y-46500D03*
X61000Y-45500D03*
X59000Y-45500D03*
X60500Y-34500D03*
X58500Y-34500D03*
X41000Y-30000D03*
X41000Y-32000D03*
X46500Y-49000D03*
X48500Y-49000D03*
X48000Y-32000D03*
X48000Y-30000D03*
X54000Y-46500D03*
X54000Y-44500D03*
X49000Y-30000D03*
X49000Y-32000D03*
X56000Y-32000D03*
X56000Y-30000D03*
X48500Y-42000D03*
X48500Y-40000D03*
X45000Y-35000D03*
X43000Y-35000D03*
G54D27*
X41000Y-24900D03*
X45000Y-24900D03*
G54D28*
X43000Y-26900D03*
X42000Y-26900D03*
G54D24*
X30000Y-31000D03*
X30000Y-33000D03*
X34000Y-31000D03*
X34000Y-33000D03*
G54D30*
X70000Y-23500D03*
X70000Y-48500D03*
X25000Y-48500D03*
X25000Y-23500D03*
G54D27*
X56000Y-24900D03*
X60000Y-24900D03*
G54D28*
X58000Y-26900D03*
X57000Y-26900D03*
G54D27*
X63500Y-24900D03*
X67500Y-24900D03*
G54D28*
X65500Y-26900D03*
X64500Y-26900D03*
G54D25*
X28000Y-44500D03*
G54D26*
X31000Y-44500D03*
G54D25*
X33000Y-44500D03*
G54D26*
X36000Y-44500D03*
G54D25*
X26500Y-40000D03*
G54D26*
X26500Y-43000D03*
G54D25*
X37500Y-43000D03*
G54D26*
X37500Y-40000D03*
G54D18*
X63500Y-35500D03*
X63500Y-31500D03*
X62000Y-35500D03*
X62000Y-31500D03*
M02*
